<svg width="65" height="38" viewBox="0 0 65 38" fill="none" xmlns="http://www.w3.org/2000/svg">
<path d="M25.9988 8.87413e-05C40.3577 8.87413e-05 51.9979 8.00181 51.9979 17.8729C51.9979 22.6595 49.2555 27.0031 44.7981 30.2114C44.9243 30.9295 45.1024 31.6398 45.3905 32.3305C46.3178 34.5521 48.1044 36.3903 50.0764 37.9385C46.959 38.0917 43.7854 38.0007 40.7952 37.1786C38.8338 36.6391 36.9564 35.7518 35.4125 34.5326C32.4925 35.3128 29.3201 35.7458 25.9988 35.7458C11.6402 35.7458 0 27.7436 0 17.8729C0 8.00172 11.6402 0 25.9988 0V8.87413e-05Z" fill="white"/>
<path d="M26.0027 1.44531C39.2714 1.44531 50.2633 8.8395 50.2633 17.9612C50.2633 22.3844 46.9282 26.5865 42.8094 29.5514C43.1637 31.5669 44.7893 35.3591 46.3438 36.5793C42.9779 36.5793 39.6967 35.3275 35.5892 32.7576C35.2511 33.0957 28.8776 34.1944 26.0027 34.1944C12.7343 34.1944 1.69531 27.0825 1.69531 17.9612C1.69531 8.83959 12.7343 1.44531 26.0027 1.44531Z" fill="black"/>
<path fill-rule="evenodd" clip-rule="evenodd" d="M19.0646 23.7993C18.0708 23.7993 17.2438 23.5042 16.5838 22.914C15.9236 22.3238 15.5938 21.5239 15.5938 20.5142C15.5938 19.5363 15.9431 18.6979 16.6419 17.9991C17.3411 17.3004 18.4283 16.8577 19.9034 16.6712L21.4875 16.4618C21.7514 16.4309 21.9724 16.3218 22.151 16.1353C22.33 15.9487 22.4195 15.6848 22.4195 15.3433C22.4195 14.6445 22.2019 14.0972 21.7674 13.7012C21.3326 13.3052 20.7813 13.1072 20.1138 13.1072C19.3058 13.1072 18.6648 13.383 18.1908 13.9344C17.905 14.2669 17.7028 14.6657 17.5839 15.0917C17.4246 15.8721 16.0313 16.0535 15.9082 15.0917C15.9233 14.3621 16.1026 13.9344 16.4677 13.3518C16.8325 12.7693 17.3332 12.3112 17.9699 11.9773C18.607 11.6437 19.3372 11.4766 20.1604 11.4766C21.4023 11.4766 22.3728 11.8495 23.0715 12.5951C23.7703 13.3402 24.1196 14.3261 24.1196 15.5527V21.3995C24.1196 21.9124 24.3063 22.1686 24.6794 22.1686C24.8341 22.1686 24.9852 22.1263 25.1326 22.0411C25.2803 21.9554 25.4553 21.8038 25.6571 21.5861L26.4025 22.8207C26.1383 23.1622 25.8161 23.4108 25.4353 23.5661C25.055 23.7214 24.6866 23.7993 24.33 23.7993C23.786 23.7993 23.3509 23.6479 23.025 23.3452C22.6986 23.042 22.4892 22.6574 22.3966 22.1915L22.3262 21.9353H22.3034C21.6046 23.1781 20.5251 23.7993 19.0647 23.7993H19.0646ZM19.5074 22.1915C20.3303 22.1915 21.006 21.8657 21.5341 21.2138C22.062 20.5615 22.3262 19.715 22.3262 18.674V17.9058L20.2062 18.1619C19.2593 18.3016 18.5488 18.5693 18.0747 18.9654C17.6011 19.3614 17.3646 19.839 17.3646 20.398C17.3646 20.9572 17.5664 21.3961 17.97 21.7145C18.374 22.0324 18.8867 22.1914 19.5074 22.1914V22.1915Z" fill="white"/>
<path fill-rule="evenodd" clip-rule="evenodd" d="M28.6422 28.7807C27.602 28.7807 26.6702 28.5204 25.8473 28.0001C25.4574 27.7539 25.0972 27.4776 24.8187 27.1279C23.9082 25.9844 25.7186 25.0717 26.7441 26.5218C27.1494 27.095 27.9362 27.1739 28.6661 27.1739C29.5507 27.1739 30.2571 26.8593 30.7852 26.2305C31.3131 25.6015 31.5773 24.72 31.5773 23.586V22.6083H31.5545C31.2904 23.1517 30.91 23.5783 30.4131 23.8887C29.9162 24.1994 29.3726 24.3551 28.7824 24.3551C27.7261 24.3551 26.8994 24.0174 26.3015 23.3422C25.7037 22.6664 25.4047 21.7151 25.4047 20.4884C25.4047 17.5923 25.4047 15.2652 25.4047 12.369C25.4715 11.0806 27.2567 11.2257 27.1755 12.369V20.4884C27.1755 21.1871 27.3538 21.7387 27.7105 22.1429C28.0677 22.5465 28.557 22.7483 29.1784 22.7483C29.9241 22.7483 30.5064 22.5231 30.9253 22.0724C31.3446 21.6219 31.5545 20.9929 31.5545 20.1857C31.5545 17.3905 31.5545 15.1642 31.5545 12.369C31.5822 11.1531 33.348 11.0806 33.3252 12.369L33.348 23.586C33.348 25.2169 32.9325 26.4903 32.1019 27.4061C31.271 28.3224 30.118 28.7807 28.6424 28.7807H28.6422Z" fill="white"/>
<path fill-rule="evenodd" clip-rule="evenodd" d="M11.6528 23.8925C10.7983 23.8925 10.0375 23.7138 9.36991 23.3565C8.70211 22.9994 8.17807 22.5024 7.79718 21.8659C7.41691 21.2288 7.21883 20.4989 7.20312 19.6764C7.20312 18.6458 8.76379 18.4318 8.94527 19.6877C9.01352 20.4711 9.27531 21.0809 9.73066 21.5165C10.2669 22.0287 10.9387 22.2847 11.746 22.2847C12.4135 22.2847 12.9726 22.1333 13.4233 21.8306C13.8739 21.5279 14.0992 21.1048 14.0992 20.5607C14.0833 20.1571 13.924 19.8001 13.6213 19.4898C13.3186 19.179 12.8333 18.8994 12.1657 18.6512L10.6044 18.0686C9.64147 17.7114 8.94279 17.2728 8.5082 16.7531C8.07344 16.2329 7.85611 15.5841 7.85611 14.8074C7.85611 14.1558 8.01132 13.5812 8.32166 13.0844C8.632 12.587 9.05114 12.1947 9.57926 11.9078C10.1071 11.6202 10.7054 11.4766 11.3737 11.4766C12.0725 11.4766 12.7012 11.628 13.2606 11.9307C13.8196 12.2334 14.266 12.6529 14.6 13.1891C14.9337 13.7248 15.1008 14.3576 15.1008 15.0872C15.0626 16.0507 13.4455 16.0161 13.3529 15.0924C13.3378 14.2543 13.1397 14.0587 12.7589 13.6783C12.3786 13.2975 11.909 13.1072 11.35 13.1072C10.8219 13.1072 10.3985 13.2509 10.08 13.5384C9.76208 13.8254 9.59506 14.2017 9.57935 14.6674C9.57935 15.087 9.73075 15.4524 10.0335 15.7631C10.3366 16.0735 10.8222 16.3682 11.4899 16.6475L12.9808 17.2072C13.9593 17.5951 14.6736 18.0454 15.1237 18.558C15.5742 19.0702 15.8072 19.6915 15.8224 20.422C15.8224 21.0897 15.6437 21.6838 15.2864 22.204C14.9297 22.7237 14.4368 23.1354 13.808 23.4386C13.179 23.7414 12.4605 23.8927 11.6528 23.8927V23.8925Z" fill="white"/>
<path d="M49.2008 30.3037C47.757 28.7334 46.875 26.6378 46.875 24.3362C46.875 19.4647 50.8242 15.5156 55.6959 15.5156C60.5675 15.5156 64.5166 19.4647 64.5166 24.3362C64.5166 29.2076 60.5675 33.1566 55.6959 33.1566C54.1623 33.1566 52.7203 32.7648 51.4639 32.0765C48.8678 33.7578 46.875 32.9738 46.875 32.9738C48.357 32.089 48.9703 30.9103 49.2008 30.3036V30.3037Z" fill="white"/>
<path d="M55.9204 27.4082L55.5917 26.5442H52.793L52.4645 27.4257C52.3362 27.7703 52.2273 28.0028 52.1359 28.123C52.0461 28.2432 51.897 28.3041 51.6903 28.3041C51.5155 28.3041 51.36 28.24 51.2254 28.1118C51.0908 27.9836 51.0234 27.8377 51.0234 27.6758C51.0234 27.5813 51.0395 27.4835 51.0699 27.3841C51.102 27.2831 51.1534 27.1453 51.2254 26.9658L52.9854 22.497C53.0367 22.3687 53.096 22.2149 53.1665 22.0353C53.2371 21.8542 53.3124 21.7051 53.3926 21.5866C53.4727 21.4679 53.5769 21.3717 53.7068 21.2981C53.8366 21.2243 53.9969 21.1875 54.1877 21.1875C54.3832 21.1875 54.5452 21.2244 54.675 21.2981C54.8048 21.3718 54.909 21.4664 54.9892 21.5818C55.0693 21.6972 55.1367 21.8222 55.1912 21.9552C55.2456 22.0882 55.3162 22.2662 55.3995 22.4874L57.198 26.929C57.3391 27.2672 57.4096 27.5124 57.4096 27.6662C57.4096 27.8249 57.3439 27.9724 57.2108 28.1054C57.0777 28.2384 56.9159 28.3042 56.7283 28.3042C56.6193 28.3042 56.5247 28.2849 56.4462 28.2449C56.3692 28.2064 56.3035 28.1535 56.249 28.0863C56.1961 28.0189 56.14 27.9147 56.0791 27.7769C56.0166 27.6375 55.9654 27.514 55.9205 27.4083L55.9204 27.4082ZM53.1601 25.496H55.2166L54.1796 22.6589L53.1601 25.496Z" fill="black"/>
<path d="M58.4844 27.4547V22.0321C58.4844 21.75 58.5484 21.5401 58.6767 21.3991C58.8049 21.258 58.9716 21.1875 59.1752 21.1875C59.3835 21.1875 59.5535 21.2565 59.6833 21.3959C59.8131 21.5353 59.8788 21.7468 59.8788 22.0321V27.4547C59.8788 27.74 59.8131 27.9515 59.6833 28.0926C59.5535 28.2336 59.3835 28.3041 59.1752 28.3041C58.9748 28.3041 58.8097 28.2336 58.6799 28.0909C58.55 27.9483 58.4844 27.7366 58.4844 27.4546V27.4547Z" fill="black"/>
<path fill-rule="evenodd" clip-rule="evenodd" d="M38.1678 28.786C37.1248 28.786 36.1907 28.525 35.3656 28.0034C34.6383 27.5441 34.0744 26.9303 33.6738 26.1623C33.6199 26.0589 33.4294 25.6137 32.9531 25.5521L33.2699 23.5779C34.477 23.7888 35.1355 25.0678 35.2178 25.2269C35.4909 25.7548 35.8397 26.1863 36.2648 26.5212C36.8176 26.9569 37.4599 27.175 38.1917 27.175C39.0786 27.175 39.7868 26.8596 40.3163 26.2292C40.8455 25.5986 41.1104 24.7149 41.1104 23.5779V22.5978H41.0874C40.8226 23.1425 40.4413 23.5702 39.9431 23.8814C39.4449 24.193 38.8999 24.349 38.3082 24.349C37.2493 24.349 36.4204 24.0105 35.821 23.3335C35.2216 22.656 34.9219 21.7023 34.9219 20.4723C34.9219 17.7926 34.9219 15.1599 34.9219 12.4802C34.9126 11.0954 36.8631 11.1215 36.6972 12.4802V20.4723C36.6972 21.1729 36.8759 21.7259 37.2335 22.131C37.5917 22.5357 38.0823 22.738 38.7053 22.738C39.4528 22.738 40.0367 22.5123 40.4566 22.0605C40.877 21.6088 41.0874 20.9782 41.0874 20.1689C41.0874 17.5903 41.0874 15.0589 41.0874 12.4802C41.078 11.0953 42.8855 11.0431 42.8626 12.4802L42.8856 23.5779C42.8856 25.213 42.4689 26.4897 41.6363 27.4078C40.8033 28.3264 39.6473 28.7859 38.1679 28.7859L38.1678 28.786Z" fill="white"/>
</svg>
