<svg width="36" height="38" viewBox="0 0 36 38" fill="none" xmlns="http://www.w3.org/2000/svg">
<path d="M10.565 20.85C9.64837 21.6167 8.99837 22.4417 8.61504 23.325C8.23171 24.1917 8.04004 25.1167 8.04004 26.1C8.04004 26.9 8.15671 27.625 8.39004 28.275C8.64004 28.925 8.99004 29.4833 9.44004 29.95C9.89004 30.4167 10.4234 30.7833 11.04 31.05C11.6734 31.3 12.3734 31.425 13.14 31.425C14.2567 31.425 15.2984 31.2833 16.265 31C17.2317 30.7 18.1317 30.2833 18.965 29.75L10.565 20.85ZM35.49 37H27.84C27.4567 37 27.115 36.9833 26.815 36.95C26.515 36.9 26.2317 36.825 25.965 36.725C25.715 36.625 25.4734 36.4833 25.24 36.3C25.0067 36.1167 24.7567 35.8833 24.49 35.6L22.915 33.95C21.3317 35.05 19.5984 35.9 17.715 36.5C15.8484 37.1 13.8567 37.4 11.74 37.4C10.29 37.4 8.86504 37.15 7.46504 36.65C6.08171 36.15 4.84837 35.4417 3.76504 34.525C2.68171 33.5917 1.80671 32.4667 1.14004 31.15C0.473373 29.8333 0.140039 28.3583 0.140039 26.725C0.140039 25.625 0.306706 24.5833 0.640039 23.6C0.990039 22.6167 1.47337 21.7083 2.09004 20.875C2.72337 20.025 3.46504 19.2583 4.31504 18.575C5.16504 17.875 6.10671 17.2667 7.14004 16.75C6.34004 15.5333 5.76504 14.3417 5.41504 13.175C5.06504 12.0083 4.89004 10.875 4.89004 9.775C4.89004 8.475 5.12337 7.25 5.59004 6.1C6.07337 4.93333 6.76504 3.91666 7.66504 3.05C8.58171 2.16667 9.69837 1.46667 11.015 0.949999C12.3484 0.433332 13.8734 0.174999 15.59 0.174999C17.2067 0.174999 18.6317 0.416665 19.865 0.899997C21.0984 1.36667 22.14 1.99167 22.99 2.775C23.84 3.54166 24.5067 4.43333 24.99 5.45C25.4734 6.46666 25.7734 7.50833 25.89 8.575L20.89 9.575C20.0067 9.775 19.3567 9.425 18.94 8.525C18.5567 7.65833 18.1067 7 17.59 6.55C17.09 6.1 16.4234 5.875 15.59 5.875C15.0067 5.875 14.4984 5.98333 14.065 6.2C13.6317 6.41666 13.265 6.7 12.965 7.05C12.6817 7.4 12.465 7.80833 12.315 8.275C12.165 8.74167 12.09 9.225 12.09 9.725C12.09 10.1583 12.1234 10.575 12.19 10.975C12.2734 11.3583 12.4067 11.7583 12.59 12.175C12.7734 12.575 13.015 12.9917 13.315 13.425C13.6317 13.8583 14.0234 14.3333 14.49 14.85L23.49 24.325C23.94 23.3417 24.3067 22.3083 24.59 21.225C24.8734 20.125 25.0567 19 25.14 17.85C25.19 17.3833 25.3484 17.0167 25.615 16.75C25.8817 16.4833 26.24 16.35 26.69 16.35H31.59C31.59 18.7667 31.265 21.0333 30.615 23.15C29.965 25.2667 29.0484 27.2 27.865 28.95L35.49 37Z" fill="#212121"/>
</svg>
