<svg width="72" height="61" viewBox="0 0 72 61" fill="none" xmlns="http://www.w3.org/2000/svg">
<g clip-path="url(#clip0_3989_353)">
<path d="M32.5041 1.31609L6.01776 12.3268C4.54489 12.939 4.56016 15.0408 6.04247 15.6313L32.6393 26.2275C34.9761 27.1587 37.5787 27.1587 39.9156 26.2275L66.5129 15.631C67.9947 15.041 68.0102 12.9393 66.5368 12.3268L40.0511 1.31581C37.6347 0.311395 34.9204 0.311674 32.5041 1.31609Z" fill="#FFBF00"/>
<path d="M38.637 32.0136V58.4845C38.637 59.7435 39.9002 60.6057 41.0652 60.1419L70.7024 48.5845C71.0329 48.4528 71.3164 48.2245 71.5162 47.929C71.7159 47.6335 71.8227 47.2845 71.8227 46.9274V20.4562C71.8227 19.1971 70.5592 18.3352 69.3942 18.7991L39.757 30.3562C39.4264 30.4879 39.1429 30.7163 38.9431 31.0118C38.7434 31.3073 38.6366 31.6564 38.6367 32.0136" fill="#26B5F8"/>
<path d="M31.7164 33.377L22.9209 37.6435L22.0277 38.0772L3.46045 47.0149C2.28354 47.5853 0.78125 46.7237 0.78125 45.4102V20.5647C0.78125 20.0894 1.0239 19.6791 1.3493 19.37C1.48269 19.2369 1.63387 19.123 1.79851 19.0317C2.24218 18.7642 2.87519 18.6928 3.41325 18.9067L31.5684 30.1141C32.9996 30.6845 33.1121 32.6995 31.7164 33.377Z" fill="#ED3049"/>
<path d="M31.715 33.3767L22.9195 37.6432L1.34766 19.37C1.48105 19.2369 1.63224 19.123 1.79687 19.0317C2.24054 18.7642 2.87355 18.6928 3.41161 18.9067L31.5668 30.1141C32.998 30.6845 33.1107 32.6992 31.715 33.3767Z" fill="black" fill-opacity="0.25"/>
</g>
<defs>
<clipPath id="clip0_3989_353">
<rect x="0.78125" y="0.5625" width="71.0751" height="59.9696" rx="20" fill="white"/>
</clipPath>
</defs>
</svg>
