<svg width="85" height="11" viewBox="0 0 85 11" fill="none" xmlns="http://www.w3.org/2000/svg">
<path d="M0.323633 8V0.2225H1.76363C2.05363 0.2225 2.24363 0.3525 2.33363 0.612499L2.46113 1.0325C2.59113 0.8975 2.72613 0.775 2.86613 0.665C3.00613 0.55 3.15613 0.4525 3.31613 0.372499C3.48113 0.2875 3.65613 0.2225 3.84113 0.177499C4.03113 0.127499 4.23863 0.102499 4.46363 0.102499C4.93363 0.102499 5.32113 0.224999 5.62613 0.469999C5.93613 0.71 6.17113 1.0325 6.33113 1.4375C6.46113 1.1975 6.61863 0.9925 6.80363 0.8225C6.99363 0.6525 7.19613 0.515 7.41113 0.409999C7.63113 0.305 7.86113 0.2275 8.10113 0.177499C8.34613 0.127499 8.58863 0.102499 8.82863 0.102499C9.27363 0.102499 9.66863 0.169999 10.0136 0.305C10.3586 0.435 10.6461 0.6275 10.8761 0.8825C11.1111 1.1325 11.2886 1.4425 11.4086 1.8125C11.5286 2.1775 11.5886 2.5925 11.5886 3.0575V8H9.26363V3.0575C9.26363 2.2525 8.91863 1.85 8.22863 1.85C7.91363 1.85 7.65113 1.955 7.44113 2.165C7.23613 2.37 7.13363 2.6675 7.13363 3.0575V8H4.80863V3.0575C4.80863 2.6125 4.72113 2.3 4.54613 2.12C4.37113 1.94 4.11363 1.85 3.77363 1.85C3.56363 1.85 3.36363 1.8975 3.17363 1.9925C2.98863 2.0875 2.81363 2.215 2.64863 2.375V8H0.323633ZM17.0949 4.835C16.6299 4.855 16.2474 4.895 15.9474 4.955C15.6474 5.015 15.4099 5.09 15.2349 5.18C15.0599 5.27 14.9374 5.3725 14.8674 5.4875C14.8024 5.6025 14.7699 5.7275 14.7699 5.8625C14.7699 6.1275 14.8424 6.315 14.9874 6.425C15.1324 6.53 15.3449 6.5825 15.6249 6.5825C15.9249 6.5825 16.1874 6.53 16.4124 6.425C16.6374 6.32 16.8649 6.15 17.0949 5.915V4.835ZM12.9099 1.3025C13.3799 0.887499 13.8999 0.58 14.4699 0.38C15.0449 0.175 15.6599 0.0724997 16.3149 0.0724997C16.7849 0.0724997 17.2074 0.15 17.5824 0.305C17.9624 0.455 18.2824 0.6675 18.5424 0.9425C18.8074 1.2125 19.0099 1.535 19.1499 1.91C19.2899 2.285 19.3599 2.695 19.3599 3.14V8H18.2949C18.0749 8 17.9074 7.97 17.7924 7.91C17.6824 7.85 17.5899 7.725 17.5149 7.535L17.3499 7.1075C17.1549 7.2725 16.9674 7.4175 16.7874 7.5425C16.6074 7.6675 16.4199 7.775 16.2249 7.865C16.0349 7.95 15.8299 8.0125 15.6099 8.0525C15.3949 8.0975 15.1549 8.12 14.8899 8.12C14.5349 8.12 14.2124 8.075 13.9224 7.985C13.6324 7.89 13.3849 7.7525 13.1799 7.5725C12.9799 7.3925 12.8249 7.17 12.7149 6.905C12.6049 6.635 12.5499 6.325 12.5499 5.975C12.5499 5.695 12.6199 5.4125 12.7599 5.1275C12.8999 4.8375 13.1424 4.575 13.4874 4.34C13.8324 4.1 14.2974 3.9 14.8824 3.74C15.4674 3.58 16.2049 3.49 17.0949 3.47V3.14C17.0949 2.685 16.9999 2.3575 16.8099 2.1575C16.6249 1.9525 16.3599 1.85 16.0149 1.85C15.7399 1.85 15.5149 1.88 15.3399 1.94C15.1649 2 15.0074 2.0675 14.8674 2.1425C14.7324 2.2175 14.5999 2.285 14.4699 2.345C14.3399 2.405 14.1849 2.435 14.0049 2.435C13.8449 2.435 13.7099 2.395 13.5999 2.315C13.4899 2.235 13.3999 2.14 13.3299 2.03L12.9099 1.3025ZM22.9911 1.0625C23.1411 0.922499 23.2961 0.7925 23.4561 0.6725C23.6161 0.5525 23.7861 0.4525 23.9661 0.372499C24.1511 0.2875 24.3486 0.2225 24.5586 0.177499C24.7736 0.127499 25.0061 0.102499 25.2561 0.102499C25.6811 0.102499 26.0561 0.1775 26.3811 0.3275C26.7111 0.4725 26.9886 0.6775 27.2136 0.9425C27.4386 1.2025 27.6086 1.515 27.7236 1.88C27.8386 2.24 27.8961 2.6325 27.8961 3.0575V8H25.5711V3.0575C25.5711 2.6775 25.4836 2.3825 25.3086 2.1725C25.1336 1.9575 24.8761 1.85 24.5361 1.85C24.2811 1.85 24.0411 1.905 23.8161 2.015C23.5961 2.12 23.3811 2.265 23.1711 2.45V8H20.8461V0.2225H22.2861C22.5761 0.2225 22.7661 0.3525 22.8561 0.612499L22.9911 1.0625ZM36.5539 0.2225L32.3989 10.0175C32.3289 10.1725 32.2439 10.285 32.1439 10.355C32.0439 10.43 31.8839 10.4675 31.6639 10.4675H29.9239L31.4239 7.3175L28.3189 0.2225H30.3739C30.5539 0.2225 30.6914 0.2625 30.7864 0.3425C30.8864 0.4225 30.9589 0.5175 31.0039 0.6275L32.2789 3.98C32.3989 4.285 32.4964 4.5975 32.5714 4.9175C32.6264 4.7575 32.6814 4.5975 32.7364 4.4375C32.7914 4.2775 32.8489 4.12 32.9089 3.965L34.0639 0.6275C34.1089 0.5125 34.1889 0.4175 34.3039 0.3425C34.4189 0.2625 34.5439 0.2225 34.6789 0.2225H36.5539ZM40.3285 8V0.2225H41.7685C42.0585 0.2225 42.2485 0.3525 42.3385 0.612499L42.466 1.0325C42.596 0.8975 42.731 0.775 42.871 0.665C43.011 0.55 43.161 0.4525 43.321 0.372499C43.486 0.2875 43.661 0.2225 43.846 0.177499C44.036 0.127499 44.2435 0.102499 44.4685 0.102499C44.9385 0.102499 45.326 0.224999 45.631 0.469999C45.941 0.71 46.176 1.0325 46.336 1.4375C46.466 1.1975 46.6235 0.9925 46.8085 0.8225C46.9985 0.6525 47.201 0.515 47.416 0.409999C47.636 0.305 47.866 0.2275 48.106 0.177499C48.351 0.127499 48.5935 0.102499 48.8335 0.102499C49.2785 0.102499 49.6735 0.169999 50.0185 0.305C50.3635 0.435 50.651 0.6275 50.881 0.8825C51.116 1.1325 51.2935 1.4425 51.4135 1.8125C51.5335 2.1775 51.5935 2.5925 51.5935 3.0575V8H49.2685V3.0575C49.2685 2.2525 48.9235 1.85 48.2335 1.85C47.9185 1.85 47.656 1.955 47.446 2.165C47.241 2.37 47.1385 2.6675 47.1385 3.0575V8H44.8135V3.0575C44.8135 2.6125 44.726 2.3 44.551 2.12C44.376 1.94 44.1185 1.85 43.7785 1.85C43.5685 1.85 43.3685 1.8975 43.1785 1.9925C42.9935 2.0875 42.8185 2.215 42.6535 2.375V8H40.3285ZM56.6723 0.102499C57.2623 0.102499 57.7998 0.194999 58.2848 0.38C58.7698 0.565 59.1848 0.83 59.5298 1.175C59.8798 1.52 60.1498 1.94 60.3398 2.435C60.5348 2.925 60.6323 3.4775 60.6323 4.0925C60.6323 4.7125 60.5348 5.2725 60.3398 5.7725C60.1498 6.2675 59.8798 6.69 59.5298 7.04C59.1848 7.385 58.7698 7.6525 58.2848 7.8425C57.7998 8.0275 57.2623 8.12 56.6723 8.12C56.0773 8.12 55.5348 8.0275 55.0448 7.8425C54.5598 7.6525 54.1398 7.385 53.7848 7.04C53.4348 6.69 53.1623 6.2675 52.9673 5.7725C52.7773 5.2725 52.6823 4.7125 52.6823 4.0925C52.6823 3.4775 52.7773 2.925 52.9673 2.435C53.1623 1.94 53.4348 1.52 53.7848 1.175C54.1398 0.83 54.5598 0.565 55.0448 0.38C55.5348 0.194999 56.0773 0.102499 56.6723 0.102499ZM56.6723 6.395C57.2073 6.395 57.5998 6.2075 57.8498 5.8325C58.1048 5.4525 58.2323 4.8775 58.2323 4.1075C58.2323 3.3375 58.1048 2.765 57.8498 2.39C57.5998 2.015 57.2073 1.8275 56.6723 1.8275C56.1223 1.8275 55.7198 2.015 55.4648 2.39C55.2098 2.765 55.0823 3.3375 55.0823 4.1075C55.0823 4.8775 55.2098 5.4525 55.4648 5.8325C55.7198 6.2075 56.1223 6.395 56.6723 6.395ZM63.9781 1.4225C64.2181 1.0025 64.4931 0.6725 64.8031 0.4325C65.1181 0.1925 65.4781 0.0724997 65.8831 0.0724997C66.2331 0.0724997 66.5181 0.155 66.7381 0.32L66.5881 2.03C66.5631 2.14 66.5206 2.215 66.4606 2.255C66.4056 2.295 66.3281 2.315 66.2281 2.315C66.1881 2.315 66.1356 2.3125 66.0706 2.3075C66.0056 2.3025 65.9381 2.2975 65.8681 2.2925C65.7981 2.2825 65.7256 2.275 65.6506 2.27C65.5806 2.26 65.5156 2.255 65.4556 2.255C65.1156 2.255 64.8431 2.345 64.6381 2.525C64.4381 2.705 64.2681 2.955 64.1281 3.275V8H61.8031V0.2225H63.1831C63.2981 0.2225 63.3931 0.2325 63.4681 0.2525C63.5481 0.2725 63.6131 0.305 63.6631 0.349999C63.7181 0.389999 63.7581 0.445 63.7831 0.515C63.8131 0.585 63.8381 0.67 63.8581 0.77L63.9781 1.4225ZM72.2363 3.1775C72.2363 2.9925 72.2113 2.8125 72.1613 2.6375C72.1163 2.4625 72.0388 2.3075 71.9288 2.1725C71.8238 2.0325 71.6838 1.92 71.5088 1.835C71.3338 1.75 71.1213 1.7075 70.8713 1.7075C70.4313 1.7075 70.0863 1.835 69.8363 2.09C69.5863 2.34 69.4213 2.7025 69.3413 3.1775H72.2363ZM69.3113 4.5275C69.3863 5.1775 69.5838 5.65 69.9038 5.945C70.2238 6.235 70.6363 6.38 71.1413 6.38C71.4113 6.38 71.6438 6.3475 71.8388 6.2825C72.0338 6.2175 72.2063 6.145 72.3563 6.065C72.5113 5.985 72.6513 5.9125 72.7763 5.8475C72.9063 5.7825 73.0413 5.75 73.1813 5.75C73.3663 5.75 73.5063 5.8175 73.6013 5.9525L74.2763 6.785C74.0363 7.06 73.7763 7.285 73.4963 7.46C73.2213 7.63 72.9363 7.765 72.6413 7.865C72.3513 7.96 72.0588 8.025 71.7638 8.06C71.4738 8.1 71.1963 8.12 70.9313 8.12C70.3863 8.12 69.8738 8.0325 69.3938 7.8575C68.9188 7.6775 68.5013 7.4125 68.1413 7.0625C67.7863 6.7125 67.5038 6.2775 67.2938 5.7575C67.0888 5.2375 66.9863 4.6325 66.9863 3.9425C66.9863 3.4225 67.0738 2.93 67.2488 2.465C67.4288 2 67.6838 1.5925 68.0138 1.2425C68.3488 0.8925 68.7513 0.614999 69.2213 0.409999C69.6963 0.204999 70.2313 0.102499 70.8263 0.102499C71.3413 0.102499 71.8113 0.182499 72.2363 0.3425C72.6663 0.5025 73.0338 0.735 73.3388 1.04C73.6488 1.345 73.8888 1.72 74.0588 2.165C74.2338 2.605 74.3213 3.105 74.3213 3.665C74.3213 3.84 74.3138 3.9825 74.2988 4.0925C74.2838 4.2025 74.2563 4.29 74.2163 4.355C74.1763 4.42 74.1213 4.465 74.0513 4.49C73.9863 4.515 73.9013 4.5275 73.7963 4.5275H69.3113ZM75.1698 6.8225C75.1698 6.6425 75.2023 6.475 75.2673 6.32C75.3373 6.165 75.4298 6.03 75.5448 5.915C75.6648 5.8 75.8048 5.71 75.9648 5.645C76.1248 5.575 76.2998 5.54 76.4898 5.54C76.6748 5.54 76.8473 5.575 77.0073 5.645C77.1673 5.71 77.3073 5.8 77.4273 5.915C77.5473 6.03 77.6398 6.165 77.7048 6.32C77.7748 6.475 77.8098 6.6425 77.8098 6.8225C77.8098 7.0025 77.7748 7.1725 77.7048 7.3325C77.6398 7.4875 77.5473 7.6225 77.4273 7.7375C77.3073 7.8525 77.1673 7.9425 77.0073 8.0075C76.8473 8.0725 76.6748 8.105 76.4898 8.105C76.2998 8.105 76.1248 8.0725 75.9648 8.0075C75.8048 7.9425 75.6648 7.8525 75.5448 7.7375C75.4298 7.6225 75.3373 7.4875 75.2673 7.3325C75.2023 7.1725 75.1698 7.0025 75.1698 6.8225ZM78.7586 6.8225C78.7586 6.6425 78.7911 6.475 78.8561 6.32C78.9261 6.165 79.0186 6.03 79.1336 5.915C79.2536 5.8 79.3936 5.71 79.5536 5.645C79.7136 5.575 79.8886 5.54 80.0786 5.54C80.2636 5.54 80.4361 5.575 80.5961 5.645C80.7561 5.71 80.8961 5.8 81.0161 5.915C81.1361 6.03 81.2286 6.165 81.2936 6.32C81.3636 6.475 81.3986 6.6425 81.3986 6.8225C81.3986 7.0025 81.3636 7.1725 81.2936 7.3325C81.2286 7.4875 81.1361 7.6225 81.0161 7.7375C80.8961 7.8525 80.7561 7.9425 80.5961 8.0075C80.4361 8.0725 80.2636 8.105 80.0786 8.105C79.8886 8.105 79.7136 8.0725 79.5536 8.0075C79.3936 7.9425 79.2536 7.8525 79.1336 7.7375C79.0186 7.6225 78.9261 7.4875 78.8561 7.3325C78.7911 7.1725 78.7586 7.0025 78.7586 6.8225ZM82.3475 6.8225C82.3475 6.6425 82.38 6.475 82.445 6.32C82.515 6.165 82.6075 6.03 82.7225 5.915C82.8425 5.8 82.9825 5.71 83.1425 5.645C83.3025 5.575 83.4775 5.54 83.6675 5.54C83.8525 5.54 84.025 5.575 84.185 5.645C84.345 5.71 84.485 5.8 84.605 5.915C84.725 6.03 84.8175 6.165 84.8825 6.32C84.9525 6.475 84.9875 6.6425 84.9875 6.8225C84.9875 7.0025 84.9525 7.1725 84.8825 7.3325C84.8175 7.4875 84.725 7.6225 84.605 7.7375C84.485 7.8525 84.345 7.9425 84.185 8.0075C84.025 8.0725 83.8525 8.105 83.6675 8.105C83.4775 8.105 83.3025 8.0725 83.1425 8.0075C82.9825 7.9425 82.8425 7.8525 82.7225 7.7375C82.6075 7.6225 82.515 7.4875 82.445 7.3325C82.38 7.1725 82.3475 7.0025 82.3475 6.8225Z" fill="#212121"/>
</svg>
