<svg width="81" height="49" viewBox="0 0 81 49" fill="none" xmlns="http://www.w3.org/2000/svg">
<g clip-path="url(#clip0_3989_293)">
<path d="M23.4973 18.0604C23.4973 19.041 23.6036 19.8359 23.789 20.4189C24.0243 21.0747 24.3077 21.7124 24.6367 22.3266C24.7693 22.5385 24.8221 22.7505 24.8221 22.9362C24.8221 23.2009 24.6633 23.466 24.3188 23.7311L22.6496 24.8439C22.4111 25.003 22.1726 25.0824 21.9604 25.0824C21.6956 25.0824 21.4305 24.9498 21.1654 24.7113C20.8081 24.3279 20.4887 23.9109 20.2117 23.466C19.9467 23.0159 19.6816 22.512 19.3903 21.9027C17.3232 24.3403 14.7265 25.5592 11.6 25.5594C9.37436 25.5594 7.59887 24.9233 6.30039 23.6517C5.00222 22.3794 4.33984 20.6836 4.33984 18.564C4.33984 16.3118 5.13475 14.4835 6.75114 13.1056C8.36721 11.7277 10.5137 11.0388 13.2429 11.0388C14.1438 11.0388 15.0713 11.1182 16.0515 11.2507C17.0321 11.3833 18.039 11.5952 19.0989 11.8337V9.89941C19.0989 7.88541 18.6748 6.48127 17.8533 5.6598C17.0055 4.83832 15.5745 4.44071 13.5343 4.44071C12.6068 4.44071 11.6531 4.54699 10.6725 4.78549C9.69195 5.024 8.73825 5.31533 7.81081 5.68637C7.38694 5.87173 7.06904 5.9777 6.88336 6.03084C6.69769 6.08398 6.56546 6.11023 6.45949 6.11023C6.08845 6.11023 5.90309 5.84516 5.90309 5.28876V3.99027C5.90309 3.5664 5.95623 3.2485 6.08845 3.06314C6.22099 2.87746 6.45949 2.6921 6.83053 2.50673C7.75787 2.02952 8.87068 1.63201 10.169 1.31422C11.4678 0.969746 12.8456 0.810952 14.3029 0.810952C17.4563 0.810952 19.7616 1.52615 21.2455 2.95717C22.7027 4.38788 23.4448 6.56067 23.4448 9.47554V18.0604H23.4973ZM12.7394 22.0881C13.614 22.0881 14.5149 21.9293 15.4686 21.6111C16.4226 21.2932 17.2706 20.7102 17.9858 19.9153C18.41 19.412 18.7279 18.8556 18.8867 18.2195C19.0458 17.5837 19.1518 16.8151 19.1518 15.9142V14.8014C18.3482 14.6059 17.5343 14.4556 16.7139 14.351C15.8878 14.2461 15.0559 14.193 14.2232 14.1918C12.4477 14.1918 11.1495 14.5363 10.2752 15.2518C9.40093 15.9673 8.97675 16.9742 8.97675 18.2989C8.97675 19.5443 9.29465 20.4717 9.95703 21.1078C10.5931 21.7702 11.5206 22.0881 12.7394 22.0881ZM34.0168 24.9498C33.5398 24.9498 33.2219 24.8704 33.01 24.6848C32.798 24.526 32.6124 24.1549 32.4536 23.6517L26.2268 3.16911C26.0674 2.63896 25.988 2.29449 25.988 2.10912C25.988 1.68526 26.2 1.44644 26.6241 1.44644H29.2208C29.7241 1.44644 30.0688 1.52615 30.2542 1.71151C30.4661 1.87062 30.6253 2.24166 30.7841 2.74493L35.2356 20.2864L39.3692 2.74493C39.5018 2.21509 39.6609 1.87062 39.8725 1.71151C40.0848 1.55272 40.4558 1.44675 40.9328 1.44675H43.0525C43.5557 1.44675 43.9005 1.52615 44.1121 1.71151C44.3244 1.87062 44.5097 2.24166 44.6157 2.74493L48.8025 20.4983L53.3862 2.74493C53.545 2.21509 53.7307 1.87062 53.9161 1.71151C54.128 1.55272 54.4725 1.44675 54.9495 1.44675H57.4136C57.8378 1.44675 58.0763 1.65869 58.0763 2.10912C58.0763 2.24166 58.0497 2.3742 58.0232 2.53299C57.9966 2.69179 57.9438 2.90403 57.8378 3.19568L51.4517 23.6779C51.2929 24.2081 51.1074 24.5525 50.8952 24.7113C50.6833 24.8704 50.3388 24.9764 49.8887 24.9764H47.61C47.1064 24.9764 46.7619 24.897 46.5497 24.7113C46.3377 24.526 46.1524 24.1815 46.0464 23.6517L41.939 6.56067L37.8585 23.6248C37.7263 24.1549 37.5672 24.4994 37.3552 24.6848C37.1433 24.8704 36.7723 24.9498 36.2956 24.9498H34.0168ZM68.0659 25.6653C66.6881 25.6653 65.3102 25.5062 63.9854 25.1883C62.6604 24.8704 61.6273 24.5257 60.9383 24.1287C60.5142 23.8899 60.2225 23.6251 60.1169 23.3866C60.0138 23.1527 59.9597 22.9001 59.9578 22.6445V21.2932C59.9578 20.7368 60.1697 20.4717 60.5673 20.4717C60.7296 20.4723 60.8907 20.4992 61.0443 20.5514C61.2031 20.6046 61.4416 20.7102 61.7067 20.8162C62.6425 21.2281 63.6195 21.539 64.6212 21.7436C65.6592 21.9541 66.7155 22.0606 67.7746 22.0615C69.4438 22.0615 70.7423 21.7702 71.6432 21.1872C72.5441 20.6043 73.0211 19.7565 73.0211 18.67C73.0211 17.9282 72.7826 17.3187 72.3056 16.8151C71.8286 16.3115 70.9277 15.8614 69.6295 15.4372L65.7872 14.245C63.8529 13.6354 62.4222 12.7346 61.5476 11.5421C60.6733 10.3761 60.2228 9.07793 60.2228 7.70005C60.2228 6.58724 60.4613 5.60676 60.9383 4.75861C61.415 3.91087 62.0512 3.16911 62.8461 2.58613C63.641 1.97659 64.5418 1.52615 65.6018 1.20825C66.6615 0.890349 67.7743 0.757812 68.9402 0.757812C69.5232 0.757812 70.1328 0.784382 70.7157 0.863779C71.3253 0.943176 71.8817 1.04914 72.4381 1.15511C72.9679 1.28765 73.4715 1.42018 73.9485 1.57929C74.4253 1.73808 74.7962 1.89698 75.0613 2.05598C75.4324 2.26823 75.6971 2.48016 75.8562 2.71867C76.0152 2.9306 76.0947 3.22204 76.0947 3.59297V4.83832C76.0947 5.39472 75.8828 5.68637 75.4852 5.68637C75.2733 5.68637 74.9288 5.58009 74.4787 5.36815C72.9678 4.67921 71.2719 4.33474 69.391 4.33474C67.8806 4.33474 66.6881 4.57325 65.8666 5.07682C65.0454 5.58009 64.6212 6.34874 64.6212 7.43498C64.6212 8.17706 64.8863 8.81286 65.4161 9.31644C65.946 9.82001 66.9266 10.3233 68.331 10.7737L72.0936 11.9662C74.0013 12.5758 75.3792 13.4235 76.2007 14.5098C77.0222 15.596 77.4198 16.8416 77.4198 18.2195C77.4198 19.3589 77.181 20.3923 76.7305 21.2932C76.2538 22.1941 75.6177 22.989 74.7962 23.6251C73.9748 24.2875 72.9945 24.7645 71.8551 25.1089C70.6626 25.48 69.4173 25.6653 68.0659 25.6653Z" fill="#252F3E"/>
<path d="M73.0712 38.5446C64.3538 44.9836 51.6878 48.4018 40.7975 48.4018C25.5349 48.4018 11.7829 42.7577 1.396 33.3776C0.574518 32.6358 1.31629 31.629 2.29656 32.2116C13.5315 38.7303 27.3898 42.6783 41.725 42.6783C51.3964 42.6783 62.0219 40.6646 71.7996 36.531C73.2569 35.8683 74.5022 37.485 73.0712 38.5446ZM76.7016 34.411C75.5887 32.9803 69.3351 33.7221 66.5 34.0665C65.6519 34.1728 65.5194 33.4307 66.288 32.8743C71.2694 29.3765 79.4573 30.3836 80.411 31.5493C81.365 32.7418 80.146 40.9294 75.4825 44.8511C74.7673 45.4606 74.0783 45.1427 74.3962 44.3478C75.4559 41.7243 77.8144 35.8155 76.7016 34.411Z" fill="#FF9900"/>
</g>
<defs>
<clipPath id="clip0_3989_293">
<rect x="0.867188" y="0.734375" width="80.0222" height="47.8258" rx="20" fill="white"/>
</clipPath>
</defs>
</svg>
