<svg width="73" height="73" viewBox="0 0 73 73" fill="none" xmlns="http://www.w3.org/2000/svg">
<g clip-path="url(#clip0_3989_358)">
<path d="M55.7026 0.945312H17.4719C8.15684 0.945312 0.605469 8.49668 0.605469 17.8118V56.0424C0.605469 65.3575 8.15684 72.9088 17.4719 72.9088H55.7026C65.0177 72.9088 72.5691 65.3575 72.5691 56.0424V17.8118C72.5691 8.49668 65.0177 0.945312 55.7026 0.945312Z" fill="#5865F2"/>
<mask id="mask0_3989_358" style="mask-type:luminance" maskUnits="userSpaceOnUse" x="8" y="15" width="57" height="44">
<path d="M8.47656 15.2812H64.6981V58.8332H8.47656V15.2812Z" fill="white"/>
</mask>
<g mask="url(#mask0_3989_358)">
<path d="M56.0702 19.1618C52.4252 17.4888 48.5785 16.2957 44.6266 15.6122C44.5907 15.6057 44.5536 15.6105 44.5206 15.6262C44.4876 15.6418 44.4604 15.6674 44.4427 15.6994C43.9485 16.5781 43.4009 17.725 43.0178 18.6262C38.6963 17.9791 34.3973 17.9791 30.1647 18.6262C29.7813 17.7048 29.214 16.5781 28.7176 15.6994C28.6993 15.6679 28.6719 15.6428 28.639 15.6272C28.6061 15.6117 28.5693 15.6064 28.5334 15.6122C24.5811 16.2941 20.7343 17.4873 17.0898 19.1618C17.0588 19.1753 17.0325 19.1978 17.0145 19.2264C9.72592 30.1154 7.72949 40.7368 8.70887 51.2266C8.71484 51.2784 8.74112 51.3257 8.78196 51.3581C13.5906 54.8897 18.2488 57.0337 22.8205 58.4547C22.856 58.4652 22.894 58.4647 22.9292 58.4531C22.9645 58.4416 22.9954 58.4196 23.0178 58.39C24.0992 56.9131 25.0632 55.356 25.8899 53.7186C25.9013 53.6962 25.9078 53.6716 25.909 53.6464C25.9102 53.6213 25.906 53.5962 25.8968 53.5728C25.8876 53.5494 25.8735 53.5283 25.8555 53.5107C25.8375 53.4931 25.816 53.4796 25.7924 53.4709C24.2631 52.8907 22.8073 52.1837 21.4068 51.3806C21.3813 51.3656 21.3599 51.3445 21.3444 51.3193C21.329 51.294 21.32 51.2653 21.3182 51.2358C21.3165 51.2062 21.322 51.1767 21.3344 51.1498C21.3467 51.1229 21.3655 51.0994 21.3891 51.0815C21.6845 50.8607 21.9749 50.6331 22.2599 50.399C22.2849 50.3784 22.3152 50.3652 22.3472 50.3608C22.3793 50.3565 22.412 50.3611 22.4415 50.3742C31.6428 54.5751 41.6038 54.5751 50.6963 50.3742C50.7259 50.3603 50.759 50.355 50.7916 50.359C50.8241 50.3629 50.8549 50.376 50.8804 50.3967C51.1657 50.6321 51.4569 50.8605 51.7535 51.0815C51.7772 51.0993 51.7961 51.1226 51.8086 51.1494C51.8212 51.1762 51.8269 51.2056 51.8254 51.2352C51.8239 51.2647 51.8151 51.2934 51.7999 51.3188C51.7846 51.3442 51.7634 51.3654 51.738 51.3806C50.3368 52.1988 48.869 52.8973 47.3502 53.4687C47.3267 53.4778 47.3053 53.4917 47.2876 53.5096C47.2698 53.5274 47.2559 53.5488 47.2469 53.5724C47.2379 53.596 47.234 53.6212 47.2354 53.6463C47.2368 53.6715 47.2434 53.6961 47.2549 53.7186C48.0959 55.3431 49.055 56.9037 50.1245 58.3878C50.1464 58.418 50.1771 58.4407 50.2125 58.4527C50.2478 58.4647 50.286 58.4654 50.3218 58.4547C54.9157 57.0337 59.5739 54.8897 64.3828 51.3581C64.4034 51.3429 64.4205 51.3235 64.4331 51.3012C64.4457 51.279 64.4535 51.2543 64.4559 51.2288C65.6281 39.1016 62.4924 28.5671 56.1433 19.2287C56.1278 19.1982 56.1019 19.1744 56.0702 19.1618ZM27.264 44.8395C24.4936 44.8395 22.211 42.2963 22.211 39.173C22.211 36.0496 24.4495 33.5064 27.264 33.5064C30.1003 33.5064 32.3607 36.0721 32.3163 39.173C32.3163 42.2963 30.0781 44.8395 27.264 44.8395ZM45.9452 44.8395C43.1749 44.8395 40.8926 42.2963 40.8926 39.173C40.8926 36.0496 43.1308 33.5064 45.9452 33.5064C48.7816 33.5064 51.042 36.0721 50.9979 39.173C50.9979 42.2963 48.7816 44.8395 45.9452 44.8395Z" fill="white"/>
</g>
</g>
<defs>
<clipPath id="clip0_3989_358">
<rect x="0.605469" y="0.945312" width="71.9636" height="71.9635" rx="20" fill="white"/>
</clipPath>
</defs>
</svg>
