<svg width="66" height="66" viewBox="0 0 66 66" fill="none" xmlns="http://www.w3.org/2000/svg">
<g clip-path="url(#clip0_3989_283)">
<path d="M50.3794 15.4922H16.0547V49.8169H50.3794V15.4922Z" fill="white"/>
<path d="M50.3784 65.2638L65.8245 49.8177L58.1014 48.5L50.3784 49.8177L48.9688 56.8819L50.3784 65.2638Z" fill="#EA4335"/>
<path d="M0.609375 49.8177V60.1151C0.609375 62.9598 2.91342 65.2638 5.75809 65.2638H16.0555L17.6414 57.5407L16.0555 49.8177L7.64038 48.5L0.609375 49.8177Z" fill="#188038"/>
<path d="M65.8245 15.493V5.19558C65.8245 2.35092 63.5205 0.046875 60.6758 0.046875H50.3784C49.4386 3.87732 48.9688 6.69623 48.9688 8.50361C48.9688 10.311 49.4386 12.6408 50.3784 15.493C53.7945 16.4712 56.3689 16.9603 58.1014 16.9603C59.834 16.9603 62.4084 16.4712 65.8245 15.493Z" fill="#1967D2"/>
<path d="M65.825 15.4922H50.3789V49.8169H65.825V15.4922Z" fill="#FBBC04"/>
<path d="M50.3794 49.8203H16.0547V65.2664H50.3794V49.8203Z" fill="#34A853"/>
<path d="M50.3803 0.046875H5.75809C2.91342 0.046875 0.609375 2.35092 0.609375 5.19558V49.8177H16.0555V15.493H50.3803V0.046875Z" fill="#4285F4"/>
<path d="M23.0973 42.1221C21.8144 41.2554 20.9262 39.9897 20.4414 38.3163L23.4191 37.0892C23.6894 38.119 24.1614 38.917 24.835 39.4834C25.5043 40.0497 26.3195 40.3286 27.272 40.3286C28.246 40.3286 29.0827 40.0326 29.782 39.4405C30.4814 38.8484 30.8332 38.0932 30.8332 37.1793C30.8332 36.244 30.4642 35.4802 29.7263 34.8881C28.9883 34.296 28.0615 34 26.9545 34H25.234V31.0524H26.7786C27.7311 31.0524 28.5335 30.7949 29.1856 30.2801C29.8378 29.7652 30.1639 29.0615 30.1639 28.1648C30.1639 27.3667 29.8721 26.7317 29.2886 26.2555C28.7051 25.7792 27.9671 25.539 27.0704 25.539C26.1951 25.539 25.5 25.7706 24.9851 26.2383C24.4706 26.7072 24.0838 27.2993 23.861 27.9588L20.9134 26.7317C21.3038 25.6248 22.0203 24.6465 23.0715 23.8013C24.1227 22.956 25.4657 22.5312 27.0961 22.5312C28.3018 22.5312 29.3873 22.7629 30.3484 23.2306C31.3095 23.6983 32.0646 24.3462 32.6095 25.17C33.1544 25.998 33.4247 26.9248 33.4247 27.9546C33.4247 29.0057 33.1716 29.8939 32.6653 30.6233C32.159 31.3527 31.5369 31.9105 30.7989 32.3009V32.4768C31.7518 32.8697 32.5796 33.515 33.1931 34.3432C33.8152 35.1799 34.1284 36.1796 34.1284 37.3467C34.1284 38.5137 33.8324 39.5563 33.2402 40.4702C32.6481 41.3841 31.8286 42.1049 30.7903 42.6284C29.7477 43.1518 28.5764 43.4179 27.2763 43.4179C25.7703 43.4221 24.3802 42.9888 23.0973 42.1221ZM41.3881 27.3453L38.1187 29.7094L36.4839 27.2294L42.3492 22.9989H44.5975V42.9544H41.3881V27.3453Z" fill="#4285F4"/>
</g>
<defs>
<clipPath id="clip0_3989_283">
<rect x="0.609375" y="0.046875" width="65.217" height="65.2169" rx="20" fill="white"/>
</clipPath>
</defs>
</svg>
