<svg width="69" height="62" viewBox="0 0 69 62" fill="none" xmlns="http://www.w3.org/2000/svg">
<g clip-path="url(#clip0_3989_329)">
<path d="M5.61944 52.7731L8.59671 57.9563C9.21538 59.0477 10.1046 59.9052 11.1486 60.5287C14.1389 56.7027 16.2204 53.7668 17.3932 51.7208C18.5835 49.6445 20.0462 46.3968 21.7816 41.9777C17.1045 41.3572 13.5602 41.0469 11.1489 41.0469C8.8344 41.0469 5.28998 41.3572 0.515625 41.9777C0.515625 43.1858 0.824955 44.3939 1.44362 45.4853L5.61944 52.7731Z" fill="#0066DA"/>
<path d="M57.3911 60.5287C58.4354 59.9052 59.3246 59.0477 59.943 57.9565L61.1803 55.8131L67.0964 45.4853C67.7035 44.4175 68.0233 43.2084 68.0241 41.9777C63.222 41.3572 59.6841 41.0469 57.4106 41.0469C54.9671 41.0469 51.4292 41.3572 46.7969 41.9777C48.5117 46.4211 49.9552 49.6688 51.1275 51.7208C52.3096 53.791 54.3975 56.727 57.3911 60.5287Z" fill="#EA4335"/>
<path d="M34.2697 20.1504C37.7296 15.9387 40.1139 12.691 41.4228 10.4074C42.4769 8.56855 43.6369 5.63256 44.9027 1.59943C43.8587 0.975851 42.6601 0.664062 41.4228 0.664062H27.1166C25.8793 0.664062 24.681 1.01492 23.6367 1.59943C25.2471 6.22495 26.6135 9.51685 27.7358 11.4751C28.9763 13.6393 31.1543 16.5311 34.2697 20.1504Z" fill="#00832D"/>
<path d="M46.7591 41.9766H21.7812L11.1484 60.5276C12.1922 61.1511 13.3908 61.4629 14.6281 61.4629H53.9122C55.1495 61.4629 56.3484 61.1121 57.3921 60.5273L46.7591 41.9766Z" fill="#2684FC"/>
<path d="M34.2706 20.1523L23.6379 1.60156C22.5936 2.22514 21.7044 3.08236 21.0857 4.17375L1.44362 38.4697C0.836362 39.5374 0.516464 40.7465 0.515625 41.9772H21.7816L34.2706 20.1523Z" fill="#00AC47"/>
<path d="M57.2755 21.3218L47.4542 4.17375C46.8358 3.08236 45.9463 2.22514 44.9023 1.60156L34.2695 20.1526L46.7582 41.9775H67.9857C67.9857 40.7691 67.6764 39.5613 67.0578 38.4699L57.2755 21.3218Z" fill="#FFBA00"/>
</g>
<defs>
<clipPath id="clip0_3989_329">
<rect x="0.515625" y="0.664062" width="67.5094" height="60.8692" rx="20" fill="white"/>
</clipPath>
</defs>
</svg>
