<svg width="78" height="78" viewBox="0 0 78 78" fill="none" xmlns="http://www.w3.org/2000/svg">
<path d="M38.8682 7.24219C34.6812 7.24219 30.5351 8.06689 26.6668 9.6692C22.7985 11.2715 19.2836 13.6201 16.3229 16.5807C10.3436 22.5601 6.98438 30.6699 6.98438 39.126C6.98438 53.2187 16.135 65.1751 28.7929 69.4157C30.3871 69.6707 30.8973 68.6823 30.8973 67.8215V62.4331C22.0654 64.3461 20.1843 58.1607 20.1843 58.1607C18.7176 54.4622 16.6452 53.4738 16.6452 53.4738C13.7438 51.497 16.8684 51.5607 16.8684 51.5607C20.0568 51.7839 21.7466 54.8448 21.7466 54.8448C24.5205 59.6911 29.2074 58.2563 31.0248 57.4911C31.3118 55.4187 32.1407 54.0158 33.0335 53.2187C25.9553 52.4216 18.5263 49.6796 18.5263 37.5318C18.5263 33.9927 19.7379 31.1551 21.8104 28.8913C21.4915 28.0942 20.3756 24.7783 22.1292 20.474C22.1292 20.474 24.8075 19.6131 30.8973 23.7261C33.4161 23.0247 36.1581 22.674 38.8682 22.674C41.5784 22.674 44.3204 23.0247 46.8392 23.7261C52.929 19.6131 55.6073 20.474 55.6073 20.474C57.3609 24.7783 56.245 28.0942 55.9261 28.8913C57.9986 31.1551 59.2102 33.9927 59.2102 37.5318C59.2102 49.7115 51.7493 52.3897 44.6392 53.1868C45.787 54.1752 46.8392 56.1201 46.8392 59.0853V67.8215C46.8392 68.6823 47.3494 69.7026 48.9754 69.4157C61.6333 65.1432 70.7521 53.2187 70.7521 39.126C70.7521 34.939 69.9274 30.7929 68.3251 26.9246C66.7228 23.0563 64.3742 19.5414 61.4135 16.5807C58.4529 13.6201 54.938 11.2715 51.0697 9.6692C47.2013 8.06689 43.0553 7.24219 38.8682 7.24219Z" fill="#1B1F23"/>
</svg>
