<svg width="72" height="55" viewBox="0 0 72 55" fill="none" xmlns="http://www.w3.org/2000/svg">
<g clip-path="url(#clip0_3989_336)">
<path d="M16.6532 53.8319V26.1716L8.07712 18.3238L0.386719 13.9688V48.9506C0.386719 51.6514 2.57443 53.8319 5.26678 53.8319H16.6532Z" fill="#4285F4"/>
<path d="M55.6914 53.8316H67.0779C69.7783 53.8316 71.9579 51.6431 71.9579 48.9503V13.9688L63.2473 18.9569L55.6914 26.1713V53.8316Z" fill="#34A853"/>
<path d="M16.6513 26.1751L15.4844 15.3674L16.6513 5.02344L36.171 19.6671L55.6907 5.02344L56.9961 14.809L55.6907 26.1751L36.171 40.8188L16.6513 26.1751Z" fill="#EA4335"/>
<path d="M55.6914 5.01992V26.1716L71.9579 13.9688V7.46044C71.9579 1.42417 65.0691 -2.01693 60.2463 1.60315L55.6914 5.01992Z" fill="#FBBC04"/>
<path d="M0.386719 13.9689L7.86799 19.5815L16.6532 26.1717V5.02005L12.0983 1.60328C7.26718 -2.01709 0.386719 1.4243 0.386719 7.46029V13.9689Z" fill="#C5221F"/>
</g>
<defs>
<clipPath id="clip0_3989_336">
<rect x="0.386719" y="0.125" width="71.5724" height="53.9726" rx="20" fill="white"/>
</clipPath>
</defs>
</svg>
