<svg width="73" height="73" viewBox="0 0 73 73" fill="none" xmlns="http://www.w3.org/2000/svg">
<path d="M10.918 51.6306L36.6697 7.03125L38.9815 8.36482L13.232 52.9665L10.918 51.6306Z" fill="#E10098"/>
<path d="M10.3906 48.0703H61.8941V50.7397H10.3906V48.0703Z" fill="#E10098"/>
<path d="M11.4102 49.5676L12.7437 47.2558L38.5045 62.1298L37.1686 64.4416L11.4102 49.5676ZM33.7886 10.8018L35.1244 8.49219L60.8851 23.3662L59.5493 25.678L33.7886 10.8018Z" fill="#E10098"/>
<path d="M11.418 23.3583L37.1764 8.48438L38.5123 10.7962L12.7515 25.6702L11.418 23.3583Z" fill="#E10098"/>
<path d="M33.3233 8.36707L35.6351 7.03125L61.3846 51.6329L59.075 52.9665L33.3233 8.36707ZM12.4336 21.5859H15.103V51.3338H12.4336V21.5859Z" fill="#E10098"/>
<path d="M57.1992 21.5859H59.8686V51.3339H57.1992V21.5859Z" fill="#E10098"/>
<path d="M35.5508 61.287L57.954 48.3516L59.1211 50.371L36.7157 63.3065L35.5508 61.287Z" fill="#E10098"/>
<path d="M63.4056 52.1994C62.8507 53.1637 62.0222 53.9416 61.025 54.4347C60.0278 54.9279 58.9067 55.1141 57.8036 54.9698C56.7005 54.8255 55.665 54.3572 54.8282 53.6242C53.9914 52.8911 53.3908 51.9263 53.1026 50.8518C52.8144 49.7773 52.8514 48.6414 53.209 47.588C53.5666 46.5345 54.2287 45.6108 55.1115 44.9339C55.9943 44.2569 57.058 43.857 58.1682 43.7848C59.2783 43.7127 60.3849 43.9715 61.3479 44.5286C62.6367 45.2741 63.5772 46.5004 63.963 47.9385C64.3487 49.3766 64.1483 50.909 63.4056 52.1994ZM18.6083 26.3375C18.0534 27.3018 17.2249 28.0797 16.2277 28.5728C15.2305 29.066 14.1094 29.2522 13.0063 29.1079C11.9032 28.9636 10.8677 28.4953 10.0309 27.7623C9.19403 27.0292 8.5935 26.0644 8.30526 24.9899C8.01702 23.9154 8.05405 22.7795 8.41165 21.7261C8.76924 20.6726 9.43133 19.749 10.3141 19.072C11.1969 18.395 12.2607 17.9951 13.3708 17.9229C14.481 17.8508 15.5876 18.1096 16.5506 18.6667C17.8394 19.4122 18.7799 20.6385 19.1656 22.0766C19.5514 23.5147 19.3509 25.0471 18.6083 26.3375ZM8.8932 52.1994C8.33615 51.2365 8.07732 50.1299 8.14946 49.0197C8.2216 47.9096 8.62148 46.8458 9.29848 45.963C9.97548 45.0802 10.8992 44.4181 11.9526 44.0605C13.0061 43.7029 14.1419 43.6659 15.2164 43.9541C16.2909 44.2424 17.2558 44.8429 17.9888 45.6797C18.7219 46.5165 19.1902 47.552 19.3345 48.6551C19.4787 49.7582 19.2925 50.8793 18.7994 51.8765C18.3062 52.8738 17.5283 53.7022 16.5641 54.2571C15.2736 54.9998 13.7412 55.2002 12.3031 54.8145C10.8651 54.4287 9.63873 53.4883 8.8932 52.1994ZM53.6905 26.3375C53.1335 25.3746 52.8747 24.268 52.9468 23.1578C53.019 22.0477 53.4188 20.9839 54.0958 20.1011C54.7728 19.2183 55.6965 18.5562 56.75 18.1986C57.8034 17.841 58.9393 17.804 60.0138 18.0922C61.0883 18.3805 62.0531 18.981 62.7862 19.8178C63.5192 20.6547 63.9875 21.6901 64.1318 22.7932C64.2761 23.8963 64.0899 25.0174 63.5967 26.0146C63.1036 27.0119 62.3256 27.8403 61.3614 28.3952C60.0709 29.1379 58.5386 29.3383 57.1005 28.9526C55.6624 28.5668 54.4361 27.6264 53.6905 26.3375ZM36.1494 67.9415C35.0375 67.9415 33.9505 67.6117 33.0259 66.994C32.1014 66.3762 31.3807 65.4981 30.9552 64.4708C30.5297 63.4435 30.4184 62.3131 30.6353 61.2225C30.8522 60.1319 31.3877 59.1301 32.174 58.3438C32.9602 57.5576 33.962 57.0221 35.0526 56.8052C36.1432 56.5883 37.2736 56.6996 38.3009 57.1251C39.3282 57.5506 40.2063 58.2712 40.8241 59.1958C41.4418 60.1204 41.7716 61.2073 41.7716 62.3193C41.7737 63.0582 41.6296 63.7902 41.3478 64.4733C41.066 65.1563 40.652 65.7769 40.1295 66.2994C39.607 66.8219 38.9864 67.2359 38.3034 67.5177C37.6203 67.7995 36.8883 67.9435 36.1494 67.9415ZM36.1494 16.1974C35.0375 16.1974 33.9505 15.8677 33.0259 15.2499C32.1014 14.6322 31.3807 13.7541 30.9552 12.7268C30.5297 11.6995 30.4184 10.569 30.6353 9.47845C30.8522 8.38786 31.3877 7.38609 32.174 6.59982C32.9602 5.81355 33.962 5.27809 35.0526 5.06116C36.1432 4.84422 37.2736 4.95556 38.3009 5.38109C39.3282 5.80662 40.2063 6.52722 40.8241 7.45178C41.4418 8.37634 41.7716 9.46332 41.7716 10.5753C41.7737 11.3142 41.6296 12.0462 41.3478 12.7292C41.066 13.4123 40.652 14.0329 40.1295 14.5554C39.607 15.0779 38.9864 15.4919 38.3034 15.7737C37.6203 16.0555 36.8883 16.1995 36.1494 16.1974Z" fill="#E10098"/>
</svg>
