<svg width="60" height="60" viewBox="0 0 60 60" fill="none" xmlns="http://www.w3.org/2000/svg">
<circle cx="30" cy="30" r="30" fill="#2A3057"/>
<mask id="mask0_3989_169" style="mask-type:luminance" maskUnits="userSpaceOnUse" x="34" y="17" width="12" height="19">
<path d="M34.625 17H45.0725V35.6131H34.625V17Z" fill="white"/>
</mask>
<g mask="url(#mask0_3989_169)">
<path d="M37.6288 24.5244C37.6288 27.0694 36.6261 29.4303 34.9686 31.0718L35.3574 31.2395C37.4643 32.1477 39.1663 33.6683 40.2922 35.5605H45.0718L44.8186 33.8372C44.4762 31.5058 42.9497 29.5181 40.7852 28.5853L38.467 27.5861C40.3842 26.8557 41.7649 24.8344 41.7649 22.4489C41.7649 19.4483 39.5832 17.0156 36.8917 17.0156C36.0688 17.0156 35.3013 17.2535 34.625 17.6595C36.4553 19.2818 37.6288 21.7551 37.6288 24.5244Z" fill="white"/>
</g>
<mask id="mask1_3989_169" style="mask-type:luminance" maskUnits="userSpaceOnUse" x="14" y="17" width="11" height="19">
<path d="M14 17H24.5443V35.6131H14V17Z" fill="white"/>
</mask>
<g mask="url(#mask1_3989_169)">
<path d="M23.7147 31.2395L24.1035 31.0722C22.446 29.4303 21.4433 27.0694 21.4433 24.5244C21.4433 21.7551 22.6168 19.2818 24.4468 17.6595C23.7709 17.2535 23.0029 17.0156 22.1804 17.0156C19.489 17.0156 17.3069 19.4483 17.3069 22.4489C17.3069 24.8344 18.6875 26.8557 20.6052 27.5861L18.2866 28.5853C16.122 29.5185 14.5955 31.5058 14.2535 33.8368L14 35.5605H18.7795C19.9059 33.6683 21.6075 32.1477 23.7147 31.2395Z" fill="white"/>
</g>
<mask id="mask2_3989_169" style="mask-type:luminance" maskUnits="userSpaceOnUse" x="18" y="17" width="23" height="26">
<path d="M18.5508 17.2422H40.516V42.0077H18.5508V17.2422Z" fill="white"/>
</mask>
<g mask="url(#mask2_3989_169)">
<path d="M18.9706 39.7018L18.6328 42.0003H40.4471L40.1098 39.7021C39.6535 36.5936 37.618 33.9437 34.7319 32.7L31.6407 31.3678C34.1969 30.3932 36.0381 27.6981 36.0381 24.5178C36.0381 20.5169 33.129 17.2734 29.5402 17.2734C25.9509 17.2734 23.0419 20.5169 23.0419 24.5178C23.0419 27.6981 24.8831 30.3932 27.44 31.3678L24.3484 32.7C21.4623 33.9437 19.4269 36.5936 18.9706 39.7018Z" fill="white"/>
</g>
</svg>
