<svg width="60" height="60" viewBox="0 0 60 60" fill="none" xmlns="http://www.w3.org/2000/svg">
<circle cx="30" cy="30" r="30" fill="#2A3057"/>
<mask id="mask0_3989_243" style="mask-type:luminance" maskUnits="userSpaceOnUse" x="25" y="21" width="21" height="23">
<path d="M25.5 21.5859H45.0717V43.997H25.5V21.5859Z" fill="white"/>
</mask>
<g mask="url(#mask0_3989_243)">
<path d="M45.0166 43.3871L42.9968 37.4816C43.0976 37.3045 43.1935 37.1246 43.2847 36.9418C43.3754 36.7595 43.461 36.5744 43.5417 36.3873C43.622 36.1997 43.6975 36.0102 43.7674 35.8186C43.8372 35.6271 43.9015 35.4339 43.9609 35.2388C44.0199 35.0436 44.0733 34.8468 44.1215 34.6489C44.1697 34.4505 44.2119 34.2513 44.2488 34.0509C44.2858 33.8501 44.3171 33.6489 44.3428 33.4465C44.3685 33.2441 44.3882 33.0414 44.4026 32.8382C44.4171 32.6346 44.4255 32.431 44.4283 32.227C44.4311 32.0234 44.4283 31.8194 44.4199 31.6158C44.4115 31.4118 44.397 31.2086 44.3773 31.0058C44.3572 30.8026 44.3315 30.6006 44.3006 30.399C44.2693 30.1974 44.2324 29.997 44.1898 29.7978C44.1472 29.5983 44.0994 29.4003 44.046 29.2035C43.9922 29.0067 43.9332 28.8116 43.8689 28.618C43.8043 28.4249 43.7344 28.2333 43.6593 28.0438C43.5842 27.8542 43.5035 27.6667 43.418 27.482C43.3321 27.2968 43.2413 27.1141 43.1457 26.9342C43.0498 26.7543 42.949 26.5772 42.843 26.4029C42.737 26.2286 42.6265 26.0572 42.5113 25.8893C42.3956 25.7211 42.2756 25.5564 42.1511 25.395C42.0262 25.2335 41.8973 25.0757 41.764 24.9215C41.6302 24.7673 41.4925 24.6171 41.3508 24.4706C41.209 24.324 41.0628 24.1814 40.9131 24.0433C40.7633 23.9047 40.6099 23.771 40.4525 23.6409C40.2951 23.5112 40.134 23.3863 39.9698 23.2654C39.8052 23.1446 39.6377 23.0285 39.4666 22.9173C39.296 22.806 39.1221 22.6992 38.945 22.5976C38.7683 22.496 38.5888 22.3996 38.4065 22.3077C38.2242 22.2161 38.0395 22.1298 37.8524 22.0487C37.6656 21.9671 37.4761 21.8912 37.285 21.8206C37.0934 21.7499 36.9003 21.6848 36.7055 21.625C36.8131 21.8615 36.9135 22.1013 37.0063 22.3438C37.0994 22.5868 37.1846 22.8321 37.2625 23.0803C37.3404 23.3285 37.4102 23.5787 37.4725 23.8312C37.5351 24.0834 37.5897 24.3376 37.6363 24.5934C37.6829 24.8488 37.7219 25.1058 37.7528 25.3641C37.7837 25.6223 37.8066 25.8813 37.8214 26.1407C37.8363 26.4001 37.8431 26.6599 37.8419 26.9202C37.8411 27.18 37.8319 27.4398 37.8146 27.6992C37.7978 27.9586 37.7725 28.2172 37.7395 28.4751C37.7066 28.7329 37.6656 28.9895 37.6167 29.2449C37.5677 29.5003 37.511 29.7537 37.4464 30.0054C37.3821 30.2576 37.3099 30.507 37.2299 30.7544C37.15 31.0018 37.0625 31.2467 36.9677 31.4889C36.8726 31.7306 36.7702 31.9695 36.6605 32.2053C36.5509 32.441 36.4341 32.6731 36.31 32.9016C36.1859 33.1301 36.055 33.3546 35.9172 33.575C35.7795 33.7955 35.635 34.0116 35.4836 34.2232C35.3326 34.4348 35.1752 34.6416 35.0109 34.8432C34.8471 35.0452 34.6772 35.242 34.5013 35.4331C34.3251 35.6247 34.1436 35.8102 33.956 35.9905C33.7685 36.1708 33.5753 36.3451 33.3774 36.5134C33.179 36.6816 32.9758 36.8439 32.7678 36.9997C32.5594 37.1555 32.3466 37.3045 32.1293 37.4474C31.9117 37.59 31.69 37.7257 31.4643 37.855C31.2387 37.9839 31.009 38.106 30.7757 38.2209C30.5424 38.3357 30.3058 38.4433 30.0657 38.5437C29.826 38.6441 29.583 38.7369 29.3373 38.8224C29.0915 38.9075 28.8438 38.9854 28.5932 39.0557C28.3426 39.1256 28.0904 39.1878 27.8358 39.2425C27.5817 39.2971 27.3259 39.3437 27.0689 39.3826C26.8115 39.4216 26.5533 39.4521 26.2943 39.4754C26.0352 39.4983 25.7758 39.5131 25.5156 39.5199C25.7208 39.7392 25.9349 39.95 26.1577 40.1516C26.3802 40.3536 26.6111 40.546 26.8496 40.7287C27.0881 40.9114 27.3335 41.0841 27.5865 41.2463C27.8391 41.4089 28.0981 41.5607 28.3635 41.7021C28.6289 41.8431 28.8996 41.9732 29.1754 42.092C29.4513 42.2109 29.732 42.3181 30.0167 42.4141C30.3018 42.5097 30.5901 42.5936 30.8817 42.6659C31.1736 42.7378 31.468 42.7976 31.7647 42.8454C32.0615 42.8932 32.3594 42.9285 32.6594 42.9518C32.959 42.9747 33.2589 42.9855 33.5597 42.9839C33.8601 42.9823 34.16 42.9687 34.4596 42.9422C34.7587 42.9161 35.0567 42.8775 35.3531 42.8265C35.649 42.7755 35.9425 42.7129 36.2337 42.6378C36.5248 42.5627 36.8123 42.4759 37.0962 42.3771C37.3801 42.2784 37.6592 42.1679 37.9339 42.0462C38.209 41.9246 38.478 41.7916 38.7418 41.6479L44.499 43.8847C44.5709 43.912 44.6444 43.918 44.7195 43.9023C44.7949 43.8871 44.86 43.8529 44.9154 43.7995C44.9708 43.7465 45.0074 43.6827 45.0258 43.608C45.0439 43.5333 45.0411 43.4598 45.0166 43.3871Z" fill="white"/>
</g>
<path d="M36.0955 26.8634C36.0947 26.6546 36.0879 26.4458 36.075 26.2369C36.0622 26.0281 36.0433 25.8201 36.0188 25.6125C35.9939 25.4053 35.9634 25.1985 35.9264 24.9925C35.8899 24.7869 35.8473 24.5825 35.7987 24.3789C35.7505 24.1757 35.6963 23.9737 35.6361 23.7737C35.5759 23.5733 35.5104 23.3749 35.4389 23.1786C35.3675 22.9822 35.2904 22.7878 35.2076 22.5959C35.1249 22.4039 35.037 22.2144 34.9434 22.0272C34.8498 21.8405 34.7511 21.6562 34.6471 21.4751C34.5427 21.294 34.4334 21.1157 34.3194 20.9406C34.2049 20.7659 34.0857 20.594 33.9612 20.4262C33.8371 20.2579 33.7082 20.0933 33.5745 19.9326C33.4408 19.772 33.3022 19.6154 33.1597 19.4624C33.0171 19.3098 32.8702 19.1612 32.7188 19.0166C32.5674 18.8725 32.412 18.7327 32.253 18.5974C32.0935 18.4617 31.9305 18.3312 31.7635 18.2051C31.5968 18.079 31.4265 17.9577 31.2527 17.8416C31.0788 17.7256 30.9017 17.6143 30.7214 17.5083C30.5415 17.4023 30.3584 17.3015 30.1725 17.2059C29.9861 17.1104 29.7978 17.02 29.6067 16.9353C29.4151 16.8505 29.222 16.7714 29.026 16.6979C28.8305 16.6245 28.6325 16.5566 28.4329 16.4944C28.2333 16.4321 28.0322 16.3755 27.8294 16.3249C27.6262 16.2743 27.4222 16.2297 27.2166 16.1908C27.0114 16.1518 26.805 16.1189 26.5974 16.0916C26.3902 16.0647 26.1822 16.0434 25.9734 16.0285C25.7649 16.0133 25.5561 16.0044 25.3469 16.0012C25.1377 15.998 24.9289 16.0012 24.7201 16.0101C24.5109 16.0189 24.3025 16.0337 24.0944 16.0546C23.8864 16.0755 23.6788 16.1024 23.4724 16.1353C23.266 16.1683 23.0604 16.2068 22.8564 16.2514C22.652 16.296 22.4493 16.3466 22.2477 16.4028C22.0461 16.459 21.8465 16.5213 21.6489 16.5887C21.451 16.6566 21.2554 16.7301 21.0619 16.8092C20.8679 16.8883 20.6768 16.9726 20.488 17.0626C20.2993 17.1525 20.1134 17.2481 19.9303 17.3485C19.7468 17.4493 19.5665 17.5553 19.3894 17.6661C19.2123 17.7774 19.0384 17.8934 18.8681 18.0143C18.6975 18.1356 18.5304 18.2613 18.3674 18.3918C18.204 18.5227 18.0445 18.6576 17.8891 18.7974C17.7337 18.9375 17.5823 19.0813 17.4354 19.2299C17.288 19.3785 17.1454 19.5311 17.0069 19.6877C16.8684 19.8443 16.7346 20.0049 16.6053 20.1696C16.4764 20.3338 16.352 20.5017 16.2327 20.6731C16.113 20.845 15.9986 21.0197 15.889 21.1976C15.7797 21.3759 15.6753 21.557 15.5765 21.7409C15.4774 21.9252 15.3838 22.112 15.2955 22.3015C15.2071 22.4911 15.1244 22.683 15.0473 22.877C14.9698 23.0713 14.8983 23.2677 14.8325 23.4661C14.7666 23.6645 14.7064 23.8644 14.6518 24.0664C14.5975 24.268 14.549 24.4712 14.506 24.676C14.4634 24.8804 14.4265 25.0864 14.3956 25.2928C14.3646 25.4996 14.3397 25.7073 14.3209 25.9153C14.3016 26.1233 14.2887 26.3321 14.2819 26.5409C14.2747 26.7497 14.2739 26.959 14.2787 27.1678C14.2839 27.3766 14.2948 27.5854 14.312 27.7938C14.3289 28.0019 14.3522 28.2099 14.3811 28.4167C14.41 28.6239 14.4449 28.8299 14.4859 29.0347C14.5265 29.2399 14.5734 29.4435 14.6261 29.6459C14.6787 29.8479 14.7369 30.0487 14.8007 30.2475C14.865 30.4466 14.9349 30.6434 15.0103 30.8386C15.0858 31.0333 15.1666 31.2261 15.2533 31.4164C15.3396 31.6068 15.4316 31.7943 15.5288 31.9794C15.6263 32.1646 15.7287 32.3465 15.8368 32.5256L15.14 34.5668L14.0209 37.8493C13.9964 37.9219 13.9936 37.9958 14.0117 38.0705C14.0301 38.1448 14.0667 38.2087 14.1221 38.2621C14.1775 38.3151 14.243 38.3496 14.3181 38.3649C14.3931 38.3801 14.4666 38.3745 14.5385 38.3472L17.7418 37.1027L19.7251 36.3309C20.4065 36.7244 21.1225 37.0405 21.8722 37.279C22.6223 37.5176 23.3893 37.6734 24.1728 37.7461C24.5056 37.7738 24.8442 37.7906 25.1855 37.7906C25.3642 37.7906 25.5429 37.7862 25.7216 37.7774C25.9003 37.7685 26.0786 37.7557 26.2565 37.738C26.4343 37.7204 26.6114 37.6987 26.7885 37.6722C26.9652 37.6461 27.1415 37.6155 27.3166 37.5806C27.4921 37.5457 27.6663 37.5063 27.8398 37.4629C28.0133 37.4196 28.1855 37.3718 28.3566 37.32C28.5277 37.2678 28.6971 37.212 28.8658 37.1517C29.034 37.0911 29.2007 37.0268 29.3657 36.9586C29.5308 36.8899 29.6942 36.8176 29.8556 36.7409C30.0175 36.6646 30.1769 36.5839 30.3347 36.4996C30.4921 36.4152 30.6475 36.3273 30.8009 36.2353C30.9543 36.1434 31.1053 36.0474 31.2539 35.9482C31.4024 35.8486 31.5482 35.7458 31.692 35.6394C31.8353 35.5326 31.9763 35.4225 32.1144 35.3093C32.2526 35.1957 32.3875 35.0788 32.52 34.9587C32.6525 34.8387 32.7818 34.7154 32.9079 34.5889C33.0344 34.4624 33.1573 34.3327 33.2773 34.2002C33.397 34.0676 33.5139 33.9323 33.6271 33.7942C33.7403 33.6556 33.85 33.5147 33.9564 33.3713C34.0628 33.2275 34.1656 33.0814 34.2648 32.9328C34.3636 32.7838 34.4591 32.6328 34.5507 32.4794C34.6426 32.326 34.7306 32.1706 34.8145 32.0128C34.8984 31.855 34.9787 31.6955 35.055 31.5337C35.1309 31.3719 35.2032 31.2084 35.2715 31.0434C35.3398 30.8783 35.4036 30.7113 35.4634 30.543C35.5237 30.3748 35.5795 30.2049 35.6309 30.0338C35.6827 29.8628 35.7301 29.6905 35.773 29.517C35.8164 29.3439 35.855 29.1692 35.8895 28.9941C35.9244 28.8187 35.9545 28.6428 35.9802 28.4657C36.0063 28.289 36.0276 28.1115 36.0449 27.934C36.0622 27.7561 36.075 27.5778 36.0834 27.3991C36.0919 27.2208 36.0959 27.0421 36.0955 26.8634ZM26.5564 29.3801C26.5564 29.4367 26.5508 29.4933 26.5396 29.5491C26.5283 29.6049 26.5122 29.6592 26.4902 29.7118C26.4685 29.7644 26.4416 29.8142 26.4102 29.8615C26.3785 29.9089 26.3424 29.9527 26.3022 29.9929C26.2621 30.033 26.2183 30.0692 26.1709 30.1005C26.1235 30.1322 26.0737 30.1591 26.0211 30.1808C25.9685 30.2025 25.9139 30.2189 25.8581 30.2302C25.8023 30.241 25.7461 30.2467 25.689 30.2467H20.164C20.1078 30.2459 20.0519 30.2394 19.9969 30.2278C19.9419 30.2161 19.8885 30.1989 19.8367 30.1768C19.7849 30.1547 19.7355 30.1278 19.6889 30.0957C19.6427 30.0639 19.5994 30.0282 19.56 29.988C19.5203 29.9479 19.4853 29.9041 19.454 29.8571C19.4231 29.8101 19.397 29.7608 19.3757 29.7085C19.3544 29.6563 19.338 29.6025 19.3271 29.5475C19.3163 29.4921 19.3111 29.4363 19.3111 29.3801V29.2961C19.3111 29.2391 19.3167 29.1829 19.3275 29.1271C19.3388 29.0712 19.3552 29.0174 19.3769 28.9648C19.399 28.9122 19.4255 28.8624 19.4572 28.815C19.489 28.7681 19.5247 28.7243 19.5652 28.6841C19.6054 28.644 19.6492 28.6082 19.6966 28.5765C19.7439 28.5452 19.7937 28.5187 19.8463 28.497C19.8989 28.4753 19.9532 28.4593 20.009 28.448C20.0648 28.4372 20.1214 28.4319 20.178 28.4319H25.689C25.7461 28.4319 25.8023 28.4372 25.8581 28.448C25.9139 28.4593 25.9681 28.4753 26.0207 28.497C26.0733 28.5187 26.1231 28.5452 26.1705 28.5765C26.2179 28.6082 26.2617 28.644 26.3022 28.6841C26.3424 28.7243 26.3785 28.7681 26.4098 28.815C26.4416 28.8624 26.4685 28.9122 26.4902 28.9648C26.5118 29.0174 26.5283 29.0712 26.5396 29.1271C26.5508 29.1829 26.5564 29.2391 26.5564 29.2961V29.3801ZM30.7298 25.5687C30.7298 25.6257 30.7246 25.682 30.7134 25.7378C30.7021 25.7936 30.6857 25.8478 30.664 25.9004C30.6423 25.953 30.6154 26.0032 30.5841 26.0502C30.5523 26.0976 30.5162 26.1414 30.476 26.1819C30.4359 26.2221 30.3921 26.2578 30.3447 26.2895C30.2974 26.3213 30.2472 26.3478 30.1946 26.3695C30.142 26.3915 30.0877 26.408 30.0319 26.4189C29.9761 26.4301 29.9199 26.4357 29.8629 26.4357H19.9825C19.9254 26.4357 19.8688 26.4301 19.813 26.4189C19.7572 26.408 19.703 26.3915 19.6504 26.3695C19.5978 26.3478 19.548 26.3213 19.5006 26.2895C19.4532 26.2578 19.4094 26.2221 19.3693 26.1819C19.3287 26.1414 19.293 26.0976 19.2613 26.0502C19.2295 26.0032 19.203 25.953 19.181 25.9004C19.1593 25.8478 19.1428 25.7936 19.132 25.7378C19.1207 25.682 19.1151 25.6257 19.1151 25.5687V25.4876C19.1155 25.431 19.1215 25.3752 19.1328 25.3193C19.144 25.2639 19.1609 25.2101 19.1826 25.1579C19.2046 25.1053 19.2315 25.0559 19.2633 25.0089C19.295 24.9619 19.3307 24.9186 19.3713 24.8784C19.4114 24.8387 19.4552 24.8029 19.5022 24.7716C19.5496 24.7403 19.5994 24.7138 19.6516 24.6921C19.7042 24.6704 19.7584 24.6539 19.8138 24.6431C19.8696 24.6318 19.9254 24.6266 19.9825 24.6266H29.8629C29.9199 24.6266 29.9761 24.6322 30.0319 24.6431C30.0877 24.6543 30.142 24.6708 30.1946 24.6925C30.2472 24.7142 30.2974 24.7411 30.3447 24.7728C30.3921 24.8041 30.4359 24.8403 30.476 24.8804C30.5162 24.9206 30.5523 24.9644 30.5841 25.0117C30.6154 25.0591 30.6423 25.1089 30.664 25.1615C30.6857 25.2141 30.7021 25.2683 30.7134 25.3242C30.7246 25.38 30.7298 25.4366 30.7298 25.4932V25.5687Z" fill="white"/>
</svg>
