<svg width="60" height="60" viewBox="0 0 60 60" fill="none" xmlns="http://www.w3.org/2000/svg">
<circle cx="30" cy="30" r="30" fill="#2A3057"/>
<mask id="mask0_3989_156" style="mask-type:luminance" maskUnits="userSpaceOnUse" x="15" y="19" width="27" height="27">
<path d="M15 19.0078H41.0129V45.0056H15V19.0078Z" fill="white"/>
</mask>
<g mask="url(#mask0_3989_156)">
<path d="M18.8105 38.8371H19.0646V44.1718C19.065 44.2446 19.0757 44.3157 19.0967 44.3856C19.1172 44.4551 19.1476 44.5204 19.1871 44.5817C19.2266 44.643 19.2739 44.6972 19.3286 44.7449C19.3837 44.7926 19.4441 44.8317 19.5103 44.8621C19.5765 44.8925 19.6456 44.9131 19.7175 44.9238C19.7895 44.9345 19.8615 44.9349 19.9338 44.925C20.0058 44.9151 20.0753 44.8954 20.1415 44.8658C20.2081 44.8362 20.269 44.798 20.3249 44.7507L27.2246 38.8371H37.1021C37.2267 38.8371 37.3513 38.831 37.4755 38.8186C37.5997 38.8063 37.723 38.7882 37.8451 38.7639C37.9677 38.7393 38.0886 38.7093 38.2078 38.6727C38.3275 38.6365 38.4447 38.5945 38.5602 38.5468C38.6753 38.4992 38.788 38.4457 38.8982 38.3869C39.008 38.3281 39.1149 38.264 39.2189 38.1945C39.3225 38.1254 39.4225 38.051 39.5191 37.9717C39.6153 37.8927 39.7078 37.8088 39.7962 37.7209C39.8842 37.6325 39.9681 37.5404 40.047 37.4437C40.1264 37.3471 40.2008 37.2472 40.2699 37.1436C40.3394 37.0396 40.4035 36.9327 40.4623 36.8229C40.5211 36.7127 40.5746 36.6001 40.6223 36.4849C40.67 36.3694 40.7119 36.2522 40.7481 36.1326C40.7843 36.0133 40.8147 35.8925 40.839 35.7699C40.8637 35.6478 40.8818 35.5245 40.8941 35.4003C40.9064 35.2762 40.9126 35.1516 40.9126 35.027C40.9126 35.027 40.9126 29.7228 40.9023 29.7228C40.0022 30.0439 39.0742 30.203 38.1182 30.2005C37.9808 30.2001 37.8439 30.1968 37.707 30.1898C37.5701 30.1833 37.4331 30.173 37.2966 30.1594C37.1601 30.1458 37.024 30.129 36.8883 30.1084C36.7526 30.0883 36.6177 30.0648 36.4833 30.0381C36.3488 30.011 36.2148 29.981 36.082 29.9477C35.9487 29.914 35.8168 29.8774 35.6856 29.8375C35.554 29.7976 35.4241 29.7544 35.295 29.7084C35.1658 29.6619 35.038 29.6126 34.9113 29.56C34.7843 29.5077 34.6593 29.4518 34.5351 29.3934C34.4113 29.3346 34.2888 29.273 34.1679 29.208C34.047 29.1435 33.9274 29.076 33.8098 29.0053C33.6922 28.9346 33.5766 28.8614 33.4623 28.7849C33.3484 28.7089 33.2361 28.6299 33.1259 28.5481C33.0162 28.4663 32.908 28.382 32.8019 28.2953C32.6958 28.2081 32.5922 28.1185 32.4903 28.0264C32.3887 27.9343 32.2896 27.8397 32.1926 27.7427C32.0955 27.6456 32.0009 27.5466 31.9088 27.445C31.8167 27.343 31.7271 27.2394 31.6399 27.1334C31.5532 27.0273 31.4685 26.9191 31.387 26.809C31.3052 26.6992 31.2263 26.5869 31.1498 26.473C31.0737 26.3587 31.0005 26.2432 30.9298 26.1256C30.8591 26.0076 30.7916 25.8884 30.7271 25.7675C30.6621 25.6466 30.6004 25.5241 30.5416 25.4004C30.4832 25.2762 30.4273 25.1508 30.3751 25.0242C30.3225 24.8975 30.2731 24.7697 30.2267 24.6406C30.1802 24.5115 30.1374 24.3811 30.0976 24.25C30.0577 24.1188 30.0207 23.9868 29.9874 23.8536C29.9541 23.7208 29.924 23.5868 29.8969 23.4523C29.8702 23.3179 29.8467 23.183 29.8266 23.0474C29.806 22.9117 29.7892 22.7756 29.7756 22.6391C29.762 22.5026 29.7517 22.3657 29.7452 22.2288C29.7382 22.0918 29.7349 21.9549 29.7345 21.8176C29.732 20.8576 29.8948 19.9259 30.2221 19.0234H18.8105C18.6859 19.0234 18.5613 19.0296 18.4371 19.0419C18.3129 19.0543 18.1896 19.0724 18.067 19.0966C17.9449 19.1213 17.824 19.1513 17.7044 19.1879C17.5851 19.2241 17.4679 19.266 17.3524 19.3137C17.2373 19.3614 17.1246 19.4149 17.0144 19.4736C16.9046 19.5324 16.7977 19.5966 16.6937 19.6661C16.5901 19.7351 16.4897 19.8096 16.3935 19.8889C16.2969 19.9678 16.2048 20.0517 16.1164 20.1397C16.028 20.2281 15.9445 20.3202 15.8651 20.4168C15.7862 20.5134 15.7118 20.6134 15.6427 20.717C15.5732 20.821 15.509 20.9279 15.4502 21.0377C15.3915 21.1478 15.338 21.2605 15.2903 21.3756C15.2426 21.4912 15.2007 21.6083 15.1641 21.728C15.1279 21.8472 15.0979 21.9681 15.0732 22.0906C15.0489 22.2127 15.0304 22.3361 15.0185 22.4602C15.0062 22.5844 15 22.709 15 22.8336V35.027C15 35.1516 15.0062 35.2762 15.0185 35.4003C15.0304 35.5245 15.0489 35.6478 15.0732 35.7699C15.0979 35.8925 15.1279 36.0133 15.1641 36.1326C15.2007 36.2522 15.2426 36.3694 15.2903 36.4849C15.338 36.6001 15.3915 36.7127 15.4502 36.8229C15.509 36.9327 15.5732 37.0396 15.6427 37.1436C15.7118 37.2472 15.7862 37.3471 15.8651 37.4437C15.9445 37.5404 16.028 37.6325 16.1164 37.7209C16.2048 37.8088 16.2969 37.8927 16.3935 37.9717C16.4897 38.051 16.5901 38.1254 16.6937 38.1945C16.7977 38.264 16.9046 38.3281 17.0144 38.3869C17.1246 38.4457 17.2373 38.4992 17.3524 38.5468C17.4679 38.5945 17.5851 38.6365 17.7044 38.6727C17.824 38.7093 17.9449 38.7393 18.067 38.7639C18.1896 38.7882 18.3129 38.8063 18.4371 38.8186C18.5613 38.831 18.6859 38.8371 18.8105 38.8371ZM20.843 24.104H27.9561C28.0063 24.104 28.056 24.1085 28.1049 24.1184C28.1539 24.1283 28.2016 24.1427 28.248 24.162C28.2941 24.1809 28.3381 24.2043 28.3796 24.2323C28.4211 24.2602 28.4598 24.2915 28.4952 24.3268C28.5305 24.3626 28.5622 24.4009 28.5901 24.4424C28.6177 24.4843 28.6411 24.5279 28.6605 24.5744C28.6794 24.6204 28.6942 24.6681 28.7036 24.717C28.7135 24.7664 28.7184 24.8157 28.7184 24.8659C28.7184 24.916 28.7135 24.9654 28.7036 25.0147C28.6942 25.0636 28.6794 25.1113 28.6605 25.1574C28.6411 25.2038 28.6177 25.2478 28.5901 25.2893C28.5622 25.3309 28.5305 25.3695 28.4952 25.4049C28.4598 25.4402 28.4211 25.4719 28.3796 25.4994C28.3381 25.5274 28.2941 25.5508 28.248 25.5702C28.2016 25.5891 28.1539 25.6035 28.1049 25.6133C28.056 25.6232 28.0063 25.6281 27.9561 25.6281H20.843C20.7928 25.6281 20.7435 25.6232 20.6941 25.6133C20.6452 25.6035 20.5975 25.5891 20.5514 25.5702C20.505 25.5508 20.461 25.5274 20.4194 25.4994C20.3779 25.4719 20.3393 25.4402 20.3039 25.4049C20.2685 25.3695 20.2369 25.3309 20.2093 25.2893C20.1814 25.2478 20.1579 25.2038 20.1386 25.1574C20.1197 25.1113 20.1053 25.0636 20.0954 25.0147C20.0856 24.9654 20.0806 24.916 20.0806 24.8659C20.0806 24.8157 20.0856 24.7664 20.0954 24.717C20.1053 24.6681 20.1197 24.6204 20.1386 24.5744C20.1579 24.5279 20.1814 24.4843 20.2093 24.4424C20.2369 24.4009 20.2685 24.3626 20.3039 24.3268C20.3393 24.2915 20.3779 24.2602 20.4194 24.2323C20.461 24.2043 20.505 24.1809 20.5514 24.162C20.5975 24.1427 20.6452 24.1283 20.6941 24.1184C20.7435 24.1085 20.7928 24.104 20.843 24.104ZM20.843 28.1682H31.0046C31.0548 28.1682 31.1046 28.1731 31.1535 28.183C31.2024 28.1925 31.2501 28.2073 31.2966 28.2262C31.3426 28.2455 31.3866 28.2689 31.4282 28.2965C31.4697 28.3245 31.5083 28.3561 31.5437 28.3915C31.5791 28.4268 31.6107 28.4655 31.6387 28.507C31.6662 28.5485 31.6897 28.5925 31.709 28.6386C31.7279 28.685 31.7427 28.7327 31.7522 28.7816C31.762 28.8306 31.767 28.8803 31.767 28.9305C31.767 28.9802 31.762 29.03 31.7522 29.0789C31.7427 29.1278 31.7279 29.1755 31.709 29.222C31.6897 29.268 31.6662 29.312 31.6387 29.3536C31.6107 29.3951 31.5791 29.4337 31.5437 29.4691C31.5083 29.5044 31.4697 29.5361 31.4282 29.5641C31.3866 29.5916 31.3426 29.615 31.2966 29.6344C31.2501 29.6537 31.2024 29.6681 31.1535 29.6775C31.1046 29.6874 31.0548 29.6923 31.0046 29.6923H20.843C20.7928 29.6923 20.7435 29.6874 20.6941 29.6775C20.6452 29.6681 20.5975 29.6537 20.5514 29.6344C20.505 29.615 20.461 29.5916 20.4194 29.5641C20.3779 29.5361 20.3393 29.5044 20.3039 29.4691C20.2685 29.4337 20.2369 29.3951 20.2093 29.3536C20.1814 29.312 20.1579 29.268 20.1386 29.222C20.1197 29.1755 20.1053 29.1278 20.0954 29.0789C20.0856 29.03 20.0806 28.9802 20.0806 28.9305C20.0806 28.8803 20.0856 28.8306 20.0954 28.7816C20.1053 28.7327 20.1197 28.685 20.1386 28.6386C20.1579 28.5925 20.1814 28.5485 20.2093 28.507C20.2369 28.4655 20.2685 28.4268 20.3039 28.3915C20.3393 28.3561 20.3779 28.3245 20.4194 28.2965C20.461 28.2689 20.505 28.2455 20.5514 28.2262C20.5975 28.2073 20.6452 28.1925 20.6941 28.183C20.7435 28.1731 20.7928 28.1682 20.843 28.1682ZM20.843 32.2324H35.0696C35.1198 32.2324 35.1691 32.2374 35.2181 32.2472C35.2674 32.2571 35.3151 32.2715 35.3612 32.2904C35.4076 32.3097 35.4512 32.3332 35.4932 32.3611C35.5347 32.3887 35.5729 32.4203 35.6083 32.4557C35.6441 32.491 35.6753 32.5297 35.7033 32.5712C35.7312 32.6127 35.7547 32.6567 35.7736 32.7032C35.7929 32.7492 35.8073 32.7969 35.8172 32.8459C35.8266 32.8952 35.8316 32.9445 35.8316 32.9947C35.8316 33.0449 35.8266 33.0942 35.8172 33.1435C35.8073 33.1925 35.7929 33.2401 35.7736 33.2862C35.7547 33.3327 35.7312 33.3762 35.7033 33.4182C35.6753 33.4597 35.6441 33.4979 35.6083 33.5337C35.5729 33.5691 35.5347 33.6003 35.4932 33.6283C35.4512 33.6562 35.4076 33.6797 35.3612 33.6986C35.3151 33.7179 35.2674 33.7323 35.2181 33.7422C35.1691 33.752 35.1198 33.7566 35.0696 33.7566H20.843C20.7928 33.7566 20.7435 33.752 20.6941 33.7422C20.6452 33.7323 20.5975 33.7179 20.5514 33.6986C20.505 33.6797 20.461 33.6562 20.4194 33.6283C20.3779 33.6003 20.3393 33.5691 20.3039 33.5337C20.2685 33.4979 20.2369 33.4597 20.2093 33.4182C20.1814 33.3762 20.1579 33.3327 20.1386 33.2862C20.1197 33.2401 20.1053 33.1925 20.0954 33.1435C20.0856 33.0942 20.0806 33.0449 20.0806 32.9947C20.0806 32.9445 20.0856 32.8952 20.0954 32.8459C20.1053 32.7969 20.1197 32.7492 20.1386 32.7032C20.1579 32.6567 20.1814 32.6127 20.2093 32.5712C20.2369 32.5297 20.2685 32.491 20.3039 32.4557C20.3393 32.4203 20.3779 32.3887 20.4194 32.3611C20.461 32.3332 20.505 32.3097 20.5514 32.2904C20.5975 32.2715 20.6452 32.2571 20.6941 32.2472C20.7435 32.2374 20.7928 32.2324 20.843 32.2324Z" fill="white"/>
</g>
<mask id="mask1_3989_156" style="mask-type:luminance" maskUnits="userSpaceOnUse" x="31" y="15" width="15" height="14">
<path d="M31.2266 15H45.0161V28.683H31.2266V15Z" fill="white"/>
</mask>
<g mask="url(#mask1_3989_156)">
<path d="M38.1211 14.9531C37.897 14.956 37.6742 14.9696 37.4513 14.9938C37.2289 15.0181 37.0081 15.053 36.7889 15.0991C36.5697 15.1447 36.353 15.2006 36.1392 15.2672C35.9254 15.3338 35.7157 15.4107 35.5093 15.4979C35.3029 15.5847 35.1014 15.6813 34.9044 15.7878C34.7075 15.8942 34.5159 16.0098 34.33 16.1348C34.1441 16.2598 33.9649 16.3934 33.7922 16.5356C33.6195 16.6779 33.4538 16.8284 33.2954 16.9867C33.1371 17.145 32.9866 17.3107 32.8444 17.4833C32.7021 17.656 32.5685 17.8357 32.4435 18.0211C32.3185 18.207 32.2029 18.3986 32.0964 18.5955C31.9899 18.7924 31.8933 18.9939 31.8061 19.2003C31.7194 19.4067 31.6425 19.6168 31.5759 19.8302C31.5093 20.044 31.4533 20.2606 31.4073 20.4798C31.3616 20.6989 31.3267 20.9197 31.3024 21.1422C31.2782 21.365 31.2646 21.5882 31.2617 21.8119C31.2617 21.9242 31.2646 22.0364 31.2699 22.1486C31.2757 22.2605 31.2839 22.3723 31.295 22.4841C31.3057 22.596 31.3197 22.7074 31.3361 22.8184C31.3526 22.9294 31.3719 23.04 31.3937 23.1498C31.4155 23.26 31.4402 23.3698 31.4673 23.4783C31.4949 23.5873 31.5245 23.6954 31.5574 23.8027C31.5898 23.9104 31.6248 24.0169 31.6626 24.1226C31.7005 24.2282 31.7412 24.3331 31.7839 24.4367C31.8271 24.5403 31.8723 24.6431 31.9204 24.7442C31.9685 24.8458 32.0187 24.9461 32.0718 25.0452C32.1248 25.1439 32.1799 25.2417 32.2379 25.3379C32.2954 25.4341 32.3555 25.5291 32.418 25.6224C32.4801 25.7158 32.5446 25.8075 32.6116 25.8975C32.6787 25.988 32.7477 26.0764 32.8189 26.1631C32.89 26.2499 32.9632 26.3346 33.0389 26.418C33.1141 26.5011 33.1914 26.5825 33.2708 26.6618C33.3501 26.7412 33.4316 26.8185 33.5146 26.8937C33.5977 26.9694 33.6828 27.0426 33.7695 27.1137C33.8563 27.1848 33.9447 27.2539 34.0352 27.3209C34.1252 27.3875 34.2169 27.4525 34.3103 27.5146C34.4036 27.577 34.4986 27.6371 34.5948 27.6946C34.691 27.7526 34.7885 27.8077 34.8876 27.8607C34.9867 27.9138 35.087 27.9639 35.1886 28.012C35.2897 28.0601 35.3925 28.1054 35.4961 28.1485C35.5997 28.1913 35.7046 28.232 35.8103 28.2698C35.9159 28.3077 36.0224 28.3426 36.1298 28.3751C36.2375 28.408 36.3456 28.4376 36.4546 28.4651C36.5632 28.4923 36.6729 28.5169 36.7827 28.5387C36.8929 28.5605 37.0035 28.5798 37.1146 28.5963C37.2256 28.6127 37.337 28.6267 37.4488 28.6374C37.5607 28.6485 37.6725 28.6567 37.7844 28.6625C37.8966 28.6678 38.0089 28.6707 38.1211 28.6707C38.2334 28.6707 38.3456 28.6678 38.4575 28.6625C38.5697 28.6567 38.6816 28.6485 38.7934 28.6374C38.9053 28.6267 39.0167 28.6127 39.1277 28.5963C39.2387 28.5798 39.3494 28.5605 39.4591 28.5387C39.5693 28.5169 39.6787 28.4923 39.7877 28.4651C39.8966 28.4376 40.0048 28.408 40.1121 28.3751C40.2198 28.3426 40.3263 28.3072 40.432 28.2698C40.5377 28.232 40.6421 28.1913 40.7462 28.1485C40.8498 28.1054 40.9522 28.0601 41.0537 28.012C41.1553 27.9639 41.2556 27.9138 41.3547 27.8607C41.4534 27.8077 41.5513 27.7526 41.6475 27.6946C41.7437 27.6371 41.8387 27.577 41.932 27.5146C42.0254 27.4525 42.1171 27.3875 42.2071 27.3209C42.2972 27.2539 42.386 27.1848 42.4727 27.1137C42.5595 27.0426 42.6442 26.9694 42.7277 26.8937C42.8107 26.8185 42.8921 26.7412 42.9715 26.6618C43.0509 26.5825 43.1282 26.5011 43.2034 26.418C43.2787 26.3346 43.3523 26.2499 43.4234 26.1631C43.4945 26.0764 43.5636 25.988 43.6306 25.8975C43.6972 25.8075 43.7618 25.7158 43.8243 25.6224C43.8868 25.5291 43.9468 25.4341 44.0044 25.3379C44.0624 25.2417 44.1175 25.1439 44.1705 25.0452C44.2232 24.9461 44.2737 24.8458 44.3218 24.7442C44.3699 24.6431 44.4152 24.5403 44.4584 24.4367C44.5011 24.3331 44.5414 24.2282 44.5792 24.1226C44.6171 24.0169 44.6524 23.9104 44.6849 23.8027C44.7174 23.6954 44.7474 23.5873 44.775 23.4783C44.8021 23.3698 44.8268 23.26 44.8486 23.1498C44.8704 23.04 44.8897 22.9294 44.9061 22.8184C44.9226 22.7074 44.9362 22.596 44.9473 22.4841C44.9584 22.3723 44.9666 22.2605 44.9719 22.1486C44.9777 22.0364 44.9806 21.9242 44.9806 21.8119C44.9806 21.6997 44.9777 21.5874 44.9719 21.4756C44.9666 21.3634 44.9584 21.2515 44.9473 21.1397C44.9362 21.0279 44.9226 20.9164 44.9061 20.8054C44.8897 20.6944 44.8704 20.5838 44.8486 20.474C44.8268 20.3638 44.8021 20.2545 44.775 20.1455C44.7474 20.0366 44.7174 19.9284 44.6849 19.8211C44.6524 19.7134 44.6171 19.6069 44.5792 19.5013C44.5414 19.3956 44.5011 19.2907 44.4584 19.1871C44.4152 19.0835 44.3699 18.9812 44.3218 18.8796C44.2737 18.778 44.2232 18.6777 44.1705 18.5786C44.1175 18.48 44.0624 18.3821 44.0044 18.2859C43.9468 18.1897 43.8868 18.0947 43.8243 18.0014C43.7618 17.9081 43.6972 17.8164 43.6306 17.7263C43.5636 17.6363 43.4945 17.5475 43.4234 17.4607C43.3523 17.374 43.2787 17.2893 43.2034 17.2058C43.1282 17.1228 43.0509 17.0414 42.9715 16.962C42.8921 16.8826 42.8107 16.8054 42.7277 16.7301C42.6442 16.6545 42.5595 16.5813 42.4727 16.5101C42.386 16.439 42.2972 16.3699 42.2071 16.3029C42.1171 16.2363 42.0254 16.1714 41.932 16.1093C41.8387 16.0468 41.7437 15.9868 41.6475 15.9292C41.5513 15.8712 41.4534 15.8161 41.3547 15.7631C41.2556 15.7101 41.1553 15.6599 41.0537 15.6118C40.9522 15.5637 40.8498 15.5185 40.7462 15.4753C40.6421 15.4325 40.5377 15.3922 40.432 15.3544C40.3263 15.3166 40.2198 15.2812 40.1121 15.2487C40.0048 15.2158 39.8966 15.1862 39.7877 15.1587C39.6787 15.1316 39.5693 15.1069 39.4591 15.0851C39.3494 15.0633 39.2387 15.044 39.1277 15.0275C39.0167 15.0111 38.9053 14.9975 38.7934 14.9864C38.6816 14.9753 38.5697 14.9671 38.4575 14.9618C38.3456 14.956 38.2334 14.9531 38.1211 14.9531ZM39.3913 23.8442C39.3913 23.894 39.3864 23.9437 39.3765 23.9926C39.367 24.042 39.3526 24.0897 39.3333 24.1357C39.314 24.1822 39.2906 24.2258 39.263 24.2677C39.235 24.3092 39.2034 24.3475 39.168 24.3828C39.1327 24.4182 39.0944 24.4498 39.0525 24.4778C39.0109 24.5058 38.967 24.5292 38.9209 24.5481C38.8744 24.5674 38.8271 24.5818 38.7778 24.5917C38.7289 24.6011 38.6791 24.6061 38.6294 24.6061C38.5792 24.6061 38.5294 24.6011 38.4805 24.5917C38.4316 24.5818 38.3839 24.5674 38.3374 24.5481C38.2914 24.5292 38.2474 24.5058 38.2058 24.4778C38.1643 24.4498 38.1257 24.4182 38.0903 24.3828C38.0549 24.3475 38.0233 24.3092 37.9953 24.2677C37.9678 24.2258 37.9443 24.1822 37.925 24.1357C37.9061 24.0897 37.8913 24.042 37.8818 23.9926C37.872 23.9437 37.867 23.894 37.867 23.8442V20.5419H37.6129C37.5632 20.5419 37.5134 20.5369 37.4645 20.5271C37.4151 20.5176 37.3674 20.5028 37.3214 20.4839C37.2749 20.4646 37.2313 20.4411 37.1894 20.4132C37.1479 20.3856 37.1096 20.354 37.0743 20.3186C37.0389 20.2833 37.0072 20.2446 36.9793 20.2031C36.9513 20.1616 36.9279 20.1176 36.909 20.0715C36.8896 20.0251 36.8752 19.9774 36.8654 19.9284C36.8559 19.8795 36.851 19.8298 36.851 19.7796C36.851 19.7299 36.8559 19.6801 36.8654 19.6312C36.8752 19.5818 36.8896 19.5341 36.909 19.4881C36.9279 19.4421 36.9513 19.3981 36.9793 19.3565C37.0072 19.3146 37.0389 19.2764 37.0743 19.241C37.1096 19.2056 37.1479 19.174 37.1894 19.146C37.2313 19.1185 37.2749 19.095 37.3214 19.0757C37.3674 19.0564 37.4151 19.042 37.4645 19.0321C37.5134 19.0227 37.5632 19.0177 37.6129 19.0177H38.6294C38.6791 19.0182 38.7285 19.0231 38.7774 19.0334C38.8263 19.0432 38.874 19.058 38.9201 19.0774C38.9661 19.0963 39.0097 19.1201 39.0512 19.1477C39.0928 19.1756 39.131 19.2073 39.1664 19.2426C39.2017 19.278 39.2334 19.3162 39.2614 19.3578C39.2889 19.3993 39.3128 19.4429 39.3317 19.4889C39.351 19.535 39.3658 19.5827 39.3757 19.6316C39.386 19.6805 39.3909 19.7299 39.3913 19.7796V23.8442Z" fill="white"/>
</g>
</svg>
