<svg width="60" height="60" viewBox="0 0 60 60" fill="none" xmlns="http://www.w3.org/2000/svg">
<circle cx="30" cy="30" r="30" fill="#2A3057"/>
<g clip-path="url(#clip0_3989_252)">
<path fill-rule="evenodd" clip-rule="evenodd" d="M33.3141 14H31.1357C30.9637 14.0969 30.6881 14.1225 30.4853 14.1875C28.858 14.7092 28.2439 15.5411 27.1029 16.6397L25.4147 18.3011C24.8443 18.8547 24.2613 19.3807 23.71 19.9465L16.9762 26.5719C16.4032 27.1252 15.8821 27.6023 15.3009 28.2062C14.6234 28.9101 15.164 30.1089 16.1861 30.0727C16.8616 30.0488 17.509 29.1798 18.0843 28.6259C21.4659 25.3703 24.8266 21.9595 28.1909 18.7131L29.8832 17.0557C31.3741 15.7949 33.4157 15.8695 34.6836 17.1784C36.0136 18.5514 35.9087 20.6065 34.6049 21.8955C34.3193 22.1778 34.0519 22.4292 33.7623 22.7081C33.4937 22.9668 33.1783 23.3028 32.9168 23.557C32.3501 24.1078 31.7694 24.6155 31.2265 25.2165L26.1673 30.1671C25.7893 30.5339 24.717 31.4121 24.6077 31.9542C24.4058 32.9555 25.5167 33.6457 26.3481 33.1066C26.5927 32.9479 30.0476 29.5148 30.588 28.9917L34.8071 24.8561C36.0022 23.7023 37.0087 22.211 39.1152 22.4909C41.7547 22.8415 43.3388 26.1072 40.9957 28.3652C39.331 29.9695 37.6163 31.7141 35.9509 33.33C34.8191 34.4282 33.6933 35.5455 32.5578 36.6365L30.0634 39.1073C29.8017 39.3583 29.4489 39.6588 29.2234 39.9618C28.7185 40.6405 28.5451 41.6874 28.9591 42.5679C29.3324 43.3619 30.0439 43.7744 30.5357 44.3409C30.8 44.6453 31.9492 45.7939 32.2691 45.9187C33.2231 46.291 34.2015 45.3151 33.7 44.3699C33.5545 44.0957 31.5779 42.2129 31.2072 41.8566C30.7437 41.4112 31.2151 41.1187 31.4924 40.8516L36.5381 35.8878C36.8283 35.6078 37.0907 35.3534 37.3803 35.0746L42.4336 30.1182C42.7603 29.7807 42.9737 29.5959 43.2544 29.2447C45.5427 26.381 44.2904 22.0206 40.7683 20.6298C39.7325 20.2208 39.0405 20.2136 37.8568 20.277C38.0538 17.897 37.1424 15.9163 35.2621 14.7875C34.1498 14.1197 33.6685 14.1976 33.3141 14V14Z" fill="white"/>
<path fill-rule="evenodd" clip-rule="evenodd" d="M32.0114 18.4092C31.5091 18.5197 31.3759 18.763 30.9252 19.1977L29.0165 21.0722C28.6847 21.3919 28.3854 21.6815 28.0536 22.0011C26.1409 23.8435 24.2728 25.7516 22.3674 27.5855C21.7341 28.195 21.1936 28.6986 20.7226 29.7238C18.8763 33.7426 22.4145 38.2346 26.8973 37.4756C29.1701 37.0907 30.259 35.5893 31.4187 34.4694L32.8427 33.0952C33.0042 32.9389 33.1423 32.7731 33.3072 32.6142L39.4777 26.568C40.441 25.6317 39.0486 23.8499 37.7249 25.1305C37.4158 25.4296 37.0758 25.79 36.7794 26.0764L32.981 29.805C32.3344 30.4288 31.723 30.9808 31.0915 31.6595C30.5939 32.1943 29.7499 32.9317 29.1712 33.5226C28.5887 34.1173 28.0086 34.8111 27.0468 35.1411C25.947 35.5183 24.8185 35.2888 24.0101 34.7484C22.3744 33.655 21.8971 31.2509 23.476 29.6398C24.1114 28.9914 24.6913 28.5117 25.367 27.7873C25.8875 27.2293 26.8765 26.3971 27.2846 25.9215C27.6097 25.5425 28.7354 24.5084 29.1797 24.0726C29.3491 23.9065 29.4781 23.7512 29.6439 23.5913C29.8153 23.4259 29.9537 23.2916 30.1252 23.1268L32.9773 20.3434C33.8866 19.4353 33.0277 18.1854 32.0114 18.4091V18.4092Z" fill="white"/>
</g>
<defs>
<clipPath id="clip0_3989_252">
<rect width="29.4108" height="32" fill="white" transform="translate(15 14)"/>
</clipPath>
</defs>
</svg>
