<svg width="60" height="60" viewBox="0 0 60 60" fill="none" xmlns="http://www.w3.org/2000/svg">
<circle cx="30" cy="30" r="30" fill="#2A3057"/>
<mask id="mask0_3989_225" style="mask-type:luminance" maskUnits="userSpaceOnUse" x="13" y="16" width="31" height="24">
<path d="M13 16H43.9416V39.9474H13V16Z" fill="white"/>
</mask>
<g mask="url(#mask0_3989_225)">
<path d="M43.6005 20.9612C43.3552 20.6636 42.9896 20.4917 42.6038 20.4917H20.5418L19.4799 16.9242C19.3166 16.3755 18.8127 16 18.2407 16H14.2935C13.579 16 13 16.579 13 17.293C13 18.0075 13.579 18.5861 14.2935 18.5861H17.2763L22.1088 34.8191C21.5849 35.7798 21.088 37.1549 21.6517 38.3066C22.1502 39.3265 23.2775 39.8437 25.0012 39.8437C25.0323 39.8437 25.0634 39.8425 25.0949 39.8396C25.2068 39.8292 36.3464 38.8077 40.1875 39.0252C40.7475 39.0555 41.2324 38.6265 41.2643 38.0637C41.2962 37.5009 40.8652 37.0185 40.3023 36.9875C36.4028 36.7674 25.8724 37.7181 24.9557 37.8018C24.0107 37.7956 23.573 37.588 23.4856 37.4098C23.3882 37.2117 23.4574 36.837 23.6215 36.413C23.6489 36.4118 23.6758 36.4114 23.704 36.4081L40.5809 34.3666C41.1387 34.2986 41.5892 33.8784 41.6953 33.3272L43.8732 22.0296C43.9462 21.6504 43.8463 21.2588 43.6005 20.9612ZM34.2331 27.2341H28.9248V23.0777H34.2331V27.2341ZM22.9141 28.4592H27.7001V33.3193L24.4765 33.7097L22.9141 28.4592ZM28.9248 28.4592H34.2331V32.529L28.9248 33.1709V28.4592ZM40.2369 27.2341H35.4582V23.0777H41.038L40.2369 27.2341ZM27.7001 23.0777V27.2341H22.5494L21.3118 23.0777H27.7001ZM35.4582 32.3806V28.4592H40.0002L39.3346 31.9114L35.4582 32.3806Z" fill="white"/>
</g>
<mask id="mask1_3989_225" style="mask-type:luminance" maskUnits="userSpaceOnUse" x="20" y="40" width="7" height="6">
<path d="M20.7461 40.7969H26.0511V45.9993H20.7461V40.7969Z" fill="white"/>
</mask>
<g mask="url(#mask1_3989_225)">
<path d="M25.9994 43.4278C25.9994 43.5123 25.9953 43.5964 25.987 43.681C25.9787 43.7651 25.9662 43.8488 25.9497 43.9317C25.9331 44.0146 25.9124 44.0967 25.8879 44.1775C25.8635 44.2587 25.8349 44.3383 25.8025 44.4162C25.7702 44.4945 25.7342 44.5708 25.6944 44.6454C25.6542 44.7204 25.6106 44.7925 25.5638 44.8629C25.517 44.9334 25.4664 45.0014 25.413 45.0669C25.3591 45.1319 25.3023 45.1949 25.2426 45.2546C25.1825 45.3143 25.1199 45.371 25.0549 45.4249C24.9894 45.4784 24.9214 45.5289 24.851 45.5758C24.7805 45.623 24.708 45.6665 24.6334 45.7063C24.5588 45.7461 24.4825 45.7822 24.4042 45.8145C24.3263 45.8472 24.2467 45.8754 24.1655 45.8999C24.0846 45.9247 24.0026 45.945 23.9197 45.9616C23.8368 45.9782 23.7531 45.9906 23.6689 45.9989C23.5848 46.0072 23.5003 46.0114 23.4157 46.0114C23.3312 46.0114 23.2466 46.0072 23.1625 45.9989C23.0784 45.9906 22.9946 45.9782 22.9117 45.9616C22.8284 45.945 22.7468 45.9247 22.6656 45.9003C22.5847 45.8754 22.5052 45.8472 22.4268 45.8145C22.3489 45.7822 22.2722 45.7461 22.1976 45.7063C22.123 45.6665 22.0505 45.623 21.9805 45.5758C21.91 45.5289 21.842 45.4784 21.7766 45.4249C21.7111 45.371 21.6485 45.3143 21.5888 45.2546C21.5291 45.1949 21.4724 45.1319 21.4185 45.0669C21.365 45.0014 21.3145 44.9334 21.2676 44.8629C21.2204 44.7925 21.1769 44.7204 21.1371 44.6454C21.0973 44.5708 21.0612 44.4945 21.0289 44.4162C20.9962 44.3383 20.968 44.2587 20.9431 44.1775C20.9187 44.0967 20.8983 44.0146 20.8818 43.9317C20.8652 43.8488 20.8528 43.7651 20.8445 43.681C20.8362 43.5964 20.832 43.5123 20.832 43.4278C20.832 43.3428 20.8362 43.2587 20.8445 43.1745C20.8528 43.09 20.8652 43.0067 20.8818 42.9234C20.8983 42.8405 20.9187 42.7584 20.9431 42.6776C20.968 42.5964 20.9962 42.5168 21.0289 42.4389C21.0612 42.3606 21.0973 42.2843 21.1371 42.2097C21.1769 42.1351 21.2204 42.0626 21.2676 41.9922C21.3145 41.9217 21.365 41.8537 21.4185 41.7887C21.4724 41.7232 21.5291 41.6606 21.5888 41.6005C21.6485 41.5408 21.7111 41.4841 21.7766 41.4302C21.842 41.3767 21.91 41.3262 21.9805 41.2793C22.0505 41.2321 22.123 41.189 22.1976 41.1488C22.2722 41.109 22.3489 41.0729 22.4268 41.0406C22.5052 41.0083 22.5847 40.9797 22.6656 40.9552C22.7468 40.9304 22.8284 40.9101 22.9117 40.8935C22.9946 40.8769 23.0784 40.8645 23.1625 40.8562C23.2466 40.8479 23.3312 40.8438 23.4157 40.8438C23.5003 40.8438 23.5848 40.8479 23.6689 40.8562C23.7531 40.8645 23.8368 40.8769 23.9197 40.8935C24.0026 40.9101 24.0846 40.9304 24.1655 40.9552C24.2467 40.9797 24.3263 41.0083 24.4042 41.0406C24.4825 41.0729 24.5588 41.109 24.6334 41.1488C24.708 41.189 24.7805 41.2321 24.851 41.2793C24.9214 41.3262 24.9894 41.3767 25.0549 41.4302C25.1199 41.4841 25.1825 41.5408 25.2426 41.6005C25.3023 41.6606 25.3591 41.7232 25.413 41.7887C25.4664 41.8537 25.517 41.9217 25.5638 41.9922C25.6106 42.0626 25.6542 42.1351 25.6944 42.2097C25.7342 42.2843 25.7702 42.3606 25.8025 42.4389C25.8349 42.5168 25.8635 42.5964 25.8879 42.6776C25.9124 42.7584 25.9331 42.8405 25.9497 42.9234C25.9662 43.0067 25.9787 43.09 25.987 43.1745C25.9953 43.2587 25.9994 43.3428 25.9994 43.4278Z" fill="white"/>
</g>
<mask id="mask2_3989_225" style="mask-type:luminance" maskUnits="userSpaceOnUse" x="35" y="40" width="6" height="6">
<path d="M35.4961 40.7969H40.8011V45.9993H35.4961V40.7969Z" fill="white"/>
</mask>
<g mask="url(#mask2_3989_225)">
<path d="M40.7025 43.4278C40.7025 43.5123 40.6984 43.5964 40.6901 43.681C40.6818 43.7651 40.6694 43.8488 40.6528 43.9317C40.6362 44.0146 40.6159 44.0967 40.591 44.1775C40.5666 44.2587 40.538 44.3383 40.5057 44.4162C40.4733 44.4945 40.4373 44.5708 40.3975 44.6454C40.3573 44.7204 40.3142 44.7925 40.2669 44.8629C40.2201 44.9334 40.1695 45.0014 40.1161 45.0669C40.0622 45.1319 40.0054 45.1949 39.9457 45.2546C39.8861 45.3143 39.8231 45.371 39.758 45.4249C39.6925 45.4784 39.6245 45.5289 39.5541 45.5758C39.484 45.623 39.4115 45.6665 39.3369 45.7063C39.2619 45.7461 39.1856 45.7822 39.1077 45.8145C39.0294 45.8472 38.9498 45.8754 38.869 45.8999C38.7878 45.9247 38.7057 45.945 38.6228 45.9616C38.5399 45.9782 38.4562 45.9906 38.3721 45.9989C38.2879 46.0072 38.2034 46.0114 38.1188 46.0114C38.0343 46.0114 37.9497 46.0072 37.8656 45.9989C37.7815 45.9906 37.6978 45.9782 37.6149 45.9616C37.532 45.945 37.4499 45.9247 37.3687 45.9003C37.2879 45.8754 37.2083 45.8472 37.13 45.8145C37.052 45.7822 36.9754 45.7461 36.9008 45.7063C36.8262 45.6665 36.7536 45.623 36.6836 45.5758C36.6131 45.5289 36.5452 45.4784 36.4797 45.4249C36.4142 45.371 36.3516 45.3143 36.2919 45.2546C36.2323 45.1949 36.1755 45.1319 36.1216 45.0669C36.0681 45.0014 36.0176 44.9334 35.9707 44.8629C35.9235 44.7925 35.8804 44.7204 35.8402 44.6454C35.8004 44.5708 35.7643 44.4945 35.732 44.4162C35.6997 44.3383 35.6711 44.2587 35.6466 44.1775C35.6218 44.0967 35.6015 44.0146 35.5849 43.9317C35.5683 43.8488 35.5559 43.7651 35.5476 43.681C35.5393 43.5964 35.5352 43.5123 35.5352 43.4278C35.5352 43.3428 35.5393 43.2587 35.5476 43.1745C35.5559 43.09 35.5683 43.0067 35.5849 42.9234C35.6015 42.8405 35.6218 42.7584 35.6466 42.6776C35.6711 42.5964 35.6997 42.5168 35.732 42.4389C35.7643 42.3606 35.8004 42.2843 35.8402 42.2097C35.8804 42.1351 35.9235 42.0626 35.9707 41.9922C36.0176 41.9217 36.0681 41.8537 36.1216 41.7887C36.1755 41.7232 36.2323 41.6606 36.2919 41.6005C36.3516 41.5408 36.4142 41.4841 36.4797 41.4302C36.5452 41.3767 36.6131 41.3262 36.6836 41.2793C36.7536 41.2321 36.8262 41.189 36.9008 41.1488C36.9754 41.109 37.052 41.0729 37.13 41.0406C37.2083 41.0083 37.2879 40.9797 37.3687 40.9552C37.4499 40.9304 37.532 40.9101 37.6149 40.8935C37.6978 40.8769 37.7815 40.8645 37.8656 40.8562C37.9497 40.8479 38.0343 40.8438 38.1188 40.8438C38.2034 40.8438 38.2879 40.8479 38.3721 40.8562C38.4562 40.8645 38.5399 40.8769 38.6228 40.8935C38.7057 40.9101 38.7878 40.9304 38.869 40.9552C38.9498 40.9797 39.0294 41.0083 39.1077 41.0406C39.1856 41.0729 39.2619 41.109 39.3369 41.1488C39.4115 41.189 39.484 41.2321 39.5541 41.2793C39.6245 41.3262 39.6925 41.3767 39.758 41.4302C39.8231 41.4841 39.8861 41.5408 39.9457 41.6005C40.0054 41.6606 40.0622 41.7232 40.1161 41.7887C40.1695 41.8537 40.2201 41.9217 40.2669 41.9922C40.3142 42.0626 40.3573 42.1351 40.3975 42.2097C40.4373 42.2843 40.4733 42.3606 40.5057 42.4389C40.538 42.5168 40.5666 42.5964 40.591 42.6776C40.6159 42.7584 40.6362 42.8405 40.6528 42.9234C40.6694 43.0067 40.6818 43.09 40.6901 43.1745C40.6984 43.2587 40.7025 43.3428 40.7025 43.4278Z" fill="white"/>
</g>
</svg>
