<svg width="60" height="60" viewBox="0 0 60 60" fill="none" xmlns="http://www.w3.org/2000/svg">
<circle cx="30" cy="30" r="30" fill="#2A3057"/>
<path d="M34.8296 17.1356C35.7325 16.7365 36.8896 17.2573 37.2101 18.1879C38.049 20.2665 38.8688 22.3536 39.7167 24.4304C40.3811 24.4304 41.1496 24.3619 41.6599 24.8831C42.6761 25.7685 42.1061 27.2371 42.3301 28.3957V39.0133C42.0995 40.1613 42.6932 41.6808 41.6599 42.543C41.1026 43.1021 40.2678 42.987 39.5525 42.9957C32.0003 42.9848 24.4458 42.9957 16.8936 42.9913C16.0632 43.0361 15.3096 42.4108 15.0809 41.6299C15.0616 40.7714 15.0215 39.0555 15 38.1978V28.4656C15.1985 27.1683 14.6026 25.3755 16.0333 24.6074C22.2914 22.1019 28.5649 19.6262 34.8296 17.1356ZM16.2577 25.6979C16.1637 26.4045 16.1936 27.1169 16.1961 27.8275C24.5103 27.8341 32.8249 27.8319 41.1391 27.8297C41.1329 27.2557 41.154 26.6835 41.1263 26.1116C41.1729 25.8108 40.9362 25.5587 40.6375 25.5802C33.1556 25.5653 25.674 25.5784 18.1924 25.574C17.5448 25.5613 16.8918 25.5485 16.2577 25.6979ZM16.1958 32.4397C16.1998 35.3976 16.1826 38.3558 16.2019 41.3137C16.1378 41.7424 16.5818 41.9023 16.9278 41.8535C24.7576 41.8513 32.5874 41.8535 40.4172 41.8535C40.7544 41.8983 41.1922 41.7384 41.1259 41.3177C41.1496 38.3576 41.1299 35.3972 41.1347 32.4393C32.8223 32.4397 24.5081 32.4397 16.1958 32.4397Z" fill="white"/>
<path d="M32.805 38.4631C32.1942 37.2084 33.1597 35.6651 34.4575 35.3858C35.0981 35.215 35.7556 35.4521 36.2877 35.8039C36.7357 35.597 37.1801 35.3261 37.6903 35.3282C38.916 35.3151 40.037 36.4315 40.0177 37.6586C39.9773 38.8536 38.8839 39.9189 37.6841 39.9018C37.1804 39.8996 36.7361 39.6352 36.3004 39.4152C35.1666 40.3735 33.3411 39.7951 32.805 38.4631ZM33.7574 37.6673C33.6911 38.6168 34.9532 39.106 35.6281 38.5189C35.387 37.9124 35.423 37.2641 35.6215 36.6537C34.8483 36.1649 33.6248 36.6624 33.7574 37.6673ZM37.0988 36.6089C36.2939 37.1297 36.4775 38.572 37.4576 38.7367C38.2436 38.9607 39.0485 38.2519 38.869 37.4393C38.8391 36.579 37.7737 36.2373 37.0988 36.6089Z" fill="white"/>
<path d="M18.5774 37.0966C21.4813 37.0194 24.3919 37.0729 27.2999 37.0707C28.0276 37.0154 28.0363 38.2658 27.2911 38.1915C24.4447 38.202 21.5964 38.2148 18.7504 38.1871C18.1545 38.217 18.0267 37.278 18.5774 37.0966Z" fill="white"/>
<path d="M18.5774 38.8232C21.4813 38.7459 24.3919 38.7995 27.2999 38.7973C28.0276 38.7419 28.0363 39.9927 27.2911 39.918C24.4447 39.9286 21.5964 39.9417 18.7504 39.9137C18.1545 39.9435 18.0267 39.0045 18.5774 38.8232Z" fill="white"/>
<path d="M18.5774 35.0417C21.4813 34.9649 24.3919 35.0181 27.2999 35.0162C28.0276 34.9605 28.0363 36.2113 27.2911 36.1366C24.4447 36.1475 21.5964 36.1603 18.7504 36.1326C18.1545 36.1625 18.0267 35.2231 18.5774 35.0417Z" fill="white"/>
</svg>
