<svg width="60" height="60" viewBox="0 0 60 60" fill="none" xmlns="http://www.w3.org/2000/svg">
<circle cx="30" cy="30" r="30" fill="#2A3057"/>
<mask id="mask0_3989_195" style="mask-type:luminance" maskUnits="userSpaceOnUse" x="17" y="18" width="27" height="25">
<path d="M17 18.0703H43.9934V42.9969H17V18.0703Z" fill="white"/>
</mask>
<g mask="url(#mask0_3989_195)">
<path d="M19.0537 25.4306H41.9397V39.6642C41.9397 40.3763 41.3621 40.9538 40.6505 40.9538H20.3428C19.6313 40.9564 19.0537 40.3786 19.0537 39.6642V25.4306ZM19.581 18.1172C18.1549 18.1172 17 19.2724 17 20.6962V40.4192C17 41.843 18.1549 42.9987 19.581 42.9987H41.4124C42.8385 43.0009 43.9934 41.8457 43.9934 40.4192V20.6962C43.9934 19.2724 42.8385 18.1172 41.4124 18.1172H38.925V20.1975C38.9154 21.4106 37.9256 22.3838 36.7155 22.3741C35.5173 22.3648 34.5492 21.396 34.5395 20.1975V18.1172H26.4539V20.1975C26.4442 21.4106 25.4545 22.3838 24.2421 22.3741C23.0461 22.3648 22.078 21.396 22.0683 20.1975V18.1172H19.581Z" fill="white"/>
</g>
<path d="M39.3497 36.0078V38.3164H36.2344V36.0078H39.3497Z" fill="white"/>
<path d="M34.4865 36.0078V38.3164H31.3711V36.0078H34.4865Z" fill="white"/>
<path d="M29.6232 36.0078V38.3164H26.5078V36.0078H29.6232Z" fill="white"/>
<path d="M24.756 36.0078V38.3164H21.6406V36.0078H24.756Z" fill="white"/>
<path d="M39.3497 32.0391V34.3473H36.2344V32.0391H39.3497Z" fill="white"/>
<path d="M34.4865 32.0391V34.3473H31.3711V32.0391H34.4865Z" fill="white"/>
<path d="M29.6232 32.0391V34.3473H26.5078V32.0391H29.6232Z" fill="white"/>
<path d="M24.756 32.0391V34.3473H21.6406V32.0391H24.756Z" fill="white"/>
<path d="M39.3497 28.0703V30.3786H36.2344V28.0703H39.3497Z" fill="white"/>
<path d="M34.4865 28.0703V30.3786H31.3711V28.0703H34.4865Z" fill="white"/>
<path d="M29.6232 28.0703V30.3786H26.5078V28.0703H29.6232Z" fill="white"/>
<path d="M24.756 28.0703V30.3786H21.6406V28.0703H24.756Z" fill="white"/>
<mask id="mask1_3989_195" style="mask-type:luminance" maskUnits="userSpaceOnUse" x="35" y="16" width="3" height="6">
<path d="M35.7109 16H37.8112V21.2249H35.7109V16Z" fill="white"/>
</mask>
<g mask="url(#mask1_3989_195)">
<path d="M37.7405 20.1766V17.0458C37.7405 16.4874 37.2878 16.0368 36.7292 16.0391C36.1735 16.0391 35.7227 16.4897 35.7227 17.0458V20.1766C35.7227 20.7328 36.178 21.1856 36.734 21.1834C37.29 21.1834 37.7405 20.7328 37.7405 20.1766Z" fill="white"/>
</g>
<mask id="mask2_3989_195" style="mask-type:luminance" maskUnits="userSpaceOnUse" x="23" y="16" width="3" height="6">
<path d="M23.2031 16H25.3034V21.2249H23.2031V16Z" fill="white"/>
</mask>
<g mask="url(#mask2_3989_195)">
<path d="M25.2679 17.0403C25.2679 16.4819 24.8148 16.0312 24.2587 16.0312C23.7005 16.0335 23.25 16.4841 23.25 17.0403V20.171C23.25 20.7272 23.7005 21.18 24.2587 21.18C24.817 21.1778 25.2679 20.7272 25.2679 20.171V17.0403Z" fill="white"/>
</g>
</svg>
