<svg width="67" height="67" viewBox="0 0 67 67" fill="none" xmlns="http://www.w3.org/2000/svg">
<g clip-path="url(#clip0_3989_348)">
<path d="M31.9418 35.0987H22.5575V29.842H31.9473V35.1014L31.9418 35.0987ZM41.3316 0.554688V17.0763H57.8533L41.3316 0.554688ZM45.0848 29.842H35.695V35.1014H45.0848V29.842ZM45.0848 38.8546H35.695V44.114H45.0848V38.8546ZM57.8505 18.4531V62.1363C57.8505 64.6256 55.8349 66.6412 53.3456 66.6412H14.294C13.7024 66.6412 13.1166 66.5247 12.57 66.2983C12.0235 66.0719 11.5268 65.7401 11.1085 65.3217C10.2637 64.4769 9.78906 63.3311 9.78906 62.1363V5.05958C9.78906 2.57033 11.8047 0.554688 14.294 0.554688H39.9521V18.4531H57.8505ZM48.838 26.0889H18.7989V47.8671H48.8407V26.0861L48.838 26.0889ZM31.9418 38.8546H22.5575V44.114H31.9473V38.8546H31.9418Z" fill="#212121"/>
</g>
<defs>
<clipPath id="clip0_3989_348">
<rect x="0.777344" y="0.554688" width="66.0866" height="66.0865" rx="20" fill="white"/>
</clipPath>
</defs>
</svg>
