<svg width="72" height="73" viewBox="0 0 72 73" fill="none" xmlns="http://www.w3.org/2000/svg">
<g clip-path="url(#clip0_3989_319)">
<path d="M54.4653 24.2518V15.7241C55.5955 15.1952 56.5522 14.3562 57.2242 13.3048C57.8963 12.2534 58.2559 11.0327 58.2613 9.7849V9.58475C58.2566 7.84343 57.5628 6.17478 56.3315 4.94347C55.1001 3.71217 53.4315 3.01833 51.6902 3.01358H51.49C49.7468 3.01536 48.0752 3.70789 46.8415 4.93951C45.6078 6.17114 44.9124 7.84148 44.9076 9.58475V9.7849C44.9145 11.0246 45.2709 12.2373 45.9361 13.2835C46.6012 14.3298 47.548 15.1671 48.6677 15.6994L48.7037 15.7219V24.2721C45.4411 24.7673 42.369 26.1217 39.8027 28.1963L39.8387 28.1738L16.365 9.89059C18.4857 1.97236 8.15444 -3.09882 3.18895 3.42512C-1.79003 9.93782 5.81337 18.5577 12.8995 14.4355L12.8636 14.458L35.9369 32.4129C33.8971 35.4758 32.8131 39.0755 32.8222 42.7554C32.8222 46.7719 34.0996 50.5095 36.2652 53.5657L36.2292 53.5072L29.2015 60.5237C28.6393 60.3483 28.0546 60.2538 27.4677 60.2426H27.4564C22.0344 60.2426 19.3043 66.8137 23.1454 70.6548C26.9864 74.4846 33.5576 71.768 33.5576 66.3437C33.5436 65.7347 33.4414 65.131 33.254 64.5514L33.2652 64.5986L40.212 57.6519C42.4779 59.3811 45.1082 60.571 47.9029 61.1314C50.6977 61.6917 53.5834 61.6077 56.3408 60.8857C59.095 60.1602 61.6476 58.8165 63.8048 56.9568C65.962 55.0972 67.667 52.7703 68.7904 50.1531C69.9137 47.5359 70.4259 44.6971 70.288 41.8523C70.1501 39.0075 69.3657 36.2315 67.9944 33.7353C66.6229 31.2395 64.6998 29.0898 62.3716 27.4498C60.0434 25.8099 57.3716 24.723 54.5597 24.2721L54.4428 24.2496L54.4653 24.2518ZM51.571 52.3738C43.0096 52.3513 38.7457 41.9953 44.8132 35.9526C50.8693 29.9077 61.2119 34.1963 61.2119 42.7577V42.7689C61.2122 44.0313 60.9635 45.2813 60.4803 46.4475C59.997 47.6137 59.2885 48.6731 58.3953 49.5652C57.5022 50.4573 56.4419 51.1646 55.2752 51.6465C54.1084 52.1284 52.8581 52.3756 51.5957 52.3738H51.571Z" fill="#212121"/>
</g>
<defs>
<clipPath id="clip0_3989_319">
<rect y="0.476562" width="71.9636" height="71.9635" rx="20" fill="white"/>
</clipPath>
</defs>
</svg>
