<svg width="69" height="68" viewBox="0 0 69 68" fill="none" xmlns="http://www.w3.org/2000/svg">
<g clip-path="url(#clip0_3989_342)">
<path d="M52.2298 0.179688H16.1974C7.41795 0.179688 0.300781 7.29685 0.300781 16.0763V52.1087C0.300781 60.8882 7.41795 68.0053 16.1974 68.0053H52.2298C61.0093 68.0053 68.1265 60.8882 68.1265 52.1087V16.0763C68.1265 7.29685 61.0093 0.179688 52.2298 0.179688Z" fill="#023430"/>
<path d="M45.6539 28.6887C42.8621 16.3739 37.044 13.0954 35.5597 10.778C34.9474 9.75722 34.4052 8.69596 33.937 7.60156C33.8585 8.69578 33.7144 9.38463 32.7845 10.2144C30.9174 11.8791 22.9876 18.3411 22.3202 32.3335C21.6984 45.3799 31.9112 53.4244 33.2603 54.2561C34.2978 54.7666 35.5613 54.2669 36.1779 53.7982C41.1008 50.4197 47.8272 41.4121 45.6591 28.6887" fill="#10AA50"/>
<path d="M34.3596 47.3047C34.1026 50.5338 33.9184 52.4102 33.2656 54.2555C33.2656 54.2555 33.694 57.3296 33.995 60.5861H35.0598C35.3141 58.2929 35.702 56.0165 36.2213 53.7685C34.8428 53.0903 34.4126 50.1383 34.3596 47.3047Z" fill="#B8C4C2"/>
<path d="M36.2197 53.771C34.8266 53.1274 34.4236 50.1131 34.3616 47.3053C34.7059 42.6733 34.8064 38.0264 34.6626 33.3838C34.5895 30.9479 34.697 10.8217 34.0625 7.875C34.4963 8.87315 34.9965 9.84113 35.5597 10.7724C37.0439 13.0917 42.8639 16.3702 45.6538 28.685C47.8271 41.3867 41.1373 50.3704 36.2197 53.771Z" fill="#12924F"/>
</g>
<defs>
<clipPath id="clip0_3989_342">
<rect x="0.300781" y="0.179688" width="67.8257" height="67.8256" rx="20" fill="white"/>
</clipPath>
</defs>
</svg>
