<svg width="89" height="60" viewBox="0 0 89 60" fill="none" xmlns="http://www.w3.org/2000/svg">
<g clip-path="url(#clip0_3989_383)">
<path d="M26.2483 39.5927L28.9298 48.2724C29.5323 50.2431 29.7836 51.6188 29.6829 52.4029C31.1495 48.4845 32.1742 44.2144 32.7572 39.5927H35.9816C34.595 47.117 32.7667 52.5846 30.4967 55.9955C28.7282 58.624 26.7908 59.9382 24.6811 59.9382C24.1186 59.9382 23.4251 59.7686 22.6022 59.432V57.6183C23.0043 57.6771 23.4759 57.7085 24.0184 57.7085C25.0025 57.7083 25.7961 57.4365 26.3994 56.8933C27.122 56.2316 27.4837 55.4878 27.4837 54.6635C27.4837 54.1006 27.2016 52.9455 26.64 51.1981L22.9038 39.5927H26.2483ZM5.72547 34.2578L10.637 49.2073H10.6673L15.609 34.2578H19.6465C20.5306 41.6717 21.0527 48.4551 21.213 54.6038H17.8091C17.6891 48.8562 17.3578 43.4511 16.815 38.3884H16.7854L11.6019 54.6038H9.00965L3.85754 38.3884H3.82721C3.4452 43.2505 3.20416 48.6556 3.10409 54.6038H0C0.200597 47.3694 0.702608 40.5881 1.50603 34.2578H5.72547Z" fill="#00758F"/>
<path d="M60.7472 33.9533C66.0305 33.9533 68.6722 37.3205 68.6722 44.0517C68.6722 47.7095 67.8778 50.4724 66.2904 52.3389C66.0043 52.68 65.6881 52.9747 65.3551 53.2477L69.0939 55.0919L69.0903 55.0917L67.7628 57.3786L62.8938 54.5445C62.0866 54.7829 61.199 54.9021 60.2311 54.9021C57.6369 54.9021 55.6992 54.1479 54.4181 52.6413C53.0118 50.9747 52.3091 48.3511 52.3091 44.7748C52.3091 41.1376 53.1021 38.3852 54.69 36.5163C56.1363 34.8067 58.1557 33.9533 60.7472 33.9533ZM44.5685 33.9827C46.4567 33.9827 48.1737 34.4868 49.7202 35.4913L48.9347 37.2375C47.6114 36.6763 46.3066 36.3946 45.02 36.3946C43.976 36.3946 43.1715 36.6452 42.6108 37.1496C42.0469 37.6496 41.6981 38.2929 41.6981 39.0772C41.6981 40.2824 42.5587 41.3275 44.1478 42.2104C44.6684 42.4943 45.1872 42.7815 45.7042 43.0719L45.8227 43.1385L45.8822 43.1718L46.0009 43.2383L46.0602 43.2717L46.1788 43.3384C47.3817 44.0149 48.5136 44.6606 48.5136 44.6606C50.1025 45.7858 50.8945 46.9855 50.8945 48.9614C50.8945 50.6869 50.2607 52.1034 48.9971 53.2117C47.7327 54.3151 46.034 54.8684 43.9067 54.8684C41.9171 54.8684 39.9889 54.2316 38.1211 52.9687L38.9948 51.2209C40.6022 52.0246 42.0567 52.4261 43.3628 52.4261C44.5878 52.4261 45.5466 52.1532 46.2403 51.6144C46.9326 51.0717 47.3474 50.3147 47.3474 49.3549C47.3474 48.1468 46.505 47.1141 44.9597 46.2478C44.476 45.9812 43.9937 45.712 43.5129 45.4403L43.3945 45.3734C43.177 45.2508 42.958 45.1267 42.7435 45.0052L42.6271 44.9391C41.5836 44.3471 40.6815 43.8297 40.6815 43.8297C39.1367 42.7025 38.362 41.493 38.362 39.5001C38.362 37.8519 38.9397 36.5197 40.0933 35.5062C41.2498 34.4905 42.7415 33.9827 44.5685 33.9827ZM74.8813 34.255V52.0982H81.2987V54.601H71.6266V34.2552L74.8813 34.255ZM84.8646 52.106V52.5289H84.1591V54.5988H83.6197V52.5289H82.8867V52.106H84.8646ZM86.1675 52.106L86.8449 53.8052L87.4672 52.106H88.2318V54.5988H87.7235V52.7017L87.0152 54.5988H86.6486L85.9391 52.7017H85.9119V54.5988H85.4309V52.106H86.1675ZM60.415 36.4554C57.3016 36.4554 55.744 39.0187 55.744 44.1419C55.744 47.0766 56.1568 49.2046 56.9807 50.531C57.7438 51.7585 58.9389 52.3711 60.5663 52.3711C63.6797 52.3711 65.2371 49.7878 65.2371 44.6237C65.2371 41.7301 64.8243 39.6203 64.0014 38.2932C63.2375 37.0685 62.0429 36.4554 60.4152 36.4554" fill="#F29111"/>
<path d="M52.2567 1.2607C53.2895 -1.27099 56.9008 0.646258 58.3022 1.53061C58.6457 1.75187 59.0396 2.21932 59.4334 2.3921C60.0478 2.41617 60.6616 2.46414 61.277 2.48975C62.4313 2.76036 63.5126 2.98144 64.4221 3.49824C68.6492 5.98162 71.4008 8.51228 73.9333 12.6923C74.4744 13.5777 74.7448 14.5358 75.1868 15.4939C75.8004 16.9221 76.4897 18.4212 77.2018 19.7716C77.5206 20.4119 77.7672 21.1238 78.2099 21.6645C78.3828 21.9117 78.8738 21.9846 79.1673 22.1323C79.9786 22.5512 80.9616 22.8693 81.7247 23.361C83.1497 24.2474 84.5275 25.3037 85.7801 26.3851C86.2469 26.8025 86.5651 27.3934 87.0099 27.8349V28.0577C86.615 28.1785 86.2216 28.3023 85.8278 28.4015C84.9677 28.6219 84.2058 28.572 83.3714 28.7926C82.8557 28.9418 82.2155 29.1387 81.6747 29.1887L81.7247 29.2389C82.0428 30.1458 83.7641 30.8833 84.5513 31.4257C85.5074 32.1141 86.3934 32.949 87.1065 33.9078C87.3528 34.1524 87.5991 34.375 87.8441 34.619C88.0154 34.8662 88.0637 35.186 88.237 35.4064V35.481C88.0451 35.4134 87.907 35.2845 87.7762 35.1497L87.6982 35.0684C87.6201 34.9876 87.5413 34.9082 87.4515 34.8427C86.909 34.473 86.3703 34.0308 85.8278 33.6872C84.8951 33.0968 83.8134 32.7542 82.8557 32.1616C82.3143 31.8175 81.7981 31.4257 81.282 31.032C80.8141 30.687 80.2988 30.0244 80.0048 29.5327C79.8316 29.2611 79.8078 28.9418 79.61 28.7453C79.6453 28.4171 79.9467 28.3197 80.2509 28.2396L80.3209 28.2212C80.4258 28.194 80.5285 28.1668 80.6181 28.1309C81.8958 27.5897 83.4191 27.3934 85.3861 27.4425C85.312 26.9498 84.0829 26.3359 83.6905 26.0409C82.903 25.4746 82.069 24.8837 81.2335 24.3683C80.7908 24.0984 80.0279 23.9013 79.5374 23.6808C78.8738 23.4102 77.3988 23.1397 77.031 22.6243C76.4063 21.8118 75.9575 20.8427 75.5219 19.8638L75.4033 19.5966L75.2844 19.3296C74.7694 18.1508 74.1297 16.9217 73.6136 15.7147C73.3437 15.1259 73.2198 14.6091 72.9243 14.0443C71.1308 10.5788 68.4763 7.67726 65.258 5.63675C64.2003 4.97279 63.0211 4.35835 61.7192 3.94076C60.9815 3.71846 60.096 3.84139 59.31 3.67084H58.7927C58.3511 3.54672 57.9825 3.07978 57.638 2.83359C56.8772 2.31818 56.1151 1.9721 55.2052 1.60437C54.8863 1.45686 53.9759 1.11336 53.6581 1.38379C53.4613 1.43314 53.3615 1.50723 53.3131 1.70425C53.1173 1.99824 53.2895 2.4411 53.4113 2.71222C53.7805 3.49789 54.2961 3.96483 54.7642 4.62878C55.1805 5.21761 55.6977 5.88156 55.9929 6.52179C56.6299 7.89801 56.9264 9.42276 57.5167 10.7988C57.7356 11.3163 58.0818 11.9051 58.4004 12.3719C58.6705 12.7424 59.1614 13.0102 59.31 13.4792C59.6061 13.9709 58.8668 15.5933 58.6956 16.1086C58.0554 18.1247 58.1795 20.9271 58.9167 22.6747L58.956 22.7668L58.9953 22.8602C59.2645 23.5002 59.5526 24.1895 60.2684 24.3684C60.3176 24.3196 60.2684 24.3452 60.3661 24.3196C60.5393 22.9669 60.588 21.6643 61.0554 20.606C61.3255 19.9443 61.8647 19.4765 62.2343 18.9363C62.4808 19.0835 62.4808 19.5272 62.6276 19.8208C62.9475 20.5824 63.2909 21.4174 63.6852 22.1813C64.4945 23.7543 65.4051 25.2794 66.4369 26.6555C66.7824 27.147 67.2727 27.688 67.7149 28.1307C67.9119 28.3021 68.1325 28.4012 68.2805 28.6217H68.3288V28.696C67.5915 28.4249 67.1242 27.664 66.5362 27.2197C65.4291 26.3847 64.1033 25.1307 63.3402 23.9275C63.0211 23.2367 62.676 22.5746 62.3321 21.8873V21.8376C62.1851 22.0339 62.2343 22.2289 62.1608 22.526C61.8416 23.7543 62.0873 25.1557 60.9815 25.5975C59.7279 26.115 58.7928 24.7625 58.4004 24.1479C57.1465 22.1079 56.8031 18.6664 57.6873 15.8883C57.8838 15.2734 57.9105 14.5358 58.2534 14.0448C58.1793 13.6009 57.8364 13.4796 57.638 13.2076C57.294 12.7427 56.9995 12.2012 56.7302 11.6849C56.2128 10.6764 55.8447 9.47142 55.4519 8.38987C55.2793 7.94821 55.2298 7.50483 55.0576 7.08672C54.764 6.44855 54.2227 5.80832 53.8051 5.24374C53.2397 4.43228 51.5929 2.85955 52.2567 1.2607ZM60.3171 6.07703C60.3828 6.14271 60.4621 6.20013 60.5441 6.25669L60.643 6.32442C60.7748 6.41554 60.9025 6.51147 60.9808 6.64213C61.1049 6.81508 61.128 6.9858 61.2765 7.15909C61.2765 7.74998 61.1049 8.14282 60.7583 8.38763C60.7583 8.38763 60.7347 8.41342 60.7104 8.43749C60.5139 8.04362 60.3418 7.65182 60.1439 7.25829C59.9002 6.9148 59.5558 6.6423 59.3572 6.24981H59.3095V6.20047C59.6061 6.1274 59.9002 6.07703 60.3171 6.07703Z" fill="#00758F"/>
</g>
<defs>
<clipPath id="clip0_3989_383">
<rect width="88.2353" height="60" rx="20" fill="white"/>
</clipPath>
</defs>
</svg>
