<svg width="73" height="73" viewBox="0 0 73 73" fill="none" xmlns="http://www.w3.org/2000/svg">
<g clip-path="url(#clip0_3989_366)">
<path d="M43.4761 0.617188L50.8181 0.665538C50.9564 0.772921 51.0683 0.843198 51.1869 0.896046C52.5177 1.49762 53.9603 1.92827 55.1595 2.72774C58.6363 5.03845 62.0315 7.4734 65.4244 9.90723C67.0015 11.0356 68.556 12.2106 70.0099 13.4885C71.0905 14.4376 71.5756 15.7841 71.5785 17.22L71.5757 62.4058C71.574 63.036 71.466 63.6842 71.2906 64.2903C70.4934 67.053 68.7252 68.9438 65.9428 69.6819C64.4754 70.0704 62.9254 70.1913 61.4035 70.3167C59.0292 70.514 56.6466 70.6107 54.2678 70.7535L49.7679 71.0346L42.5625 71.4585L38.1328 71.7351L30.8572 72.1568L27.0971 72.3109C26.9762 72.317 26.8643 72.4863 26.7502 72.5807C23.8885 72.5807 21.0291 72.5807 18.1432 72.5346C18.0049 72.425 17.8998 72.3367 17.7767 72.3019C16.0327 71.7964 14.5703 70.8328 13.4459 69.4334C11.8886 67.4989 10.4088 65.5047 8.91108 63.524C7.07039 61.0902 5.18191 58.6923 3.44241 56.1888C2.41998 54.7259 1.87235 52.9839 1.87383 51.1991C1.86893 37.8538 1.87061 24.5085 1.87889 11.1632C1.87889 10.7787 1.94635 10.3902 2.0127 10.0079C2.71097 5.8992 5.75256 3.70712 9.36985 3.30064C11.2477 3.08981 13.1384 2.99536 15.0252 2.87055L20.012 2.58269L22.1558 2.44214L28.6212 1.88442L32.2054 1.60331L38.1418 1.18165L43.1287 0.887051C43.2501 0.878618 43.362 0.71164 43.4761 0.617188ZM15.1938 64.6726C15.4929 65.0611 15.8263 65.4299 16.0878 65.8431C17.355 67.8261 19.1715 68.5463 21.4794 68.3928L37.1141 67.4617L54.7092 66.3986L63.4696 65.8341C66.0659 65.6256 67.3197 64.2223 67.3703 61.6175V61.0553L67.39 18.404C67.3922 17.1193 66.9486 16.2209 65.9209 15.503L53.5386 6.77738C51.5467 5.32799 49.4322 4.65164 46.9832 4.84504L33.1167 5.87053L18.6177 6.93986L9.51715 7.64937C7.67871 7.81804 6.5391 8.94247 6.20964 10.7461C6.12953 11.2064 6.09058 11.6731 6.09326 12.1403L6.05559 49.3826C6.04266 51.8226 6.78928 53.8522 8.24992 55.7188L15.1938 64.6726Z" fill="white"/>
<path d="M15.1605 64.6348L8.24918 55.7181C6.78854 53.8515 6.04192 51.8225 6.05485 49.3824L6.09252 12.1402C6.09252 11.6747 6.12738 11.2024 6.2089 10.7459C6.53836 8.94288 7.67797 7.81844 9.51641 7.64922L18.617 6.9397L33.1165 5.87037L46.9825 4.84489C49.4315 4.65149 51.546 5.32783 53.5379 6.77722C57.6207 9.74853 61.78 12.6147 65.9201 15.5028C66.9479 16.2207 67.3915 17.1192 67.3892 18.4038L67.3695 61.0574V61.6196C67.3189 64.2221 66.0652 65.6254 63.4689 65.834C60.5527 66.069 57.6297 66.2208 54.7084 66.3984L37.1133 67.461L21.4787 68.3926C19.1708 68.5461 17.3543 67.8259 16.087 65.843C15.8256 65.4298 15.4922 65.0609 15.1605 64.6348ZM18.7621 38.7774V57.6048L18.7665 61.1164C18.7969 62.6912 19.5683 63.4755 21.1425 63.5654C21.5377 63.5874 21.9374 63.5739 22.3349 63.5497L35.5144 62.7727L60.682 61.334C62.2506 61.2463 62.9753 60.5587 63.122 59.0042C63.1507 58.7248 63.1417 58.442 63.1417 58.1609L63.1439 21.9109C63.1439 21.7001 63.1507 21.4893 63.1377 21.2784C63.0433 19.8358 62.4237 19.2472 60.9901 19.3236L48.0192 20.0708C41.9438 20.4242 35.8685 20.7799 29.7933 21.1379L20.6815 21.6849C19.5199 21.7591 18.9948 22.2601 18.8194 23.3957C18.7779 23.6969 18.7594 24.0008 18.7643 24.3048L18.7621 38.7774ZM50.905 9.13347C49.8048 8.53639 48.6101 8.33849 47.38 8.40652C45.4892 8.50997 43.5985 8.6657 41.7072 8.80232L14.7495 10.7611C13.9349 10.8201 13.1157 10.8791 12.3118 11.0248C12.0419 11.0731 11.7012 11.3452 11.618 11.5915C11.5561 11.7646 11.8288 12.1143 12.0284 12.3055C12.3978 12.6586 12.8234 12.9548 13.2259 13.2736C14.1811 14.027 15.1976 14.714 16.0741 15.5467C17.7366 17.1254 19.6712 17.4902 21.8874 17.33L39.3358 16.2359L58.1194 15.1093C58.2909 15.1008 58.4624 15.048 58.8396 14.9777C58.495 14.6196 58.2948 14.3452 58.0339 14.1518C57.1137 13.4722 56.1847 12.8046 55.247 12.1492C53.8065 11.1342 52.3591 10.1289 50.905 9.13347Z" fill="#212121"/>
<path d="M18.7629 38.7038L18.7652 24.3015C18.7652 23.9979 18.7742 23.691 18.8203 23.3924C18.9957 22.2568 19.5208 21.7564 20.6823 21.6816L29.7942 21.1346L48.0201 20.0675L60.9904 19.3203C62.4246 19.2439 63.0442 19.8342 63.1381 21.2751C63.1516 21.486 63.1448 21.6968 63.1448 21.9076L63.1426 58.1576L63.1229 59.0009C62.9761 60.5554 62.2514 61.243 60.6829 61.3307L35.5153 62.7694L22.3358 63.5464L21.1439 63.5621C19.5692 63.4722 18.7978 62.6879 18.7674 61.1154L18.7629 57.6015V38.7038ZM44.4933 38.7409L37.2587 27.7187C37.0063 27.3341 36.7583 27.2071 36.2928 27.2577L33.2091 27.4657L27.5363 27.8812C26.142 28.0088 25.2987 29.3199 25.6849 30.6793L28.6894 30.9362V55.2762L26.643 55.8536C25.7355 56.1212 25.347 56.8858 25.6523 57.863L32.5721 57.4655L35.2977 57.2417C36.4727 57.0483 37.1052 56.3281 37.2632 55.1531L33.4795 54.2901V35.9827L33.7606 36.3762L42.457 49.9549C43.7353 51.9379 45.0481 53.8984 46.3947 55.8356C47.3544 57.2131 48.769 57.6347 50.3589 57.2918C51.354 57.0792 52.3092 56.675 53.2841 56.3607C53.7918 56.196 53.9649 55.893 53.9627 55.324L53.9458 30.3054C53.9458 28.8431 53.9458 28.8431 55.3924 28.5513C56.8553 28.2567 57.2219 27.6726 56.8879 26.1091L48.1455 26.6404C47.1942 26.7084 46.474 27.5034 46.3295 28.4282C46.2587 28.874 46.3509 29.1197 46.8844 29.1507L49.5313 29.443V46.4101C47.8548 43.8526 46.1754 41.297 44.4933 38.7432V38.7409ZM50.9537 9.15435C52.3889 10.1454 53.8199 11.1424 55.2468 12.1453C56.1846 12.8009 57.1139 13.4687 58.0343 14.1485C58.2951 14.3419 58.4953 14.6163 58.8399 14.9744L58.1197 15.106L39.3361 16.2326L21.8877 17.3267C19.6715 17.4869 17.7369 17.1221 16.0744 15.5434C15.1979 14.7113 14.1814 14.0237 13.2257 13.2703C12.8237 12.9515 12.3981 12.6553 12.0287 12.3016C11.8291 12.1105 11.5565 11.7619 11.6183 11.5876C11.7015 11.3419 12.0445 11.0698 12.3121 11.0215C13.116 10.8764 13.9352 10.8168 14.7498 10.7578L41.7081 8.79903L47.3808 8.40323C48.6104 8.33576 49.8051 8.53254 50.9537 9.15435Z" fill="white"/>
<path d="M44.5209 38.7828L49.5286 46.4104V29.4427L46.8822 29.1504C46.3481 29.12 46.2559 28.8743 46.3262 28.4285C46.4712 27.5037 47.192 26.7087 48.1421 26.6407L56.8852 26.1094C57.2191 27.6723 56.8525 28.257 55.3897 28.5511C53.9425 28.8412 53.9425 28.8412 53.9425 30.3057L53.9599 55.3243C53.9622 55.8933 53.789 56.1963 53.2813 56.361L50.3561 57.2921C48.7662 57.6328 47.3517 57.2134 46.3925 55.8359C45.0464 53.8983 43.7336 51.9378 42.4548 49.9552L33.7573 36.376C33.696 36.2793 33.6257 36.1893 33.4762 35.983V54.2904L37.2604 55.1534C37.1025 56.3284 36.47 57.0481 35.2949 57.242C34.3988 57.3888 33.479 57.4107 32.5693 57.4658L25.6496 57.8633C25.3443 56.8862 25.7328 56.1215 26.6402 55.8539L28.6867 55.2765V30.9366L25.6822 30.6796C25.2959 29.3202 26.1393 28.0091 27.5336 27.8815C29.4204 27.7055 31.3156 27.5981 33.2063 27.4666C34.234 27.3963 35.2663 27.3699 36.2901 27.258C36.7556 27.2074 37.0041 27.3344 37.256 27.719L44.5209 38.7828Z" fill="#212121"/>
</g>
<defs>
<clipPath id="clip0_3989_366">
<rect x="0.605469" y="0.476562" width="71.9636" height="71.9635" rx="20" fill="white"/>
</clipPath>
</defs>
</svg>
