<svg width="73" height="73" viewBox="0 0 73 73" fill="none" xmlns="http://www.w3.org/2000/svg">
<path d="M53.3034 52.2643C53.7448 48.5914 53.6127 48.0522 56.3484 48.6476L57.0427 48.7083C59.1465 48.8039 61.8986 48.3699 63.5155 47.6187C66.9962 46.0035 69.0595 43.3077 65.6283 44.0155C57.8 45.6307 57.262 42.9799 57.262 42.9799C65.5283 30.7152 68.9836 15.1458 66.0005 11.3345C57.8653 0.939706 43.7834 5.85515 43.5479 5.98221L43.4725 5.99627C41.9259 5.67524 40.1948 5.48353 38.2501 5.45204C34.7076 5.39357 32.0196 6.38082 29.9805 7.92691C29.9805 7.92691 4.85899 -2.4229 6.02784 20.9428C6.27634 25.9133 13.1522 58.5538 21.3538 48.6948C24.3516 45.0899 27.2481 42.0416 27.2481 42.0416C28.6863 42.9968 30.4089 43.4848 32.2147 43.3094L32.3547 43.1902C32.3109 43.6377 32.33 44.0757 32.4104 44.594C30.2981 46.9548 30.9188 47.3691 26.6949 48.2383C22.4209 49.1187 24.9318 50.6867 26.5706 51.0966C28.5581 51.5936 33.1553 52.2975 36.2621 47.9493L36.1384 48.4452C36.9671 49.1086 36.9115 53.2111 37.0284 56.1419C37.1459 59.0733 37.3421 61.8085 37.9398 63.4215C38.5374 65.0345 39.2424 69.1876 44.7937 67.9979C49.4331 67.0062 52.9802 65.5753 53.3034 52.2643Z" fill="#212121"/>
<path d="M42.9861 70.8935C40.5309 70.8935 38.9319 69.944 37.961 69.027C36.4953 67.6439 35.914 65.8623 35.5665 64.798L35.4164 64.3539C34.717 62.4659 34.4797 59.7476 34.3392 56.2473C34.3178 55.7216 34.3032 55.1802 34.2869 54.6062C34.2751 54.1862 34.2605 53.6594 34.2391 53.1084C33.3546 53.5302 32.4157 53.8269 31.4494 53.99C29.7183 54.2857 27.8574 54.1901 25.9172 53.7049C24.5482 53.3625 23.1258 52.653 22.3151 51.5573C19.9521 53.6268 17.6982 53.3462 16.4703 52.9364C14.3041 52.2139 12.3656 50.1838 10.5434 46.7312C9.24526 44.2715 7.98983 41.0669 6.81142 37.2056C4.75934 30.4815 3.45556 23.3993 3.33974 21.074C2.97543 13.7961 4.93475 8.59111 9.16205 5.60518C15.8305 0.894946 25.9341 3.66498 29.6177 4.92266C32.0926 3.4311 35.0043 2.70528 38.2944 2.75756C40.0614 2.78624 41.7441 2.94141 43.3071 3.22027C44.9375 2.70753 48.1579 1.97159 51.8443 2.01769C58.6365 2.09865 64.2648 4.74556 68.1199 9.67225C70.8714 13.1872 69.5108 20.5685 68.4556 24.6558C66.9702 30.4051 64.3677 36.5197 61.1709 41.8428C62.039 41.8489 63.2967 41.7449 65.0845 41.3756C68.6119 40.6475 69.6435 42.5388 69.9235 43.3855C71.0451 46.7824 66.1696 49.3495 64.6488 50.0556C62.7002 50.9602 59.5231 51.5112 56.9211 51.392L56.8076 51.3847L56.1239 51.3245L56.0565 51.8946L55.9912 52.4518C55.8164 59.1978 54.8528 63.47 52.8698 66.2929C50.7913 69.2524 47.9026 70.0817 45.3581 70.627C44.49 70.8126 43.7012 70.8935 42.9861 70.8935ZM37.8193 46.341C39.4042 47.6094 39.5431 49.996 39.6673 54.4561C39.6831 55.0126 39.6977 55.5394 39.7173 56.0314C39.7769 57.5213 39.9169 61.0098 40.4634 62.4839C40.5404 62.6925 40.6096 62.9039 40.6827 63.1282C41.2915 64.9925 41.5968 65.9275 44.2297 65.3647C46.4398 64.8908 47.576 64.4657 48.4654 63.1996C49.758 61.3589 50.481 57.6562 50.6136 52.1943L53.3027 52.2595L50.6322 51.939L50.7109 51.2722C50.9667 49.074 51.1511 47.4863 52.6202 46.4361C53.7992 45.5939 55.1423 45.6754 56.2122 45.8682C55.0366 44.9799 54.7116 43.9381 54.6251 43.5109L54.4007 42.4061L55.031 41.4711C58.6612 36.0851 61.6544 29.4656 63.2444 23.3093C64.8782 16.9839 64.3801 13.6246 63.8819 12.9893C57.2877 4.5634 45.8528 8.04239 44.6587 8.43706L44.4568 8.54613L43.4448 8.73447L42.9265 8.62709C41.4973 8.33024 39.9096 8.16607 38.2078 8.13853C35.5339 8.09355 33.3767 8.72548 31.6079 10.0675L30.3806 10.998L28.9565 10.4116C25.9138 9.16738 16.9768 6.66608 12.261 10.0062C9.6433 11.8604 8.45084 15.4934 8.71621 20.8047C8.80392 22.5582 9.99525 29.1963 11.9608 35.6342C14.6768 44.5313 17.1449 47.4868 18.1755 47.8304C18.3554 47.8911 18.822 47.5284 19.2864 46.9707C21.2228 44.6496 23.2278 42.3866 25.2988 40.1848L26.8561 38.5459L28.739 39.7969C29.498 40.3012 30.3351 40.5873 31.1947 40.6413L35.6851 36.8115L35.0347 43.4501C35.02 43.5991 35.0127 43.8021 35.0712 44.1788L35.2668 45.437L34.4179 46.386L34.3201 46.4962L36.7871 47.6347L37.8193 46.341Z" fill="#212121"/>
<path d="M65.63 44.0149C57.8011 45.6302 57.2631 42.9793 57.2631 42.9793C65.5293 30.714 68.9847 15.1441 66.0027 11.3339C57.8675 0.939697 43.7845 5.85514 43.5495 5.98277L43.4736 5.99626C41.927 5.67523 40.1959 5.48408 38.2501 5.4526C34.7076 5.39469 32.0207 6.38138 29.9816 7.92747C29.9816 7.92747 4.85952 -2.42179 6.0278 20.9433C6.2763 25.9144 13.1522 58.5549 21.3538 48.6959C24.3515 45.091 27.2475 42.0427 27.2475 42.0427C28.6862 42.9979 30.4083 43.4859 32.2136 43.3105L32.3541 43.1913C32.3103 43.6388 32.3305 44.0768 32.4103 44.5951C30.2975 46.9559 30.9182 47.3702 26.6943 48.2394C22.4203 49.1198 24.9312 50.6879 26.5706 51.0977C28.5575 51.5947 33.1553 52.2986 36.2615 47.9504L36.1373 48.4463C36.9654 49.1097 37.5467 52.7596 37.4495 56.0683C37.3522 59.3769 37.2864 61.6488 37.9392 63.4232C38.5913 65.1975 39.2413 69.1892 44.7937 67.9996C49.4331 67.0056 51.8371 64.429 52.1722 60.1314C52.4095 57.0758 52.9464 57.5278 52.9807 54.796L53.4119 53.5029C53.9089 49.361 53.4906 48.0252 56.3495 48.6465L57.0438 48.7072C59.1476 48.8028 61.9008 48.3687 63.5172 47.6176C66.9973 46.0035 69.0612 43.3071 65.63 44.0149Z" fill="#336791"/>
<path d="M43.2674 69.2415C38.6393 69.2415 37.173 65.5764 36.5731 64.0775C35.6949 61.881 35.5055 53.3567 35.7011 46.3661C35.704 46.2482 35.7302 46.132 35.7782 46.0243C35.8262 45.9166 35.8951 45.8195 35.9808 45.7385C36.0665 45.6575 36.1673 45.5942 36.2776 45.5524C36.3879 45.5105 36.5053 45.4909 36.6232 45.4947C36.7409 45.4979 36.8569 45.5242 36.9644 45.5723C37.072 45.6204 37.169 45.6891 37.2499 45.7747C37.3308 45.8603 37.3941 45.961 37.4361 46.0711C37.4781 46.1811 37.498 46.2984 37.4946 46.4161C37.2692 54.4788 37.589 61.7854 38.239 63.4113C39.2532 65.9463 40.7914 68.1637 45.1402 67.2321C49.2685 66.3466 50.8146 64.7814 51.5033 60.7892C52.0318 57.7256 53.077 49.0102 53.2057 47.2904C53.2143 47.1728 53.246 47.0582 53.2991 46.9529C53.3521 46.8477 53.4253 46.7539 53.5146 46.677C53.604 46.6002 53.7076 46.5417 53.8195 46.5049C53.9315 46.4681 54.0496 46.4538 54.1671 46.4628C54.4042 46.4808 54.6246 46.5921 54.7797 46.7723C54.9349 46.9526 55.0122 47.187 54.9947 47.4242C54.8603 49.2148 53.8202 57.9134 53.2715 61.0944C52.4585 65.8097 50.3564 67.9484 45.5163 68.9862C44.6938 69.1622 43.9466 69.2409 43.2674 69.2415ZM18.1724 51.34C17.7678 51.3387 17.3661 51.2723 16.9827 51.1432C13.9766 50.1402 11.1132 45.2445 8.4719 36.5903C6.46142 30.0028 5.18744 23.1269 5.07556 20.8921C4.74441 14.267 6.45017 9.57979 10.1467 6.96156C17.4595 1.78018 29.7613 6.71418 30.2814 6.9267C30.5017 7.01669 30.6772 7.19051 30.7694 7.40992C30.8615 7.62933 30.8627 7.87636 30.7727 8.09667C30.6828 8.31698 30.5089 8.49251 30.2895 8.58467C30.0701 8.67682 29.8231 8.67803 29.6028 8.58805C29.4841 8.53969 17.6877 3.81372 11.1801 8.42781C8.01932 10.6688 6.56824 14.8326 6.86678 20.8027C6.96067 22.6856 8.15088 29.3962 10.1872 36.0663C12.5452 43.7923 15.2286 48.6672 17.55 49.4414C17.9143 49.5628 19.023 49.9322 20.6079 48.0263C22.4561 45.8065 24.3736 43.6454 26.3577 41.5462C26.5237 41.3806 26.7479 41.2866 26.9824 41.2843C27.2168 41.2819 27.4429 41.3714 27.6122 41.5337C27.7815 41.6959 27.8805 41.918 27.8882 42.1523C27.8958 42.3867 27.8114 42.6147 27.653 42.7876C27.626 42.8157 24.928 45.6363 21.9876 49.1738C20.595 50.8486 19.2603 51.34 18.1724 51.34ZM57.2064 43.781C57.0438 43.7808 56.8843 43.7364 56.7449 43.6525C56.6056 43.5687 56.4917 43.4485 56.4153 43.3049C56.339 43.1613 56.3031 42.9996 56.3115 42.8372C56.32 42.6748 56.3724 42.5177 56.4632 42.3828C64.8194 29.9831 67.7525 15.0007 65.2405 11.7904C62.0786 7.75035 57.614 5.64035 51.97 5.51835C47.791 5.4284 44.4694 6.49548 43.9263 6.68157L43.7897 6.73723C43.2438 6.90871 42.825 6.60961 42.667 6.25991C42.5769 6.05956 42.5633 5.83317 42.6286 5.62344C42.694 5.41371 42.8338 5.23515 43.0217 5.12143C43.0476 5.10625 43.1297 5.07139 43.2629 5.02248C44.1855 4.68459 47.5577 3.6726 51.7344 3.72039C57.9795 3.78673 63.1384 6.1947 66.6522 10.6851C68.3147 12.8097 68.3186 17.7044 66.6629 24.1147C64.9751 30.6505 61.7992 37.6742 57.9502 43.3858C57.7782 43.6427 57.4949 43.781 57.2064 43.781ZM57.6337 49.5212C56.2068 49.5212 54.9278 49.32 54.162 48.8612C53.3749 48.3895 53.2248 47.7486 53.2052 47.4084C52.9904 43.636 55.0717 42.9793 56.1332 42.6796C55.9853 42.4559 55.775 42.1928 55.5575 41.9212C54.9385 41.1476 54.0906 40.0884 53.4373 38.5041C53.335 38.2567 53.0146 37.6815 52.6435 37.0153C50.6313 33.407 46.4445 25.8986 49.1341 22.0537C50.3789 20.2742 52.8577 19.5737 56.5099 19.9645C55.4355 16.6913 50.3193 6.45219 38.1794 6.25317C34.5283 6.19245 31.534 7.31519 29.284 9.5871C24.2465 14.6746 24.4287 23.8797 24.4315 23.9719C24.4346 24.0897 24.4145 24.2069 24.3723 24.3169C24.3301 24.4269 24.2666 24.5275 24.1856 24.6129C24.1045 24.6984 24.0074 24.7671 23.8998 24.815C23.7922 24.8629 23.6762 24.8892 23.5584 24.8923C23.4406 24.8954 23.3234 24.8753 23.2134 24.8331C23.1034 24.7909 23.0029 24.7274 22.9174 24.6463C22.8319 24.5653 22.7633 24.4681 22.7153 24.3605C22.6674 24.2529 22.6411 24.1369 22.638 24.0192C22.6268 23.6104 22.439 13.9505 28.0095 8.32437C30.6165 5.69151 34.0482 4.39167 38.2092 4.4597C45.9756 4.58732 50.9748 8.53576 53.8005 11.8253C56.8809 15.4105 58.391 19.3651 58.5153 20.6852C58.608 21.6669 57.9036 21.8631 57.7613 21.8923L57.4375 21.8996C53.8534 21.3256 51.5539 21.7242 50.6032 23.0825C48.5573 26.0066 52.5181 33.1091 54.2093 36.1422C54.641 36.9158 54.9525 37.4752 55.0953 37.8204C55.6508 39.1675 56.3755 40.0727 56.9574 40.8002C57.4696 41.44 57.9131 41.9949 58.0717 42.6459C58.1453 42.7752 59.1905 44.3213 65.3923 43.0411C66.9468 42.7207 67.879 42.9945 68.164 43.8564C68.7245 45.5514 65.5795 47.5287 63.8383 48.3372C62.2782 49.0625 59.7881 49.5212 57.6337 49.5212ZM54.9936 47.2606C55.1903 47.459 56.1748 47.8014 58.2134 47.7137C60.026 47.6361 61.9375 47.242 63.0844 46.7096C64.5512 46.0282 65.5306 45.2664 66.0377 44.7463L65.7566 44.7981C61.7913 45.6167 58.9864 45.5076 57.4201 44.4737C57.3147 44.4043 57.2134 44.329 57.1165 44.2482C56.9467 44.3151 56.7898 44.359 56.678 44.3905C55.7897 44.6395 54.871 44.8976 54.9936 47.2606ZM29.3779 52.2727C28.3929 52.2727 27.3562 52.1383 26.2975 51.8735C25.2006 51.5992 23.3515 50.7733 23.3796 49.4167C23.4117 47.8947 25.6251 47.4382 26.4583 47.2668C29.4684 46.6466 29.6646 46.3981 30.6052 45.2034C30.8796 44.8554 31.2208 44.4219 31.6863 43.9025C32.3773 43.1289 33.1324 42.737 33.9307 42.737C34.4867 42.737 34.9427 42.9253 35.244 43.0507C36.2043 43.4488 37.0055 44.4113 37.3349 45.5621C37.6323 46.6005 37.4901 47.6001 36.9358 48.3766C35.1159 50.9251 32.5021 52.2727 29.3779 52.2727ZM25.3176 49.4937C25.588 49.7028 26.13 49.9823 26.7332 50.1329C27.6502 50.3623 28.5396 50.4787 29.3785 50.4787C31.9343 50.4787 33.9864 49.4206 35.4768 47.3337C35.7877 46.8985 35.6944 46.3458 35.6112 46.0552C35.4369 45.4463 35.004 44.8925 34.5581 44.7076C34.3164 44.6075 34.1157 44.531 33.9313 44.531C33.8323 44.531 33.531 44.531 33.0239 45.0983C32.6739 45.4918 32.3375 45.8972 32.0152 46.3138C30.8436 47.8014 30.3067 48.3063 26.8209 49.0242C25.9703 49.1985 25.534 49.3762 25.3176 49.4937ZM32.2154 45.3558C32.0012 45.3554 31.7943 45.2785 31.6319 45.1389C31.4695 44.9993 31.3624 44.8062 31.3299 44.5945C31.3074 44.4457 31.2924 44.2957 31.2849 44.1453C29.0001 44.1026 26.7956 43.1221 25.1219 41.3759C23.0057 39.168 22.0427 36.109 22.4801 32.9837C22.9551 29.5896 22.7775 26.5935 22.6819 24.9839C22.6555 24.5364 22.6364 24.2131 22.6375 23.9894C22.6392 23.7054 22.6448 22.9526 25.1613 21.677C26.0563 21.2233 27.8509 20.4317 29.8114 20.2287C33.0593 19.8931 35.2002 21.3396 35.8411 24.3025C37.5711 32.3017 35.9783 35.8397 34.8151 38.4237C34.5986 38.9049 34.394 39.3592 34.2304 39.7994L34.0859 40.1873C33.4714 41.8352 32.9401 43.2587 33.1031 44.3219C33.121 44.4383 33.1158 44.5571 33.0878 44.6716C33.0597 44.786 33.0094 44.8937 32.9397 44.9887C32.87 45.0837 32.7823 45.164 32.6816 45.225C32.5808 45.2861 32.469 45.3267 32.3526 45.3445L32.2154 45.3558ZM24.4371 24.2379L24.472 24.8782C24.5709 26.5503 24.7554 29.6615 24.2561 33.2327C23.8957 35.8105 24.6828 38.3264 26.4167 40.1345C27.7868 41.5636 29.5898 42.3524 31.4429 42.3524H31.4811C31.6886 41.4782 32.0332 40.555 32.4043 39.5605L32.5477 39.1748C32.7326 38.6778 32.9491 38.1965 33.1785 37.6872C34.2978 35.1999 35.6916 32.1038 34.0864 24.682C33.7688 23.2118 32.998 22.3612 31.7313 22.0806C29.1294 21.5061 25.2518 23.4631 24.4371 24.2379ZM29.8513 23.8572C29.8063 24.1743 30.432 25.021 31.2484 25.134C32.063 25.2482 32.7602 24.5859 32.8046 24.2688C32.849 23.9517 32.2238 23.602 31.4075 23.4884C30.5912 23.3749 29.8946 23.5402 29.8513 23.8572ZM31.4356 25.4461L31.2068 25.4303C30.7008 25.36 30.1892 25.0413 29.8389 24.5769C29.7158 24.4138 29.5151 24.0979 29.555 23.8156C29.6118 23.4018 30.1166 23.1539 30.9043 23.1539C31.0803 23.1539 31.2636 23.1668 31.448 23.1927C31.8786 23.2523 32.2784 23.3765 32.5735 23.5413C33.0851 23.8269 33.1228 24.1457 33.0998 24.3104C33.0368 24.7675 32.3098 25.4461 31.4356 25.4461ZM30.1487 23.9101C30.174 24.1057 30.6586 24.7512 31.2894 24.8383L31.4362 24.8484C32.0186 24.8484 32.4538 24.3902 32.5049 24.2401C32.451 24.1378 32.0765 23.8837 31.3664 23.7847C31.2135 23.7631 31.0593 23.752 30.9049 23.7515C30.4483 23.7515 30.206 23.8544 30.1487 23.9101ZM54.6641 23.2101C54.7085 23.5272 54.0833 24.3739 53.2676 24.4875C52.4523 24.6011 51.7546 23.9393 51.7097 23.6222C51.6669 23.3051 52.2921 22.9549 53.1073 22.8419C53.9225 22.7278 54.6191 22.8936 54.6641 23.2101ZM53.0792 24.6494C52.2944 24.6494 51.6169 24.0388 51.5612 23.6425C51.4966 23.1668 52.2797 22.8053 53.086 22.6935C53.2636 22.6687 53.4396 22.6564 53.6088 22.6564C54.3048 22.6564 54.7659 22.8604 54.812 23.1899C54.8418 23.403 54.6782 23.7319 54.3965 24.0287C54.2104 24.2238 53.8197 24.5617 53.2872 24.6353L53.0792 24.6494ZM53.6094 22.9554C53.4535 22.9554 53.293 22.9669 53.1281 22.9897C52.318 23.1028 51.8345 23.4277 51.8581 23.602C51.8851 23.7937 52.4023 24.3509 53.0798 24.3509L53.2468 24.3391C53.6892 24.2778 54.0215 23.9888 54.18 23.8224C54.4291 23.561 54.528 23.3147 54.5162 23.2309C54.5005 23.1196 54.2014 22.9554 53.6094 22.9554ZM55.8386 41.4203C55.676 41.4204 55.5165 41.3763 55.3772 41.2927C55.2378 41.2091 55.1237 41.0892 55.0473 40.9458C54.9708 40.8024 54.9348 40.6408 54.943 40.4785C54.9513 40.3162 55.0035 40.1592 55.0942 40.0243C57.0046 37.1711 56.6549 34.2616 56.317 31.4477C56.1725 30.2491 56.0241 29.0094 56.0623 27.8197C56.1017 26.5958 56.2574 25.5861 56.4075 24.6095C56.5858 23.4524 56.7544 22.3595 56.6847 21.0619C56.6784 20.9443 56.6952 20.8266 56.7344 20.7155C56.7735 20.6044 56.8342 20.5021 56.9128 20.4145C56.9915 20.3268 57.0867 20.2555 57.1929 20.2046C57.2991 20.1538 57.4144 20.1243 57.532 20.118C57.6496 20.1116 57.7673 20.1285 57.8784 20.1676C57.9895 20.2068 58.0918 20.2674 58.1794 20.3461C58.3564 20.505 58.4631 20.7277 58.4759 20.9652C58.5558 22.4483 58.3652 23.6852 58.1808 24.8822C58.0385 25.8059 57.8912 26.7611 57.8558 27.8771C57.8215 28.9307 57.9559 30.0495 58.0981 31.2335C58.4579 34.2256 58.8655 37.6169 56.5852 41.0222C56.5029 41.1447 56.3918 41.2451 56.2616 41.3145C56.1314 41.3839 55.9861 41.4203 55.8386 41.4203Z" fill="white"/>
</svg>
