<svg width="68" height="69" viewBox="0 0 68 69" fill="none" xmlns="http://www.w3.org/2000/svg">
<g clip-path="url(#clip0_3989_371)">
<path d="M14.3947 43.4334C14.3947 47.363 11.2188 50.5392 7.28913 50.5392C3.35948 50.5392 0.183594 47.363 0.183594 43.4334C0.183594 39.504 3.35948 36.3281 7.2894 36.3281H14.3944L14.3947 43.4334ZM17.9476 43.4334C17.9476 39.504 21.1235 36.3281 25.0531 36.3281C28.9828 36.3281 32.1586 39.504 32.1586 43.4337V61.1973C32.1586 65.127 28.9828 68.3031 25.0528 68.3031C21.1237 68.3031 17.9476 65.127 17.9476 61.1973V43.4334Z" fill="#E01E5A"/>
<path d="M25.0522 14.9064C21.1225 14.9064 17.9464 11.7305 17.9464 7.80084C17.9464 3.87119 21.1228 0.695312 25.0522 0.695312C28.9816 0.695312 32.1577 3.87119 32.1577 7.80084V14.9066L25.0522 14.9064ZM25.0522 18.5131C28.9818 18.5131 32.1577 21.6889 32.1577 25.6186C32.1577 29.5482 28.9818 32.7241 25.0519 32.7241H7.23471C3.30479 32.7241 0.128906 29.5482 0.128906 25.6183C0.128906 21.6892 3.30479 18.5131 7.23444 18.5131H25.0522Z" fill="#36C5F0"/>
<path d="M53.5296 25.6186C53.5296 21.6889 56.7055 18.5128 60.6349 18.5128C64.5643 18.5128 67.7407 21.6889 67.7407 25.6186C67.7407 29.5482 64.5645 32.7241 60.6349 32.7241H53.5296V25.6186ZM49.9767 25.6186C49.9767 29.5482 46.8006 32.7241 42.8709 32.7241C38.9415 32.7241 35.7656 29.5482 35.7656 25.6183V7.80111C35.7656 3.87119 38.9415 0.695312 42.8709 0.695312C46.8003 0.695312 49.9764 3.87119 49.9764 7.80084L49.9767 25.6186Z" fill="#2EB67D"/>
<path d="M42.8709 54.0921C46.8005 54.0921 49.9767 57.268 49.9767 61.1973C49.9767 65.1267 46.8005 68.3031 42.8709 68.3031C38.9415 68.3031 35.7656 65.127 35.7656 61.1973V54.0921H42.8709ZM42.8709 50.5392C38.9415 50.5392 35.7656 47.363 35.7656 43.4334C35.7656 39.504 38.9415 36.3281 42.8712 36.3281H60.6886C64.6183 36.3281 67.7945 39.504 67.7945 43.4337C67.7945 47.3633 64.6183 50.5392 60.6886 50.5392H42.8709Z" fill="#ECB22E"/>
</g>
<defs>
<clipPath id="clip0_3989_371">
<rect x="0.128906" y="0.695312" width="67.8257" height="67.8256" rx="20" fill="white"/>
</clipPath>
</defs>
</svg>
