<svg width="72" height="73" viewBox="0 0 72 73" fill="none" xmlns="http://www.w3.org/2000/svg">
<g clip-path="url(#clip0_3989_350)">
<path d="M35.9818 0.945312C26.441 0.945312 17.2825 4.73858 10.5415 11.484C3.79367 18.2322 0.00193092 27.3839 0 36.9271C0 46.4662 3.79496 55.6247 10.5415 62.3701C17.2825 69.1156 26.441 72.9088 35.9818 72.9088C45.5226 72.9088 54.6811 69.1156 61.4221 62.3701C68.1687 55.6247 71.9636 46.4662 71.9636 36.9271C71.9636 27.388 68.1687 18.2295 61.4221 11.484C54.6811 4.73858 45.5226 0.945312 35.9818 0.945312Z" fill="url(#paint0_linear_3989_350)"/>
<path d="M16.2873 36.5506C26.7783 31.9809 33.7722 28.9681 37.2692 27.5124C47.2654 23.3559 49.34 22.634 50.6949 22.6096C50.9929 22.6048 51.6563 22.6785 52.0892 23.0284C52.449 23.3236 52.5502 23.7228 52.6008 24.003C52.6458 24.283 52.7077 24.9211 52.6571 25.4193C52.1173 31.1089 49.7729 44.9158 48.581 51.2885C48.0806 53.9848 47.0855 54.8889 46.1241 54.9772C44.0327 55.1694 42.4472 53.5964 40.4233 52.2701C37.258 50.1938 35.4701 48.9019 32.3948 46.8762C28.8416 44.5351 31.1467 43.2482 33.1707 41.1455C33.6992 40.5951 42.9082 32.2209 43.0825 31.4614C43.105 31.3664 43.1275 31.0122 42.9139 30.8255C42.7059 30.6383 42.3966 30.7024 42.1717 30.753C41.8513 30.825 36.797 34.169 26.9919 40.7846C25.5583 41.7707 24.2596 42.2514 23.0901 42.2261C21.8083 42.1986 19.3345 41.4997 17.4961 40.9027C15.2472 40.1701 13.4538 39.7827 13.6112 38.5385C13.6899 37.8909 14.5838 37.228 16.2873 36.5506Z" fill="white"/>
</g>
<defs>
<linearGradient id="paint0_linear_3989_350" x1="3598.18" y1="0.945312" x2="3598.18" y2="7197.3" gradientUnits="userSpaceOnUse">
<stop stop-color="#2AABEE"/>
<stop offset="1" stop-color="#229ED9"/>
</linearGradient>
<clipPath id="clip0_3989_350">
<rect y="0.945312" width="71.9636" height="71.9635" rx="20" fill="white"/>
</clipPath>
</defs>
</svg>
