<svg width="66" height="66" viewBox="0 0 66 66" fill="none" xmlns="http://www.w3.org/2000/svg">
<g clip-path="url(#clip0_3989_296)">
<path d="M6.75947 0.554688H59.2388C62.7671 0.554688 65.6076 3.39519 65.6076 6.92353V59.4028C65.6076 62.9311 62.7671 65.7716 59.2388 65.7716H6.75947C3.23113 65.7716 0.390625 62.9311 0.390625 59.4028V6.92353C0.390625 3.39519 3.23113 0.554688 6.75947 0.554688Z" fill="url(#paint0_linear_3989_296)"/>
<path d="M40.2936 9.03125H54.0707C55.7643 9.03125 57.1278 10.3947 57.1278 12.0883V34.5066C57.1278 36.2002 55.7643 37.5637 54.0707 37.5637H40.2936C38.6 37.5637 37.2366 36.2002 37.2366 34.5066V12.0883C37.2366 10.3947 38.6 9.03125 40.2936 9.03125ZM11.9242 9.03125H25.7013C27.3949 9.03125 28.7584 10.3947 28.7584 12.0883V50.8109C28.7584 52.5045 27.3949 53.8679 25.7013 53.8679H11.9242C10.2306 53.8679 8.86719 52.5045 8.86719 50.8109V12.0883C8.86719 10.3947 10.2306 9.03125 11.9242 9.03125Z" fill="white"/>
</g>
<defs>
<linearGradient id="paint0_linear_3989_296" x1="32.9991" y1="0.554688" x2="32.9991" y2="65.7716" gradientUnits="userSpaceOnUse">
<stop stop-color="#2684FF"/>
<stop offset="1" stop-color="#0052CC"/>
</linearGradient>
<clipPath id="clip0_3989_296">
<rect x="0.390625" y="0.554688" width="65.217" height="65.2169" rx="20" fill="white"/>
</clipPath>
</defs>
</svg>
