<svg width="67" height="67" viewBox="0 0 67 67" fill="none" xmlns="http://www.w3.org/2000/svg">
<g clip-path="url(#clip0_3989_299)">
<path d="M24.9504 48.2139C33.4229 48.2139 33.4229 35.5036 24.9504 35.5036C16.4779 35.5036 16.4779 48.2139 24.9504 48.2139ZM24.9504 31.6923C33.4229 31.6923 33.4229 18.982 24.9504 18.982C16.4779 18.982 16.4779 31.6928 24.9504 31.6928V31.6923ZM41.4721 48.2139C49.9446 48.2139 49.9446 35.5036 41.4721 35.5036C32.9996 35.5036 32.9996 48.2139 41.4721 48.2139ZM41.4721 31.6923C49.9446 31.6923 49.9446 18.982 41.4721 18.982C32.9996 18.982 32.9996 31.6928 41.4721 31.6928V31.6923ZM33.2113 0.554688C51.1083 0.554688 66.2545 15.7009 66.2545 33.5979C66.2545 51.495 51.1083 66.6412 33.2113 66.6412C15.3142 66.6412 0.167969 51.495 0.167969 33.5979C0.167969 15.7009 15.3142 0.554688 33.2113 0.554688ZM33.2113 9.45055C19.9124 9.45055 9.06384 19.9242 9.06384 33.1539C9.06384 46.3846 19.9124 57.7453 33.2113 57.7453C46.5101 57.7453 57.3587 46.3846 57.3587 33.1539C57.3587 19.9242 46.5101 9.45055 33.2113 9.45055Z" fill="#F22F46"/>
</g>
<defs>
<clipPath id="clip0_3989_299">
<rect x="0.167969" y="0.554688" width="66.0866" height="66.0865" rx="20" fill="white"/>
</clipPath>
</defs>
</svg>
