<svg width="83" height="51" viewBox="0 0 83 51" fill="none" xmlns="http://www.w3.org/2000/svg">
<g clip-path="url(#clip0_3989_301)">
<path fill-rule="evenodd" clip-rule="evenodd" d="M75.2018 0.867188H7.69673C3.42476 0.867188 -0.0334471 4.35941 0.000244101 8.59736V34.3653C0.000244101 38.6372 3.45877 42.0958 7.73075 42.0958H39.703L54.3166 50.2328L50.9934 42.0958H75.2018C79.4738 42.0958 82.932 38.6372 82.932 34.3653V8.59736C82.932 4.32539 79.4738 0.867188 75.2018 0.867188ZM6.27296 6.83441C5.32377 6.90244 4.61172 7.2413 4.13681 7.88564C3.66221 8.49564 3.49279 9.2754 3.59451 10.1572C5.59481 22.8715 7.4596 31.4495 9.18886 35.8911C9.8669 37.5183 10.6467 38.2984 11.5621 38.2307C12.9862 38.1286 14.6815 36.1622 16.6819 32.3312C17.733 30.1611 19.3604 26.9061 21.5639 22.5662C23.3949 28.9744 25.9039 33.789 29.0569 37.01C29.9387 37.9252 30.8542 38.3321 31.7354 38.2644C32.5155 38.1963 33.1258 37.7898 33.5327 37.0437C33.8717 36.3997 34.0074 35.6538 33.9396 34.8062C33.7361 31.7208 34.0413 27.4148 34.8887 21.8882C35.7702 16.1921 36.8551 12.0896 38.1775 9.64859C38.4487 9.13999 38.5504 8.63138 38.5167 8.02105C38.4487 7.2413 38.1098 6.59728 37.4655 6.08867C36.8214 5.58006 36.1094 5.3426 35.3296 5.41031C34.3464 5.47834 33.6004 5.95293 33.0918 6.90212C30.9896 10.7335 29.4978 16.9382 28.6164 25.5498C27.328 22.2951 26.2434 18.4643 25.3953 13.9549C25.0227 11.9545 24.1069 11.005 22.6151 11.1067C21.5979 11.1747 20.7502 11.8529 20.0721 13.1411L12.6471 27.2791C11.4264 22.3628 10.2738 16.3619 9.22288 9.27572C8.98531 7.51255 8.002 6.69878 6.27296 6.83441ZM71.6079 9.27572C74.0152 9.78433 75.8122 11.0727 77.0328 13.2085C78.1177 15.0395 78.66 17.2434 78.66 19.8881C78.66 23.3803 77.7789 26.5674 76.0156 29.483C73.9812 32.8738 71.3367 34.569 68.048 34.569C67.4713 34.569 66.861 34.5011 66.217 34.3653C63.81 33.8567 62.0127 32.5686 60.7921 30.4325C59.7072 28.5678 59.1648 26.33 59.1648 23.7192C59.1648 20.227 60.0463 17.0399 61.8093 14.158C63.8777 10.7675 66.5221 9.07228 69.7772 9.07228C70.3537 9.07228 70.9639 9.14009 71.6079 9.27572ZM70.1841 27.618C71.4385 26.4994 72.2859 24.8381 72.7608 22.6003C72.8963 21.8205 72.998 20.973 72.998 20.0916C72.998 19.108 72.7945 18.0571 72.3877 17.0059C71.879 15.6838 71.201 14.9715 70.3872 14.8024C69.1669 14.5649 67.9803 15.2429 66.8613 16.9045C65.9458 18.1929 65.3692 19.5489 65.0644 20.939C64.8946 21.7188 64.8269 22.5666 64.8269 23.414C64.8269 24.3972 65.0303 25.4485 65.4372 26.4994C65.9458 27.8217 66.6239 28.5338 67.4376 28.7032C68.2851 28.8726 69.2006 28.4998 70.1841 27.618ZM55.7743 13.2085C54.5537 11.0727 52.7227 9.78433 50.3494 9.27572C49.7052 9.14009 49.0949 9.07228 48.5184 9.07228C45.2637 9.07228 42.6192 10.7675 40.5508 14.1583C38.7876 17.04 37.9061 20.227 37.9064 23.7192C37.9064 26.3303 38.4488 28.568 39.5336 30.4325C40.7542 32.5686 42.5512 33.8567 44.9585 34.3653C45.6025 34.5009 46.2129 34.5687 46.7895 34.5687C50.0783 34.5687 52.7227 32.8738 54.7571 29.483C56.5201 26.5674 57.4016 23.38 57.4016 19.8881C57.4016 17.2434 56.8589 15.0392 55.7743 13.2085ZM51.502 22.6006C51.0275 24.8384 50.1797 26.4997 48.9253 27.6186C47.9421 28.5001 47.027 28.873 46.1792 28.7039C45.3654 28.5341 44.687 27.8221 44.1788 26.4997C43.7719 25.4488 43.5684 24.3975 43.5684 23.4143C43.5684 22.5669 43.6361 21.7191 43.8059 20.9393C44.1107 19.5493 44.687 18.1932 45.6025 16.9048C46.7218 15.2433 47.9084 14.5652 49.1288 14.8024C49.9425 14.9721 50.6206 15.6842 51.1292 17.0062C51.5361 18.0575 51.7395 19.1087 51.7395 20.0919C51.7395 20.973 51.6715 21.8208 51.502 22.6006Z" fill="#7F54B3"/>
</g>
<defs>
<clipPath id="clip0_3989_301">
<rect y="0.867188" width="82.9321" height="49.5649" rx="20" fill="white"/>
</clipPath>
</defs>
</svg>
