<svg width="71" height="71" viewBox="0 0 71 71" fill="none" xmlns="http://www.w3.org/2000/svg">
<g filter="url(#filter0_d_5068_3436)">
<rect x="9.27344" y="9.53906" width="50.1885" height="50.1885" rx="25.0943" fill="white"/>
<rect x="9.77344" y="10.0391" width="49.1885" height="49.1885" rx="24.5943" stroke="black"/>
</g>
<path d="M18.6061 40.3594V39.2074C19.3421 38.6314 20.0461 38.05 20.7181 37.4634C21.3901 36.8767 21.9874 36.2954 22.5101 35.7194C23.0434 35.1327 23.4594 34.562 23.7581 34.0074C24.0568 33.442 24.2061 32.9034 24.2061 32.3914C24.2061 32.0287 24.1421 31.6927 24.0141 31.3834C23.8861 31.074 23.6834 30.8234 23.4061 30.6314C23.1288 30.4287 22.7554 30.3274 22.2861 30.3274C21.8274 30.3274 21.4434 30.4287 21.1341 30.6314C20.8248 30.834 20.5901 31.106 20.4301 31.4474C20.2808 31.778 20.2061 32.146 20.2061 32.5514H18.6701C18.6808 31.7834 18.8461 31.1327 19.1661 30.5994C19.4861 30.066 19.9181 29.6607 20.4621 29.3834C21.0061 29.106 21.6248 28.9674 22.3181 28.9674C23.0221 28.9674 23.6354 29.1007 24.1581 29.3674C24.6808 29.6234 25.0861 30.002 25.3741 30.5034C25.6621 30.994 25.8061 31.5967 25.8061 32.3114C25.8061 32.8234 25.7048 33.3354 25.5021 33.8474C25.2994 34.3487 25.0221 34.8394 24.6701 35.3194C24.3288 35.7994 23.9448 36.2634 23.5181 36.7114C23.0914 37.1487 22.6541 37.5647 22.2061 37.9594C21.7581 38.354 21.3261 38.7114 20.9101 39.0314H26.1581V40.3594H18.6061ZM31.9048 40.5514C31.1262 40.5514 30.4488 40.4127 29.8728 40.1354C29.2968 39.8474 28.8435 39.4634 28.5128 38.9834C28.1928 38.4927 27.9955 37.938 27.9208 37.3194H29.4728C29.5902 37.874 29.8622 38.3274 30.2888 38.6794C30.7155 39.0207 31.2595 39.1914 31.9208 39.1914C32.4008 39.1914 32.8168 39.074 33.1688 38.8394C33.5208 38.6047 33.7928 38.29 33.9848 37.8954C34.1768 37.5007 34.2728 37.058 34.2728 36.5674C34.2728 36.0554 34.1715 35.6127 33.9688 35.2394C33.7768 34.8554 33.5048 34.5567 33.1528 34.3434C32.8115 34.13 32.4115 34.0234 31.9528 34.0234C31.3982 34.0234 30.9182 34.1514 30.5128 34.4074C30.1182 34.6634 29.8248 34.9834 29.6328 35.3674H28.0968L29.0408 29.1594H35.0568V30.5514H30.2568L29.6648 33.6874C29.9208 33.3994 30.2622 33.1647 30.6888 32.9834C31.1262 32.7914 31.6222 32.6954 32.1768 32.6954C32.7422 32.6954 33.2488 32.7967 33.6968 32.9994C34.1448 33.202 34.5235 33.4794 34.8328 33.8314C35.1528 34.1834 35.3982 34.594 35.5688 35.0634C35.7395 35.522 35.8248 36.018 35.8248 36.5514C35.8248 37.1167 35.7342 37.6394 35.5528 38.1194C35.3715 38.5994 35.1102 39.026 34.7688 39.3994C34.4275 39.762 34.0168 40.0447 33.5368 40.2474C33.0568 40.45 32.5128 40.5514 31.9048 40.5514ZM39.205 40.3594L45.653 29.1594H47.237L40.789 40.3594H39.205ZM46.549 40.5514C46.0583 40.5514 45.6156 40.4394 45.221 40.2154C44.8263 39.9914 44.5116 39.6767 44.277 39.2714C44.0423 38.8554 43.925 38.37 43.925 37.8154C43.925 37.2394 44.0423 36.7487 44.277 36.3434C44.5116 35.938 44.8263 35.6234 45.221 35.3994C45.6156 35.1754 46.0583 35.0634 46.549 35.0634C47.0503 35.0634 47.493 35.1754 47.877 35.3994C48.2716 35.6234 48.581 35.938 48.805 36.3434C49.0396 36.7487 49.157 37.2394 49.157 37.8154C49.157 38.37 49.0396 38.8554 48.805 39.2714C48.581 39.6767 48.2716 39.9914 47.877 40.2154C47.4823 40.4394 47.0396 40.5514 46.549 40.5514ZM46.533 39.3674C46.7783 39.3674 46.997 39.3087 47.189 39.1914C47.3916 39.074 47.5516 38.9034 47.669 38.6794C47.797 38.4447 47.861 38.1514 47.861 37.7994C47.861 37.4474 47.8023 37.1594 47.685 36.9354C47.5676 36.7007 47.4076 36.5247 47.205 36.4074C47.013 36.29 46.7943 36.2314 46.549 36.2314C46.3143 36.2314 46.0956 36.29 45.893 36.4074C45.6903 36.5247 45.525 36.7007 45.397 36.9354C45.2796 37.1594 45.221 37.4474 45.221 37.7994C45.221 38.1514 45.2796 38.4447 45.397 38.6794C45.525 38.9034 45.685 39.074 45.877 39.1914C46.0796 39.3087 46.2983 39.3674 46.533 39.3674ZM40.005 34.4714C39.5036 34.4714 39.0556 34.3594 38.661 34.1354C38.2663 33.9114 37.9516 33.5967 37.717 33.1914C37.4823 32.7754 37.365 32.2847 37.365 31.7194C37.365 31.154 37.4823 30.6687 37.717 30.2634C37.9516 29.858 38.2663 29.5434 38.661 29.3194C39.0663 29.0954 39.5143 28.9834 40.005 28.9834C40.5063 28.9834 40.9543 29.0954 41.349 29.3194C41.7436 29.5434 42.053 29.858 42.277 30.2634C42.5116 30.6687 42.629 31.154 42.629 31.7194C42.629 32.2847 42.5116 32.7754 42.277 33.1914C42.053 33.5967 41.7383 33.9114 41.333 34.1354C40.9383 34.3594 40.4956 34.4714 40.005 34.4714ZM39.989 33.2874C40.2343 33.2874 40.453 33.2287 40.645 33.1114C40.8476 32.994 41.0076 32.8234 41.125 32.5994C41.2423 32.3647 41.301 32.0714 41.301 31.7194C41.301 31.3674 41.2423 31.074 41.125 30.8394C41.0076 30.6047 40.8476 30.4287 40.645 30.3114C40.453 30.194 40.2396 30.1354 40.005 30.1354C39.781 30.1354 39.5623 30.194 39.349 30.3114C39.1463 30.4287 38.981 30.6047 38.853 30.8394C38.7356 31.074 38.677 31.3674 38.677 31.7194C38.677 32.0607 38.7356 32.3487 38.853 32.5834C38.981 32.818 39.1463 32.994 39.349 33.1114C39.5516 33.2287 39.765 33.2874 39.989 33.2874Z" fill="black"/>
<path d="M34.8312 6.60821C53.8154 8.29096 61.9708 22.7212 62.4349 36.7213" stroke="#4D65FF" stroke-width="5" stroke-linecap="round"/>
<g filter="url(#filter1_d_5068_3436)">
<rect x="3.5" y="3.76562" width="61.7356" height="61.7356" rx="30.8678" stroke="black" shape-rendering="crispEdges"/>
</g>
<defs>
<filter id="filter0_d_5068_3436" x="6.27344" y="6.53906" width="58.1875" height="58.1875" filterUnits="userSpaceOnUse" color-interpolation-filters="sRGB">
<feFlood flood-opacity="0" result="BackgroundImageFix"/>
<feColorMatrix in="SourceAlpha" type="matrix" values="0 0 0 0 0 0 0 0 0 0 0 0 0 0 0 0 0 0 127 0" result="hardAlpha"/>
<feOffset dx="1" dy="1"/>
<feGaussianBlur stdDeviation="2"/>
<feComposite in2="hardAlpha" operator="out"/>
<feColorMatrix type="matrix" values="0 0 0 0 0.0470588 0 0 0 0 0.0470588 0 0 0 0 0.0509804 0 0 0 0.05 0"/>
<feBlend mode="normal" in2="BackgroundImageFix" result="effect1_dropShadow_5068_3436"/>
<feBlend mode="normal" in="SourceGraphic" in2="effect1_dropShadow_5068_3436" result="shape"/>
</filter>
<filter id="filter1_d_5068_3436" x="0" y="0.265625" width="70.7344" height="70.7344" filterUnits="userSpaceOnUse" color-interpolation-filters="sRGB">
<feFlood flood-opacity="0" result="BackgroundImageFix"/>
<feColorMatrix in="SourceAlpha" type="matrix" values="0 0 0 0 0 0 0 0 0 0 0 0 0 0 0 0 0 0 127 0" result="hardAlpha"/>
<feOffset dx="1" dy="1"/>
<feGaussianBlur stdDeviation="2"/>
<feComposite in2="hardAlpha" operator="out"/>
<feColorMatrix type="matrix" values="0 0 0 0 0.0470588 0 0 0 0 0.0470588 0 0 0 0 0.0509804 0 0 0 0.05 0"/>
<feBlend mode="normal" in2="BackgroundImageFix" result="effect1_dropShadow_5068_3436"/>
<feBlend mode="normal" in="SourceGraphic" in2="effect1_dropShadow_5068_3436" result="shape"/>
</filter>
</defs>
</svg>
