<svg width="25" height="24" viewBox="0 0 25 24" fill="none" xmlns="http://www.w3.org/2000/svg">
<mask id="mask0_4626_94" style="mask-type:luminance" maskUnits="userSpaceOnUse" x="0" y="3" width="21" height="22">
<path d="M0 3.21094H20.8103V24.0092H0V3.21094Z" fill="white"/>
</mask>
<g mask="url(#mask0_4626_94)">
<path d="M3.04838 19.0697H3.25167V23.3374C3.252 23.3956 3.26055 23.4525 3.27733 23.5085C3.29377 23.564 3.31812 23.6163 3.34969 23.6654C3.38127 23.7144 3.4191 23.7578 3.46285 23.7959C3.50693 23.8341 3.55529 23.8653 3.60825 23.8897C3.66121 23.914 3.71647 23.9305 3.77404 23.939C3.83161 23.9476 3.88917 23.9479 3.94707 23.94C4.00463 23.9321 4.06023 23.9163 4.11319 23.8926C4.16648 23.869 4.21516 23.8384 4.2599 23.8005L9.77967 19.0697H17.6817C17.7814 19.0697 17.881 19.0648 17.9804 19.0549C18.0797 19.045 18.1784 19.0306 18.2761 19.0111C18.3741 18.9914 18.4709 18.9674 18.5662 18.9381C18.662 18.9092 18.7557 18.8756 18.8482 18.8375C18.9403 18.7993 19.0304 18.7566 19.1186 18.7095C19.2064 18.6625 19.2919 18.6112 19.3751 18.5556C19.458 18.5003 19.538 18.4408 19.6153 18.3773C19.6922 18.3142 19.7663 18.2471 19.837 18.1767C19.9074 18.106 19.9745 18.0323 20.0376 17.955C20.1011 17.8777 20.1607 17.7978 20.2159 17.7149C20.2715 17.6317 20.3228 17.5461 20.3699 17.4583C20.4169 17.3702 20.4597 17.28 20.4978 17.188C20.536 17.0955 20.5696 17.0018 20.5985 16.9061C20.6274 16.8107 20.6518 16.714 20.6712 16.616C20.6909 16.5183 20.7054 16.4196 20.7153 16.3203C20.7251 16.2209 20.7301 16.1213 20.7301 16.0216C20.7301 16.0216 20.7301 11.7782 20.7219 11.7782C20.0018 12.0351 19.2593 12.1624 18.4945 12.1604C18.3847 12.1601 18.2751 12.1575 18.1656 12.1519C18.056 12.1466 17.9465 12.1384 17.8373 12.1275C17.7281 12.1167 17.6192 12.1032 17.5106 12.0867C17.4021 12.0706 17.2942 12.0519 17.1866 12.0305C17.0791 12.0088 16.9718 11.9848 16.8656 11.9581C16.759 11.9312 16.6534 11.9019 16.5485 11.87C16.4432 11.8381 16.3393 11.8035 16.236 11.7667C16.1327 11.7295 16.0304 11.6901 15.9291 11.648C15.8274 11.6062 15.7274 11.5615 15.6281 11.5148C15.5291 11.4677 15.431 11.4184 15.3343 11.3664C15.2376 11.3148 15.1419 11.2608 15.0478 11.2043C14.9537 11.1477 14.8613 11.0891 14.7698 11.028C14.6787 10.9671 14.5889 10.9039 14.5008 10.8385C14.4129 10.773 14.3264 10.7056 14.2415 10.6362C14.1567 10.5665 14.0738 10.4948 13.9922 10.4211C13.911 10.3474 13.8317 10.2718 13.754 10.1941C13.6764 10.1165 13.6008 10.0372 13.5271 9.956C13.4534 9.87443 13.3817 9.79154 13.3119 9.70668C13.2425 9.62182 13.1748 9.53532 13.1096 9.44716C13.0442 9.35934 12.981 9.26955 12.9198 9.17844C12.859 9.087 12.8004 8.99457 12.7438 8.9005C12.6873 8.8061 12.6333 8.71071 12.5817 8.61401C12.5297 8.51731 12.4803 8.41929 12.4333 8.32029C12.3866 8.22095 12.3419 8.12063 12.3001 8.01933C12.258 7.91802 12.2185 7.81573 12.1813 7.71244C12.1442 7.60916 12.11 7.5049 12.078 7.39997C12.0461 7.29505 12.0165 7.18946 11.9899 7.08289C11.9632 6.97665 11.9392 6.86942 11.9175 6.76187C11.8961 6.65431 11.8774 6.54643 11.8613 6.43788C11.8448 6.32934 11.8313 6.22047 11.8205 6.11127C11.8096 6.00206 11.8014 5.89253 11.7961 5.783C11.7905 5.67347 11.7879 5.56394 11.7876 5.45409C11.7856 4.68606 11.9159 3.94073 12.1777 3.21875H3.04838C2.9487 3.21875 2.84903 3.22368 2.74969 3.23355C2.65035 3.24342 2.55166 3.25789 2.45364 3.2773C2.35594 3.29703 2.25923 3.32104 2.1635 3.35032C2.06811 3.37926 1.97436 3.41281 1.88192 3.45097C1.78982 3.48912 1.69968 3.53188 1.61152 3.57892C1.52369 3.62595 1.43817 3.67726 1.35494 3.73285C1.27205 3.78811 1.19178 3.84764 1.11481 3.91113C1.03751 3.97428 0.963822 4.04138 0.893098 4.11177C0.822374 4.18248 0.755597 4.25616 0.69211 4.33346C0.628952 4.41075 0.569412 4.49068 0.514148 4.57357C0.458556 4.65679 0.40724 4.7423 0.3602 4.83013C0.31316 4.91828 0.270397 5.0084 0.232238 5.1005C0.19408 5.19292 0.160527 5.28667 0.131251 5.38238C0.102303 5.47777 0.07829 5.57447 0.058553 5.67249C0.039145 5.77018 0.0243423 5.86885 0.0148027 5.96819C0.0049342 6.06752 0 6.16718 0 6.26684V16.0216C0 16.1213 0.0049342 16.2209 0.0148027 16.3203C0.0243423 16.4196 0.039145 16.5183 0.058553 16.616C0.07829 16.714 0.102303 16.8107 0.131251 16.9061C0.160527 17.0018 0.19408 17.0955 0.232238 17.188C0.270397 17.28 0.31316 17.3702 0.3602 17.4583C0.40724 17.5461 0.458556 17.6317 0.514148 17.7149C0.569412 17.7978 0.628952 17.8777 0.69211 17.955C0.755597 18.0323 0.822374 18.106 0.893098 18.1767C0.963822 18.2471 1.03751 18.3142 1.11481 18.3773C1.19178 18.4408 1.27205 18.5003 1.35494 18.5556C1.43817 18.6112 1.52369 18.6625 1.61152 18.7095C1.69968 18.7566 1.78982 18.7993 1.88192 18.8375C1.97436 18.8756 2.06811 18.9092 2.1635 18.9381C2.25923 18.9674 2.35594 18.9914 2.45364 19.0111C2.55166 19.0306 2.65035 19.045 2.74969 19.0549C2.84903 19.0648 2.9487 19.0697 3.04838 19.0697ZM4.67437 7.28321H10.3649C10.405 7.28321 10.4448 7.28682 10.484 7.29472C10.5231 7.30261 10.5613 7.31412 10.5984 7.32958C10.6353 7.34471 10.6705 7.36346 10.7037 7.38583C10.7369 7.40819 10.7678 7.43319 10.7961 7.46148C10.8244 7.4901 10.8497 7.52068 10.8721 7.55391C10.8942 7.58746 10.9129 7.62232 10.9284 7.65949C10.9435 7.69633 10.9553 7.73448 10.9629 7.77362C10.9708 7.81309 10.9747 7.85256 10.9747 7.89269C10.9747 7.93282 10.9708 7.97229 10.9629 8.01176C10.9553 8.0509 10.9435 8.08906 10.9284 8.1259C10.9129 8.16306 10.8942 8.19826 10.8721 8.23148C10.8497 8.2647 10.8244 8.29562 10.7961 8.32391C10.7678 8.35219 10.7369 8.37752 10.7037 8.39956C10.6705 8.42192 10.6353 8.44067 10.5984 8.45613C10.5613 8.47126 10.5231 8.48277 10.484 8.49067C10.4448 8.49856 10.405 8.50251 10.3649 8.50251H4.67437C4.63424 8.50251 4.59477 8.49856 4.55529 8.49067C4.51615 8.48277 4.47799 8.47126 4.44115 8.45613C4.40398 8.44067 4.36878 8.42192 4.33556 8.39956C4.30233 8.37752 4.27141 8.35219 4.24312 8.32391C4.21483 8.29562 4.1895 8.2647 4.16746 8.23148C4.14509 8.19826 4.12634 8.16306 4.11088 8.1259C4.09575 8.08906 4.08424 8.0509 4.07634 8.01176C4.06845 7.97229 4.0645 7.93282 4.0645 7.89269C4.0645 7.85256 4.06845 7.81309 4.07634 7.77362C4.08424 7.73448 4.09575 7.69633 4.11088 7.65949C4.12634 7.62232 4.14509 7.58746 4.16746 7.55391C4.1895 7.52068 4.21483 7.4901 4.24312 7.46148C4.27141 7.43319 4.30233 7.40819 4.33556 7.38583C4.36878 7.36346 4.40398 7.34471 4.44115 7.32958C4.47799 7.31412 4.51615 7.30261 4.55529 7.29472C4.59477 7.28682 4.63424 7.28321 4.67437 7.28321ZM4.67437 10.5346H12.8037C12.8438 10.5346 12.8836 10.5385 12.9228 10.5464C12.9619 10.554 13.0001 10.5658 13.0373 10.5809C13.0741 10.5964 13.1093 10.6152 13.1425 10.6372C13.1757 10.6596 13.2067 10.6849 13.235 10.7132C13.2633 10.7415 13.2886 10.7724 13.3109 10.8056C13.333 10.8388 13.3517 10.874 13.3672 10.9109C13.3823 10.948 13.3942 10.9862 13.4017 11.0253C13.4096 11.0645 13.4136 11.1043 13.4136 11.1444C13.4136 11.1842 13.4096 11.224 13.4017 11.2631C13.3942 11.3023 13.3823 11.3404 13.3672 11.3776C13.3517 11.4144 13.333 11.4496 13.3109 11.4828C13.2886 11.5161 13.2633 11.547 13.235 11.5753C13.2067 11.6036 13.1757 11.6289 13.1425 11.6513C13.1093 11.6733 13.0741 11.692 13.0373 11.7075C13.0001 11.723 12.9619 11.7345 12.9228 11.742C12.8836 11.7499 12.8438 11.7539 12.8037 11.7539H4.67437C4.63424 11.7539 4.59477 11.7499 4.55529 11.742C4.51615 11.7345 4.47799 11.723 4.44115 11.7075C4.40398 11.692 4.36878 11.6733 4.33556 11.6513C4.30233 11.6289 4.27141 11.6036 4.24312 11.5753C4.21483 11.547 4.1895 11.5161 4.16746 11.4828C4.14509 11.4496 4.12634 11.4144 4.11088 11.3776C4.09575 11.3404 4.08424 11.3023 4.07634 11.2631C4.06845 11.224 4.0645 11.1842 4.0645 11.1444C4.0645 11.1043 4.06845 11.0645 4.07634 11.0253C4.08424 10.9862 4.09575 10.948 4.11088 10.9109C4.12634 10.874 4.14509 10.8388 4.16746 10.8056C4.1895 10.7724 4.21483 10.7415 4.24312 10.7132C4.27141 10.6849 4.30233 10.6596 4.33556 10.6372C4.36878 10.6152 4.40398 10.5964 4.44115 10.5809C4.47799 10.5658 4.51615 10.554 4.55529 10.5464C4.59477 10.5385 4.63424 10.5346 4.67437 10.5346ZM4.67437 13.7859H16.0557C16.0958 13.7859 16.1353 13.7899 16.1745 13.7978C16.2139 13.8057 16.2521 13.8172 16.2889 13.8323C16.3261 13.8478 16.361 13.8665 16.3945 13.8889C16.4277 13.9109 16.4583 13.9363 16.4866 13.9645C16.5152 13.9928 16.5402 14.0237 16.5626 14.057C16.585 14.0902 16.6037 14.1254 16.6189 14.1626C16.6343 14.1994 16.6458 14.2375 16.6537 14.2767C16.6613 14.3162 16.6652 14.3556 16.6652 14.3958C16.6652 14.4359 16.6613 14.4754 16.6537 14.5148C16.6458 14.554 16.6343 14.5921 16.6189 14.629C16.6037 14.6661 16.585 14.701 16.5626 14.7345C16.5402 14.7678 16.5152 14.7984 16.4866 14.827C16.4583 14.8553 16.4277 14.8803 16.3945 14.9026C16.361 14.925 16.3261 14.9437 16.2889 14.9589C16.2521 14.9743 16.2139 14.9858 16.1745 14.9937C16.1353 15.0016 16.0958 15.0052 16.0557 15.0052H4.67437C4.63424 15.0052 4.59477 15.0016 4.55529 14.9937C4.51615 14.9858 4.47799 14.9743 4.44115 14.9589C4.40398 14.9437 4.36878 14.925 4.33556 14.9026C4.30233 14.8803 4.27141 14.8553 4.24312 14.827C4.21483 14.7984 4.1895 14.7678 4.16746 14.7345C4.14509 14.701 4.12634 14.6661 4.11088 14.629C4.09575 14.5921 4.08424 14.554 4.07634 14.5148C4.06845 14.4754 4.0645 14.4359 4.0645 14.3958C4.0645 14.3556 4.06845 14.3162 4.07634 14.2767C4.08424 14.2375 4.09575 14.1994 4.11088 14.1626C4.12634 14.1254 4.14509 14.0902 4.16746 14.057C4.1895 14.0237 4.21483 13.9928 4.24312 13.9645C4.27141 13.9363 4.30233 13.9109 4.33556 13.8889C4.36878 13.8665 4.40398 13.8478 4.44115 13.8323C4.47799 13.8172 4.51615 13.8057 4.55529 13.7978C4.59477 13.7899 4.63424 13.7859 4.67437 13.7859Z" fill="black"/>
</g>
<mask id="mask1_4626_94" style="mask-type:luminance" maskUnits="userSpaceOnUse" x="12" y="0" width="13" height="11">
<path d="M12.9844 0H24.016V10.9464H12.9844V0Z" fill="white"/>
</mask>
<g mask="url(#mask1_4626_94)">
<path d="M18.5032 -0.0390625C18.3239 -0.03676 18.1456 -0.0259058 17.9673 -0.0064995C17.7893 0.0129067 17.6127 0.0408649 17.4374 0.0777038C17.262 0.114214 17.0887 0.158947 16.9176 0.212232C16.7466 0.265517 16.5788 0.327025 16.4137 0.396755C16.2485 0.466157 16.0874 0.543454 15.9298 0.628644C15.7722 0.713834 15.6189 0.80626 15.4702 0.906251C15.3216 1.00624 15.1781 1.11314 15.04 1.22695C14.9018 1.34075 14.7693 1.46114 14.6426 1.58777C14.516 1.71441 14.3956 1.84696 14.2818 1.98511C14.1679 2.12325 14.061 2.26699 13.961 2.41533C13.861 2.564 13.7686 2.71728 13.6834 2.87483C13.5982 3.03239 13.5209 3.19356 13.4512 3.35867C13.3817 3.52379 13.3202 3.69187 13.2669 3.86258C13.2137 4.03362 13.1689 4.20696 13.1321 4.38227C13.0956 4.55758 13.0676 4.73421 13.0482 4.91216C13.0288 5.09043 13.0179 5.26904 13.0156 5.44797C13.0156 5.53776 13.0179 5.62756 13.0222 5.71735C13.0268 5.80682 13.0334 5.89629 13.0423 5.98575C13.0508 6.07522 13.062 6.16435 13.0752 6.25316C13.0883 6.34197 13.1038 6.43045 13.1212 6.51827C13.1387 6.60642 13.1584 6.69424 13.1801 6.78108C13.2021 6.86824 13.2258 6.95475 13.2521 7.0406C13.2781 7.12677 13.3061 7.21196 13.3364 7.29649C13.3666 7.38103 13.3992 7.4649 13.4334 7.54779C13.4679 7.63068 13.5041 7.71291 13.5426 7.79382C13.5811 7.87506 13.6212 7.95532 13.6637 8.03459C13.7061 8.11353 13.7502 8.19181 13.7966 8.26878C13.8426 8.34575 13.8906 8.42173 13.9406 8.49639C13.9903 8.57106 14.0419 8.64441 14.0956 8.71644C14.1492 8.7888 14.2044 8.85952 14.2614 8.92892C14.3183 8.99832 14.3768 9.06608 14.4373 9.13285C14.4975 9.19929 14.5594 9.26442 14.6229 9.3279C14.6864 9.39138 14.7515 9.45322 14.8179 9.51341C14.8844 9.57393 14.9525 9.63248 15.0219 9.68938C15.0913 9.74628 15.162 9.80154 15.2344 9.85516C15.3064 9.90844 15.3798 9.96041 15.4545 10.0101C15.5291 10.0601 15.6051 10.1081 15.6821 10.1541C15.7591 10.2005 15.837 10.2446 15.9163 10.287C15.9956 10.3295 16.0758 10.3696 16.1571 10.4081C16.238 10.4466 16.3203 10.4827 16.4031 10.5173C16.486 10.5515 16.5699 10.584 16.6545 10.6143C16.739 10.6446 16.8242 10.6725 16.9101 10.6985C16.9962 10.7248 17.0828 10.7485 17.1699 10.7705C17.2568 10.7922 17.3446 10.812 17.4324 10.8294C17.5206 10.8468 17.6091 10.8623 17.6979 10.8755C17.7867 10.8886 17.8759 10.8998 17.9653 10.9084C18.0548 10.9172 18.1443 10.9238 18.2338 10.9284C18.3236 10.9327 18.4134 10.935 18.5032 10.935C18.593 10.935 18.6828 10.9327 18.7722 10.9284C18.862 10.9238 18.9515 10.9172 19.041 10.9084C19.1305 10.8998 19.2196 10.8886 19.3084 10.8755C19.3972 10.8623 19.4857 10.8468 19.5736 10.8294C19.6617 10.812 19.7492 10.7922 19.8364 10.7705C19.9236 10.7485 20.0101 10.7248 20.0959 10.6985C20.1821 10.6725 20.2673 10.6442 20.3519 10.6143C20.4364 10.584 20.52 10.5515 20.6032 10.5173C20.6861 10.4827 20.768 10.4466 20.8492 10.4081C20.9305 10.3696 21.0107 10.3295 21.09 10.287C21.169 10.2446 21.2473 10.2005 21.3242 10.1541C21.4012 10.1081 21.4772 10.0601 21.5519 10.0101C21.6265 9.96041 21.6999 9.90844 21.7719 9.85516C21.844 9.80154 21.915 9.74628 21.9844 9.68938C22.0538 9.63248 22.1216 9.57393 22.1884 9.51341C22.2548 9.45322 22.32 9.39138 22.3835 9.3279C22.4469 9.26442 22.5088 9.19929 22.569 9.13285C22.6292 9.06608 22.6881 8.99832 22.745 8.92892C22.8019 8.85952 22.8571 8.7888 22.9108 8.71644C22.964 8.64441 23.0157 8.57106 23.0657 8.49639C23.1157 8.42173 23.1637 8.34575 23.2098 8.26878C23.2562 8.19181 23.3002 8.11353 23.3427 8.03459C23.3848 7.95532 23.4252 7.87506 23.4637 7.79382C23.5022 7.71291 23.5384 7.63068 23.5729 7.54779C23.6071 7.4649 23.6394 7.38103 23.6696 7.29649C23.6999 7.21196 23.7282 7.12677 23.7542 7.0406C23.7802 6.95475 23.8042 6.86824 23.8262 6.78108C23.8479 6.69424 23.8677 6.60642 23.8851 6.51827C23.9025 6.43045 23.918 6.34197 23.9312 6.25316C23.9443 6.16435 23.9552 6.07522 23.9641 5.98575C23.9729 5.89629 23.9795 5.80682 23.9838 5.71735C23.9884 5.62756 23.9907 5.53776 23.9907 5.44797C23.9907 5.35817 23.9884 5.26838 23.9838 5.17891C23.9795 5.08912 23.9729 4.99965 23.9641 4.91019C23.9552 4.82072 23.9443 4.73158 23.9312 4.64277C23.918 4.55397 23.9025 4.46549 23.8851 4.37767C23.8677 4.28951 23.8479 4.20202 23.8262 4.11486C23.8042 4.0277 23.7802 3.94119 23.7542 3.85534C23.7282 3.76916 23.6999 3.68397 23.6696 3.59944C23.6394 3.51491 23.6071 3.43104 23.5729 3.34815C23.5384 3.26526 23.5022 3.18336 23.4637 3.10212C23.4252 3.02087 23.3848 2.94062 23.3427 2.86135C23.3002 2.78241 23.2562 2.70412 23.2098 2.62716C23.1637 2.55019 23.1157 2.47421 23.0657 2.39954C23.0157 2.32488 22.964 2.25153 22.9108 2.1795C22.8571 2.10746 22.8019 2.03642 22.745 1.96702C22.6881 1.89761 22.6292 1.82986 22.569 1.76309C22.5088 1.69664 22.4469 1.63152 22.3835 1.56804C22.32 1.50456 22.2548 1.44272 22.1884 1.38253C22.1216 1.32201 22.0538 1.26346 21.9844 1.20655C21.915 1.14965 21.844 1.09439 21.7719 1.04078C21.6999 0.987494 21.6265 0.935525 21.5519 0.885858C21.4772 0.835863 21.4012 0.787841 21.3242 0.741792C21.2473 0.695414 21.169 0.651339 21.09 0.608908C21.0107 0.566478 20.9305 0.52635 20.8492 0.487866C20.768 0.449383 20.6861 0.413202 20.6032 0.378665C20.52 0.344457 20.4364 0.312223 20.3519 0.281963C20.2673 0.251702 20.1821 0.223415 20.0959 0.19743C20.0101 0.171117 19.9236 0.147435 19.8364 0.125397C19.7492 0.103688 19.6617 0.0839533 19.5736 0.0665206C19.4857 0.0490879 19.3972 0.0336287 19.3084 0.0204719C19.2196 0.00731511 19.1305 -0.0035392 19.041 -0.01242C18.9515 -0.0213009 18.862 -0.0278792 18.7722 -0.0321552C18.6828 -0.03676 18.593 -0.0390625 18.5032 -0.0390625ZM19.5193 7.07382C19.5193 7.11362 19.5153 7.15341 19.5074 7.19256C19.4999 7.23203 19.4884 7.27018 19.4729 7.30702C19.4574 7.34419 19.4387 7.37905 19.4167 7.4126C19.3943 7.44582 19.369 7.47641 19.3407 7.5047C19.3124 7.53299 19.2818 7.55831 19.2482 7.58068C19.215 7.60305 19.1798 7.6218 19.143 7.63693C19.1058 7.65239 19.068 7.6639 19.0285 7.67179C18.9894 7.67936 18.9495 7.6833 18.9097 7.6833C18.8696 7.6833 18.8298 7.67936 18.7907 7.67179C18.7515 7.6639 18.7134 7.65239 18.6762 7.63693C18.6393 7.6218 18.6042 7.60305 18.5709 7.58068C18.5377 7.55831 18.5068 7.53299 18.4785 7.5047C18.4502 7.47641 18.4249 7.44582 18.4025 7.4126C18.3805 7.37905 18.3617 7.34419 18.3463 7.30702C18.3311 7.27018 18.3193 7.23203 18.3117 7.19256C18.3038 7.15341 18.2999 7.11362 18.2999 7.07382V4.43194H18.0966C18.0568 4.43194 18.017 4.42799 17.9778 4.4201C17.9384 4.41253 17.9002 4.40069 17.8634 4.38556C17.8262 4.3701 17.7913 4.35135 17.7578 4.32899C17.7245 4.30695 17.6939 4.28162 17.6657 4.25333C17.6374 4.22505 17.612 4.19413 17.5897 4.16091C17.5673 4.12769 17.5486 4.09249 17.5334 4.05565C17.518 4.01849 17.5064 3.98033 17.4986 3.94119C17.491 3.90205 17.487 3.86225 17.487 3.82212C17.487 3.78232 17.491 3.74252 17.4986 3.70338C17.5064 3.66391 17.518 3.62576 17.5334 3.58892C17.5486 3.55208 17.5673 3.51688 17.5897 3.48366C17.612 3.45011 17.6374 3.41952 17.6657 3.39124C17.6939 3.36295 17.7245 3.33762 17.7578 3.31526C17.7913 3.29322 17.8262 3.27447 17.8634 3.25901C17.9002 3.24355 17.9384 3.23204 17.9778 3.22415C18.017 3.21658 18.0568 3.21263 18.0966 3.21263H18.9097C18.9495 3.21296 18.989 3.21691 19.0282 3.22513C19.0673 3.23303 19.1055 3.24487 19.1423 3.26033C19.1792 3.27546 19.214 3.29453 19.2472 3.31657C19.2805 3.33894 19.3111 3.36426 19.3394 3.39255C19.3676 3.42084 19.393 3.45143 19.4153 3.48465C19.4374 3.51787 19.4565 3.55274 19.4716 3.58957C19.4871 3.62641 19.4989 3.66457 19.5068 3.70371C19.515 3.74285 19.519 3.78232 19.5193 3.82212V7.07382Z" fill="black"/>
</g>
</svg>
