<svg width="24" height="26" viewBox="0 0 24 26" fill="none" xmlns="http://www.w3.org/2000/svg">
<g clip-path="url(#clip0_4626_190)">
<path fill-rule="evenodd" clip-rule="evenodd" d="M14.6513 0.195331H12.9085C12.7709 0.272807 12.5505 0.293327 12.3883 0.34533C11.0864 0.762693 10.5951 1.42818 9.68235 2.30706L8.33173 3.63616C7.87541 4.07907 7.40907 4.49987 6.96803 4.95248L1.58094 10.2528C1.12252 10.6955 0.705678 11.0772 0.24069 11.5602C-0.30131 12.1234 0.131229 13.0824 0.948867 13.0535C1.48925 13.0344 2.00719 12.3391 2.46745 11.896C5.1727 9.29156 7.86131 6.56292 10.5528 3.96575L11.9066 2.63986C13.0993 1.63126 14.7325 1.69091 15.7469 2.73802C16.8109 3.8364 16.7269 5.48055 15.6839 6.51167C15.4554 6.73755 15.2415 6.93866 15.0099 7.1618C14.795 7.36875 14.5427 7.63753 14.3335 7.8409C13.8801 8.28157 13.4155 8.68774 12.9812 9.1685L8.93386 13.129C8.63147 13.4224 7.77363 14.125 7.68617 14.5587C7.52461 15.3597 8.41335 15.9119 9.07846 15.4806C9.27419 15.3536 12.0381 12.6072 12.4704 12.1887L15.8457 8.88021C16.8018 7.95714 17.607 6.76412 19.2922 6.98802C21.4038 7.26853 22.671 9.88109 20.7966 11.6875C19.4648 12.9709 18.093 14.3666 16.7607 15.6593C15.8553 16.5378 14.9546 17.4317 14.0462 18.3045L12.0507 20.2811C11.8413 20.4819 11.5591 20.7224 11.3787 20.9648C10.9748 21.5077 10.8361 22.3453 11.1673 23.0496C11.4659 23.6848 12.0351 24.0148 12.4286 24.4681C12.64 24.7116 13.5593 25.6304 13.8152 25.7303C14.5785 26.0281 15.3612 25.2474 14.96 24.4912C14.8436 24.2719 13.2624 22.7656 12.9657 22.4806C12.595 22.1242 12.9721 21.8903 13.1939 21.6766L17.2305 17.7056C17.4626 17.4816 17.6726 17.2781 17.9043 17.055L21.9469 13.0899C22.2083 12.8199 22.379 12.6721 22.6035 12.3911C24.4342 10.1001 23.4323 6.61176 20.6147 5.49917C19.786 5.17194 19.2324 5.16623 18.2855 5.21691C18.443 3.31292 17.7139 1.72838 16.2097 0.82529C15.3199 0.291045 14.9348 0.353382 14.6513 0.195312V0.195331Z" fill="black"/>
<path fill-rule="evenodd" clip-rule="evenodd" d="M13.6107 3.72422C13.2088 3.81266 13.1022 4.0073 12.7417 4.355L11.2148 5.85463C10.9493 6.11037 10.7099 6.34211 10.4445 6.59773C8.91426 8.07167 7.41983 9.59812 5.89544 11.0653C5.38888 11.5528 4.95647 11.9557 4.57968 12.7759C3.10259 15.9909 5.93314 19.5846 9.51939 18.9773C11.3376 18.6695 12.2087 17.4683 13.1365 16.5724L14.2757 15.4731C14.4049 15.348 14.5154 15.2153 14.6473 15.0883L19.5837 10.2513C20.3544 9.50225 19.2404 8.07679 18.1815 9.10131C17.9342 9.34059 17.6622 9.6289 17.4251 9.85799L14.3864 12.8409C13.8691 13.3399 13.38 13.7815 12.8748 14.3245C12.4767 14.7523 11.8015 15.3423 11.3385 15.8149C10.8725 16.2907 10.4085 16.8458 9.639 17.1097C8.75919 17.4115 7.85638 17.2279 7.20963 16.7956C5.90107 15.9209 5.51925 13.9976 6.78234 12.7087C7.29067 12.19 7.7546 11.8062 8.29517 11.2267C8.71155 10.7803 9.50273 10.1146 9.8292 9.73405C10.0893 9.43086 10.9899 8.60362 11.3453 8.25499C11.4808 8.12206 11.5841 7.99787 11.7166 7.86993C11.8538 7.73759 11.9645 7.63015 12.1017 7.49828L14.3834 5.27161C15.1109 4.54513 14.4238 3.54523 13.6107 3.72418V3.72422Z" fill="black"/>
</g>
<defs>
<clipPath id="clip0_4626_190">
<rect width="23.5286" height="25.6" fill="white" transform="translate(0 0.195312)"/>
</clipPath>
</defs>
</svg>
