<svg width="26" height="24" viewBox="0 0 26 24" fill="none" xmlns="http://www.w3.org/2000/svg">
<mask id="mask0_4626_181" style="mask-type:luminance" maskUnits="userSpaceOnUse" x="9" y="5" width="17" height="19">
<path d="M9.39844 5.26562H25.0558V23.1945H9.39844V5.26562Z" fill="white"/>
</mask>
<g mask="url(#mask0_4626_181)">
<path d="M25.0149 22.7144L23.399 17.9899C23.4796 17.8483 23.5564 17.7043 23.6293 17.5582C23.7019 17.4123 23.7703 17.2642 23.8349 17.1145C23.8992 16.9645 23.9595 16.8128 24.0154 16.6596C24.0713 16.5064 24.1227 16.3518 24.1703 16.1957C24.2175 16.0396 24.2602 15.8821 24.2988 15.7238C24.3373 15.5651 24.3711 15.4057 24.4006 15.2454C24.4302 15.0848 24.4552 14.9238 24.4758 14.7619C24.4964 14.6 24.5121 14.4378 24.5237 14.2752C24.5352 14.1123 24.542 13.9495 24.5442 13.7863C24.5465 13.6234 24.5442 13.4602 24.5375 13.2973C24.5307 13.1341 24.5192 12.9715 24.5034 12.8093C24.4874 12.6467 24.4668 12.4852 24.4421 12.3239C24.417 12.1626 24.3875 12.0023 24.3534 11.843C24.3193 11.6833 24.2811 11.5249 24.2384 11.3675C24.1953 11.2101 24.1481 11.0539 24.0967 10.8991C24.045 10.7446 23.9891 10.5913 23.929 10.4397C23.869 10.2881 23.8044 10.138 23.736 9.99025C23.6672 9.84215 23.5946 9.69598 23.5182 9.55206C23.4414 9.40813 23.3607 9.26646 23.2759 9.12703C23.1911 8.9876 23.1028 8.85043 23.0106 8.71614C22.9181 8.58153 22.822 8.44982 22.7224 8.32067C22.6225 8.19152 22.5194 8.06527 22.4127 7.94191C22.3058 7.81854 22.1956 7.69839 22.0822 7.58113C21.9688 7.46387 21.8518 7.34982 21.732 7.23931C21.6122 7.12848 21.4895 7.0215 21.3635 6.91741C21.2376 6.81364 21.1088 6.71373 20.9774 6.61703C20.8457 6.52033 20.7117 6.42749 20.5749 6.3385C20.4383 6.24951 20.2992 6.16406 20.1576 6.08278C20.0162 6.0015 19.8726 5.9244 19.7268 5.85083C19.5809 5.77758 19.4332 5.70851 19.2835 5.64362C19.1341 5.5784 18.9824 5.51768 18.8295 5.46114C18.6763 5.4046 18.5218 5.35256 18.366 5.30469C18.4521 5.49391 18.5324 5.6857 18.6066 5.87974C18.6811 6.0741 18.7492 6.27039 18.8115 6.46893C18.8739 6.66747 18.9298 6.86761 18.9796 7.06969C19.0297 7.27144 19.0734 7.47479 19.1106 7.67944C19.1479 7.88376 19.1791 8.08936 19.2038 8.29593C19.2285 8.5025 19.2468 8.70971 19.2587 8.91725C19.2706 9.12478 19.2761 9.33264 19.2751 9.54081C19.2745 9.74867 19.2671 9.95652 19.2533 10.1641C19.2398 10.3716 19.2195 10.5785 19.1932 10.7847C19.1668 10.991 19.1341 11.1963 19.0949 11.4006C19.0557 11.6049 19.0104 11.8076 18.9587 12.009C18.9073 12.2108 18.8495 12.4103 18.7855 12.6082C18.7216 12.8061 18.6516 13.0021 18.5757 13.1958C18.4996 13.3892 18.4177 13.5803 18.33 13.7689C18.2423 13.9575 18.1488 14.1432 18.0495 14.326C17.9503 14.5088 17.8455 14.6883 17.7354 14.8647C17.6252 15.0411 17.5095 15.2139 17.3884 15.3832C17.2676 15.5525 17.1417 15.718 17.0103 15.8793C16.8792 16.0409 16.7433 16.1983 16.6026 16.3512C16.4616 16.5044 16.3164 16.6529 16.1664 16.7971C16.0164 16.9413 15.8618 17.0808 15.7035 17.2154C15.5448 17.35 15.3822 17.4798 15.2158 17.6044C15.0491 17.7291 14.8788 17.8483 14.705 17.9626C14.5309 18.0767 14.3536 18.1853 14.173 18.2887C13.9925 18.3918 13.8087 18.4895 13.6221 18.5814C13.4355 18.6733 13.2462 18.7593 13.0541 18.8397C12.8623 18.92 12.668 18.9942 12.4714 19.0626C12.2748 19.1307 12.0766 19.193 11.8761 19.2493C11.6757 19.3052 11.4739 19.355 11.2702 19.3987C11.0669 19.4423 10.8623 19.4796 10.6567 19.5108C10.4507 19.5419 10.2442 19.5664 10.037 19.585C9.82976 19.6033 9.62223 19.6152 9.41406 19.6206C9.57822 19.7961 9.74945 19.9647 9.92774 20.126C10.1057 20.2876 10.2904 20.4415 10.4812 20.5876C10.6721 20.7338 10.8684 20.8719 11.0707 21.0017C11.2728 21.1318 11.48 21.2533 11.6924 21.3664C11.9047 21.4791 12.1212 21.5832 12.3419 21.6783C12.5626 21.7734 12.7872 21.8592 13.0149 21.936C13.243 22.0124 13.4737 22.0796 13.7069 22.1374C13.9405 22.1949 14.1759 22.2428 14.4133 22.281C14.6507 22.3192 14.8891 22.3475 15.1291 22.3661C15.3687 22.3844 15.6087 22.3931 15.8493 22.3918C16.0896 22.3905 16.3296 22.3796 16.5692 22.3584C16.8086 22.3375 17.0469 22.3067 17.284 22.2659C17.5208 22.2251 17.7556 22.175 17.9885 22.1149C18.2214 22.0548 18.4514 21.9854 18.6785 21.9064C18.9057 21.8274 19.1289 21.739 19.3487 21.6417C19.5687 21.5443 19.784 21.438 19.995 21.323L24.6008 23.1124C24.6583 23.1343 24.7171 23.1391 24.7771 23.1265C24.8375 23.1143 24.8896 23.087 24.9339 23.0443C24.9782 23.0019 25.0075 22.9508 25.0222 22.8911C25.0367 22.8313 25.0344 22.7725 25.0149 22.7144Z" fill="black"/>
</g>
<path d="M17.8717 9.4954C17.8711 9.32835 17.8656 9.16129 17.8553 8.99424C17.845 8.82718 17.8299 8.66077 17.8103 8.49468C17.7904 8.32891 17.766 8.16346 17.7365 7.99866C17.7072 7.83417 17.6732 7.67065 17.6343 7.50777C17.5958 7.34522 17.5524 7.18362 17.5042 7.02363C17.456 6.86333 17.4036 6.70462 17.3465 6.54753C17.2893 6.39043 17.2276 6.23494 17.1614 6.08138C17.0952 5.92782 17.0249 5.77619 16.95 5.62648C16.8752 5.47709 16.7962 5.32964 16.713 5.18475C16.6294 5.03986 16.5421 4.89722 16.4508 4.75715C16.3593 4.6174 16.2639 4.4799 16.1643 4.34562C16.065 4.21101 15.9619 4.07929 15.8549 3.95079C15.7479 3.82229 15.6371 3.697 15.5231 3.5746C15.409 3.45252 15.2914 3.33365 15.1703 3.218C15.0492 3.10267 14.9249 2.99087 14.7977 2.8826C14.6701 2.77402 14.5397 2.66961 14.4061 2.56873C14.2728 2.46786 14.1365 2.37084 13.9974 2.27799C13.8583 2.18515 13.7167 2.09616 13.5724 2.01135C13.4285 1.92654 13.282 1.8459 13.1333 1.76944C12.9842 1.69298 12.8336 1.6207 12.6806 1.55291C12.5274 1.48512 12.3729 1.42184 12.2161 1.36305C12.0597 1.30426 11.9013 1.24996 11.7416 1.20017C11.582 1.15037 11.421 1.10508 11.2588 1.0646C11.0963 1.02412 10.9331 0.988458 10.7686 0.957296C10.6044 0.926134 10.4393 0.899791 10.2732 0.877945C10.1074 0.85642 9.94104 0.839394 9.77399 0.827507C9.60727 0.815299 9.44022 0.808232 9.27285 0.805662C9.10548 0.803091 8.93843 0.805662 8.77138 0.812729C8.60401 0.819797 8.43728 0.831684 8.27087 0.848389C8.10447 0.865095 7.93838 0.886619 7.77326 0.912962C7.60814 0.939305 7.44366 0.970146 7.28046 1.00581C7.11695 1.04147 6.95472 1.08194 6.79345 1.12692C6.63218 1.1719 6.47252 1.22169 6.31447 1.27566C6.15609 1.32996 5.99965 1.38875 5.8448 1.45204C5.68964 1.51532 5.53673 1.58279 5.38574 1.65475C5.23475 1.72671 5.08601 1.80317 4.93953 1.88349C4.79271 1.96412 4.64847 2.04894 4.5068 2.1376C4.36513 2.22659 4.22603 2.31944 4.08982 2.41613C3.95329 2.51315 3.81965 2.61371 3.68923 2.71812C3.55848 2.82285 3.43094 2.93079 3.30662 3.04259C3.1823 3.15471 3.06119 3.26972 2.94361 3.38859C2.82571 3.50745 2.71167 3.62953 2.60084 3.75482C2.49001 3.88011 2.38303 4.00862 2.27959 4.14033C2.17647 4.27173 2.07688 4.40601 1.98147 4.54319C1.88574 4.68069 1.79418 4.82044 1.70648 4.96276C1.6191 5.1054 1.53558 5.25028 1.45655 5.39742C1.3772 5.54488 1.30235 5.69426 1.23168 5.8459C1.161 5.99753 1.09482 6.15109 1.03314 6.30626C0.971143 6.46175 0.913961 6.61885 0.861276 6.77755C0.808591 6.93625 0.760404 7.09624 0.716714 7.25783C0.673345 7.41911 0.634474 7.58166 0.600101 7.7455C0.566048 7.90903 0.536493 8.07383 0.511757 8.23896C0.487021 8.40441 0.467104 8.5705 0.452005 8.73691C0.436585 8.90332 0.426305 9.07038 0.420844 9.23743C0.415061 9.40449 0.414419 9.57186 0.418274 9.73892C0.42245 9.90597 0.431124 10.073 0.444938 10.2398C0.45843 10.4062 0.477062 10.5726 0.500192 10.738C0.523322 10.9038 0.551271 11.0686 0.584038 11.2325C0.616484 11.3966 0.65407 11.5595 0.696154 11.7214C0.738238 11.883 0.784818 12.0436 0.835897 12.2027C0.887297 12.362 0.943194 12.5194 1.00359 12.6755C1.06398 12.8314 1.12855 12.9856 1.19794 13.1378C1.26701 13.2901 1.34058 13.4401 1.41832 13.5882C1.49638 13.7363 1.5783 13.8819 1.66472 14.0252L1.10735 15.6581L0.212032 18.2841C0.192436 18.3422 0.190187 18.4014 0.204644 18.4611C0.219421 18.5205 0.248655 18.5716 0.292987 18.6143C0.337319 18.6568 0.389683 18.6844 0.449756 18.6966C0.50983 18.7088 0.568618 18.7043 0.626122 18.6825L3.18872 17.6869L4.77537 17.0694C5.32053 17.3842 5.89331 17.6371 6.49308 17.8279C7.09317 18.0187 7.70676 18.1434 8.33352 18.2015C8.59983 18.2237 8.87064 18.2372 9.1437 18.2372C9.28666 18.2372 9.42962 18.2337 9.57257 18.2266C9.71553 18.2195 9.85816 18.2092 10.0005 18.1951C10.1428 18.181 10.2845 18.1636 10.4261 18.1424C10.5675 18.1215 10.7085 18.0971 10.8486 18.0692C10.989 18.0412 11.1284 18.0097 11.2672 17.975C11.4059 17.9403 11.5438 17.9021 11.6806 17.8607C11.8175 17.8189 11.953 17.7743 12.0879 17.7261C12.2225 17.6776 12.3559 17.6262 12.4879 17.5715C12.6199 17.5166 12.7507 17.4588 12.8798 17.3974C13.0093 17.3364 13.1368 17.2718 13.2631 17.2043C13.389 17.1369 13.5133 17.0665 13.636 16.993C13.7588 16.9194 13.8795 16.8426 13.9984 16.7633C14.1173 16.6836 14.2339 16.6013 14.3489 16.5162C14.4636 16.4307 14.5763 16.3427 14.6868 16.2521C14.7974 16.1612 14.9053 16.0677 15.0113 15.9717C15.1173 15.8756 15.2208 15.777 15.3216 15.6758C15.4228 15.5746 15.5211 15.4708 15.6172 15.3648C15.7129 15.2588 15.8064 15.1505 15.897 15.04C15.9876 14.9292 16.0753 14.8164 16.1604 14.7017C16.2455 14.5867 16.3278 14.4698 16.4071 14.3509C16.4862 14.2317 16.5626 14.1109 16.6359 13.9882C16.7094 13.8655 16.7798 13.7412 16.8469 13.6149C16.9141 13.4887 16.9783 13.3611 17.0393 13.2316C17.1001 13.1022 17.1579 12.9714 17.2125 12.8394C17.2671 12.7074 17.3182 12.5737 17.3661 12.4391C17.4142 12.3045 17.4589 12.1686 17.5 12.0317C17.5415 11.8949 17.5794 11.7571 17.6137 11.6183C17.6484 11.4798 17.6793 11.3401 17.7069 11.2C17.7349 11.0596 17.7589 10.9189 17.7795 10.7772C17.8004 10.6359 17.8174 10.4939 17.8312 10.3519C17.845 10.2096 17.8553 10.0669 17.8621 9.92396C17.8688 9.78132 17.872 9.63836 17.8717 9.4954ZM10.2404 11.5087C10.2404 11.554 10.2359 11.5993 10.227 11.644C10.218 11.6886 10.2051 11.732 10.1874 11.7741C10.1701 11.8162 10.1486 11.856 10.1235 11.8939C10.0981 11.9318 10.0692 11.9669 10.0371 11.999C10.005 12.0311 9.96996 12.06 9.93205 12.0851C9.89414 12.1105 9.85431 12.132 9.81222 12.1493C9.77014 12.1667 9.72645 12.1798 9.6818 12.1888C9.63714 12.1975 9.59217 12.202 9.54655 12.202H5.12649C5.08152 12.2014 5.03686 12.1962 4.99285 12.1869C4.94884 12.1776 4.90612 12.1638 4.86467 12.1461C4.82323 12.1284 4.78372 12.1069 4.74645 12.0812C4.70951 12.0558 4.67482 12.0272 4.64333 11.9951C4.61153 11.963 4.58358 11.928 4.55852 11.8904C4.53379 11.8528 4.51291 11.8133 4.49588 11.7715C4.47886 11.7298 4.46568 11.6867 4.45701 11.6427C4.44834 11.5984 4.44416 11.5537 4.44416 11.5087V11.4416C4.44416 11.396 4.44866 11.351 4.45733 11.3063C4.46633 11.2617 4.4795 11.2186 4.49684 11.1766C4.51451 11.1345 4.53572 11.0946 4.56109 11.0567C4.58647 11.0191 4.61506 10.9841 4.64751 10.952C4.67964 10.9199 4.71465 10.8913 4.75256 10.8659C4.79047 10.8408 4.8303 10.8196 4.87238 10.8023C4.91447 10.7849 4.95784 10.7721 5.00249 10.7631C5.04714 10.7544 5.09244 10.7502 5.13774 10.7502H9.54655C9.59217 10.7502 9.63714 10.7544 9.6818 10.7631C9.72645 10.7721 9.76982 10.7849 9.8119 10.8023C9.85398 10.8196 9.89382 10.8408 9.93173 10.8659C9.96963 10.8913 10.0047 10.9199 10.0371 10.952C10.0692 10.9841 10.0981 11.0191 10.1232 11.0567C10.1486 11.0946 10.1701 11.1345 10.1874 11.1766C10.2048 11.2186 10.218 11.2617 10.227 11.3063C10.2359 11.351 10.2404 11.396 10.2404 11.4416V11.5087ZM13.5792 8.45966C13.5792 8.50528 13.575 8.55026 13.566 8.59491C13.557 8.63957 13.5438 8.68294 13.5265 8.72502C13.5091 8.76711 13.4876 8.80727 13.4626 8.84485C13.4372 8.88276 13.4083 8.91778 13.3762 8.95023C13.344 8.98235 13.309 9.01094 13.2711 9.03632C13.2332 9.0617 13.193 9.08291 13.151 9.10026C13.1089 9.11792 13.0655 9.1311 13.0209 9.13977C12.9762 9.14876 12.9312 9.15326 12.8856 9.15326H4.98129C4.93567 9.15326 4.89037 9.14876 4.84572 9.13977C4.80107 9.1311 4.7577 9.11792 4.71561 9.10026C4.67353 9.08291 4.6337 9.0617 4.59579 9.03632C4.55788 9.01094 4.52287 8.98235 4.49074 8.95023C4.45829 8.91778 4.4297 8.88276 4.40433 8.84485C4.37895 8.80727 4.35774 8.76711 4.34008 8.72502C4.32273 8.68294 4.30956 8.63957 4.30088 8.59491C4.29189 8.55026 4.28739 8.50528 4.28739 8.45966V8.39477C4.28771 8.34947 4.29253 8.30482 4.30153 8.26016C4.31052 8.21583 4.32401 8.17278 4.34136 8.13102C4.35903 8.08893 4.38055 8.04942 4.40593 8.01183C4.43131 7.97424 4.4599 7.93955 4.49235 7.90742C4.52447 7.87561 4.55949 7.84702 4.59707 7.82196C4.63498 7.79691 4.67482 7.7757 4.71658 7.75835C4.75866 7.74101 4.80203 7.72784 4.84636 7.71916C4.89102 7.71017 4.93567 7.70599 4.98129 7.70599H12.8856C12.9312 7.70599 12.9762 7.71049 13.0209 7.71916C13.0655 7.72816 13.1089 7.74133 13.151 7.75868C13.193 7.77602 13.2332 7.79755 13.2711 7.82293C13.309 7.84799 13.344 7.8769 13.3762 7.90903C13.4083 7.94115 13.4372 7.97617 13.4626 8.01408C13.4876 8.05199 13.5091 8.09182 13.5265 8.13391C13.5438 8.17599 13.557 8.21936 13.566 8.26402C13.575 8.30867 13.5792 8.35397 13.5792 8.39927V8.45966Z" fill="black"/>
</svg>
