<svg width="15" height="16" viewBox="0 0 15 16" fill="none" xmlns="http://www.w3.org/2000/svg">
<mask id="mask0_4834_7216" style="mask-type:luminance" maskUnits="userSpaceOnUse" x="0" y="0" width="15" height="16">
<path d="M0 0H14.0965V16H0V0Z" fill="white"/>
</mask>
<g mask="url(#mask0_4834_7216)">
<path fill-rule="evenodd" clip-rule="evenodd" d="M7.16276 10.1706V11.4739C7.16276 11.5107 7.18104 11.5425 7.21311 11.5607L8.23451 12.1499C8.30174 12.1886 8.38529 12.1403 8.38529 12.0628V10.3223L12.6011 7.89153L13.93 8.65768C14.0366 8.71921 14.0977 8.82484 14.0977 8.9479V13.4228C14.0977 13.5456 14.0366 13.6513 13.93 13.7128L10.0497 15.9503C9.94285 16.0118 9.82105 16.0118 9.71444 15.9503L5.83389 13.7128C5.72728 13.6513 5.66624 13.5456 5.66624 13.4228V9.37325L6.86345 10.0635C6.95825 10.118 7.05952 10.1537 7.16276 10.1706ZM7.46713 0.0693725C7.36051 0.00812583 7.23843 0.00812583 7.13181 0.0693725L3.25127 2.30713C3.14466 2.36837 3.08362 2.47401 3.08362 2.59706V7.07201C3.08362 7.19506 3.14466 7.30042 3.25127 7.36195L7.13181 9.59942C7.23843 9.66094 7.36051 9.66094 7.46713 9.59942L11.3477 7.36195C11.4543 7.30042 11.5153 7.19506 11.5153 7.07201V2.59706C11.5153 2.47401 11.4543 2.36837 11.3477 2.30713L10.0185 1.5407L5.80295 3.97146V5.71194C5.80295 5.78948 5.71912 5.8378 5.65189 5.79903L4.63049 5.21016C4.59842 5.19162 4.58014 5.15987 4.58014 5.12307V3.26656L8.79599 0.835799L7.46713 0.0693725ZM2.54718 5.74453L1.49652 6.35025V8.20676C1.49652 8.24356 1.5148 8.27531 1.54687 8.29357L2.56827 8.88272C2.63551 8.92149 2.71905 8.87317 2.71905 8.79562V7.59317C2.78853 7.68588 2.87771 7.76539 2.98291 7.82607L5.12952 9.06393V12.2527L4.38323 12.6831C4.27661 12.7446 4.15453 12.7446 4.04792 12.6831L0.167655 10.4456C0.0610423 10.3841 0 10.2787 0 10.1557V5.68075C0 5.5577 0.0610423 5.45206 0.167655 5.39053L2.54718 4.01866V5.74453Z" fill="black"/>
</g>
</svg>
