<svg width="22" height="22" viewBox="0 0 22 22" fill="none" xmlns="http://www.w3.org/2000/svg">
<path d="M15.8636 0.70227C16.586 0.382916 17.5117 0.799591 17.7681 1.54407C18.4392 3.20698 19.0951 4.87659 19.7734 6.53805C20.3049 6.53805 20.9197 6.48327 21.3279 6.90023C22.1409 7.60858 21.6849 8.78343 21.8641 9.71031V18.2044C21.6796 19.1228 22.1546 20.3384 21.3279 21.0281C20.8821 21.4754 20.2143 21.3833 19.642 21.3903C13.6002 21.3816 7.55667 21.3903 1.51489 21.3868C0.850541 21.4227 0.247674 20.9224 0.0646866 20.2976C0.0492433 19.6108 0.0171915 18.2382 0 17.552V9.76625C0.158803 8.72836 -0.317897 7.29418 0.826648 6.67966C5.83315 4.67525 10.8519 2.69473 15.8636 0.70227ZM1.00614 7.55205C0.930962 8.11733 0.954855 8.68727 0.956895 9.25575C7.60825 9.261 14.2599 9.25925 20.9112 9.2575C20.9063 8.79829 20.9232 8.34053 20.901 7.88306C20.9383 7.64238 20.7489 7.44074 20.51 7.45793C14.5245 7.44599 8.53921 7.45648 2.55395 7.45298C2.03588 7.44278 1.51343 7.43258 1.00614 7.55205ZM0.956603 12.9455C0.959809 15.3118 0.946114 17.6784 0.961557 20.0447C0.910274 20.3877 1.26547 20.5156 1.54228 20.4765C7.80609 20.4748 14.0699 20.4765 20.3337 20.4765C20.6035 20.5124 20.9538 20.3845 20.9008 20.0479C20.9197 17.6799 20.904 15.3115 20.9077 12.9452C14.2578 12.9455 7.6065 12.9455 0.956603 12.9455Z" fill="black"/>
<path d="M14.244 17.7658C13.7553 16.762 14.5278 15.5274 15.566 15.3039C16.0785 15.1673 16.6045 15.357 17.0302 15.6384C17.3886 15.4729 17.744 15.2562 18.1523 15.2579C19.1328 15.2474 20.0296 16.1405 20.0142 17.1222C19.9819 18.0782 19.1071 18.9305 18.1473 18.9168C17.7443 18.915 17.3889 18.7035 17.0404 18.5275C16.1333 19.2941 14.6729 18.8314 14.244 17.7658ZM15.0059 17.1292C14.9529 17.8888 15.9625 18.2801 16.5025 17.8104C16.3096 17.3253 16.3384 16.8066 16.4972 16.3182C15.8786 15.9272 14.8999 16.3252 15.0059 17.1292ZM17.6791 16.2824C17.0351 16.6991 17.182 17.8529 17.9661 17.9846C18.5949 18.1638 19.2388 17.5968 19.0952 16.9467C19.0713 16.2585 18.219 15.9852 17.6791 16.2824Z" fill="black"/>
<path d="M2.85877 16.6742C5.18195 16.6124 7.51038 16.6552 9.83676 16.6535C10.4189 16.6092 10.4259 17.6095 9.82977 17.55C7.55263 17.5585 5.27403 17.5687 2.99718 17.5465C2.52048 17.5704 2.4182 16.8193 2.85877 16.6742Z" fill="black"/>
<path d="M2.85877 18.0648C5.18195 18.003 7.51038 18.0458 9.83676 18.0441C10.4189 17.9998 10.4259 19.0004 9.82977 18.9407C7.55263 18.9491 5.27403 18.9596 2.99718 18.9372C2.52048 18.9611 2.4182 18.2099 2.85877 18.0648Z" fill="black"/>
<path d="M2.85877 15.0334C5.18195 14.9719 7.51038 15.0144 9.83676 15.013C10.4189 14.9684 10.4259 15.969 9.82977 15.9093C7.55263 15.918 5.27403 15.9282 2.99718 15.9061C2.52048 15.93 2.4182 15.1785 2.85877 15.0334Z" fill="black"/>
</svg>
