<svg width="26" height="25" viewBox="0 0 26 25" fill="none" xmlns="http://www.w3.org/2000/svg">
<mask id="mask0_4626_163" style="mask-type:luminance" maskUnits="userSpaceOnUse" x="0" y="0" width="26" height="20">
<path d="M0.40625 0.804688H25.1596V19.9626H0.40625V0.804688Z" fill="white"/>
</mask>
<g mask="url(#mask0_4626_163)">
<path d="M24.8867 4.77366C24.6904 4.53561 24.398 4.39801 24.0893 4.39801H6.43965L5.5902 1.54404C5.45956 1.10507 5.05638 0.804688 4.59883 0.804688H1.44105C0.86944 0.804688 0.40625 1.26786 0.40625 1.83912C0.40625 2.41071 0.86944 2.87355 1.44105 2.87355H3.82729L7.69328 15.86C7.27419 16.6285 6.87665 17.7286 7.32757 18.65C7.72644 19.4659 8.62828 19.8797 10.0072 19.8797C10.0321 19.8797 10.057 19.8787 10.0822 19.8764C10.1717 19.8681 19.0834 19.0508 22.1563 19.2249C22.6042 19.2491 22.9921 18.9059 23.0177 18.4557C23.0432 18.0054 22.6984 17.6195 22.2481 17.5947C19.1285 17.4186 10.7042 18.1792 9.97077 18.2461C9.21482 18.2412 8.86469 18.0751 8.79473 17.9325C8.71681 17.774 8.77218 17.4743 8.90348 17.1351C8.92536 17.1341 8.94691 17.1338 8.96946 17.1311L22.4709 15.4979C22.9172 15.4436 23.2776 15.1074 23.3625 14.6664L25.1048 5.62839C25.1632 5.32502 25.0833 5.01171 24.8867 4.77366ZM17.3928 9.79198H13.1461V6.46688H17.3928V9.79198ZM8.33751 10.772H12.1664V14.6601L9.58749 14.9724L8.33751 10.772ZM13.1461 10.772H17.3928V14.0278L13.1461 14.5414V10.772ZM22.1957 9.79198H18.3728V6.46688H22.8366L22.1957 9.79198ZM12.1664 6.46688V9.79198H8.04573L7.05569 6.46688H12.1664ZM18.3728 13.9092V10.772H22.0064L21.4739 13.5338L18.3728 13.9092Z" fill="black"/>
</g>
<mask id="mask1_4626_163" style="mask-type:luminance" maskUnits="userSpaceOnUse" x="6" y="20" width="5" height="5">
<path d="M6.59375 20.6406H10.8377V24.8026H6.59375V20.6406Z" fill="white"/>
</mask>
<g mask="url(#mask1_4626_163)">
<path d="M10.798 22.7469C10.798 22.8145 10.7946 22.8818 10.788 22.9495C10.7814 23.0168 10.7714 23.0837 10.7582 23.1501C10.7449 23.2164 10.7283 23.282 10.7088 23.3467C10.6892 23.4116 10.6663 23.4753 10.6405 23.5376C10.6146 23.6003 10.5858 23.6613 10.5539 23.721C10.5218 23.781 10.487 23.8387 10.4495 23.895C10.412 23.9514 10.3716 24.0058 10.3288 24.0582C10.2857 24.1102 10.2403 24.1606 10.1925 24.2084C10.1445 24.2561 10.0944 24.3015 10.0423 24.3446C9.98995 24.3874 9.93557 24.4278 9.8792 24.4653C9.82284 24.5031 9.76482 24.5379 9.70513 24.5697C9.64545 24.6016 9.58445 24.6304 9.52178 24.6563C9.45945 24.6825 9.39579 24.705 9.3308 24.7246C9.26615 24.7445 9.2005 24.7607 9.13419 24.774C9.06788 24.7872 9.0009 24.7972 8.93359 24.8038C8.86629 24.8105 8.79865 24.8138 8.73101 24.8138C8.66337 24.8138 8.59573 24.8105 8.52843 24.8038C8.46112 24.7972 8.39414 24.7872 8.32783 24.774C8.26119 24.7607 8.19587 24.7445 8.13089 24.7249C8.06623 24.705 8.00257 24.6825 7.93991 24.6563C7.87757 24.6304 7.81624 24.6016 7.75655 24.5697C7.69687 24.5379 7.63885 24.5031 7.58282 24.4653C7.52645 24.4278 7.47208 24.3874 7.41969 24.3446C7.3673 24.3015 7.31724 24.2561 7.26949 24.2084C7.22175 24.1606 7.17632 24.1102 7.13322 24.0582C7.09045 24.0058 7.05 23.9514 7.01253 23.895C6.97473 23.8387 6.93992 23.781 6.90809 23.721C6.87626 23.6613 6.84742 23.6003 6.82155 23.5376C6.79536 23.4753 6.77281 23.4116 6.75292 23.3467C6.73336 23.282 6.71711 23.2164 6.70385 23.1501C6.69059 23.0837 6.68064 23.0168 6.67401 22.9495C6.66738 22.8818 6.66406 22.8145 6.66406 22.7469C6.66406 22.6789 6.66738 22.6116 6.67401 22.5443C6.68064 22.4767 6.69059 22.41 6.70385 22.3434C6.71711 22.2771 6.73336 22.2114 6.75292 22.1468C6.77281 22.0818 6.79536 22.0181 6.82155 21.9558C6.84742 21.8932 6.87626 21.8322 6.90809 21.7725C6.93992 21.7128 6.97473 21.6548 7.01253 21.5984C7.05 21.542 7.09045 21.4877 7.13322 21.4356C7.17632 21.3832 7.22175 21.3332 7.26949 21.2851C7.31724 21.2374 7.3673 21.1919 7.41969 21.1488C7.47208 21.1061 7.52645 21.0656 7.58282 21.0281C7.63885 20.9903 7.69687 20.9559 7.75655 20.9237C7.81624 20.8919 7.87757 20.863 7.93991 20.8372C8.00257 20.8113 8.06623 20.7884 8.13089 20.7689C8.19587 20.749 8.26119 20.7327 8.32783 20.7195C8.39414 20.7062 8.46112 20.6963 8.52843 20.6896C8.59573 20.683 8.66337 20.6797 8.73101 20.6797C8.79865 20.6797 8.86629 20.683 8.93359 20.6896C9.0009 20.6963 9.06788 20.7062 9.13419 20.7195C9.2005 20.7327 9.26615 20.749 9.3308 20.7689C9.39579 20.7884 9.45945 20.8113 9.52178 20.8372C9.58445 20.863 9.64545 20.8919 9.70513 20.9237C9.76482 20.9559 9.82284 20.9903 9.8792 21.0281C9.93557 21.0656 9.98995 21.1061 10.0423 21.1488C10.0944 21.1919 10.1445 21.2374 10.1925 21.2851C10.2403 21.3332 10.2857 21.3832 10.3288 21.4356C10.3716 21.4877 10.412 21.542 10.4495 21.5984C10.487 21.6548 10.5218 21.7128 10.5539 21.7725C10.5858 21.8322 10.6146 21.8932 10.6405 21.9558C10.6663 22.0181 10.6892 22.0818 10.7088 22.1468C10.7283 22.2114 10.7449 22.2771 10.7582 22.3434C10.7714 22.41 10.7814 22.4767 10.788 22.5443C10.7946 22.6116 10.798 22.6789 10.798 22.7469Z" fill="black"/>
</g>
<mask id="mask2_4626_163" style="mask-type:luminance" maskUnits="userSpaceOnUse" x="18" y="20" width="5" height="5">
<path d="M18.3984 20.6406H22.6424V24.8026H18.3984V20.6406Z" fill="white"/>
</mask>
<g mask="url(#mask2_4626_163)">
<path d="M22.5558 22.7469C22.5558 22.8145 22.5525 22.8818 22.5458 22.9495C22.5392 23.0168 22.5292 23.0837 22.516 23.1501C22.5027 23.2164 22.4865 23.282 22.4666 23.3467C22.447 23.4116 22.4241 23.4753 22.3983 23.5376C22.3724 23.6003 22.3436 23.6613 22.3117 23.721C22.2796 23.781 22.2451 23.8387 22.2073 23.895C22.1698 23.9514 22.1294 24.0058 22.0866 24.0582C22.0435 24.1102 21.9981 24.1606 21.9503 24.2084C21.9026 24.2561 21.8522 24.3015 21.8001 24.3446C21.7478 24.3874 21.6934 24.4278 21.637 24.4653C21.581 24.5031 21.523 24.5379 21.4633 24.5697C21.4033 24.6016 21.3423 24.6304 21.2799 24.6563C21.2173 24.6825 21.1536 24.705 21.0889 24.7246C21.024 24.7445 20.9583 24.7607 20.892 24.774C20.8257 24.7872 20.7587 24.7972 20.6914 24.8038C20.6241 24.8105 20.5565 24.8138 20.4888 24.8138C20.4212 24.8138 20.3535 24.8105 20.2862 24.8038C20.2189 24.7972 20.152 24.7872 20.0856 24.774C20.0193 24.7607 19.9537 24.7445 19.8887 24.7249C19.824 24.705 19.7604 24.6825 19.6977 24.6563C19.6354 24.6304 19.574 24.6016 19.5144 24.5697C19.4547 24.5379 19.3967 24.5031 19.3406 24.4653C19.2843 24.4278 19.2299 24.3874 19.1775 24.3446C19.1251 24.3015 19.075 24.2561 19.0273 24.2084C18.9796 24.1606 18.9341 24.1102 18.891 24.0582C18.8483 24.0058 18.8078 23.9514 18.7703 23.895C18.7325 23.8387 18.6981 23.781 18.6659 23.721C18.6341 23.6613 18.6052 23.6003 18.5794 23.5376C18.5535 23.4753 18.5306 23.4116 18.5111 23.3467C18.4912 23.282 18.4749 23.2164 18.4617 23.1501C18.4484 23.0837 18.4385 23.0168 18.4318 22.9495C18.4252 22.8818 18.4219 22.8145 18.4219 22.7469C18.4219 22.6789 18.4252 22.6116 18.4318 22.5443C18.4385 22.4767 18.4484 22.41 18.4617 22.3434C18.4749 22.2771 18.4912 22.2114 18.5111 22.1468C18.5306 22.0818 18.5535 22.0181 18.5794 21.9558C18.6052 21.8932 18.6341 21.8322 18.6659 21.7725C18.6981 21.7128 18.7325 21.6548 18.7703 21.5984C18.8078 21.542 18.8483 21.4877 18.891 21.4356C18.9341 21.3832 18.9796 21.3332 19.0273 21.2851C19.075 21.2374 19.1251 21.1919 19.1775 21.1488C19.2299 21.1061 19.2843 21.0656 19.3406 21.0281C19.3967 20.9903 19.4547 20.9559 19.5144 20.9237C19.574 20.8919 19.6354 20.863 19.6977 20.8372C19.7604 20.8113 19.824 20.7884 19.8887 20.7689C19.9537 20.749 20.0193 20.7327 20.0856 20.7195C20.152 20.7062 20.2189 20.6963 20.2862 20.6896C20.3535 20.683 20.4212 20.6797 20.4888 20.6797C20.5565 20.6797 20.6241 20.683 20.6914 20.6896C20.7587 20.6963 20.8257 20.7062 20.892 20.7195C20.9583 20.7327 21.024 20.749 21.0889 20.7689C21.1536 20.7884 21.2173 20.8113 21.2799 20.8372C21.3423 20.863 21.4033 20.8919 21.4633 20.9237C21.523 20.9559 21.581 20.9903 21.637 21.0281C21.6934 21.0656 21.7478 21.1061 21.8001 21.1488C21.8522 21.1919 21.9026 21.2374 21.9503 21.2851C21.9981 21.3332 22.0435 21.3832 22.0866 21.4356C22.1294 21.4877 22.1698 21.542 22.2073 21.5984C22.2451 21.6548 22.2796 21.7128 22.3117 21.7725C22.3436 21.8322 22.3724 21.8932 22.3983 21.9558C22.4241 22.0181 22.447 22.0818 22.4666 22.1468C22.4865 22.2114 22.5027 22.2771 22.516 22.3434C22.5292 22.41 22.5392 22.4767 22.5458 22.5443C22.5525 22.6116 22.5558 22.6789 22.5558 22.7469Z" fill="black"/>
</g>
</svg>
