<svg width="23" height="23" viewBox="0 0 23 23" fill="none" xmlns="http://www.w3.org/2000/svg">
<mask id="mask0_4626_133" style="mask-type:luminance" maskUnits="userSpaceOnUse" x="0" y="2" width="23" height="21">
<path d="M0.59375 2.46094H22.1885V22.4022H0.59375V2.46094Z" fill="white"/>
</mask>
<g mask="url(#mask0_4626_133)">
<path d="M2.23668 8.34291H20.5455V19.7298C20.5455 20.2995 20.0834 20.7614 19.5142 20.7614H3.26803C2.69881 20.7635 2.23668 20.3013 2.23668 19.7298V8.34291ZM2.65853 2.49219C1.5177 2.49219 0.59375 3.41638 0.59375 4.55543V20.3338C0.59375 21.4729 1.5177 22.3974 2.65853 22.3974H20.1237C21.2645 22.3991 22.1885 21.475 22.1885 20.3338V4.55543C22.1885 3.41638 21.2645 2.49219 20.1237 2.49219H18.1338V4.15645C18.126 5.12689 17.3342 5.90546 16.3662 5.8977C15.4076 5.89024 14.6331 5.11525 14.6254 4.15645V2.49219H8.15685V4.15645C8.1491 5.12689 7.35731 5.90546 6.38743 5.8977C5.43066 5.89024 4.65618 5.11525 4.64843 4.15645V2.49219H2.65853Z" fill="black"/>
</g>
<path d="M18.4767 16.8047V18.6516H15.9844V16.8047H18.4767Z" fill="black"/>
<path d="M14.5939 16.8047V18.6516H12.1016V16.8047H14.5939Z" fill="black"/>
<path d="M10.7032 16.8047V18.6516H8.21094V16.8047H10.7032Z" fill="black"/>
<path d="M6.80479 16.8047V18.6516H4.3125V16.8047H6.80479Z" fill="black"/>
<path d="M18.4767 13.6328V15.4794H15.9844V13.6328H18.4767Z" fill="black"/>
<path d="M14.5939 13.6328V15.4794H12.1016V13.6328H14.5939Z" fill="black"/>
<path d="M10.7032 13.6328V15.4794H8.21094V13.6328H10.7032Z" fill="black"/>
<path d="M6.80479 13.6328V15.4794H4.3125V13.6328H6.80479Z" fill="black"/>
<path d="M18.4767 10.4531V12.2997H15.9844V10.4531H18.4767Z" fill="black"/>
<path d="M14.5939 10.4531V12.2997H12.1016V10.4531H14.5939Z" fill="black"/>
<path d="M10.7032 10.4531V12.2997H8.21094V10.4531H10.7032Z" fill="black"/>
<path d="M6.80479 10.4531V12.2997H4.3125V10.4531H6.80479Z" fill="black"/>
<mask id="mask1_4626_133" style="mask-type:luminance" maskUnits="userSpaceOnUse" x="15" y="0" width="3" height="5">
<path d="M15.5703 0.804688H17.2505V4.98459H15.5703V0.804688Z" fill="white"/>
</mask>
<g mask="url(#mask1_4626_133)">
<path d="M17.2002 4.14596V1.64137C17.2002 1.19464 16.8381 0.834154 16.3911 0.835944C15.9466 0.835944 15.5859 1.19643 15.5859 1.64137V4.14596C15.5859 4.5909 15.9502 4.95318 16.395 4.95139C16.8398 4.95139 17.2002 4.5909 17.2002 4.14596Z" fill="black"/>
</g>
<mask id="mask2_4626_133" style="mask-type:luminance" maskUnits="userSpaceOnUse" x="5" y="0" width="3" height="5">
<path d="M5.5625 0.804688H7.24273V4.98459H5.5625V0.804688Z" fill="white"/>
</mask>
<g mask="url(#mask2_4626_133)">
<path d="M7.21586 1.63534C7.21586 1.18861 6.85338 0.828125 6.40856 0.828125C5.96195 0.829916 5.60156 1.1904 5.60156 1.63534V4.13993C5.60156 4.58487 5.96195 4.94715 6.40856 4.94715C6.85517 4.94536 7.21586 4.58487 7.21586 4.13993V1.63534Z" fill="black"/>
</g>
</svg>
