<svg width="17" height="16" viewBox="0 0 17 16" fill="none" xmlns="http://www.w3.org/2000/svg">
<mask id="mask0_4834_7068" style="mask-type:luminance" maskUnits="userSpaceOnUse" x="0" y="0" width="9" height="11">
<path d="M0 0H8.21281V10.5025H0V0Z" fill="white"/>
</mask>
<g mask="url(#mask0_4834_7068)">
<path d="M0.570428 1.18621C0.570428 0.87178 0.825712 0.616543 1.14086 0.616543H8.17614V0.236764C8.17614 0.132149 8.09104 0.046875 7.98599 0.046875H0.190143C0.0850947 0.046875 0 0.132149 0 0.236764V10.3009C0 10.4061 0.0850947 10.4908 0.190143 10.4908H0.570428V1.18621Z" fill="black"/>
</g>
<path d="M12.361 6.12674C12.361 6.17685 12.356 6.22609 12.3463 6.27502C12.3366 6.32396 12.3223 6.37143 12.3032 6.41744C12.2841 6.46374 12.2606 6.5074 12.2328 6.54872C12.2052 6.59033 12.1735 6.62872 12.1383 6.66389C12.1028 6.69934 12.0646 6.7307 12.023 6.75854C11.9816 6.78608 11.9376 6.80953 11.8915 6.82857C11.8454 6.84762 11.7979 6.86198 11.7489 6.87194C11.6999 6.88161 11.6503 6.8863 11.6004 6.8863C11.5505 6.8863 11.5009 6.88161 11.4519 6.87194C11.4029 6.86198 11.3554 6.84762 11.3093 6.82857C11.2633 6.80953 11.2192 6.78608 11.1779 6.75854C11.1362 6.7307 11.0981 6.69934 11.0626 6.66389C11.0273 6.62872 10.9957 6.59033 10.9681 6.54872C10.9402 6.5074 10.9167 6.46374 10.8976 6.41744C10.8786 6.37143 10.8642 6.32396 10.8545 6.27502C10.8448 6.22609 10.8398 6.17685 10.8398 6.12674C10.8398 6.07693 10.8448 6.0277 10.8545 5.97876C10.8642 5.92982 10.8786 5.88235 10.8976 5.83634C10.9167 5.79004 10.9402 5.74638 10.9681 5.70477C10.9957 5.66345 11.0273 5.62506 11.0626 5.5899C11.0981 5.55444 11.1362 5.52308 11.1779 5.49525C11.2192 5.4677 11.2633 5.44426 11.3093 5.42521C11.3554 5.40616 11.4029 5.39151 11.4519 5.38184C11.5009 5.37217 11.5505 5.36719 11.6004 5.36719C11.6503 5.36719 11.6999 5.37217 11.7489 5.38184C11.7979 5.39151 11.8454 5.40616 11.8915 5.42521C11.9376 5.44426 11.9816 5.4677 12.023 5.49525C12.0646 5.52308 12.1028 5.55444 12.1383 5.5899C12.1735 5.62506 12.2052 5.66345 12.2328 5.70477C12.2606 5.74638 12.2841 5.79004 12.3032 5.83634C12.3223 5.88235 12.3366 5.92982 12.3463 5.97876C12.356 6.0277 12.361 6.07693 12.361 6.12674Z" fill="black"/>
<path d="M3.61122 10.6844C3.61122 9.84685 4.29373 9.16524 5.13236 9.16524H6.84364V4.6079C6.84364 3.97962 7.35538 3.46856 7.9845 3.46856H9.12535V1.18989C9.12535 1.08527 9.04026 1 8.93521 1H1.13936C1.03431 1 0.949219 1.08527 0.949219 1.18989V11.254C0.949219 11.3592 1.03431 11.4439 1.13936 11.4439H3.61122V10.6844ZM3.42107 2.51911H6.6535C6.75855 2.51911 6.84364 2.60439 6.84364 2.709C6.84364 2.81391 6.75855 2.89889 6.6535 2.89889H3.42107C3.31603 2.89889 3.23093 2.81391 3.23093 2.709C3.23093 2.60439 3.31603 2.51911 3.42107 2.51911ZM2.47036 3.84834H6.27321C6.37826 3.84834 6.46336 3.93361 6.46336 4.03823C6.46336 4.14314 6.37826 4.22812 6.27321 4.22812H2.47036C2.36531 4.22812 2.28022 4.14314 2.28022 4.03823C2.28022 3.93361 2.36531 3.84834 2.47036 3.84834ZM2.47036 4.98768H6.27321C6.37826 4.98768 6.46336 5.07295 6.46336 5.17757C6.46336 5.28247 6.37826 5.36746 6.27321 5.36746H2.47036C2.36531 5.36746 2.28022 5.28247 2.28022 5.17757C2.28022 5.07295 2.36531 4.98768 2.47036 4.98768ZM2.47036 6.12701H6.27321C6.37826 6.12701 6.46336 6.21229 6.46336 6.3169C6.46336 6.42181 6.37826 6.50679 6.27321 6.50679H2.47036C2.36531 6.50679 2.28022 6.42181 2.28022 6.3169C2.28022 6.21229 2.36531 6.12701 2.47036 6.12701ZM2.47036 7.26635H6.27321C6.37826 7.26635 6.46336 7.35162 6.46336 7.45624C6.46336 7.56115 6.37826 7.64613 6.27321 7.64613H2.47036C2.36531 7.64613 2.28022 7.56115 2.28022 7.45624C2.28022 7.35162 2.36531 7.26635 2.47036 7.26635ZM2.47036 8.40569H6.27321C6.37826 8.40569 6.46336 8.49067 6.46336 8.59558C6.46336 8.70078 6.37826 8.78546 6.27321 8.78546H2.47036C2.36531 8.78546 2.28022 8.70078 2.28022 8.59558C2.28022 8.49067 2.36531 8.40569 2.47036 8.40569ZM3.04079 9.9248H2.47036C2.36531 9.9248 2.28022 9.84011 2.28022 9.73491C2.28022 9.63 2.36531 9.54502 2.47036 9.54502H3.04079C3.14584 9.54502 3.23093 9.63 3.23093 9.73491C3.23093 9.84011 3.14584 9.9248 3.04079 9.9248Z" fill="black"/>
<mask id="mask1_4834_7068" style="mask-type:luminance" maskUnits="userSpaceOnUse" x="7" y="3" width="10" height="8">
<path d="M7.16016 3.82422H16.7316V10.7259H7.16016V3.82422Z" fill="white"/>
</mask>
<g mask="url(#mask1_4834_7068)">
<path d="M15.9731 3.83984H7.98713C7.56782 3.83984 7.22656 4.18065 7.22656 4.5994V9.15675H10.3933L11.5444 8.01565L9.80053 6.90796C9.73744 6.86782 9.65704 6.8684 9.59454 6.90884L7.60685 8.20261V4.5994C7.60685 4.39017 7.77733 4.21962 7.98713 4.21962H15.9731C16.1829 4.21962 16.3534 4.39017 16.3534 4.5994V8.94781L13.6213 6.73097C13.5459 6.66972 13.4361 6.67529 13.3675 6.74357L10.9329 9.15675H11.5998C12.4385 9.15675 13.121 9.83836 13.121 10.6759H15.9731C16.3927 10.6759 16.7337 10.3354 16.7337 9.9163V4.5994C16.7337 4.18065 16.3927 3.83984 15.9731 3.83984Z" fill="black"/>
</g>
<path d="M11.5979 9.54297H5.13304C4.50393 9.54297 3.99219 10.054 3.99219 10.6823V14.8599C3.99219 15.4884 4.50393 15.9992 5.13304 15.9992H11.5979C12.227 15.9992 12.7388 15.4884 12.7388 14.8599V10.6823C12.7388 10.054 12.227 9.54297 11.5979 9.54297ZM10.053 13.2057L7.56529 14.5141C7.49281 14.5525 7.41446 14.5712 7.33582 14.5712C7.24809 14.5712 7.16065 14.5475 7.08201 14.5003C6.93324 14.4106 6.84433 14.2533 6.84433 14.0798V11.463C6.84433 11.2892 6.93324 11.1321 7.08201 11.0422C7.23078 10.9528 7.41123 10.9472 7.56529 11.0284L10.053 12.3368C10.215 12.4221 10.3156 12.5885 10.3156 12.7714C10.3156 12.9542 10.215 13.1207 10.053 13.206V13.2057Z" fill="black"/>
</svg>
