<svg width="27" height="26" viewBox="0 0 27 26" fill="none" xmlns="http://www.w3.org/2000/svg">
<mask id="mask0_4383_429" style="mask-type:luminance" maskUnits="userSpaceOnUse" x="0" y="0" width="27" height="21">
<path d="M0.835938 0.335938H26.6206V20.2921H0.835938V0.335938Z" fill="white"/>
</mask>
<g mask="url(#mask0_4383_429)">
<path d="M26.3364 4.47028C26.1319 4.22231 25.8273 4.07899 25.5058 4.07899H7.12073L6.23588 1.1061C6.0998 0.648837 5.67983 0.335938 5.20321 0.335938H1.91385C1.31843 0.335938 0.835938 0.81841 0.835938 1.41347C0.835938 2.00888 1.31843 2.491 1.91385 2.491H4.39952L8.4266 16.0185C7.99004 16.8191 7.57594 17.965 8.04565 18.9248C8.46114 19.7747 9.40056 20.2057 10.837 20.2057C10.8629 20.2057 10.8888 20.2047 10.915 20.2023C11.0083 20.1936 20.2913 19.3423 23.4922 19.5236C23.9588 19.5488 24.3629 19.1914 24.3895 18.7224C24.4161 18.2534 24.0569 17.8514 23.5879 17.8255C20.3383 17.6421 11.563 18.4344 10.799 18.5041C10.0115 18.4989 9.64681 18.3259 9.57394 18.1774C9.49277 18.0123 9.55045 17.7001 9.68722 17.3468C9.71001 17.3458 9.73246 17.3454 9.75595 17.3427L23.82 15.6414C24.2849 15.5848 24.6603 15.2346 24.7487 14.7752L26.5636 5.36063C26.6244 5.04462 26.5412 4.71825 26.3364 4.47028ZM18.5302 9.6977H14.1066V6.23405H18.5302V9.6977ZM9.09766 10.7186H13.0861V14.7687L10.3997 15.094L9.09766 10.7186ZM14.1066 10.7186H18.5302V14.1101L14.1066 14.645V10.7186ZM23.5333 9.6977H19.5511V6.23405H24.2009L23.5333 9.6977ZM13.0861 6.23405V9.6977H8.79373L7.76244 6.23405H13.0861ZM19.5511 13.9864V10.7186H23.3361L22.7814 13.5955L19.5511 13.9864Z" fill="#64FFB7"/>
</g>
<mask id="mask1_4383_429" style="mask-type:luminance" maskUnits="userSpaceOnUse" x="7" y="21" width="5" height="5">
<path d="M7.28906 21H11.7099V25.3353H7.28906V21Z" fill="white"/>
</mask>
<g mask="url(#mask1_4383_429)">
<path d="M11.6655 23.1924C11.6655 23.2629 11.6621 23.333 11.6552 23.4034C11.6482 23.4735 11.6379 23.5433 11.6241 23.6124C11.6103 23.6814 11.593 23.7498 11.5726 23.8172C11.5522 23.8849 11.5284 23.9512 11.5015 24.0161C11.4745 24.0814 11.4445 24.1449 11.4113 24.2071C11.3778 24.2696 11.3416 24.3297 11.3025 24.3884C11.2635 24.4471 11.2214 24.5037 11.1768 24.5583C11.1319 24.6125 11.0846 24.665 11.0349 24.7148C10.9848 24.7645 10.9326 24.8118 10.8784 24.8567C10.8238 24.9013 10.7672 24.9434 10.7085 24.9824C10.6498 25.0218 10.5893 25.0581 10.5272 25.0912C10.465 25.1244 10.4014 25.1544 10.3362 25.1814C10.2712 25.2086 10.2049 25.2321 10.1372 25.2525C10.0699 25.2732 10.0015 25.2901 9.93242 25.304C9.86335 25.3178 9.79358 25.3281 9.72347 25.335C9.65336 25.3419 9.5829 25.3454 9.51245 25.3454C9.44199 25.3454 9.37153 25.3419 9.30142 25.335C9.23131 25.3281 9.16154 25.3178 9.09247 25.304C9.02305 25.2901 8.95501 25.2732 8.88732 25.2528C8.81997 25.2321 8.75366 25.2086 8.68838 25.1814C8.62345 25.1544 8.55955 25.1244 8.49739 25.0912C8.43522 25.0581 8.37478 25.0218 8.31641 24.9824C8.2577 24.9434 8.20105 24.9013 8.14649 24.8567C8.09192 24.8118 8.03976 24.7645 7.99003 24.7148C7.9403 24.665 7.89298 24.6125 7.84808 24.5583C7.80353 24.5037 7.76139 24.4471 7.72236 24.3884C7.68299 24.3297 7.64673 24.2696 7.61357 24.2071C7.58042 24.1449 7.55037 24.0814 7.52343 24.0161C7.49614 23.9512 7.47266 23.8849 7.45194 23.8172C7.43156 23.7498 7.41464 23.6814 7.40082 23.6124C7.38701 23.5433 7.37664 23.4735 7.36974 23.4034C7.36283 23.333 7.35938 23.2629 7.35938 23.1924C7.35938 23.1216 7.36283 23.0515 7.36974 22.9814C7.37664 22.9109 7.38701 22.8415 7.40082 22.7721C7.41464 22.703 7.43156 22.6346 7.45194 22.5673C7.47266 22.4996 7.49614 22.4333 7.52343 22.3684C7.55037 22.3031 7.58042 22.2395 7.61357 22.1774C7.64673 22.1152 7.68299 22.0548 7.72236 21.9961C7.76139 21.9374 7.80353 21.8807 7.84808 21.8265C7.89298 21.7719 7.9403 21.7198 7.99003 21.6697C8.03976 21.62 8.09192 21.5726 8.14649 21.5278C8.20105 21.4832 8.2577 21.4411 8.31641 21.402C8.37478 21.3627 8.43522 21.3268 8.49739 21.2932C8.55955 21.2601 8.62345 21.23 8.68838 21.2031C8.75366 21.1762 8.81997 21.1523 8.88732 21.132C8.95501 21.1112 9.02305 21.0943 9.09247 21.0805C9.16154 21.0667 9.23131 21.0563 9.30142 21.0494C9.37153 21.0425 9.44199 21.0391 9.51245 21.0391C9.5829 21.0391 9.65336 21.0425 9.72347 21.0494C9.79358 21.0563 9.86335 21.0667 9.93242 21.0805C10.0015 21.0943 10.0699 21.1112 10.1372 21.132C10.2049 21.1523 10.2712 21.1762 10.3362 21.2031C10.4014 21.23 10.465 21.2601 10.5272 21.2932C10.5893 21.3268 10.6498 21.3627 10.7085 21.402C10.7672 21.4411 10.8238 21.4832 10.8784 21.5278C10.9326 21.5726 10.9848 21.62 11.0349 21.6697C11.0846 21.7198 11.1319 21.7719 11.1768 21.8265C11.2214 21.8807 11.2635 21.9374 11.3025 21.9961C11.3416 22.0548 11.3778 22.1152 11.4113 22.1774C11.4445 22.2395 11.4745 22.3031 11.5015 22.3684C11.5284 22.4333 11.5522 22.4996 11.5726 22.5673C11.593 22.6346 11.6103 22.703 11.6241 22.7721C11.6379 22.8415 11.6482 22.9109 11.6552 22.9814C11.6621 23.0515 11.6655 23.1216 11.6655 23.1924Z" fill="#64FFB7"/>
</g>
<mask id="mask2_4383_429" style="mask-type:luminance" maskUnits="userSpaceOnUse" x="19" y="21" width="5" height="5">
<path d="M19.5781 21H23.9989V25.3353H19.5781V21Z" fill="white"/>
</mask>
<g mask="url(#mask2_4383_429)">
<path d="M23.9155 23.1924C23.9155 23.2629 23.9121 23.333 23.9052 23.4034C23.8982 23.4735 23.8879 23.5433 23.8741 23.6124C23.8603 23.6814 23.8433 23.7498 23.8226 23.8172C23.8022 23.8849 23.7784 23.9512 23.7515 24.0161C23.7245 24.0814 23.6945 24.1449 23.6613 24.2071C23.6278 24.2696 23.5919 24.3297 23.5525 24.3884C23.5135 24.4471 23.4714 24.5037 23.4268 24.5583C23.3819 24.6125 23.3346 24.665 23.2849 24.7148C23.2351 24.7645 23.1826 24.8118 23.1284 24.8567C23.0738 24.9013 23.0172 24.9434 22.9585 24.9824C22.9001 25.0218 22.8397 25.0581 22.7775 25.0912C22.715 25.1244 22.6514 25.1544 22.5865 25.1814C22.5212 25.2086 22.4549 25.2321 22.3876 25.2525C22.3199 25.2732 22.2515 25.2901 22.1824 25.304C22.1133 25.3178 22.0436 25.3281 21.9735 25.335C21.9034 25.3419 21.8329 25.3454 21.7624 25.3454C21.692 25.3454 21.6215 25.3419 21.5514 25.335C21.4813 25.3281 21.4115 25.3178 21.3425 25.304C21.2734 25.2901 21.205 25.2732 21.1373 25.2528C21.07 25.2321 21.0037 25.2086 20.9384 25.1814C20.8734 25.1544 20.8096 25.1244 20.7474 25.0912C20.6852 25.0581 20.6248 25.0218 20.5664 24.9824C20.5077 24.9434 20.4511 24.9013 20.3965 24.8567C20.3419 24.8118 20.2898 24.7645 20.24 24.7148C20.1903 24.665 20.143 24.6125 20.0981 24.5583C20.0535 24.5037 20.0114 24.4471 19.9724 24.3884C19.933 24.3297 19.8971 24.2696 19.8636 24.2071C19.8304 24.1449 19.8004 24.0814 19.7734 24.0161C19.7465 23.9512 19.7227 23.8849 19.7023 23.8172C19.6816 23.7498 19.6646 23.6814 19.6508 23.6124C19.637 23.5433 19.6266 23.4735 19.6197 23.4034C19.6128 23.333 19.6094 23.2629 19.6094 23.1924C19.6094 23.1216 19.6128 23.0515 19.6197 22.9814C19.6266 22.9109 19.637 22.8415 19.6508 22.7721C19.6646 22.703 19.6816 22.6346 19.7023 22.5673C19.7227 22.4996 19.7465 22.4333 19.7734 22.3684C19.8004 22.3031 19.8304 22.2395 19.8636 22.1774C19.8971 22.1152 19.933 22.0548 19.9724 21.9961C20.0114 21.9374 20.0535 21.8807 20.0981 21.8265C20.143 21.7719 20.1903 21.7198 20.24 21.6697C20.2898 21.62 20.3419 21.5726 20.3965 21.5278C20.4511 21.4832 20.5077 21.4411 20.5664 21.402C20.6248 21.3627 20.6852 21.3268 20.7474 21.2932C20.8096 21.2601 20.8734 21.23 20.9384 21.2031C21.0037 21.1762 21.07 21.1523 21.1373 21.132C21.205 21.1112 21.2734 21.0943 21.3425 21.0805C21.4115 21.0667 21.4813 21.0563 21.5514 21.0494C21.6215 21.0425 21.692 21.0391 21.7624 21.0391C21.8329 21.0391 21.9034 21.0425 21.9735 21.0494C22.0436 21.0563 22.1133 21.0667 22.1824 21.0805C22.2515 21.0943 22.3199 21.1112 22.3876 21.132C22.4549 21.1523 22.5212 21.1762 22.5865 21.2031C22.6514 21.23 22.715 21.2601 22.7775 21.2932C22.8397 21.3268 22.9001 21.3627 22.9585 21.402C23.0172 21.4411 23.0738 21.4832 23.1284 21.5278C23.1826 21.5726 23.2351 21.62 23.2849 21.6697C23.3346 21.7198 23.3819 21.7719 23.4268 21.8265C23.4714 21.8807 23.5135 21.9374 23.5525 21.9961C23.5919 22.0548 23.6278 22.1152 23.6613 22.1774C23.6945 22.2395 23.7245 22.3031 23.7515 22.3684C23.7784 22.4333 23.8022 22.4996 23.8226 22.5673C23.8433 22.6346 23.8603 22.703 23.8741 22.7721C23.8879 22.8415 23.8982 22.9109 23.9052 22.9814C23.9121 23.0515 23.9155 23.1216 23.9155 23.1924Z" fill="#64FFB7"/>
</g>
</svg>
