<svg width="23" height="23" viewBox="0 0 23 23" fill="none" xmlns="http://www.w3.org/2000/svg">
<mask id="mask0_4383_399" style="mask-type:luminance" maskUnits="userSpaceOnUse" x="0" y="2" width="23" height="21">
<path d="M0.164062 2.0625H22.6586V22.8347H0.164062V2.0625Z" fill="white"/>
</mask>
<g mask="url(#mask0_4383_399)">
<path d="M1.87545 8.18825H20.9472V20.0496C20.9472 20.643 20.4658 21.1242 19.8729 21.1242H2.94977C2.35683 21.1264 1.87545 20.6449 1.87545 20.0496V8.18825ZM2.31488 2.09375C1.12651 2.09375 0.164062 3.05645 0.164062 4.24296V20.6788C0.164062 21.8653 1.12651 22.8283 2.31488 22.8283H20.5077C21.6961 22.8302 22.6586 21.8675 22.6586 20.6788V4.24296C22.6586 3.05645 21.6961 2.09375 20.5077 2.09375H18.4349V3.82735C18.4269 4.83824 17.6021 5.64924 16.5936 5.64116C15.5952 5.63339 14.7884 4.82611 14.7803 3.82735V2.09375H8.0423V3.82735C8.03422 4.83824 7.20944 5.64924 6.19914 5.64116C5.20251 5.63339 4.39577 4.82611 4.38769 3.82735V2.09375H2.31488Z" fill="#64FFB7"/>
</g>
<path d="M18.7915 17.0078V18.9317H16.1953V17.0078H18.7915Z" fill="#64FFB7"/>
<path d="M14.7446 17.0078V18.9317H12.1484V17.0078H14.7446Z" fill="#64FFB7"/>
<path d="M10.6899 17.0078V18.9317H8.09375V17.0078H10.6899Z" fill="#64FFB7"/>
<path d="M6.62739 17.0078V18.9317H4.03125V17.0078H6.62739Z" fill="#64FFB7"/>
<path d="M18.7915 13.7031V15.6267H16.1953V13.7031H18.7915Z" fill="#64FFB7"/>
<path d="M14.7446 13.7031V15.6267H12.1484V13.7031H14.7446Z" fill="#64FFB7"/>
<path d="M10.6899 13.7031V15.6267H8.09375V13.7031H10.6899Z" fill="#64FFB7"/>
<path d="M6.62739 13.7031V15.6267H4.03125V13.7031H6.62739Z" fill="#64FFB7"/>
<path d="M18.7915 10.3906V12.3142H16.1953V10.3906H18.7915Z" fill="#64FFB7"/>
<path d="M14.7446 10.3906V12.3142H12.1484V10.3906H14.7446Z" fill="#64FFB7"/>
<path d="M10.6899 10.3906V12.3142H8.09375V10.3906H10.6899Z" fill="#64FFB7"/>
<path d="M6.62739 10.3906V12.3142H4.03125V10.3906H6.62739Z" fill="#64FFB7"/>
<mask id="mask1_4383_399" style="mask-type:luminance" maskUnits="userSpaceOnUse" x="15" y="0" width="3" height="5">
<path d="M15.7578 0.335938H17.508V4.69H15.7578V0.335938Z" fill="white"/>
</mask>
<g mask="url(#mask1_4383_399)">
<path d="M17.455 3.81513V1.20618C17.455 0.740835 17.0777 0.365329 16.6122 0.367194C16.1492 0.367194 15.7734 0.7427 15.7734 1.20618V3.81513C15.7734 4.27861 16.1529 4.65598 16.6162 4.65411C17.0796 4.65411 17.455 4.27861 17.455 3.81513Z" fill="#64FFB7"/>
</g>
<mask id="mask2_4383_399" style="mask-type:luminance" maskUnits="userSpaceOnUse" x="5" y="0" width="3" height="5">
<path d="M5.33594 0.335938H7.08617V4.69H5.33594V0.335938Z" fill="white"/>
</mask>
<g mask="url(#mask2_4383_399)">
<path d="M7.05656 1.20022C7.05656 0.73488 6.67897 0.359375 6.21562 0.359375C5.75041 0.36124 5.375 0.736746 5.375 1.20022V3.80918C5.375 4.27265 5.75041 4.65002 6.21562 4.65002C6.68084 4.64816 7.05656 4.27265 7.05656 3.80918V1.20022Z" fill="#64FFB7"/>
</g>
</svg>
