<svg width="24" height="22" viewBox="0 0 24 22" fill="none" xmlns="http://www.w3.org/2000/svg">
<path d="M17.0246 0.277104C17.7771 -0.055556 18.7414 0.37848 19.0085 1.15398C19.7075 2.88618 20.3907 4.62536 21.0973 6.35604C21.6509 6.35604 22.2913 6.29897 22.7166 6.73331C23.5634 7.47118 23.0884 8.69497 23.2751 9.66048V18.5084C23.0829 19.4651 23.5777 20.7314 22.7166 21.4499C22.2522 21.9158 21.5565 21.8199 20.9604 21.8271C14.6669 21.818 8.37153 21.8271 2.07801 21.8235C1.38598 21.8608 0.757993 21.3397 0.567382 20.6889C0.551295 19.9735 0.517908 18.5436 0.5 17.8289V9.71875C0.665419 8.63761 0.168858 7.14368 1.36109 6.50355C6.5762 4.41562 11.8041 2.35259 17.0246 0.277104ZM1.54806 7.41229C1.46975 8.00112 1.49464 8.59481 1.49677 9.18698C8.42526 9.19245 15.3541 9.19063 22.2825 9.1888C22.2774 8.71045 22.295 8.23362 22.2719 7.75709C22.3108 7.50638 22.1135 7.29635 21.8646 7.31425C15.6296 7.30181 9.39501 7.31274 3.16037 7.30909C2.62071 7.29847 2.07649 7.28785 1.54806 7.41229ZM1.49646 13.0305C1.4998 15.4954 1.48554 17.9606 1.50162 20.4255C1.4482 20.7827 1.81819 20.916 2.10654 20.8753C8.63135 20.8735 15.1562 20.8753 21.681 20.8753C21.962 20.9126 22.3269 20.7794 22.2716 20.4288C22.2913 17.9621 22.275 15.4951 22.2789 13.0302C15.3519 13.0305 8.42344 13.0305 1.49646 13.0305Z" fill="#64FFB7"/>
<path d="M15.3362 18.05C14.8272 17.0044 15.6318 15.7184 16.7133 15.4856C17.2471 15.3432 17.795 15.5408 18.2384 15.834C18.6118 15.6616 18.9821 15.4358 19.4073 15.4376C20.4287 15.4267 21.3629 16.357 21.3468 17.3795C21.3131 18.3754 20.402 19.2632 19.4022 19.2489C18.9824 19.2471 18.6121 19.0267 18.2491 18.8434C17.3042 19.642 15.783 19.16 15.3362 18.05ZM16.1299 17.3868C16.0746 18.1781 17.1263 18.5857 17.6888 18.0964C17.4878 17.5911 17.5179 17.0508 17.6833 16.5421C17.0389 16.1348 16.0194 16.5494 16.1299 17.3868ZM18.9144 16.5048C18.2436 16.9388 18.3966 18.1408 19.2134 18.278C19.8684 18.4646 20.5391 17.874 20.3895 17.1968C20.3646 16.4799 19.4768 16.1952 18.9144 16.5048Z" fill="#64FFB7"/>
<path d="M3.47984 16.9099C5.89982 16.8456 8.32526 16.8902 10.7486 16.8884C11.355 16.8422 11.3623 17.8842 10.7413 17.8223C8.36927 17.8311 5.99573 17.8417 3.62401 17.8187C3.12745 17.8436 3.02091 17.0611 3.47984 16.9099Z" fill="#64FFB7"/>
<path d="M3.47984 18.3552C5.89982 18.2909 8.32526 18.3355 10.7486 18.3337C11.355 18.2876 11.3623 19.3298 10.7413 19.2676C8.36927 19.2764 5.99573 19.2874 3.62401 19.264C3.12745 19.2889 3.02091 18.5064 3.47984 18.3552Z" fill="#64FFB7"/>
<path d="M3.47984 15.1988C5.89982 15.1348 8.32526 15.1791 10.7486 15.1776C11.355 15.1312 11.3623 16.1734 10.7413 16.1112C8.36927 16.1203 5.99573 16.131 3.62401 16.1079C3.12745 16.1328 3.02091 15.35 3.47984 15.1988Z" fill="#64FFB7"/>
</svg>
