<svg width="13" height="14" viewBox="0 0 13 14" fill="none" xmlns="http://www.w3.org/2000/svg">
<mask id="mask0_4626_597" style="mask-type:luminance" maskUnits="userSpaceOnUse" x="0" y="0" width="13" height="14">
<path d="M0 0H12.5719V14H0V0Z" fill="white"/>
</mask>
<g mask="url(#mask0_4626_597)">
<path d="M8.42852 5.7854C6.14967 5.7854 4.29637 7.63854 4.29637 9.91536C4.29637 12.1923 6.14967 14.0455 8.42852 14.0455C10.7074 14.0455 12.5608 12.1923 12.5608 9.91536C12.5608 7.63854 10.7074 5.7854 8.42852 5.7854ZM9.83348 10.4542H8.42852C8.13097 10.4542 7.8895 10.2127 7.8895 9.91536V8.45382C7.8895 8.15645 8.13097 7.91497 8.42852 7.91497C8.72606 7.91497 8.96754 8.15645 8.96754 8.45382V9.37667H9.83348C10.131 9.37667 10.3725 9.61798 10.3725 9.91536C10.3725 10.2127 10.131 10.4542 9.83348 10.4542ZM9.14721 0.0390625H1.96061C0.868388 0.0390625 -0.015625 0.922569 -0.015625 2.01446V11.3521C-0.015625 12.4438 0.868388 13.3273 1.96061 13.3273H4.50475C3.69976 12.4151 3.21833 11.2227 3.21833 9.91536C3.21833 7.04227 5.55391 4.70787 8.42852 4.70787C9.42027 4.70787 10.3402 4.98092 11.1234 5.46929V2.01446C11.1234 0.922569 10.2396 0.0390625 9.14721 0.0390625ZM3.398 7.58095H2.67931C2.38464 7.58095 2.14029 7.33677 2.14029 7.04227C2.14029 6.74777 2.38464 6.50359 2.67931 6.50359H3.398C3.69267 6.50359 3.93702 6.74777 3.93702 7.04227C3.93702 7.33677 3.69267 7.58095 3.398 7.58095ZM5.55391 5.42622H2.67931C2.38464 5.42622 2.14029 5.18204 2.14029 4.88754C2.14029 4.59304 2.38464 4.34886 2.67931 4.34886H5.55391C5.84858 4.34886 6.09293 4.59304 6.09293 4.88754C6.09293 5.18204 5.84858 5.42622 5.55391 5.42622ZM8.42852 3.27133H2.67931C2.38464 3.27133 2.14029 3.02715 2.14029 2.73264C2.14029 2.43814 2.38464 2.19396 2.67931 2.19396H8.42852C8.72319 2.19396 8.96754 2.43814 8.96754 2.73264C8.96754 3.02715 8.72319 3.27133 8.42852 3.27133Z" fill="black"/>
</g>
</svg>
