<svg width="21" height="16" viewBox="0 0 21 16" fill="none" xmlns="http://www.w3.org/2000/svg">
<mask id="mask0_4834_7252" style="mask-type:luminance" maskUnits="userSpaceOnUse" x="0" y="10" width="7" height="6">
<path d="M0 10.1445H6.73707V16.0017H0V10.1445Z" fill="white"/>
</mask>
<g mask="url(#mask0_4834_7252)">
<path d="M3.44772 10.2305H3.21882C1.44392 10.2305 0 11.6735 0 13.4474V15.9976H6.66688V13.4474C6.66688 11.6735 5.22295 10.2305 3.44772 10.2305Z" fill="#6AFF97"/>
</g>
<path d="M3.33383 9.57341C4.25383 9.57341 5.00293 8.8104 5.00293 7.87264C5.00293 6.93488 4.25383 6.17188 3.33383 6.17188C3.23617 6.17188 3.14088 6.18034 3.04796 6.19694C2.26259 6.33511 1.66406 7.03377 1.66406 7.87264C1.66406 8.8104 2.41315 9.57341 3.33383 9.57341Z" fill="#6AFF97"/>
<path d="M9.99297 7.88557H9.99772C10.9153 7.88354 11.6627 7.12087 11.6627 6.18514C11.6627 5.67613 11.4413 5.1976 11.0551 4.87316C11.0537 4.87181 11.0523 4.87079 11.0513 4.86977C10.7543 4.62153 10.3789 4.48438 9.99297 4.48438C9.60808 4.48438 9.23303 4.62052 8.93631 4.86876C8.93461 4.87045 8.93258 4.87181 8.93055 4.8735C8.54532 5.1976 8.32422 5.67579 8.32422 6.18514C8.32388 7.1229 9.07263 7.88557 9.99297 7.88557Z" fill="#6AFF97"/>
<path d="M12.3471 9.53457C11.7184 8.89619 10.8838 8.54466 9.99672 8.54297H9.9913C8.76949 8.54297 7.64772 9.22165 7.06242 10.3138C6.88778 10.64 6.76807 10.9905 6.70703 11.3566C7.09701 11.9608 7.32353 12.6797 7.32353 13.4502V14.3104H12.9924V13.4502C12.9924 12.8924 13.1114 12.3617 13.3251 11.8818C13.3169 11.3342 13.1772 10.793 12.9209 10.3142C12.7676 10.0277 12.5743 9.7652 12.3471 9.53457Z" fill="#6AFF97"/>
<mask id="mask1_4834_7252" style="mask-type:luminance" maskUnits="userSpaceOnUse" x="13" y="10" width="8" height="6">
<path d="M13.5938 10.1445H20.3125V16.0017H13.5938V10.1445Z" fill="white"/>
</mask>
<g mask="url(#mask1_4834_7252)">
<path d="M17.3574 10.2413H17.3571C17.3405 10.244 17.3239 10.245 17.3069 10.245C17.2767 10.245 17.2472 10.241 17.2194 10.2332H17.2191C17.177 10.2311 17.135 10.2305 17.0926 10.2305H16.8637C15.0888 10.2305 13.6445 11.6735 13.6445 13.4474V15.9976H20.3121V13.4474C20.3121 11.7629 19.0092 10.3761 17.3574 10.2413Z" fill="#6AFF97"/>
</g>
<path d="M15.3086 7.87264C15.3086 8.8104 16.0577 9.57341 16.978 9.57341C17.073 9.57341 17.1659 9.56528 17.2568 9.5497C18.0452 9.41424 18.6478 8.71388 18.6478 7.87264C18.6478 6.93793 17.9031 6.17662 16.9862 6.17188H16.9845C16.9773 6.17221 16.9712 6.17289 16.9648 6.17289C16.9597 6.17289 16.9546 6.17289 16.9495 6.17221H16.9478C16.0411 6.18881 15.3086 6.94504 15.3086 7.87264Z" fill="#6AFF97"/>
<mask id="mask2_4834_7252" style="mask-type:luminance" maskUnits="userSpaceOnUse" x="4" y="0" width="5" height="4">
<path d="M4.65234 0H8.038V3.46283H4.65234V0Z" fill="white"/>
</mask>
<g mask="url(#mask2_4834_7252)">
<path d="M6.33349 3.40119H6.33383C7.25417 3.40119 8.00327 2.63819 8.00327 1.70043C8.00327 0.762669 7.25417 0 6.33383 0C5.41315 0 4.66406 0.762669 4.66406 1.70043C4.66406 2.63819 5.41281 3.40052 6.33349 3.40119Z" fill="#6AFF97"/>
</g>
<path d="M5.65956 7.87194C5.65956 8.65527 5.2801 9.35054 4.69819 9.77895C5.26518 9.97267 5.77248 10.2934 6.18721 10.7082C6.26351 10.4634 6.36321 10.2263 6.48495 9.99908C6.96445 9.10433 7.74644 8.44157 8.66237 8.11341C8.06113 7.68737 7.66708 6.98058 7.66708 6.18201C7.66708 5.61238 7.86784 5.07153 8.22729 4.64787C7.67353 4.26586 7.01396 4.05859 6.33473 4.05859H6.33439C5.21804 4.05859 4.18342 4.62145 3.57031 5.52873C4.74193 5.64828 5.65956 6.65377 5.65956 7.87194Z" fill="#6AFF97"/>
<path d="M15.6204 9.77895C15.0381 9.35088 14.6587 8.65527 14.6587 7.87194C14.6587 6.75943 15.4237 5.82404 16.4495 5.57919C16.3223 5.38311 16.1748 5.20124 16.0083 5.03428C15.3783 4.40538 14.5413 4.05859 13.6508 4.05859C12.9719 4.05859 12.312 4.26586 11.7583 4.64821C12.1181 5.07221 12.3185 5.6134 12.3185 6.18201C12.3185 6.97889 11.9251 7.68568 11.3242 8.11239C11.879 8.31085 12.3877 8.63461 12.8163 9.06945C13.0876 9.34479 13.3178 9.65771 13.501 9.99942C13.6681 10.3113 13.7933 10.6456 13.8747 10.991C14.3274 10.4393 14.9303 10.0143 15.6204 9.77895Z" fill="#6AFF97"/>
<mask id="mask3_4834_7252" style="mask-type:luminance" maskUnits="userSpaceOnUse" x="11" y="0" width="5" height="4">
<path d="M11.9492 0H15.3349V3.46283H11.9492V0Z" fill="white"/>
</mask>
<g mask="url(#mask3_4834_7252)">
<path d="M13.6499 3.40119H13.6502C14.5706 3.40119 15.3197 2.63819 15.3197 1.70043C15.3197 0.762669 14.5706 0 13.6502 0C12.7296 0 11.9805 0.762669 11.9805 1.70043C11.9805 2.63819 12.7292 3.40052 13.6499 3.40119Z" fill="#6AFF97"/>
</g>
</svg>
