<svg width="25" height="28" viewBox="0 0 25 28" fill="none" xmlns="http://www.w3.org/2000/svg">
<g clip-path="url(#clip0_4383_456)">
<path fill-rule="evenodd" clip-rule="evenodd" d="M15.7617 0.664082H13.9464C13.803 0.744786 13.5734 0.766161 13.4045 0.820331C12.0483 1.25508 11.5366 1.9483 10.5858 2.8638L9.17889 4.24828C8.70355 4.70965 8.21778 5.14797 7.75837 5.61945L2.14681 11.1406C1.66929 11.6018 1.23508 11.9993 0.750719 12.5025C0.186135 13.0892 0.636697 14.0882 1.4884 14.058C2.05131 14.0381 2.59082 13.3139 3.07026 12.8523C5.88823 10.1393 8.68886 7.29698 11.4925 4.5916L12.9027 3.21047C14.1451 2.15984 15.8464 2.22197 16.903 3.31272C18.0114 4.45686 17.9239 6.16952 16.8374 7.24361C16.5994 7.4789 16.3766 7.68839 16.1353 7.92082C15.9114 8.1364 15.6486 8.41637 15.4307 8.62822C14.9585 9.08725 14.4745 9.51035 14.0221 10.0111L9.80611 14.1366C9.49112 14.4423 8.59753 15.1742 8.50643 15.6259C8.33814 16.4603 9.2639 17.0355 9.95673 16.5862C10.1606 16.454 13.0397 13.5931 13.49 13.1572L17.0059 9.71083C18.0019 8.7493 18.8406 7.50657 20.596 7.73979C22.7956 8.032 24.1157 10.7534 22.1631 12.6351C20.7758 13.972 19.3469 15.4258 17.9591 16.7724C17.0159 17.6875 16.0777 18.6186 15.1315 19.5278L13.0528 21.5868C12.8347 21.796 12.5407 22.0464 12.3529 22.2989C11.9321 22.8645 11.7876 23.7369 12.1326 24.4707C12.4437 25.1323 13.0365 25.4761 13.4464 25.9482C13.6667 26.2018 14.6243 27.1589 14.8909 27.263C15.6859 27.5732 16.5013 26.76 16.0833 25.9723C15.9621 25.7438 14.3149 24.1748 14.006 23.8779C13.6197 23.5067 14.0126 23.263 14.2437 23.0404L18.4484 18.9039C18.6902 18.6706 18.9089 18.4586 19.1503 18.2263L23.3614 14.0959C23.6336 13.8147 23.8114 13.6607 24.0453 13.368C25.9523 10.9816 24.9086 7.34787 21.9736 6.18892C21.1104 5.84805 20.5337 5.8421 19.5473 5.8949C19.7115 3.91157 18.952 2.26101 17.3851 1.32029C16.4582 0.763784 16.0571 0.828718 15.7617 0.664062V0.664082Z" fill="#64FFB7"/>
<path fill-rule="evenodd" clip-rule="evenodd" d="M14.6755 4.34229C14.2569 4.43441 14.1459 4.63716 13.7703 4.99935L12.1798 6.56147C11.9032 6.82786 11.6538 7.06925 11.3774 7.33552C9.7834 8.87088 8.22671 10.4609 6.63881 11.9892C6.11114 12.4971 5.66071 12.9168 5.26822 13.7711C3.72958 17.1201 6.67808 20.8635 10.4138 20.2309C12.3077 19.9102 13.2151 18.659 14.1816 17.7258L15.3682 16.5807C15.5029 16.4504 15.6179 16.3122 15.7553 16.1798L20.8974 11.1413C21.7002 10.3611 20.5398 8.87622 19.4368 9.94342C19.1792 10.1927 18.8959 10.493 18.6488 10.7316L15.4835 13.8388C14.9447 14.3586 14.4352 14.8186 13.909 15.3842C13.4943 15.8299 12.7909 16.4444 12.3087 16.9368C11.8233 17.4324 11.3399 18.0106 10.5383 18.2855C9.62188 18.5999 8.68145 18.4086 8.00775 17.9583C6.64466 17.0471 6.24694 15.0438 7.56266 13.7011C8.09217 13.1608 8.57543 12.761 9.13852 12.1574C9.57225 11.6924 10.3964 10.9989 10.7365 10.6025C11.0074 10.2867 11.9455 9.42499 12.3157 9.06184C12.4569 8.92337 12.5644 8.794 12.7026 8.66073C12.8454 8.52288 12.9607 8.41097 13.1037 8.2736L15.4804 5.95416C16.2382 5.1974 15.5225 4.15583 14.6755 4.34225V4.34229Z" fill="#64FFB7"/>
</g>
<defs>
<clipPath id="clip0_4383_456">
<rect width="24.509" height="26.6667" fill="white" transform="translate(0.5 0.664062)"/>
</clipPath>
</defs>
</svg>
