<svg width="27" height="24" viewBox="0 0 27 24" fill="none" xmlns="http://www.w3.org/2000/svg">
<mask id="mask0_4383_447" style="mask-type:luminance" maskUnits="userSpaceOnUse" x="10" y="4" width="17" height="20">
<path d="M10.25 4.98438H26.5597V23.6602H10.25V4.98438Z" fill="white"/>
</mask>
<g mask="url(#mask0_4383_447)">
<path d="M26.5164 23.1585L24.8332 18.2372C24.9172 18.0897 24.9972 17.9397 25.0732 17.7875C25.1488 17.6355 25.2201 17.4813 25.2873 17.3253C25.3543 17.169 25.4172 17.0111 25.4754 16.8515C25.5336 16.6918 25.5872 16.5309 25.6367 16.3682C25.6859 16.2056 25.7304 16.0416 25.7705 15.8766C25.8107 15.7113 25.8458 15.5453 25.8766 15.3784C25.9074 15.211 25.9335 15.0434 25.9549 14.8747C25.9763 14.7061 25.9927 14.5371 26.0048 14.3677C26.0168 14.1981 26.0239 14.0284 26.0262 13.8584C26.0286 13.6887 26.0262 13.5187 26.0192 13.3491C26.0122 13.1791 26.0001 13.0097 25.9837 12.8407C25.967 12.6714 25.9456 12.5031 25.9198 12.3351C25.8937 12.1671 25.8629 12.0001 25.8274 11.8341C25.792 11.6678 25.7521 11.5028 25.7076 11.3389C25.6628 11.1749 25.6136 11.0122 25.5601 10.8509C25.5062 10.69 25.448 10.5304 25.3854 10.3724C25.3228 10.2145 25.2555 10.0582 25.1843 9.90424C25.1127 9.74996 25.037 9.5977 24.9574 9.44778C24.8774 9.29786 24.7934 9.15028 24.7051 9.00504C24.6167 8.85981 24.5247 8.71692 24.4287 8.57703C24.3323 8.43682 24.2322 8.29961 24.1285 8.16509C24.0244 8.03056 23.917 7.89904 23.8059 7.77054C23.6945 7.64204 23.5797 7.51688 23.4616 7.39473C23.3434 7.27259 23.2216 7.15379 23.0968 7.03867C22.972 6.92322 22.8442 6.81178 22.713 6.70336C22.5818 6.59527 22.4476 6.49119 22.3108 6.39046C22.1736 6.28973 22.034 6.19302 21.8915 6.10033C21.7493 6.00763 21.6044 5.91861 21.4568 5.83395C21.3095 5.74928 21.16 5.66897 21.008 5.59233C20.8561 5.51604 20.7022 5.44409 20.5462 5.37649C20.3906 5.30856 20.2327 5.24531 20.0734 5.18641C19.9138 5.12751 19.7528 5.0733 19.5905 5.02344C19.6802 5.22054 19.7639 5.42033 19.8412 5.62245C19.9188 5.82491 19.9897 6.02938 20.0547 6.23619C20.1196 6.443 20.1778 6.65149 20.2297 6.86198C20.2819 7.07213 20.3274 7.28397 20.3662 7.49713C20.405 7.70997 20.4375 7.92414 20.4633 8.13932C20.489 8.35449 20.5081 8.57034 20.5205 8.78652C20.5329 9.0027 20.5385 9.21922 20.5375 9.43607C20.5369 9.65258 20.5292 9.8691 20.5148 10.0853C20.5007 10.3015 20.4797 10.517 20.4522 10.7318C20.4248 10.9467 20.3906 11.1605 20.3498 11.3733C20.309 11.5862 20.2618 11.7973 20.2079 12.0071C20.1544 12.2173 20.0942 12.4251 20.0276 12.6313C19.961 12.8374 19.888 13.0415 19.809 13.2433C19.7297 13.4448 19.6444 13.6439 19.5531 13.8403C19.4617 14.0368 19.3643 14.2302 19.2609 14.4206C19.1575 14.611 19.0484 14.7981 18.9336 14.9818C18.8189 15.1655 18.6984 15.3456 18.5722 15.5219C18.4464 15.6983 18.3152 15.8706 18.1784 16.0386C18.0418 16.2069 17.9003 16.3709 17.7537 16.5302C17.6068 16.6898 17.4556 16.8444 17.2993 16.9947C17.143 17.145 16.9821 17.2902 16.8171 17.4304C16.6518 17.5706 16.4825 17.7058 16.3091 17.8357C16.1354 17.9655 15.9581 18.0897 15.777 18.2088C15.5957 18.3276 15.411 18.4407 15.2229 18.5485C15.0348 18.6559 14.8434 18.7576 14.649 18.8533C14.4546 18.949 14.2575 19.0387 14.0574 19.1224C13.8576 19.206 13.6551 19.2833 13.4503 19.3546C13.2455 19.4256 13.0391 19.4905 12.8303 19.549C12.6214 19.6073 12.4113 19.6591 12.1991 19.7047C11.9873 19.7502 11.7742 19.789 11.56 19.8214C11.3455 19.8539 11.1303 19.8793 10.9145 19.8987C10.6986 19.9178 10.4825 19.9302 10.2656 19.9359C10.4366 20.1186 10.615 20.2943 10.8007 20.4623C10.9861 20.6306 11.1785 20.7909 11.3773 20.9432C11.5761 21.0954 11.7805 21.2393 11.9913 21.3745C12.2018 21.5101 12.4177 21.6366 12.6388 21.7544C12.86 21.8718 13.0856 21.9802 13.3155 22.0793C13.5454 22.1783 13.7793 22.2677 14.0165 22.3477C14.2541 22.4273 14.4944 22.4973 14.7373 22.5575C14.9806 22.6174 15.2259 22.6673 15.4732 22.7071C15.7205 22.7469 15.9688 22.7764 16.2188 22.7958C16.4684 22.8148 16.7184 22.8239 16.969 22.8225C17.2193 22.8212 17.4693 22.8098 17.7189 22.7877C17.9682 22.766 18.2165 22.7339 18.4635 22.6914C18.7101 22.6489 18.9547 22.5967 19.1973 22.5341C19.4399 22.4715 19.6795 22.3992 19.9161 22.3169C20.1527 22.2346 20.3853 22.1425 20.6142 22.0411C20.8434 21.9397 21.0676 21.829 21.2875 21.7092L26.0851 23.5732C26.145 23.5959 26.2062 23.6009 26.2688 23.5879C26.3317 23.5752 26.3859 23.5467 26.4321 23.5022C26.4783 23.458 26.5087 23.4048 26.5241 23.3426C26.5392 23.2803 26.5369 23.2191 26.5164 23.1585Z" fill="#64FFB7"/>
</g>
<path d="M19.077 9.38877C19.0763 9.21475 19.0706 9.04074 19.0599 8.86672C19.0492 8.69271 19.0335 8.51936 19.0131 8.34635C18.9923 8.17367 18.9669 8.00133 18.9361 7.82966C18.9056 7.65832 18.8702 7.48798 18.8297 7.31832C18.7895 7.14899 18.7443 6.98066 18.6941 6.81401C18.644 6.64702 18.5894 6.48171 18.5298 6.31806C18.4703 6.15442 18.406 5.99245 18.3371 5.83249C18.2682 5.67253 18.1949 5.51458 18.1169 5.35864C18.0389 5.20303 17.9566 5.04942 17.8699 4.8985C17.7829 4.74757 17.6919 4.59899 17.5969 4.45309C17.5015 4.30752 17.4021 4.16429 17.2984 4.02441C17.195 3.88419 17.0876 3.74699 16.9761 3.61313C16.8647 3.47927 16.7493 3.34876 16.6305 3.22126C16.5117 3.09409 16.3892 2.97027 16.263 2.8498C16.1369 2.72966 16.0074 2.61321 15.8749 2.50043C15.742 2.38732 15.6061 2.27856 15.4669 2.17348C15.3281 2.06841 15.1862 1.96734 15.0413 1.87063C14.8964 1.77392 14.7488 1.68122 14.5986 1.59288C14.4486 1.50453 14.2961 1.42053 14.1411 1.34089C13.9859 1.26124 13.8289 1.18595 13.6696 1.11534C13.51 1.04473 13.349 0.978801 13.1857 0.917561C13.0228 0.856321 12.8578 0.799766 12.6915 0.747896C12.5252 0.696026 12.3575 0.648841 12.1885 0.606676C12.0192 0.564511 11.8492 0.527365 11.6779 0.494905C11.5069 0.462444 11.3349 0.435003 11.1619 0.412247C10.9892 0.389826 10.8159 0.37209 10.6419 0.359708C10.4682 0.346992 10.2942 0.339629 10.1198 0.336952C9.94548 0.334275 9.77147 0.336952 9.59746 0.344314C9.42312 0.351676 9.24944 0.364058 9.0761 0.38146C8.90276 0.398861 8.72976 0.421283 8.55776 0.448724C8.38575 0.476165 8.21442 0.50829 8.04443 0.545436C7.8741 0.582582 7.70511 0.624747 7.53712 0.671597C7.36914 0.718447 7.20282 0.770318 7.03818 0.826538C6.87321 0.883093 6.71024 0.944333 6.54895 1.01026C6.38732 1.07618 6.22803 1.14646 6.07076 1.22142C5.91348 1.29638 5.75854 1.37603 5.60595 1.45969C5.45302 1.54368 5.30277 1.63203 5.1552 1.72439C5.00763 1.81709 4.86273 1.9138 4.72084 2.01453C4.57862 2.11559 4.43942 2.22033 4.30356 2.32909C4.16736 2.43819 4.03451 2.55063 3.90501 2.66709C3.7755 2.78388 3.64935 2.90368 3.52687 3.0275C3.40406 3.15132 3.28526 3.27848 3.16982 3.40899C3.05437 3.53951 2.94293 3.67336 2.83518 3.81057C2.72777 3.94744 2.62403 4.08732 2.52464 4.23021C2.42492 4.37344 2.32955 4.51901 2.2382 4.66726C2.14718 4.81584 2.06017 4.96677 1.97785 5.12003C1.8952 5.27364 1.81723 5.42925 1.74361 5.5872C1.66999 5.74515 1.60105 5.90511 1.5368 6.06675C1.47222 6.22871 1.41265 6.39235 1.35777 6.55767C1.30289 6.72298 1.2527 6.88964 1.20719 7.05796C1.16201 7.22596 1.12152 7.39529 1.08572 7.56596C1.05025 7.73629 1.01946 7.90796 0.993692 8.07997C0.967926 8.25231 0.947178 8.42532 0.931451 8.59867C0.915388 8.77202 0.90468 8.94603 0.898991 9.12005C0.892968 9.29406 0.892298 9.46841 0.896314 9.64243C0.900664 9.81644 0.909699 9.99046 0.924089 10.1641C0.938143 10.3375 0.957552 10.5108 0.981646 10.6832C1.00574 10.8559 1.03485 11.0275 1.06899 11.1982C1.10278 11.3692 1.14194 11.5389 1.18577 11.7075C1.22961 11.8758 1.27813 12.0432 1.33134 12.2088C1.38488 12.3748 1.44311 12.5388 1.50602 12.7014C1.56893 12.8637 1.63619 13.0244 1.70847 13.183C1.78042 13.3416 1.85705 13.4979 1.93803 13.6521C2.01935 13.8064 2.10468 13.958 2.19469 14.1073L1.6141 15.8083L0.681479 18.5437C0.661066 18.6042 0.658724 18.6658 0.673783 18.728C0.689176 18.79 0.719627 18.8432 0.765807 18.8877C0.811986 18.9318 0.866532 18.9606 0.929108 18.9733C0.991685 18.9861 1.05292 18.9814 1.11282 18.9586L3.7822 17.9215L5.43495 17.2784C6.00283 17.6063 6.59948 17.8697 7.22424 18.0685C7.84934 18.2672 8.48849 18.3971 9.14136 18.4576C9.41877 18.4807 9.70086 18.4948 9.9853 18.4948C10.1342 18.4948 10.2831 18.4911 10.432 18.4838C10.581 18.4764 10.7295 18.4657 10.8778 18.451C11.026 18.4362 11.1736 18.4182 11.3212 18.3961C11.4684 18.3743 11.6153 18.3489 11.7612 18.3198C11.9074 18.2907 12.0527 18.2579 12.1972 18.2217C12.3418 18.1856 12.4854 18.1458 12.6279 18.1026C12.7705 18.0591 12.9117 18.0126 13.0522 17.9624C13.1924 17.9118 13.3313 17.8583 13.4688 17.8014C13.6064 17.7442 13.7426 17.684 13.8771 17.62C14.012 17.5564 14.1448 17.4892 14.2763 17.4189C14.4075 17.3486 14.537 17.2753 14.6648 17.1987C14.7927 17.1221 14.9185 17.0421 15.0423 16.9594C15.1661 16.8765 15.2876 16.7908 15.4074 16.7021C15.5268 16.6131 15.6443 16.5214 15.7594 16.427C15.8745 16.3323 15.987 16.2349 16.0974 16.1349C16.2078 16.0348 16.3156 15.9321 16.4206 15.8267C16.5261 15.7213 16.6285 15.6132 16.7285 15.5027C16.8282 15.3923 16.9256 15.2795 17.02 15.1644C17.1143 15.049 17.2057 14.9315 17.2944 14.812C17.3831 14.6922 17.4687 14.5704 17.5514 14.4466C17.6337 14.3224 17.7133 14.1966 17.7896 14.0688C17.8663 13.9409 17.9396 13.8114 18.0095 13.6799C18.0794 13.5484 18.1464 13.4156 18.2099 13.2807C18.2732 13.1458 18.3334 13.0096 18.3903 12.8721C18.4472 12.7345 18.5004 12.5953 18.5503 12.4551C18.6005 12.3149 18.647 12.1733 18.6898 12.0308C18.733 11.8882 18.7725 11.7447 18.8083 11.6001C18.8444 11.4559 18.8765 11.3103 18.9053 11.1644C18.9344 11.0182 18.9595 10.8716 18.9809 10.724C19.0027 10.5768 19.0204 10.4288 19.0348 10.2809C19.0492 10.1327 19.0599 9.9841 19.0669 9.83518C19.074 9.6866 19.0773 9.53768 19.077 9.38877ZM11.1277 11.486C11.1277 11.5332 11.1231 11.5804 11.1137 11.6269C11.1043 11.6734 11.0909 11.7186 11.0725 11.7624C11.0545 11.8062 11.032 11.8477 11.0059 11.8872C10.9795 11.9267 10.9494 11.9632 10.9159 11.9967C10.8825 12.0301 10.846 12.0602 10.8065 12.0863C10.767 12.1128 10.7255 12.1352 10.6817 12.1533C10.6378 12.1713 10.5923 12.1851 10.5458 12.1944C10.4993 12.2035 10.4525 12.2082 10.4049 12.2082H5.80071C5.75386 12.2075 5.70734 12.2021 5.6615 12.1924C5.61565 12.1827 5.57115 12.1683 5.52798 12.1499C5.48481 12.1315 5.44365 12.1091 5.40484 12.0823C5.36635 12.0559 5.33021 12.0261 5.29742 11.9926C5.26429 11.9592 5.23518 11.9227 5.20907 11.8835C5.18331 11.8444 5.16156 11.8032 5.14382 11.7597C5.12609 11.7162 5.11237 11.6714 5.10333 11.6255C5.0943 11.5794 5.08995 11.5328 5.08995 11.486V11.416C5.08995 11.3685 5.09463 11.3217 5.10367 11.2752C5.11304 11.2286 5.12675 11.1838 5.14483 11.14C5.16323 11.0961 5.18532 11.0546 5.21175 11.0151C5.23819 10.976 5.26797 10.9395 5.30177 10.906C5.33523 10.8726 5.37171 10.8428 5.41119 10.8164C5.45068 10.7903 5.49218 10.7682 5.53601 10.7501C5.57985 10.732 5.62502 10.7186 5.67154 10.7093C5.71805 10.7002 5.76524 10.6959 5.81242 10.6959H10.4049C10.4525 10.6959 10.4993 10.7002 10.5458 10.7093C10.5923 10.7186 10.6375 10.732 10.6813 10.7501C10.7252 10.7682 10.7667 10.7903 10.8062 10.8164C10.8456 10.8428 10.8821 10.8726 10.9159 10.906C10.9494 10.9395 10.9795 10.976 11.0056 11.0151C11.032 11.0546 11.0545 11.0961 11.0725 11.14C11.0906 11.1838 11.1043 11.2286 11.1137 11.2752C11.1231 11.3217 11.1277 11.3685 11.1277 11.416V11.486ZM14.6056 8.30987C14.6056 8.35739 14.6012 8.40424 14.5919 8.45076C14.5825 8.49727 14.5688 8.54245 14.5507 8.58629C14.5326 8.63013 14.5102 8.67196 14.4841 8.71111C14.4577 8.7506 14.4276 8.78708 14.3941 8.82087C14.3606 8.85434 14.3242 8.88412 14.2847 8.91056C14.2452 8.937 14.2034 8.95908 14.1595 8.97715C14.1157 8.99556 14.0705 9.00928 14.024 9.01832C13.9775 9.02769 13.9306 9.03237 13.8831 9.03237H5.64945C5.60193 9.03237 5.55475 9.02769 5.50824 9.01832C5.46172 9.00928 5.41655 8.99556 5.37271 8.97715C5.32887 8.95908 5.28738 8.937 5.24789 8.91056C5.20841 8.88412 5.17193 8.85434 5.13847 8.82087C5.10467 8.78708 5.07489 8.7506 5.04845 8.71111C5.02201 8.67196 4.99993 8.63013 4.98152 8.58629C4.96345 8.54245 4.94973 8.49727 4.9407 8.45076C4.93133 8.40424 4.92664 8.35739 4.92664 8.30987V8.24227C4.92698 8.19509 4.932 8.14857 4.94137 8.10206C4.95074 8.05588 4.96479 8.01103 4.98286 7.96753C5.00127 7.92369 5.02369 7.88253 5.05012 7.84338C5.07656 7.80422 5.10634 7.76808 5.14014 7.73462C5.1736 7.70149 5.21008 7.6717 5.24923 7.6456C5.28872 7.6195 5.33021 7.59741 5.37371 7.57934C5.41755 7.56127 5.46273 7.54755 5.50891 7.53851C5.55542 7.52914 5.60193 7.52479 5.64945 7.52479H13.8831C13.9306 7.52479 13.9775 7.52948 14.024 7.53851C14.0705 7.54788 14.1157 7.5616 14.1595 7.57968C14.2034 7.59775 14.2452 7.62017 14.2847 7.6466C14.3242 7.67271 14.3606 7.70283 14.3941 7.73629C14.4276 7.76975 14.4577 7.80623 14.4841 7.84572C14.5102 7.88521 14.5326 7.9267 14.5507 7.97054C14.5688 8.01438 14.5825 8.05956 14.5919 8.10607C14.6012 8.15259 14.6056 8.19977 14.6056 8.24696V8.30987Z" fill="#64FFB7"/>
</svg>
