<svg width="26" height="26" viewBox="0 0 26 26" fill="none" xmlns="http://www.w3.org/2000/svg">
<mask id="mask0_4383_360" style="mask-type:luminance" maskUnits="userSpaceOnUse" x="0" y="3" width="23" height="23">
<path d="M0.5 3.84375H22.1774V25.5086H0.5V3.84375Z" fill="white"/>
</mask>
<g mask="url(#mask0_4383_360)">
<path d="M3.67539 20.363H3.88715V24.8085C3.8875 24.8692 3.8964 24.9284 3.91388 24.9867C3.93101 25.0446 3.95637 25.0991 3.98926 25.1501C4.02216 25.2012 4.06157 25.2464 4.10714 25.2861C4.15305 25.3259 4.20342 25.3584 4.25859 25.3838C4.31376 25.4091 4.37133 25.4263 4.43129 25.4352C4.49126 25.4441 4.55122 25.4444 4.61153 25.4362C4.67149 25.428 4.7294 25.4115 4.78457 25.3869C4.84008 25.3622 4.89079 25.3303 4.93739 25.2909L10.6872 20.363H18.9184C19.0223 20.363 19.1261 20.3578 19.2296 20.3475C19.3331 20.3373 19.4358 20.3222 19.5376 20.302C19.6397 20.2814 19.7405 20.2564 19.8398 20.2259C19.9396 20.1958 20.0372 20.1608 20.1335 20.1211C20.2294 20.0813 20.3233 20.0368 20.4152 19.9878C20.5066 19.9388 20.5957 19.8853 20.6824 19.8274C20.7688 19.7699 20.852 19.7079 20.9326 19.6417C21.0128 19.576 21.0898 19.5061 21.1635 19.4327C21.2368 19.3591 21.3067 19.2823 21.3725 19.2018C21.4387 19.1213 21.5007 19.038 21.5583 18.9517C21.6162 18.865 21.6696 18.7759 21.7186 18.6844C21.7676 18.5926 21.8122 18.4987 21.8519 18.4028C21.8917 18.3065 21.9266 18.2089 21.9568 18.1092C21.9869 18.0098 22.0123 17.9091 22.0325 17.807C22.0531 17.7052 22.0681 17.6024 22.0784 17.499C22.0887 17.3955 22.0938 17.2917 22.0938 17.1879C22.0938 17.1879 22.0938 12.7677 22.0853 12.7677C21.3352 13.0353 20.5618 13.1679 19.7651 13.1658C19.6507 13.1655 19.5366 13.1627 19.4225 13.1569C19.3084 13.1514 19.1943 13.1428 19.0805 13.1315C18.9668 13.1202 18.8533 13.1062 18.7403 13.0891C18.6272 13.0723 18.5148 13.0527 18.4027 13.0305C18.2907 13.0079 18.179 12.9828 18.0683 12.9551C17.9573 12.927 17.8473 12.8965 17.738 12.8633C17.6283 12.83 17.5201 12.7941 17.4125 12.7557C17.3049 12.717 17.1983 12.6758 17.0928 12.632C16.9869 12.5885 16.8827 12.5419 16.7792 12.4932C16.6761 12.4442 16.574 12.3928 16.4732 12.3387C16.3725 12.2849 16.2728 12.2287 16.1748 12.1698C16.0768 12.1109 15.9805 12.0499 15.8852 11.9861C15.7903 11.9228 15.6968 11.857 15.605 11.7888C15.5135 11.7206 15.4233 11.6504 15.3349 11.5781C15.2465 11.5054 15.1602 11.4308 15.0752 11.354C14.9906 11.2773 14.908 11.1985 14.8271 11.1176C14.7463 11.0367 14.6674 10.9542 14.5907 10.8695C14.5139 10.7846 14.4392 10.6982 14.3666 10.6098C14.2943 10.5214 14.2237 10.4313 14.1559 10.3395C14.0877 10.248 14.0219 10.1545 13.9582 10.0596C13.8948 9.96432 13.8338 9.86804 13.7748 9.77005C13.7159 9.67172 13.6597 9.57236 13.6059 9.47163C13.5518 9.3709 13.5004 9.26879 13.4514 9.16566C13.4027 9.06219 13.3561 8.95769 13.3126 8.85216C13.2687 8.74663 13.2276 8.64008 13.1889 8.53249C13.1502 8.42491 13.1145 8.3163 13.0813 8.207C13.0481 8.0977 13.0172 7.98772 12.9895 7.87671C12.9617 7.76604 12.9367 7.65435 12.9141 7.54231C12.8918 7.43027 12.8723 7.31789 12.8555 7.20483C12.8384 7.09176 12.8243 6.97835 12.813 6.8646C12.8017 6.75085 12.7931 6.63675 12.7876 6.52266C12.7818 6.40857 12.7791 6.29447 12.7787 6.18004C12.7767 5.38001 12.9124 4.60362 13.1851 3.85156H3.67539C3.57157 3.85156 3.46774 3.8567 3.36426 3.86698C3.26078 3.87726 3.15798 3.89233 3.05587 3.91255C2.9541 3.93311 2.85336 3.95812 2.75365 3.98861C2.65428 4.01876 2.55662 4.05371 2.46033 4.09346C2.36439 4.1332 2.2705 4.17774 2.17867 4.22674C2.08718 4.27573 1.99809 4.32918 1.9114 4.38708C1.82505 4.44464 1.74144 4.50666 1.66126 4.57279C1.58074 4.63857 1.50398 4.70847 1.43031 4.78179C1.35664 4.85545 1.28708 4.9322 1.22095 5.01272C1.15516 5.09323 1.09314 5.17649 1.03557 5.26283C0.977662 5.34952 0.924208 5.4386 0.875208 5.53008C0.826208 5.6219 0.781663 5.71578 0.741915 5.81172C0.702167 5.90799 0.667216 6.00564 0.63672 6.10534C0.606566 6.20471 0.581552 6.30544 0.560993 6.40754C0.540776 6.5093 0.525357 6.61209 0.51542 6.71556C0.50514 6.81903 0.5 6.92285 0.5 7.02666V17.1879C0.5 17.2917 0.50514 17.3955 0.51542 17.499C0.525357 17.6024 0.540776 17.7052 0.560993 17.807C0.581552 17.9091 0.606566 18.0098 0.63672 18.1092C0.667216 18.2089 0.702167 18.3065 0.741915 18.4028C0.781663 18.4987 0.826208 18.5926 0.875208 18.6844C0.924208 18.7759 0.977662 18.865 1.03557 18.9517C1.09314 19.038 1.15516 19.1213 1.22095 19.2018C1.28708 19.2823 1.35664 19.3591 1.43031 19.4327C1.50398 19.5061 1.58074 19.576 1.66126 19.6417C1.74144 19.7079 1.82505 19.7699 1.9114 19.8274C1.99809 19.8853 2.08718 19.9388 2.17867 19.9878C2.2705 20.0368 2.36439 20.0813 2.46033 20.1211C2.55662 20.1608 2.65428 20.1958 2.75365 20.2259C2.85336 20.2564 2.9541 20.2814 3.05587 20.302C3.15798 20.3222 3.26078 20.3373 3.36426 20.3475C3.46774 20.3578 3.57157 20.363 3.67539 20.363ZM5.36914 8.08537H11.2967C11.3385 8.08537 11.38 8.08914 11.4208 8.09736C11.4616 8.10558 11.5013 8.11758 11.54 8.13368C11.5784 8.14944 11.6151 8.16897 11.6497 8.19227C11.6843 8.21557 11.7165 8.24161 11.746 8.27107C11.7754 8.30088 11.8018 8.33274 11.8251 8.36735C11.8481 8.4023 11.8676 8.43862 11.8837 8.47733C11.8995 8.51571 11.9118 8.55545 11.9197 8.59622C11.9279 8.63734 11.932 8.67845 11.932 8.72025C11.932 8.76205 11.9279 8.80317 11.9197 8.84428C11.9118 8.88505 11.8995 8.9248 11.8837 8.96317C11.8676 9.00189 11.8481 9.03855 11.8251 9.07316C11.8018 9.10776 11.7754 9.13997 11.746 9.16943C11.7165 9.1989 11.6843 9.22528 11.6497 9.24824C11.6151 9.27153 11.5784 9.29106 11.54 9.30717C11.5013 9.32293 11.4616 9.33492 11.4208 9.34314C11.38 9.35137 11.3385 9.35548 11.2967 9.35548H5.36914C5.32734 9.35548 5.28622 9.35137 5.2451 9.34314C5.20432 9.33492 5.16457 9.32293 5.1262 9.30717C5.08748 9.29106 5.05081 9.27153 5.0162 9.24824C4.9816 9.22528 4.94939 9.1989 4.91992 9.16943C4.89045 9.13997 4.86407 9.10776 4.84111 9.07316C4.81781 9.03855 4.79828 9.00189 4.78217 8.96317C4.76641 8.9248 4.75442 8.88505 4.74619 8.84428C4.73797 8.80317 4.73386 8.76205 4.73386 8.72025C4.73386 8.67845 4.73797 8.63734 4.74619 8.59622C4.75442 8.55545 4.76641 8.51571 4.78217 8.47733C4.79828 8.43862 4.81781 8.4023 4.84111 8.36735C4.86407 8.33274 4.89045 8.30088 4.91992 8.27107C4.94939 8.24161 4.9816 8.21557 5.0162 8.19227C5.05081 8.16897 5.08748 8.14944 5.1262 8.13368C5.16457 8.11758 5.20432 8.10558 5.2451 8.09736C5.28622 8.08914 5.32734 8.08537 5.36914 8.08537ZM5.36914 11.4722H13.8372C13.879 11.4722 13.9205 11.4763 13.9612 11.4845C14.002 11.4924 14.0418 11.5048 14.0805 11.5205C14.1189 11.5366 14.1555 11.5562 14.1901 11.5791C14.2247 11.6024 14.2569 11.6288 14.2864 11.6583C14.3159 11.6877 14.3423 11.7199 14.3656 11.7545C14.3885 11.7891 14.4081 11.8258 14.4242 11.8642C14.4399 11.9029 14.4523 11.9426 14.4601 11.9834C14.4684 12.0242 14.4725 12.0656 14.4725 12.1074C14.4725 12.1489 14.4684 12.1904 14.4601 12.2311C14.4523 12.2719 14.4399 12.3116 14.4242 12.3504C14.4081 12.3887 14.3885 12.4254 14.3656 12.46C14.3423 12.4946 14.3159 12.5268 14.2864 12.5563C14.2569 12.5857 14.2247 12.6121 14.1901 12.6354C14.1555 12.6584 14.1189 12.6779 14.0805 12.694C14.0418 12.7101 14.002 12.7221 13.9612 12.73C13.9205 12.7382 13.879 12.7423 13.8372 12.7423H5.36914C5.32734 12.7423 5.28622 12.7382 5.2451 12.73C5.20432 12.7221 5.16457 12.7101 5.1262 12.694C5.08748 12.6779 5.05081 12.6584 5.0162 12.6354C4.9816 12.6121 4.94939 12.5857 4.91992 12.5563C4.89045 12.5268 4.86407 12.4946 4.84111 12.46C4.81781 12.4254 4.79828 12.3887 4.78217 12.3504C4.76641 12.3116 4.75442 12.2719 4.74619 12.2311C4.73797 12.1904 4.73386 12.1489 4.73386 12.1074C4.73386 12.0656 4.73797 12.0242 4.74619 11.9834C4.75442 11.9426 4.76641 11.9029 4.78217 11.8642C4.79828 11.8258 4.81781 11.7891 4.84111 11.7545C4.86407 11.7199 4.89045 11.6877 4.91992 11.6583C4.94939 11.6288 4.9816 11.6024 5.0162 11.5791C5.05081 11.5562 5.08748 11.5366 5.1262 11.5205C5.16457 11.5048 5.20432 11.4924 5.2451 11.4845C5.28622 11.4763 5.32734 11.4722 5.36914 11.4722ZM5.36914 14.8591H17.2247C17.2665 14.8591 17.3076 14.8632 17.3484 14.8714C17.3895 14.8796 17.4293 14.8916 17.4676 14.9074C17.5064 14.9235 17.5427 14.943 17.5776 14.9663C17.6122 14.9892 17.6441 15.0156 17.6736 15.0451C17.7034 15.0746 17.7294 15.1068 17.7527 15.1414C17.776 15.176 17.7956 15.2126 17.8113 15.2514C17.8274 15.2897 17.8394 15.3295 17.8476 15.3702C17.8555 15.4114 17.8596 15.4525 17.8596 15.4943C17.8596 15.5361 17.8555 15.5772 17.8476 15.6183C17.8394 15.6591 17.8274 15.6988 17.8113 15.7372C17.7956 15.7759 17.776 15.8122 17.7527 15.8472C17.7294 15.8818 17.7034 15.9136 17.6736 15.9435C17.6441 15.9729 17.6122 15.999 17.5776 16.0223C17.5427 16.0456 17.5064 16.0651 17.4676 16.0808C17.4293 16.097 17.3895 16.1089 17.3484 16.1172C17.3076 16.1254 17.2665 16.1292 17.2247 16.1292H5.36914C5.32734 16.1292 5.28622 16.1254 5.2451 16.1172C5.20432 16.1089 5.16457 16.097 5.1262 16.0808C5.08748 16.0651 5.05081 16.0456 5.0162 16.0223C4.9816 15.999 4.94939 15.9729 4.91992 15.9435C4.89045 15.9136 4.86407 15.8818 4.84111 15.8472C4.81781 15.8122 4.79828 15.7759 4.78217 15.7372C4.76641 15.6988 4.75442 15.6591 4.74619 15.6183C4.73797 15.5772 4.73386 15.5361 4.73386 15.4943C4.73386 15.4525 4.73797 15.4114 4.74619 15.3702C4.75442 15.3295 4.76641 15.2897 4.78217 15.2514C4.79828 15.2126 4.81781 15.176 4.84111 15.1414C4.86407 15.1068 4.89045 15.0746 4.91992 15.0451C4.94939 15.0156 4.9816 14.9892 5.0162 14.9663C5.05081 14.943 5.08748 14.9235 5.1262 14.9074C5.16457 14.8916 5.20432 14.8796 5.2451 14.8714C5.28622 14.8632 5.32734 14.8591 5.36914 14.8591Z" fill="#64FFB7"/>
</g>
<mask id="mask1_4383_360" style="mask-type:luminance" maskUnits="userSpaceOnUse" x="14" y="0" width="12" height="12">
<path d="M14.0234 0.5H25.5147V11.9025H14.0234V0.5Z" fill="white"/>
</mask>
<g mask="url(#mask1_4383_360)">
<path d="M19.7709 0.460938C19.5841 0.463336 19.3984 0.474642 19.2127 0.494857C19.0273 0.515072 18.8433 0.544195 18.6607 0.582569C18.478 0.6206 18.2975 0.667197 18.1193 0.722702C17.9411 0.778208 17.7663 0.842278 17.5943 0.914915C17.4223 0.987208 17.2544 1.06773 17.0903 1.15646C16.9261 1.2452 16.7665 1.34148 16.6116 1.44564C16.4567 1.5498 16.3073 1.66115 16.1634 1.7797C16.0195 1.89825 15.8814 2.02365 15.7495 2.15556C15.6175 2.28747 15.4921 2.42554 15.3736 2.56945C15.255 2.71335 15.1436 2.86308 15.0395 3.0176C14.9353 3.17247 14.839 3.33213 14.7503 3.49625C14.6615 3.66036 14.581 3.82825 14.5084 4.00025C14.4361 4.17224 14.372 4.34732 14.3165 4.52515C14.261 4.70331 14.2144 4.88387 14.176 5.06649C14.138 5.24911 14.1088 5.4331 14.0886 5.61846C14.0684 5.80416 14.0571 5.99021 14.0547 6.17659C14.0547 6.27013 14.0571 6.36367 14.0615 6.4572C14.0663 6.5504 14.0732 6.64359 14.0824 6.73679C14.0914 6.82998 14.103 6.92283 14.1167 7.01534C14.1304 7.10785 14.1465 7.20001 14.1647 7.29149C14.1828 7.38332 14.2034 7.4748 14.226 7.56525C14.249 7.65605 14.2736 7.74616 14.3011 7.83558C14.3281 7.92535 14.3573 8.01409 14.3888 8.10214C14.4203 8.1902 14.4542 8.27757 14.4899 8.36391C14.5258 8.45025 14.5635 8.53591 14.6036 8.62019C14.6437 8.70482 14.6855 8.78842 14.7297 8.87099C14.7739 8.95322 14.8198 9.03477 14.8682 9.11494C14.9161 9.19511 14.9662 9.27426 15.0182 9.35204C15.07 9.42981 15.1238 9.50622 15.1796 9.58125C15.2355 9.65663 15.293 9.73029 15.3523 9.80259C15.4116 9.87488 15.4726 9.94546 15.5356 10.015C15.5984 10.0842 15.6628 10.1521 15.7289 10.2182C15.795 10.2843 15.8629 10.3487 15.9321 10.4114C16.0013 10.4745 16.0722 10.5355 16.1445 10.5947C16.2168 10.654 16.2905 10.7116 16.3659 10.7674C16.4409 10.8229 16.5174 10.8771 16.5951 10.9288C16.6729 10.9809 16.7521 11.0309 16.8323 11.0789C16.9124 11.1272 16.9936 11.1731 17.0762 11.2173C17.1588 11.2615 17.2424 11.3033 17.3271 11.3434C17.4113 11.3835 17.497 11.4211 17.5834 11.4571C17.6697 11.4928 17.7571 11.5267 17.8451 11.5582C17.9332 11.5897 18.022 11.6188 18.1114 11.6459C18.2012 11.6733 18.2913 11.698 18.3821 11.7209C18.4725 11.7436 18.564 11.7641 18.6555 11.7823C18.7474 11.8004 18.8395 11.8165 18.9321 11.8302C19.0246 11.8439 19.1174 11.8556 19.2106 11.8645C19.3038 11.8738 19.397 11.8806 19.4902 11.8854C19.5838 11.8899 19.6773 11.8923 19.7709 11.8923C19.8644 11.8923 19.958 11.8899 20.0512 11.8854C20.1447 11.8806 20.2379 11.8738 20.3311 11.8645C20.4243 11.8556 20.5172 11.8439 20.6097 11.8302C20.7022 11.8165 20.7944 11.8004 20.8859 11.7823C20.9777 11.7641 21.0689 11.7436 21.1597 11.7209C21.2505 11.698 21.3406 11.6733 21.43 11.6459C21.5198 11.6188 21.6085 11.5894 21.6966 11.5582C21.7847 11.5267 21.8717 11.4928 21.9584 11.4571C22.0447 11.4211 22.1301 11.3835 22.2147 11.3434C22.2993 11.3033 22.3829 11.2615 22.4655 11.2173C22.5478 11.1731 22.6293 11.1272 22.7095 11.0789C22.7897 11.0309 22.8688 10.9809 22.9466 10.9288C23.0244 10.8771 23.1008 10.8229 23.1758 10.7674C23.2509 10.7116 23.3249 10.654 23.3972 10.5947C23.4695 10.5355 23.5401 10.4745 23.6096 10.4114C23.6789 10.3487 23.7467 10.2843 23.8128 10.2182C23.879 10.1521 23.9434 10.0842 24.0061 10.015C24.0688 9.94546 24.1301 9.87488 24.1894 9.80259C24.2487 9.73029 24.3063 9.65663 24.3621 9.58125C24.4176 9.50622 24.4714 9.42981 24.5235 9.35204C24.5756 9.27426 24.6256 9.19511 24.6736 9.11494C24.7219 9.03477 24.7678 8.95322 24.812 8.87099C24.8559 8.78842 24.898 8.70482 24.9381 8.62019C24.9782 8.53591 25.0159 8.45025 25.0519 8.36391C25.0875 8.27757 25.1211 8.1902 25.1526 8.10214C25.1841 8.01409 25.2136 7.92535 25.2407 7.83558C25.2678 7.74616 25.2928 7.65605 25.3157 7.56525C25.3383 7.4748 25.3589 7.38332 25.3771 7.29149C25.3952 7.20001 25.4113 7.10785 25.425 7.01534C25.4387 6.92283 25.4501 6.82998 25.4593 6.73679C25.4686 6.64359 25.4754 6.5504 25.4799 6.4572C25.4847 6.36367 25.4871 6.27013 25.4871 6.17659C25.4871 6.08306 25.4847 5.98952 25.4799 5.89633C25.4754 5.80279 25.4686 5.7096 25.4593 5.6164C25.4501 5.52321 25.4387 5.43036 25.425 5.33785C25.4113 5.24534 25.3952 5.15318 25.3771 5.0617C25.3589 4.96987 25.3383 4.87873 25.3157 4.78794C25.2928 4.69714 25.2678 4.60703 25.2407 4.51761C25.2136 4.42784 25.1841 4.3391 25.1526 4.25105C25.1211 4.16299 25.0875 4.07562 25.0519 3.98928C25.0159 3.90294 24.9782 3.81763 24.9381 3.733C24.898 3.64837 24.8559 3.56477 24.812 3.4822C24.7678 3.39997 24.7219 3.31842 24.6736 3.23825C24.6256 3.15808 24.5756 3.07893 24.5235 3.00115C24.4714 2.92338 24.4176 2.84697 24.3621 2.77194C24.3063 2.6969 24.2487 2.6229 24.1894 2.5506C24.1301 2.47831 24.0688 2.40773 24.0061 2.33818C23.9434 2.26897 23.879 2.20113 23.8128 2.135C23.7467 2.06887 23.6789 2.00446 23.6096 1.94176C23.5401 1.87872 23.4695 1.81773 23.3972 1.75846C23.3249 1.69918 23.2509 1.64162 23.1758 1.58577C23.1008 1.53027 23.0244 1.47613 22.9466 1.4244C22.8688 1.37232 22.7897 1.32229 22.7095 1.27433C22.6293 1.22602 22.5478 1.18011 22.4655 1.13591C22.3829 1.09171 22.2993 1.04991 22.2147 1.00982C22.1301 0.969734 22.0447 0.932046 21.9584 0.89607C21.8717 0.860437 21.7847 0.82686 21.6966 0.795339C21.6085 0.763817 21.5198 0.734352 21.43 0.707284C21.3406 0.679874 21.2505 0.655205 21.1597 0.63225C21.0689 0.609636 20.9777 0.589079 20.8859 0.57092C20.7944 0.552761 20.7022 0.536657 20.6097 0.522952C20.5172 0.509248 20.4243 0.497941 20.3311 0.48869C20.2379 0.479439 20.1447 0.472587 20.0512 0.468133C19.958 0.463336 19.8644 0.460938 19.7709 0.460938ZM20.8293 7.87019C20.8293 7.91164 20.8252 7.9531 20.817 7.99387C20.8091 8.03499 20.7971 8.07473 20.781 8.11311C20.7649 8.15182 20.7454 8.18814 20.7224 8.22309C20.6991 8.25769 20.6727 8.28956 20.6433 8.31902C20.6138 8.34849 20.5819 8.37487 20.547 8.39817C20.5124 8.42147 20.4757 8.441 20.4373 8.45676C20.3986 8.47286 20.3592 8.48485 20.3181 8.49308C20.2773 8.50096 20.2359 8.50507 20.1944 8.50507C20.1526 8.50507 20.1111 8.50096 20.0704 8.49308C20.0296 8.48485 19.9898 8.47286 19.9511 8.45676C19.9127 8.441 19.8761 8.42147 19.8415 8.39817C19.8069 8.37487 19.7746 8.34849 19.7452 8.31902C19.7157 8.28956 19.6893 8.25769 19.666 8.22309C19.6431 8.18814 19.6235 8.15182 19.6074 8.11311C19.5917 8.07473 19.5793 8.03499 19.5714 7.99387C19.5632 7.9531 19.5591 7.91164 19.5591 7.87019V5.11823H19.3473C19.3059 5.11823 19.2644 5.11412 19.2237 5.10589C19.1825 5.09801 19.1428 5.08568 19.1044 5.06992C19.0657 5.05382 19.0294 5.03429 18.9944 5.01099C18.9598 4.98803 18.9279 4.96165 18.8985 4.93218C18.869 4.90272 18.8426 4.87051 18.8193 4.83591C18.796 4.8013 18.7765 4.76464 18.7607 4.72627C18.7446 4.68755 18.7326 4.64781 18.7244 4.60703C18.7165 4.56626 18.7124 4.5248 18.7124 4.483C18.7124 4.44155 18.7165 4.40009 18.7244 4.35932C18.7326 4.3182 18.7446 4.27846 18.7607 4.24008C18.7765 4.20171 18.796 4.16505 18.8193 4.13044C18.8426 4.0955 18.869 4.06363 18.8985 4.03417C18.9279 4.0047 18.9598 3.97832 18.9944 3.95502C19.0294 3.93206 19.0657 3.91253 19.1044 3.89643C19.1428 3.88033 19.1825 3.86834 19.2237 3.86011C19.2644 3.85223 19.3059 3.84812 19.3473 3.84812H20.1944C20.2359 3.84846 20.277 3.85257 20.3178 3.86114C20.3585 3.86936 20.3983 3.8817 20.4367 3.8978C20.475 3.91356 20.5114 3.93343 20.546 3.95639C20.5806 3.97969 20.6124 4.00607 20.6419 4.03554C20.6714 4.065 20.6978 4.09687 20.7211 4.13147C20.744 4.16608 20.7639 4.20239 20.7797 4.24077C20.7958 4.27914 20.8081 4.31889 20.8163 4.35966C20.8249 4.40043 20.829 4.44155 20.8293 4.483V7.87019Z" fill="#64FFB7"/>
</g>
</svg>
