<svg width="175" height="116" viewBox="0 0 175 116" fill="none" xmlns="http://www.w3.org/2000/svg">
<path d="M29.8614 108.09C28.6134 108.09 27.5214 107.814 26.5854 107.262C25.6494 106.71 24.9174 105.954 24.3894 104.994C23.8734 104.034 23.6154 102.93 23.6154 101.682C23.6154 100.434 23.8734 99.33 24.3894 98.37C24.9174 97.41 25.6494 96.66 26.5854 96.12C27.5214 95.58 28.6134 95.31 29.8614 95.31C31.0974 95.31 32.1834 95.58 33.1194 96.12C34.0554 96.66 34.7874 97.41 35.3154 98.37C35.8434 99.33 36.1074 100.434 36.1074 101.682C36.1074 102.93 35.8434 104.034 35.3154 104.994C34.7874 105.954 34.0554 106.71 33.1194 107.262C32.1834 107.814 31.0974 108.09 29.8614 108.09ZM29.8614 105.822C29.1414 105.822 28.4814 105.66 27.8814 105.336C27.2934 105 26.8194 104.526 26.4594 103.914C26.1114 103.29 25.9374 102.546 25.9374 101.682C25.9374 100.806 26.1114 100.062 26.4594 99.45C26.8194 98.826 27.2934 98.352 27.8814 98.028C28.4814 97.692 29.1414 97.524 29.8614 97.524C30.7614 97.524 31.5474 97.764 32.2194 98.244C32.8914 98.724 33.3414 99.414 33.5694 100.314H31.9494C31.7934 99.822 31.5234 99.45 31.1394 99.198C30.7674 98.934 30.3294 98.802 29.8254 98.802C29.3934 98.802 28.9974 98.91 28.6374 99.126C28.2894 99.342 28.0074 99.666 27.7914 100.098C27.5874 100.518 27.4854 101.046 27.4854 101.682C27.4854 102.318 27.5874 102.852 27.7914 103.284C28.0074 103.716 28.2894 104.04 28.6374 104.256C28.9974 104.46 29.3934 104.562 29.8254 104.562C30.3534 104.562 30.7974 104.436 31.1574 104.184C31.5174 103.92 31.7814 103.548 31.9494 103.068H33.5694C33.3414 103.92 32.8914 104.592 32.2194 105.084C31.5474 105.576 30.7614 105.822 29.8614 105.822ZM29.8614 107.352C30.9894 107.352 31.9614 107.112 32.7774 106.632C33.5934 106.152 34.2234 105.486 34.6674 104.634C35.1114 103.782 35.3334 102.798 35.3334 101.682C35.3334 100.554 35.1114 99.564 34.6674 98.712C34.2234 97.86 33.5934 97.2 32.7774 96.732C31.9614 96.252 30.9894 96.012 29.8614 96.012C28.7334 96.012 27.7614 96.252 26.9454 96.732C26.1294 97.2 25.4994 97.86 25.0554 98.712C24.6114 99.564 24.3894 100.554 24.3894 101.682C24.3894 102.798 24.6114 103.782 25.0554 104.634C25.4994 105.486 26.1294 106.152 26.9454 106.632C27.7614 107.112 28.7334 107.352 29.8614 107.352ZM42.6391 108V106.704C43.4791 106.056 44.2771 105.402 45.0331 104.742C45.7891 104.082 46.4611 103.428 47.0491 102.78C47.6491 102.12 48.1171 101.478 48.4531 100.854C48.7891 100.218 48.9571 99.612 48.9571 99.036C48.9571 98.628 48.8851 98.25 48.7411 97.902C48.5971 97.554 48.3691 97.272 48.0571 97.056C47.7451 96.828 47.3191 96.714 46.7791 96.714C46.2631 96.714 45.8311 96.828 45.4831 97.056C45.1471 97.284 44.8891 97.59 44.7091 97.974C44.5411 98.346 44.4571 98.76 44.4571 99.216H42.7111C42.7231 98.352 42.9091 97.62 43.2691 97.02C43.6291 96.42 44.1151 95.964 44.7271 95.652C45.3511 95.34 46.0471 95.184 46.8151 95.184C47.6191 95.184 48.3151 95.334 48.9031 95.634C49.4911 95.922 49.9471 96.348 50.2711 96.912C50.5951 97.464 50.7571 98.142 50.7571 98.946C50.7571 99.522 50.6431 100.098 50.4151 100.674C50.1871 101.238 49.8751 101.79 49.4791 102.33C49.0951 102.87 48.6631 103.392 48.1831 103.896C47.7031 104.388 47.2051 104.856 46.6891 105.3C46.1851 105.744 45.6991 106.146 45.2311 106.506H51.1531V108H42.6391ZM58.0532 108.216C56.9372 108.216 55.9772 107.946 55.1732 107.406C54.3692 106.854 53.7512 106.092 53.3192 105.12C52.8872 104.136 52.6712 102.996 52.6712 101.7C52.6712 100.404 52.8872 99.27 53.3192 98.298C53.7512 97.314 54.3692 96.552 55.1732 96.012C55.9772 95.46 56.9372 95.184 58.0532 95.184C59.1692 95.184 60.1232 95.46 60.9152 96.012C61.7192 96.552 62.3312 97.314 62.7512 98.298C63.1832 99.27 63.3992 100.404 63.3992 101.7C63.3992 102.996 63.1832 104.136 62.7512 105.12C62.3312 106.092 61.7192 106.854 60.9152 107.406C60.1232 107.946 59.1692 108.216 58.0532 108.216ZM58.0532 106.614C58.7252 106.614 59.3252 106.416 59.8532 106.02C60.3932 105.624 60.8132 105.06 61.1132 104.328C61.4132 103.596 61.5632 102.72 61.5632 101.7C61.5632 100.68 61.4132 99.804 61.1132 99.072C60.8132 98.34 60.3932 97.782 59.8532 97.398C59.3252 97.002 58.7252 96.804 58.0532 96.804C57.3692 96.804 56.7572 97.002 56.2172 97.398C55.6772 97.782 55.2572 98.34 54.9572 99.072C54.6572 99.804 54.5072 100.68 54.5072 101.7C54.5072 102.72 54.6572 103.596 54.9572 104.328C55.2572 105.06 55.6772 105.624 56.2172 106.02C56.7572 106.416 57.3692 106.614 58.0532 106.614ZM65.1743 108V106.704C66.0143 106.056 66.8123 105.402 67.5683 104.742C68.3243 104.082 68.9963 103.428 69.5843 102.78C70.1843 102.12 70.6523 101.478 70.9883 100.854C71.3243 100.218 71.4923 99.612 71.4923 99.036C71.4923 98.628 71.4203 98.25 71.2763 97.902C71.1323 97.554 70.9043 97.272 70.5923 97.056C70.2803 96.828 69.8543 96.714 69.3143 96.714C68.7983 96.714 68.3663 96.828 68.0183 97.056C67.6823 97.284 67.4243 97.59 67.2443 97.974C67.0763 98.346 66.9923 98.76 66.9923 99.216H65.2463C65.2583 98.352 65.4443 97.62 65.8043 97.02C66.1643 96.42 66.6503 95.964 67.2623 95.652C67.8863 95.34 68.5823 95.184 69.3503 95.184C70.1543 95.184 70.8503 95.334 71.4383 95.634C72.0263 95.922 72.4823 96.348 72.8063 96.912C73.1303 97.464 73.2923 98.142 73.2923 98.946C73.2923 99.522 73.1783 100.098 72.9503 100.674C72.7223 101.238 72.4103 101.79 72.0143 102.33C71.6303 102.87 71.1983 103.392 70.7183 103.896C70.2383 104.388 69.7403 104.856 69.2243 105.3C68.7203 105.744 68.2343 106.146 67.7663 106.506H73.6883V108H65.1743ZM80.153 108.216C79.265 108.216 78.503 108.06 77.867 107.748C77.231 107.424 76.727 106.992 76.355 106.452C75.983 105.9 75.755 105.282 75.671 104.598H77.435C77.555 105.21 77.855 105.714 78.335 106.11C78.815 106.494 79.421 106.686 80.153 106.686C80.705 106.686 81.179 106.554 81.575 106.29C81.971 106.026 82.277 105.672 82.493 105.228C82.709 104.784 82.817 104.292 82.817 103.752C82.817 103.176 82.703 102.678 82.475 102.258C82.259 101.826 81.953 101.49 81.557 101.25C81.173 101.01 80.723 100.89 80.207 100.89C79.583 100.89 79.043 101.034 78.587 101.322C78.143 101.598 77.819 101.952 77.615 102.384H75.869L76.913 95.4H83.699V96.966H78.299L77.633 100.494C77.921 100.17 78.305 99.906 78.785 99.702C79.277 99.498 79.835 99.396 80.459 99.396C81.095 99.396 81.665 99.51 82.169 99.738C82.673 99.954 83.099 100.26 83.447 100.656C83.807 101.052 84.077 101.514 84.257 102.042C84.449 102.57 84.545 103.128 84.545 103.716C84.545 104.352 84.443 104.94 84.239 105.48C84.035 106.02 83.741 106.5 83.357 106.92C82.985 107.328 82.523 107.646 81.971 107.874C81.431 108.102 80.825 108.216 80.153 108.216ZM95.5991 108.216C94.6751 108.216 93.8651 108.054 93.1691 107.73C92.4731 107.394 91.9331 106.926 91.5491 106.326C91.1651 105.726 90.9731 105.024 90.9731 104.22H92.8631C92.8751 104.676 92.9831 105.096 93.1871 105.48C93.4031 105.852 93.7091 106.152 94.1051 106.38C94.5131 106.596 95.0111 106.704 95.5991 106.704C96.1031 106.704 96.5351 106.62 96.8951 106.452C97.2671 106.284 97.5491 106.056 97.7411 105.768C97.9331 105.468 98.0291 105.126 98.0291 104.742C98.0291 104.298 97.9271 103.932 97.7231 103.644C97.5191 103.356 97.2431 103.122 96.8951 102.942C96.5591 102.75 96.1631 102.582 95.7071 102.438C95.2631 102.294 94.7951 102.138 94.3031 101.97C93.3071 101.646 92.5631 101.226 92.0711 100.71C91.5911 100.194 91.3511 99.522 91.3511 98.694C91.3511 97.986 91.5191 97.374 91.8551 96.858C92.1911 96.33 92.6591 95.922 93.2591 95.634C93.8711 95.334 94.5911 95.184 95.4191 95.184C96.2351 95.184 96.9491 95.334 97.5611 95.634C98.1731 95.934 98.6531 96.348 99.0011 96.876C99.3491 97.404 99.5231 98.022 99.5231 98.73H97.6151C97.6151 98.406 97.5311 98.088 97.3631 97.776C97.1951 97.464 96.9431 97.212 96.6071 97.02C96.2711 96.816 95.8571 96.714 95.3651 96.714C94.9571 96.702 94.5911 96.768 94.2671 96.912C93.9431 97.056 93.6911 97.266 93.5111 97.542C93.3311 97.818 93.2411 98.148 93.2411 98.532C93.2411 98.916 93.3191 99.228 93.4751 99.468C93.6431 99.696 93.8831 99.894 94.1951 100.062C94.5071 100.23 94.8671 100.386 95.2751 100.53C95.6951 100.662 96.1571 100.812 96.6611 100.98C97.2851 101.184 97.8371 101.436 98.3171 101.736C98.8091 102.024 99.1931 102.402 99.4691 102.87C99.7571 103.326 99.9011 103.914 99.9011 104.634C99.9011 105.258 99.7391 105.84 99.4151 106.38C99.0911 106.92 98.6111 107.364 97.9751 107.712C97.3391 108.048 96.5471 108.216 95.5991 108.216ZM104.958 108.216C104.214 108.216 103.596 108.09 103.104 107.838C102.612 107.586 102.246 107.25 102.006 106.83C101.766 106.398 101.646 105.936 101.646 105.444C101.646 104.844 101.802 104.334 102.114 103.914C102.426 103.482 102.87 103.152 103.446 102.924C104.022 102.696 104.712 102.582 105.516 102.582H107.874C107.874 102.054 107.796 101.616 107.64 101.268C107.484 100.92 107.25 100.662 106.938 100.494C106.638 100.314 106.254 100.224 105.786 100.224C105.246 100.224 104.784 100.356 104.4 100.62C104.016 100.872 103.776 101.25 103.68 101.754H101.88C101.952 101.118 102.168 100.578 102.528 100.134C102.9 99.678 103.374 99.33 103.95 99.09C104.526 98.838 105.138 98.712 105.786 98.712C106.638 98.712 107.352 98.862 107.928 99.162C108.504 99.462 108.936 99.888 109.224 100.44C109.524 100.98 109.674 101.628 109.674 102.384V108H108.108L107.964 106.47C107.832 106.71 107.676 106.938 107.496 107.154C107.316 107.37 107.1 107.556 106.848 107.712C106.608 107.868 106.326 107.988 106.002 108.072C105.69 108.168 105.342 108.216 104.958 108.216ZM105.3 106.758C105.684 106.758 106.032 106.68 106.344 106.524C106.656 106.368 106.92 106.158 107.136 105.894C107.364 105.618 107.532 105.312 107.64 104.976C107.76 104.628 107.826 104.274 107.838 103.914V103.86H105.696C105.18 103.86 104.76 103.926 104.436 104.058C104.124 104.178 103.896 104.346 103.752 104.562C103.608 104.778 103.536 105.03 103.536 105.318C103.536 105.618 103.602 105.876 103.734 106.092C103.878 106.296 104.082 106.458 104.346 106.578C104.61 106.698 104.928 106.758 105.3 106.758ZM112.734 111.96L114.948 106.992H114.426L110.844 98.928H112.788L115.632 105.516L118.494 98.928H120.384L114.624 111.96H112.734ZM123.017 111.96L125.231 106.992H124.709L121.127 98.928H123.071L125.915 105.516L128.777 98.928H130.667L124.907 111.96H123.017ZM136.142 108L140.768 95.4H142.73L147.356 108H145.43L141.74 97.56L138.032 108H136.142ZM138.23 104.886L138.734 103.446H144.656L145.16 104.886H138.23ZM149.151 108V95.4H150.951V108H149.151Z" fill="white"/>
<path d="M74.7327 0.000186824C104.961 0.000186824 129.466 16.8459 129.466 37.6273C129.466 47.7042 123.693 56.8486 114.309 63.603C114.575 65.1146 114.95 66.6102 115.556 68.0642C117.508 72.7412 121.269 76.6112 125.421 79.8705C118.858 80.193 112.177 80.0015 105.882 78.2708C101.753 77.1349 97.8005 75.267 94.5503 72.7002C88.4032 74.3428 81.7246 75.2543 74.7327 75.2543C44.5049 75.2543 20 58.4077 20 37.6271C20 16.8457 44.5049 0 74.7327 0V0.000186824Z" fill="white"/>
<path d="M74.7345 3.04688C102.668 3.04688 125.808 18.6136 125.808 37.8172C125.808 47.1291 118.787 55.9757 110.116 62.2175C110.862 66.4607 114.284 74.4444 117.557 77.0132C110.471 77.0132 103.563 74.3779 94.9159 68.9675C94.2041 69.6793 80.7867 71.9923 74.7345 71.9923C46.8019 71.9923 23.5625 57.0199 23.5625 37.8172C23.5625 18.6138 46.8017 3.04688 74.7345 3.04688Z" fill="black"/>
<path fill-rule="evenodd" clip-rule="evenodd" d="M60.1429 50.0988C58.0506 50.0988 56.3096 49.4776 54.9202 48.235C53.5304 46.9925 52.8359 45.3086 52.8359 43.1828C52.8359 41.1241 53.5715 39.359 55.0425 37.888C56.5145 36.4169 58.8031 35.4851 61.9085 35.0924L65.2434 34.6515C65.799 34.5864 66.2644 34.3568 66.6403 33.9641C67.0171 33.5712 67.2054 33.0156 67.2054 32.2967C67.2054 30.8257 66.7475 29.6733 65.8326 28.8397C64.9174 28.0059 63.7568 27.5891 62.3515 27.5891C60.6505 27.5891 59.3012 28.1698 58.3032 29.3307C57.7016 30.0306 57.2758 30.8703 57.0257 31.7671C56.6903 33.41 53.757 33.7919 53.4979 31.7671C53.5298 30.231 53.9072 29.3307 54.6758 28.1042C55.4438 26.8777 56.4979 25.9133 57.8382 25.2105C59.1794 24.508 60.7166 24.1562 62.4496 24.1562C65.064 24.1562 67.1071 24.9415 68.5782 26.511C70.0493 28.0797 70.7846 30.1553 70.7846 32.7376V45.0467C70.7846 46.1264 71.1775 46.6659 71.9631 46.6659C72.2887 46.6659 72.6069 46.5768 72.917 46.3974C73.2281 46.217 73.5965 45.8979 74.0214 45.4394L75.5905 48.0387C75.0343 48.7576 74.356 49.2809 73.5543 49.6078C72.7537 49.9349 71.9782 50.0988 71.2276 50.0988C70.0823 50.0988 69.1663 49.7801 68.4801 49.1428C67.7932 48.5046 67.3523 47.6949 67.1574 46.7139L67.0091 46.1747H66.961C65.49 48.791 63.2174 50.0988 60.143 50.0988H60.1429ZM61.0749 46.7139C62.8074 46.7139 64.2298 46.0281 65.3416 44.6557C66.4529 43.2823 67.0091 41.5002 67.0091 39.3088V37.6914L62.546 38.2306C60.5526 38.5247 59.0568 39.0883 58.0588 39.9221C57.0617 40.7559 56.5638 41.7614 56.5638 42.9382C56.5638 44.1156 56.9887 45.0394 57.8384 45.7097C58.689 46.3791 59.7683 46.7137 61.0749 46.7137V46.7139Z" fill="white"/>
<path fill-rule="evenodd" clip-rule="evenodd" d="M80.2832 60.591C78.0932 60.591 76.1317 60.0429 74.3993 58.9477C73.5784 58.4293 72.82 57.8477 72.2338 57.1114C70.317 54.704 74.1284 52.7825 76.2872 55.8354C77.1404 57.0421 78.7968 57.2082 80.3334 57.2082C82.1957 57.2082 83.6828 56.5459 84.7946 55.222C85.9059 53.8978 86.462 52.0421 86.462 49.6547V47.5965H86.414C85.858 48.7404 85.0573 49.6386 84.0113 50.292C82.965 50.9462 81.8207 51.2739 80.5782 51.2739C78.3546 51.2739 76.6141 50.563 75.3555 49.1415C74.097 47.7186 73.4676 45.7161 73.4676 43.1334C73.4676 37.0364 73.4676 32.1372 73.4676 26.04C73.6081 23.3277 77.3663 23.6331 77.1953 26.04V43.1334C77.1953 44.6045 77.5706 45.7658 78.3217 46.6166C79.0737 47.4662 80.1038 47.8911 81.412 47.8911C82.9817 47.8911 84.2076 47.4171 85.0894 46.4682C85.9722 45.5197 86.414 44.1955 86.414 42.4962C86.414 36.6116 86.414 31.9246 86.414 26.04C86.4723 23.4803 90.1898 23.3275 90.1417 26.04L90.1898 49.6547C90.1898 53.0881 89.315 55.7691 87.5665 57.6971C85.8173 59.626 83.3899 60.591 80.2835 60.591H80.2832Z" fill="white"/>
<path fill-rule="evenodd" clip-rule="evenodd" d="M44.5237 50.2951C42.7249 50.2951 41.1233 49.9189 39.7178 49.1667C38.3119 48.4148 37.2087 47.3685 36.4069 46.0285C35.6063 44.6872 35.1893 43.1506 35.1562 41.4191C35.1562 39.2494 38.4418 38.7989 38.8238 41.4429C38.9675 43.0921 39.5186 44.3758 40.4772 45.2929C41.606 46.3713 43.0203 46.9103 44.7198 46.9103C46.1251 46.9103 47.3021 46.5915 48.251 45.9543C49.1995 45.317 49.6739 44.4263 49.6739 43.2808C49.6404 42.4312 49.3051 41.6796 48.6678 41.0262C48.0306 40.372 47.0088 39.7833 45.6035 39.2608L42.3167 38.0343C40.2895 37.2823 38.8186 36.3588 37.9037 35.2648C36.9884 34.1696 36.5309 32.8038 36.5309 31.1685C36.5309 29.7966 36.8577 28.5872 37.511 27.5411C38.1643 26.494 39.0467 25.6682 40.1585 25.064C41.2697 24.4587 42.5293 24.1562 43.9361 24.1562C45.4072 24.1562 46.7308 24.475 47.9084 25.1122C49.0852 25.7497 50.0251 26.6328 50.7281 27.7616C51.4306 28.8894 51.7824 30.2217 51.7824 31.7575C51.7021 33.7861 48.2977 33.7132 48.1029 31.7686C48.0709 30.004 47.6539 29.5923 46.8523 28.7915C46.0517 27.9899 45.063 27.5891 43.8862 27.5891C42.7744 27.5891 41.8831 27.8918 41.2128 28.4969C40.5434 29.1011 40.1918 29.8934 40.1587 30.8739C40.1587 31.7572 40.4774 32.5263 41.1147 33.1806C41.7529 33.8339 42.7752 34.4545 44.1808 35.0425L47.3193 36.2208C49.3794 37.0374 50.883 37.9853 51.8306 39.0646C52.7791 40.1428 53.2695 41.4509 53.3016 42.9886C53.3016 44.3945 52.9254 45.6451 52.1732 46.7403C51.4222 47.8345 50.3846 48.7012 49.0609 49.3395C47.7367 49.977 46.2241 50.2955 44.5237 50.2955V50.2951Z" fill="white"/>
<path d="M123.592 63.7889C120.552 60.4831 118.695 56.0713 118.695 51.2258C118.695 40.9701 127.009 32.6562 137.265 32.6562C147.521 32.6562 155.834 40.9701 155.834 51.2258C155.834 61.4815 147.521 69.7951 137.265 69.7951C134.036 69.7951 131.001 68.9703 128.356 67.5213C122.89 71.0609 118.695 69.4103 118.695 69.4103C121.815 67.5476 123.106 65.0661 123.592 63.7888V63.7889Z" fill="white"/>
<path d="M137.715 57.7055L137.023 55.8866H131.132L130.44 57.7425C130.17 58.468 129.941 58.9574 129.748 59.2104C129.559 59.4635 129.245 59.5917 128.81 59.5917C128.442 59.5917 128.115 59.4568 127.831 59.1869C127.548 58.9169 127.406 58.6098 127.406 58.269C127.406 58.07 127.44 57.8642 127.504 57.6549C127.572 57.4423 127.68 57.1522 127.831 56.7742L131.537 47.3661C131.645 47.0962 131.769 46.7722 131.918 46.3943C132.066 46.013 132.225 45.6991 132.394 45.4495C132.562 45.1997 132.782 44.9972 133.055 44.8422C133.329 44.6869 133.666 44.6094 134.068 44.6094C134.479 44.6094 134.82 44.6871 135.094 44.8422C135.367 44.9974 135.586 45.1966 135.755 45.4394C135.924 45.6825 136.065 45.9455 136.18 46.2256C136.295 46.5056 136.443 46.8802 136.619 47.346L140.405 56.6967C140.702 57.4087 140.85 57.9251 140.85 58.2488C140.85 58.5829 140.712 58.8934 140.432 59.1734C140.152 59.4535 139.811 59.5919 139.416 59.5919C139.187 59.5919 138.988 59.5514 138.822 59.4671C138.66 59.386 138.522 59.2747 138.407 59.1331C138.296 58.9913 138.178 58.7719 138.05 58.4818C137.918 58.1883 137.81 57.9284 137.715 57.7057L137.715 57.7055ZM131.904 53.6799H136.234L134.051 47.7071L131.904 53.6799Z" fill="black"/>
<path d="M143.133 57.8034V46.3876C143.133 45.7937 143.268 45.3516 143.538 45.0548C143.808 44.7577 144.158 44.6094 144.587 44.6094C145.026 44.6094 145.383 44.7545 145.657 45.048C145.93 45.3415 146.068 45.7869 146.068 46.3876V57.8034C146.068 58.4041 145.93 58.8495 145.657 59.1463C145.383 59.4434 145.026 59.5917 144.587 59.5917C144.165 59.5917 143.818 59.4432 143.544 59.1428C143.271 58.8426 143.133 58.397 143.133 57.8033V57.8034Z" fill="black"/>
<path fill-rule="evenodd" clip-rule="evenodd" d="M100.353 60.6029C98.1573 60.6029 96.1908 60.0534 94.4538 58.9553C92.9226 57.9885 91.7355 56.6962 90.8922 55.0794C90.7786 54.8616 90.3777 53.9245 89.375 53.7946L90.0418 49.6386C92.583 50.0825 93.9694 52.7751 94.1426 53.1101C94.7175 54.2215 95.4519 55.1299 96.3468 55.835C97.5105 56.7523 98.8627 57.2113 100.403 57.2113C102.27 57.2113 103.761 56.5473 104.876 55.2201C105.99 53.8925 106.548 52.0321 106.548 49.6386V47.5751H106.499C105.942 48.7218 105.139 49.6223 104.09 50.2775C103.041 50.9334 101.894 51.2619 100.648 51.2619C98.4192 51.2619 96.6743 50.5491 95.4124 49.1241C94.1506 47.6977 93.5197 45.6899 93.5197 43.1005C93.5197 37.459 93.5197 31.9165 93.5197 26.2749C93.5001 23.3596 97.6063 23.4145 97.257 26.2749V43.1005C97.257 44.5753 97.6332 45.7396 98.3861 46.5924C99.1402 47.4443 100.173 47.8703 101.484 47.8703C103.058 47.8703 104.287 47.3952 105.171 46.4439C106.056 45.4929 106.499 44.1654 106.499 42.4617C106.499 37.033 106.499 31.7037 106.499 26.2749C106.48 23.3594 110.285 23.2495 110.236 26.2749L110.285 49.6386C110.285 53.0808 109.408 55.7686 107.655 57.7015C105.901 59.6353 103.468 60.6027 100.353 60.6027L100.353 60.6029Z" fill="white"/>
</svg>
