<svg width="153" height="90" viewBox="0 0 153 90" fill="none" xmlns="http://www.w3.org/2000/svg">
<path d="M61.5752 0.000210177C95.5826 0.000210177 123.151 18.9516 123.151 42.3307C123.151 53.6672 116.656 63.9547 106.099 71.5534C106.398 73.254 106.82 74.9364 107.502 76.5722C109.699 81.8338 113.93 86.1876 118.6 89.8543C111.217 90.2171 103.701 90.0017 96.6188 88.0546C91.9736 86.7767 87.527 84.6754 83.8704 81.7878C76.9548 83.6357 69.4413 84.6611 61.5752 84.6611C27.5685 84.6611 0 65.7086 0 42.3304C0 18.9514 27.5685 0 61.5752 0V0.000210177Z" fill="white"/>
<path d="M61.5772 3.42969C93.0025 3.42969 119.036 20.9422 119.036 42.5463C119.036 53.0222 111.137 62.9747 101.382 69.9967C102.221 74.7702 106.071 83.7519 109.753 86.6418C101.781 86.6418 94.0099 83.6771 84.2816 77.5904C83.4809 78.3911 68.386 80.9933 61.5772 80.9933C30.1525 80.9933 4.00781 64.1493 4.00781 42.5463C4.00781 20.9425 30.1523 3.42969 61.5772 3.42969Z" fill="black"/>
<path fill-rule="evenodd" clip-rule="evenodd" d="M45.1579 56.3572C42.8041 56.3572 40.8454 55.6584 39.2823 54.2605C37.7187 52.8626 36.9375 50.9683 36.9375 48.5767C36.9375 46.2608 37.765 44.275 39.42 42.6201C41.076 40.9651 43.6507 39.9168 47.1443 39.475L50.8961 38.979C51.5212 38.9058 52.0447 38.6475 52.4676 38.2057C52.8915 37.7637 53.1034 37.1387 53.1034 36.3299C53.1034 34.675 52.5883 33.3786 51.559 32.4408C50.5293 31.5028 49.2237 31.0339 47.6427 31.0339C45.729 31.0339 44.211 31.6871 43.0883 32.9931C42.4115 33.7805 41.9325 34.7252 41.651 35.7341C41.2738 37.5824 37.9737 38.012 37.6822 35.7341C37.7181 34.006 38.1427 32.9931 39.0074 31.6133C39.8714 30.2335 41.0573 29.1486 42.5651 28.3579C44.074 27.5676 45.8034 27.1719 47.753 27.1719C50.6943 27.1719 52.9929 28.0552 54.6478 29.8209C56.3028 31.5858 57.1301 33.9209 57.1301 36.8259V50.6736C57.1301 51.8882 57.5721 52.4952 58.4559 52.4952C58.8222 52.4952 59.1802 52.395 59.5291 52.1932C59.879 51.9902 60.2935 51.6312 60.7715 51.1154L62.5368 54.0396C61.9111 54.8484 61.1479 55.4371 60.246 55.8049C59.3454 56.1729 58.4729 56.3572 57.6284 56.3572C56.34 56.3572 55.3095 55.9987 54.5375 55.2818C53.7646 54.5638 53.2686 53.6529 53.0494 52.5492L52.8825 51.9427H52.8285C51.1735 54.886 48.6169 56.3572 45.1581 56.3572H45.1579ZM46.2065 52.5492C48.1555 52.5492 49.7558 51.7777 51.0066 50.2337C52.2568 48.6887 52.8825 46.6838 52.8825 44.2185V42.399L47.8615 43.0055C45.6188 43.3364 43.9361 43.9705 42.8133 44.9085C41.6916 45.8465 41.1315 46.9777 41.1315 48.3016C41.1315 49.6261 41.6094 50.6654 42.5653 51.4195C43.5223 52.1726 44.7365 52.549 46.2065 52.549V52.5492Z" fill="white"/>
<path fill-rule="evenodd" clip-rule="evenodd" d="M67.8236 68.1649C65.3598 68.1649 63.1531 67.5482 61.2041 66.3161C60.2806 65.7329 59.4275 65.0786 58.7679 64.2503C56.6114 61.542 60.8994 59.3803 63.328 62.8148C64.2879 64.1723 66.1514 64.3592 67.8801 64.3592C69.9752 64.3592 71.6483 63.6141 72.8991 62.1248C74.1492 60.6351 74.7749 58.5474 74.7749 55.8615V53.546H74.7209C74.0954 54.8329 73.1946 55.8435 72.0178 56.5784C70.8407 57.3145 69.5534 57.6831 68.1555 57.6831C65.6539 57.6831 63.6958 56.8834 62.2798 55.2842C60.8641 53.6835 60.1559 51.4306 60.1559 48.5251C60.1559 41.666 60.1559 36.1543 60.1559 29.295C60.314 26.2436 64.542 26.5873 64.3497 29.295V48.5251C64.3497 50.18 64.772 51.4865 65.6169 52.4436C66.4629 53.3995 67.6218 53.8775 69.0935 53.8775C70.8594 53.8775 72.2387 53.3442 73.2307 52.2768C74.2238 51.2097 74.7209 49.72 74.7209 47.8082C74.7209 41.188 74.7209 35.9151 74.7209 29.295C74.7865 26.4153 78.9687 26.2434 78.9147 29.295L78.9687 55.8615C78.9687 59.7242 77.9846 62.7402 76.0175 64.9092C74.0496 67.0793 71.3187 68.1649 67.824 68.1649H67.8236Z" fill="white"/>
<path fill-rule="evenodd" clip-rule="evenodd" d="M27.5854 56.5781C25.5618 56.5781 23.7599 56.1548 22.1787 55.3087C20.5971 54.4627 19.3559 53.2857 18.4538 51.7781C17.5532 50.2692 17.0841 48.5405 17.0469 46.5926C17.0469 44.1516 20.7431 43.6449 21.173 46.6193C21.3346 48.4748 21.9546 49.9189 23.0331 50.9506C24.303 52.1638 25.8941 52.7701 27.8061 52.7701C29.3871 52.7701 30.7112 52.4116 31.7787 51.6947C32.8458 50.9778 33.3795 49.9756 33.3795 48.687C33.3418 47.7312 32.9646 46.8856 32.2476 46.1506C31.5307 45.4146 30.3812 44.7523 28.8002 44.1645L25.1025 42.7846C22.8218 41.9387 21.1671 40.8998 20.1378 39.669C19.1081 38.4369 18.5934 36.9003 18.5934 35.0606C18.5934 33.5173 18.961 32.1566 19.696 30.9799C20.431 29.8018 21.4237 28.8728 22.6745 28.1931C23.9246 27.5122 25.3417 27.1719 26.9244 27.1719C28.5793 27.1719 30.0685 27.5304 31.3932 28.2474C32.7172 28.9645 33.7746 29.958 34.5655 31.2279C35.3558 32.4967 35.7516 33.9955 35.7516 35.7233C35.6612 38.0054 31.8313 37.9235 31.612 35.7357C31.5761 33.7506 31.107 33.2874 30.2051 32.3866C29.3045 31.4847 28.1922 31.0339 26.8682 31.0339C25.6175 31.0339 24.6147 31.3744 23.8605 32.0551C23.1075 32.7348 22.7119 33.6262 22.6747 34.7292C22.6747 35.7229 23.0333 36.5882 23.7502 37.3243C24.4682 38.0592 25.6183 38.7574 27.1997 39.4189L30.7305 40.7445C33.0482 41.6631 34.7398 42.7296 35.8058 43.9438C36.8729 45.1567 37.4246 46.6284 37.4608 48.3583C37.4608 49.9399 37.0375 51.3468 36.1913 52.5789C35.3463 53.8099 34.179 54.7849 32.6899 55.5031C31.2001 56.2202 29.4985 56.5785 27.5854 56.5785V56.5781Z" fill="white"/>
<path d="M116.54 71.7587C113.12 68.0396 111.031 63.0763 111.031 57.6251C111.031 46.0875 120.385 36.7344 131.922 36.7344C143.46 36.7344 152.813 46.0875 152.813 57.6251C152.813 69.1628 143.46 78.5156 131.922 78.5156C128.29 78.5156 124.875 77.5877 121.9 75.9576C115.751 79.9396 111.031 78.0827 111.031 78.0827C114.541 75.9872 115.994 73.1954 116.54 71.7584V71.7587Z" fill="white"/>
<path d="M132.434 64.9207L131.655 62.8744H125.027L124.249 64.9623C123.945 65.7784 123.687 66.3291 123.471 66.6137C123.258 66.8984 122.905 67.0426 122.415 67.0426C122.001 67.0426 121.633 66.8909 121.314 66.5872C120.995 66.2835 120.836 65.9379 120.836 65.5546C120.836 65.3307 120.874 65.0991 120.946 64.8637C121.022 64.6245 121.144 64.2981 121.314 63.873L125.483 53.2889C125.604 52.9852 125.745 52.6207 125.912 52.1955C126.079 51.7666 126.257 51.4135 126.447 51.1327C126.637 50.8517 126.883 50.6238 127.191 50.4494C127.499 50.2747 127.878 50.1875 128.33 50.1875C128.793 50.1875 129.177 50.2749 129.484 50.4494C129.792 50.624 130.039 50.8481 130.228 51.1213C130.418 51.3948 130.578 51.6907 130.707 52.0057C130.836 52.3208 131.003 52.7422 131.2 53.2662L135.46 63.7857C135.794 64.5867 135.961 65.1676 135.961 65.5319C135.961 65.9077 135.805 66.257 135.49 66.572C135.175 66.8871 134.792 67.0428 134.347 67.0428C134.089 67.0428 133.865 66.9972 133.679 66.9024C133.497 66.8112 133.341 66.686 133.212 66.5266C133.087 66.3671 132.954 66.1204 132.81 65.794C132.662 65.4638 132.54 65.1714 132.434 64.9209L132.434 64.9207ZM125.896 60.3918H130.767L128.311 53.6724L125.896 60.3918Z" fill="black"/>
<path d="M138.523 65.0308V52.188C138.523 51.5198 138.675 51.0225 138.979 50.6886C139.283 50.3544 139.677 50.1875 140.159 50.1875C140.653 50.1875 141.055 50.3508 141.363 50.681C141.67 51.0112 141.826 51.5122 141.826 52.188V65.0308C141.826 65.7065 141.67 66.2076 141.363 66.5416C141.055 66.8757 140.653 67.0426 140.159 67.0426C139.685 67.0426 139.294 66.8755 138.986 66.5376C138.679 66.1998 138.523 65.6986 138.523 65.0306V65.0308Z" fill="black"/>
<path fill-rule="evenodd" clip-rule="evenodd" d="M90.3971 68.1802C87.9271 68.1802 85.7147 67.5621 83.7607 66.3266C82.038 65.239 80.7025 63.7852 79.7538 61.9663C79.626 61.7213 79.1749 60.667 78.0469 60.5209L78.797 55.8453C81.6559 56.3447 83.2157 59.374 83.4105 59.7508C84.0572 61.0012 84.8835 62.0231 85.8902 62.8163C87.1994 63.8482 88.7207 64.3646 90.4539 64.3646C92.5544 64.3646 94.2317 63.6177 95.4856 62.1246C96.739 60.6311 97.3664 58.5381 97.3664 55.8453V53.5239H97.3119C96.6847 54.814 95.7818 55.8271 94.6018 56.5641C93.4219 57.3021 92.1311 57.6716 90.7297 57.6716C88.2218 57.6716 86.2587 56.8697 84.8391 55.2665C83.4195 53.6618 82.7098 51.403 82.7098 48.49C82.7098 42.1433 82.7098 35.908 82.7098 29.5613C82.6877 26.2815 87.3073 26.3432 86.9142 29.5613V48.49C86.9142 50.1491 87.3375 51.459 88.1846 52.4184C89.0329 53.3768 90.1947 53.856 91.6702 53.856C93.4406 53.856 94.8236 53.3215 95.8179 52.2513C96.8136 51.1815 97.3119 49.688 97.3119 47.7714C97.3119 41.6641 97.3119 35.6686 97.3119 29.5613C97.2898 26.2812 101.571 26.1577 101.516 29.5613L101.571 55.8453C101.571 59.7178 100.584 62.7417 98.6119 64.9161C96.6391 67.0917 93.9013 68.18 90.3976 68.18L90.3971 68.1802Z" fill="white"/>
</svg>
