<svg width="403" height="313" viewBox="0 0 403 313" fill="none" xmlns="http://www.w3.org/2000/svg">
<path opacity="0.45" d="M402.177 124.086V312.946C350.827 313.164 307.744 311.423 275.76 309.574C196.56 304.787 170.015 298.368 160.877 295.975C128.457 287.598 88.096 276.393 50.019 243.211C21.298 218.19 10.419 194.8 7.37302 187.837C6.50302 185.879 4.76199 181.636 2.80399 175.652C2.15099 170.648 1.49903 164.773 0.737031 158.355C-0.241969 148.781 -0.567956 143.886 1.82504 138.011C4.21804 132.027 8.35201 127.676 10.311 125.717C14.445 121.366 18.47 118.864 21.19 117.232C23.801 115.6 27.935 113.098 33.701 111.248C40.446 109.073 45.885 109.073 55.676 108.964C60.246 108.855 64.162 109.073 66.773 109.181C65.468 106.57 63.836 102.436 63.183 97.2143C62.857 94.2773 61.551 81.0053 70.146 70.9963C74.497 65.8833 79.61 63.9242 89.728 60.1172C98.649 56.7442 106.482 55.0042 111.921 54.1332C109.637 51.7402 106.373 47.6063 106.917 43.0373C107.461 39.2293 110.289 37.2712 115.076 33.0282C123.671 25.3042 120.407 26.3923 130.307 17.2533C139.228 8.98528 143.688 4.85127 148.91 3.11027C151.63 2.13127 156.634 2.02226 166.643 1.58726C176.216 1.15226 182.526 0.93526 191.121 1.58726C194.711 1.80526 197.975 2.24026 200.694 2.56626C200.912 4.96026 201.456 7.46222 202.217 10.0732C203.305 13.5542 206.243 22.6933 215.055 29.6553C219.189 32.9193 223.323 34.6603 226.151 35.6393C228.436 31.0703 232.461 24.2162 239.315 17.7972C251.282 6.59222 264.446 3.54526 270.864 2.02226C276.195 0.826257 286.204 -1.34974 299.041 1.15226C313.51 3.98126 322.975 11.1612 325.917 13.4452C337.227 22.5842 342.017 33.0283 342.997 35.2043C346.367 42.9283 347.347 49.8902 347.557 54.4602C347.457 56.6352 347.457 59.8993 348.327 63.7073C349.517 68.9293 351.587 72.3013 355.067 77.8503C364.967 93.9513 363.447 92.4283 365.077 94.3863C367.037 96.6703 367.147 96.4533 382.377 109.399C388.687 114.73 390.427 116.253 393.907 118.755C397.167 121.039 399.997 122.889 402.177 124.086Z" fill="#00FFFF"/>
</svg>
