<svg width="254" height="275" viewBox="0 0 254 275" fill="none" xmlns="http://www.w3.org/2000/svg">
<path opacity="0.45" d="M247.94 257.181C248.91 247.607 249.24 242.712 246.85 236.837C244.45 230.853 240.21 226.502 238.36 224.544C234.23 220.192 230.2 217.69 227.48 216.058C224.87 214.426 220.74 211.924 214.86 210.074C208.12 207.899 202.68 207.899 192.89 207.79C188.32 207.681 184.4 207.899 181.79 208.007C183.1 205.396 184.73 201.262 185.38 196.04C185.71 193.103 187.01 179.831 178.42 169.822C174.07 164.709 168.95 162.75 158.84 158.943C149.92 155.57 142.08 153.83 136.64 152.959C138.93 150.566 142.19 146.432 141.65 141.863C141.1 138.055 138.27 136.097 133.6 131.854C125 124.13 128.27 125.218 118.37 116.079C109.45 107.811 104.98 103.677 99.76 101.936C97.15 100.957 92.04 100.849 82.03 100.413C72.46 99.978 66.1499 99.761 57.5499 100.413C53.9599 100.631 50.7 101.066 47.98 101.392C48.41 97.585 48.3 93.777 48.2 89.752C47.98 83.986 47.98 81.049 46.89 78.655C45.15 74.739 41.45 70.605 22.63 64.186C17.63 62.445 10.12 59.943 0 57.659C1.63 53.742 2.28999 50.478 2.60999 48.194C3.69999 40.361 3.69995 37.75 3.69995 37.75C3.69995 35.248 3.59002 33.398 4.90002 32.093C6.20002 30.787 8.16002 30.787 9.90002 31.005C16.76 31.549 22.3 34.16 24.7 35.248C37.43 41.231 34.71 39.817 36.77 40.905C48.74 46.888 54.72 49.934 56.79 51.131C58.97 52.437 65.6 56.679 73.76 60.378C75.07 61.031 77.1299 61.901 80.0699 62.119C85.7299 62.445 89.86 59.29 90.62 58.747C97.37 53.416 96.9299 44.495 96.9299 43.733C99.4399 44.277 101.61 44.495 103.14 44.604C105.53 44.712 106.29 44.604 106.94 44.06C108.14 43.081 108.14 41.34 108.03 40.143C108.03 37.532 107.05 35.574 106.18 33.942C104.55 30.896 102.81 29.047 101.07 26.98C98.4599 24.042 96.0599 20.996 93.5599 18.059C93.5599 18.059 91.28 15.339 86.16 9.24701C84.42 7.07101 82.14 4.134 79.53 0C81.81 1.849 83.66 3.80702 85.29 5.87402C86.6 7.50602 87.58 8.92002 88.12 9.79102C93.78 10.008 101.94 10.77 111.19 13.816C122.83 17.515 131.2 23.172 139.36 29.591C149.92 37.859 164.17 50.478 186.69 78.111C198.76 92.907 206.81 102.807 216.5 118.146C225.63 132.615 235.64 148.499 243.48 171.454C247.39 182.986 252.72 198.978 253.59 220.736C254.57 243.8 250.11 262.947 246.2 274.914C246.52 269.365 247.28 263.491 247.94 257.181Z" fill="#C8FF00"/>
</svg>
