<svg width="523" height="115" viewBox="0 0 523 115" fill="none" xmlns="http://www.w3.org/2000/svg">
<path opacity="0.45" d="M521.482 96.3265C520.932 96.8705 520.172 96.9795 517.672 96.8705C516.152 96.7615 513.972 96.5435 511.472 95.9995C511.582 96.7615 512.012 105.791 505.162 111.013C504.512 111.557 500.262 114.711 494.612 114.385C491.782 114.276 489.712 113.297 488.302 112.644C480.142 108.837 473.502 104.703 471.322 103.397C469.372 102.201 463.272 99.1545 451.312 93.1715C449.242 92.0835 451.962 93.4974 439.232 87.5145C436.842 86.3175 431.292 83.7065 424.442 83.2715C422.692 83.1625 420.742 83.1625 419.432 84.3595C418.132 85.6645 418.342 87.5145 418.232 90.0165C418.232 90.0165 418.232 92.6275 417.152 100.46C416.822 102.744 416.172 106.008 414.542 109.925C412.902 109.598 411.272 109.163 409.532 108.837C395.822 106.008 392.022 106.661 383.972 102.853C380.482 101.221 378.092 99.5905 373.302 98.6105C367.542 97.3055 365.472 98.5025 358.832 97.3055C353.292 96.3265 353.292 95.3475 347.302 93.9325C338.602 91.8655 337.512 93.7155 329.792 92.1925C323.372 90.8865 323.912 89.5815 311.082 84.9035C304.662 82.6185 301.072 81.3135 295.742 80.2255C288.992 78.9195 283.552 78.7025 277.792 78.4845C274.852 78.3755 274.202 78.4845 262.882 78.4845C262.232 78.4845 261.682 78.4845 261.142 78.4845C260.602 78.4845 259.942 78.4845 259.402 78.4845C248.092 78.4845 247.432 78.3755 244.502 78.4845C238.842 78.7025 233.292 78.8115 226.552 80.2255C221.212 81.3135 217.622 82.6185 211.212 84.9035C198.262 89.5815 198.912 90.8865 192.492 92.1925C184.772 93.7155 183.684 91.8655 174.98 93.9325C168.997 95.3475 168.997 96.4355 163.448 97.3055C156.812 98.3935 154.745 97.3055 148.979 98.6105C144.301 99.6985 141.799 101.221 138.318 102.853C130.267 106.661 126.46 106.008 112.752 108.837C111.011 109.163 109.271 109.598 107.748 109.925C106.116 106.008 105.463 102.744 105.137 100.46C104.049 92.6275 104.049 90.0165 104.049 90.0165C104.049 87.5145 104.158 85.6645 102.961 84.3595C101.655 83.0535 99.6967 83.0535 97.9557 83.2715C91.1027 83.8155 85.6626 86.4265 83.1606 87.5145C70.4316 93.4974 73.1517 92.0835 71.0847 93.1715C59.1177 99.1545 53.1347 102.201 51.0677 103.397C48.8917 104.703 42.2557 108.946 34.0957 112.644C32.7907 113.297 30.7237 114.168 27.8947 114.385C22.2377 114.711 18.1037 111.557 17.3417 111.013C10.5967 105.682 11.0327 96.7615 11.1407 95.9995C8.63868 96.5435 6.4627 96.7615 4.9397 96.8705C2.5467 96.9795 1.78469 96.8705 1.13269 96.3265C-0.0643115 95.3475 -0.0643242 93.6065 0.0446758 92.4095C0.0446758 89.7985 1.02367 87.8405 1.89367 86.2085C3.52567 83.1625 5.15765 81.3135 7.00665 79.2465C9.61765 76.3085 12.0117 73.2625 14.5137 70.3255C14.5137 70.3255 16.7987 67.6055 21.9117 61.5135C23.6517 59.3375 25.9367 56.4005 28.5477 52.2665C34.6397 47.2615 43.6697 43.0185 59.9877 38.0145C77.1767 32.6835 85.6627 30.0725 95.2367 29.2025C104.049 28.4405 112.099 28.8765 123.413 24.6335C130.702 21.9135 129.723 20.8255 136.251 18.4325C152.243 12.2315 158.335 18.7585 175.415 14.1895C182.922 12.1225 181.181 11.0345 197.822 5.15947C208.702 1.24347 213.492 0.264461 218.282 0.0464615C223.282 -0.171539 226.222 0.372459 235.362 1.78746C241.342 2.65746 250.262 3.96246 261.252 5.37746C272.352 3.96246 281.162 2.65746 287.142 1.78746C296.282 0.372459 299.112 -0.171539 304.222 0.0464615C309.122 0.264461 313.802 1.24347 324.672 5.15947C341.322 11.1435 339.582 12.2315 347.092 14.1895C364.172 18.7585 370.262 12.2315 386.252 18.4325C392.672 20.9345 391.802 22.0225 399.092 24.6335C410.402 28.7675 418.452 28.4405 427.262 29.2025C436.842 30.0725 445.322 32.6835 462.512 38.0145C478.832 43.0185 487.752 47.2615 493.952 52.2665C496.562 56.4005 498.852 59.4465 500.592 61.5135C505.702 67.6055 507.992 70.3255 507.992 70.3255C510.492 73.2625 512.992 76.3085 515.492 79.2465C517.232 81.3135 518.972 83.1625 520.612 86.2085C521.482 87.8405 522.462 89.9075 522.462 92.4095C522.562 93.6065 522.672 95.3475 521.482 96.3265Z" fill="#FF8C00"/>
</svg>
