<svg width="254" height="275" viewBox="0 0 254 275" fill="none" xmlns="http://www.w3.org/2000/svg">
<path opacity="0.45" d="M253.293 57.985C243.066 60.27 235.669 62.881 230.664 64.512C211.735 70.931 208.036 75.065 206.404 78.982C205.425 81.375 205.316 84.204 205.098 90.078C204.99 94.212 204.881 97.911 205.316 101.719C202.596 101.393 199.333 100.957 195.742 100.74C187.257 100.087 180.947 100.305 171.265 100.74C161.147 101.175 156.143 101.393 153.532 102.263C148.31 104.112 143.849 108.246 134.928 116.406C125.137 125.544 128.292 124.347 119.698 132.18C115.02 136.423 112.082 138.49 111.538 142.189C110.994 146.758 114.258 150.892 116.543 153.286C111.103 154.156 103.27 155.788 94.349 159.269C84.232 163.186 79.119 165.144 74.767 170.148C66.173 180.157 67.478 193.429 67.805 196.367C68.457 201.589 70.089 205.614 71.395 208.334C68.784 208.225 64.976 208.116 60.298 208.116C50.507 208.225 45.067 208.334 38.322 210.401C32.556 212.25 28.314 214.752 25.811 216.384C23.092 218.016 19.066 220.518 14.932 224.87C12.974 226.937 8.84003 231.289 6.44703 237.163C4.05303 242.929 4.38002 247.934 5.35902 257.507C6.01102 263.926 6.77298 269.801 7.42598 274.805C3.61798 262.838 -0.842024 243.691 0.136976 220.627C1.00698 199.087 6.33798 182.986 10.254 171.454C18.087 148.499 27.987 132.615 37.234 118.146C46.917 102.916 54.967 93.016 67.043 78.111C89.563 50.478 103.814 37.859 114.367 29.591C122.526 23.281 130.903 17.624 142.544 13.816C151.791 10.77 159.95 10.008 165.607 9.79102C166.26 8.81202 167.131 7.39702 168.436 5.87402C170.177 3.69802 172.026 1.849 174.202 0C171.482 4.134 169.306 7.18001 167.566 9.24701C162.453 15.339 160.168 18.059 160.168 18.059C157.666 20.996 155.164 24.042 152.661 26.98C150.921 29.047 149.18 30.896 147.548 33.942C146.678 35.574 145.699 37.641 145.699 40.143C145.699 41.34 145.699 43.081 146.787 44.06C147.331 44.604 148.092 44.713 150.594 44.604C152.117 44.495 154.293 44.277 156.795 43.733C156.795 44.495 156.251 53.525 162.996 58.747C163.649 59.29 167.892 62.445 173.549 62.119C176.378 62.01 178.445 61.031 179.75 60.378C187.91 56.571 194.546 52.437 196.722 51.131C198.68 49.934 204.663 46.888 216.739 40.905C218.806 39.817 216.086 41.231 228.815 35.248C231.208 34.051 236.757 31.44 243.61 31.005C245.351 30.896 247.309 30.896 248.615 32.093C249.92 33.398 249.703 35.248 249.703 37.75C249.703 37.75 249.703 40.361 250.791 48.194C251.008 50.805 251.661 54.069 253.293 57.985Z" fill="#FF26F3"/>
</svg>
