<svg width="404" height="197" viewBox="0 0 404 197" fill="none" xmlns="http://www.w3.org/2000/svg">
<path opacity="0.45" d="M403.713 75.223C403.493 77.616 402.953 80.118 402.193 82.729C401.103 86.211 398.163 95.349 389.353 102.312C385.213 105.575 381.083 107.316 378.253 108.295C375.973 103.726 371.943 96.872 365.093 90.453C353.123 79.248 339.963 76.202 333.543 74.679C328.213 73.482 318.203 71.306 305.363 73.808C290.893 76.637 281.433 83.817 278.493 86.102C267.183 95.24 262.393 105.684 261.413 107.86C258.043 115.584 257.063 122.547 256.843 127.116C256.953 129.292 256.953 132.555 256.083 136.363C254.883 141.585 252.713 144.958 249.333 150.506C239.433 166.607 240.963 165.084 239.333 167.042C237.373 169.327 237.263 169.109 222.033 182.055C215.723 187.386 214.093 188.909 210.503 191.411C207.013 193.913 204.193 195.654 202.013 196.96C199.833 195.763 197.113 194.022 193.523 191.411C190.043 188.909 188.303 187.386 181.993 182.055C166.763 169.109 166.543 169.327 164.693 167.042C163.063 165.084 164.593 166.716 154.693 150.506C151.313 144.958 149.143 141.585 147.943 136.363C147.073 132.555 147.073 129.292 147.183 127.116C146.963 122.547 145.983 115.584 142.613 107.86C141.633 105.793 136.843 95.24 125.533 86.102C122.596 83.708 113.131 76.637 98.6617 73.808C85.9327 71.306 75.9247 73.482 70.4847 74.679C64.0657 76.093 50.9028 79.248 38.9358 90.453C31.9728 96.872 27.9478 103.726 25.7718 108.295C22.9428 107.316 18.9177 105.575 14.6747 102.312C5.86275 95.349 2.92577 86.211 1.83777 82.729C1.07677 80.118 0.532761 77.616 0.314761 75.223C-0.120239 71.415 -0.0112564 67.607 0.0967436 63.582C0.314744 57.816 0.314774 54.879 1.40277 52.485C3.03477 48.569 6.84178 44.435 25.6628 38.016C30.6678 36.276 38.1738 33.773 48.2918 31.489C49.9238 31.163 51.5548 30.727 53.2958 30.401C67.0038 27.572 70.8108 28.225 78.8618 24.417C82.3428 22.786 84.8448 21.154 89.5228 20.175C95.2888 18.869 97.3558 20.066 103.993 18.869C109.541 17.89 109.541 16.911 115.524 15.497C124.228 13.43 125.316 15.279 133.043 13.756C139.463 12.45 138.913 11.145 151.753 6.46701C158.173 4.18201 161.763 2.877 167.093 1.789C173.833 0.483997 179.273 0.266 185.043 0.048C187.983 -0.06 188.633 0.048 199.943 0.048C200.603 0.048 201.143 0.048 201.683 0.048C202.233 0.048 202.883 0.048 203.423 0.048C214.743 0.048 215.393 -0.06 218.333 0.048C223.993 0.266 229.533 0.374997 236.283 1.789C241.613 2.877 245.203 4.18201 251.623 6.46701C264.563 11.145 264.023 12.45 270.333 13.756C278.053 15.279 279.143 13.43 287.853 15.497C293.833 16.911 293.833 17.999 299.383 18.869C306.013 19.957 308.083 18.869 313.853 20.175C318.523 21.263 321.033 22.786 324.513 24.417C332.563 28.225 336.373 27.572 350.073 30.401C351.813 30.727 353.563 31.163 355.083 31.489C365.303 33.773 372.703 36.384 377.713 38.016C396.643 44.435 400.343 48.569 401.973 52.485C402.953 54.879 403.063 57.707 403.273 63.582C404.033 67.607 404.143 71.306 403.713 75.223Z" fill="#3400FF"/>
</svg>
