<svg width="403" height="314" viewBox="0 0 403 314" fill="none" xmlns="http://www.w3.org/2000/svg">
<path opacity="0.45" d="M401.55 158.573C400.89 164.991 400.13 170.866 399.48 175.87C397.52 181.854 395.78 186.097 394.91 188.055C391.86 195.017 380.98 218.299 352.26 243.429C314.19 276.61 273.83 287.816 241.41 296.193C232.27 298.586 205.72 305.114 126.52 309.792C94.54 311.75 51.46 313.491 0 313.164V124.303C2.17 123.107 4.99998 121.366 8.47998 118.755C11.97 116.253 13.71 114.73 20.02 109.399C35.25 96.4532 35.4599 96.6712 37.3099 94.3862C38.9499 92.4282 37.4199 94.0602 47.3199 77.8502C50.6999 72.3012 52.8699 68.9292 54.0699 63.7072C54.9399 59.8992 54.94 56.6362 54.83 54.4602C55.05 49.8912 56.03 42.9282 59.4 35.2042C60.38 33.1372 65.16 22.5842 76.48 13.4462C79.42 11.0522 88.88 3.98123 103.35 1.15223C116.08 -1.34977 126.09 0.826202 131.53 2.0232C137.95 3.4372 151.11 6.59219 163.08 17.7972C170.04 24.2162 174.06 31.0702 176.24 35.6392C179.07 34.6602 183.2 32.9192 187.34 29.6562C196.15 22.6932 199.09 13.5542 200.17 10.0732C200.94 7.46219 201.48 4.96021 201.7 2.56721C204.42 2.24021 207.68 1.8052 211.27 1.5882C219.76 0.935205 226.07 1.1522 235.75 1.5882C245.87 2.0232 250.87 2.24022 253.48 3.11122C258.7 4.96022 263.16 9.09418 272.08 17.2532C281.98 26.3922 278.72 25.1952 287.32 33.0282C292.1 37.2712 294.93 39.3382 295.37 43.0372C296.02 47.6062 292.76 51.7402 290.36 54.1332C295.8 55.0042 303.63 56.6362 312.56 60.1172C322.78 64.0332 327.79 65.9922 332.14 70.9962C340.73 81.0052 339.43 94.2772 339.1 97.2152C338.45 102.437 336.82 106.462 335.51 109.182C338.12 109.073 341.93 108.964 346.61 108.964C356.4 109.073 361.84 109.182 368.58 111.249C374.46 113.098 378.59 115.6 381.2 117.232C383.92 118.864 387.95 121.366 392.08 125.718C394.04 127.785 398.17 132.136 400.57 138.011C402.74 143.995 402.52 148.89 401.55 158.573Z" fill="#FF0000"/>
</svg>
